<?xml version="1.0" encoding="utf-8" ?>
<svg baseProfile="tiny" height="100" version="1.2" width="100" xmlns="http://www.w3.org/2000/svg" xmlns:ev="http://www.w3.org/2001/xml-events" xmlns:xlink="http://www.w3.org/1999/xlink">
  <defs/>
  <path d="M5.0,4.0 L5.0,8.0" fill="none" stroke="black" stroke-width="0.2"/>
  <path d="M5.0,5.0 L4.0,4.0 L3.0,4.0 L2.0,5.0 L2.0,7.0 L3.0,8.0 L4.0,8.0 L5.0,7.0" fill="none" stroke="black" stroke-width="0.2"/>
  <path d="M6.0,2.0 L6.0,8.0" fill="none" stroke="black" stroke-width="0.2"/>
  <path d="M6.0,5.0 L7.0,4.0 L8.0,4.0 L9.0,5.0 L9.0,7.0 L8.0,8.0 L7.0,8.0 L6.0,7.0" fill="none" stroke="black" stroke-width="0.2"/>
  <path d="M13.0,5.0 L12.0,4.0 L11.0,4.0 L10.0,5.0 L10.0,7.0 L11.0,8.0 L12.0,8.0 L13.0,7.0" fill="none" stroke="black" stroke-width="0.2"/>
  <path d="M17.0,2.0 L17.0,8.0" fill="none" stroke="black" stroke-width="0.2"/>
  <path d="M17.0,5.0 L16.0,4.0 L15.0,4.0 L14.0,5.0 L14.0,7.0 L15.0,8.0 L16.0,8.0 L17.0,7.0" fill="none" stroke="black" stroke-width="0.2"/>
  <path d="M19.0,6.0 L20.0,6.0 L21.0,5.0 L20.0,4.0 L19.0,4.0 L18.0,5.0 L18.0,7.0 L19.0,8.0 L20.0,8.0 L21.0,7.0" fill="none" stroke="black" stroke-width="0.2"/>
  <path d="M22.0,8.0 L22.0,3.0 L23.0,2.0" fill="none" stroke="black" stroke-width="0.2"/>
  <path d="M22.0,4.0 L23.0,4.0" fill="none" stroke="black" stroke-width="0.2"/>
  <path d="M27.0,5.0 L26.0,4.0 L25.0,4.0 L24.0,5.0 L24.0,7.0 L25.0,8.0 L26.0,8.0 L27.0,7.0" fill="none" stroke="black" stroke-width="0.2"/>
  <path d="M27.0,4.0 L27.0,9.0 L26.0,10.0 L25.0,10.0" fill="none" stroke="black" stroke-width="0.2"/>
  <path d="M28.0,2.0 L28.0,8.0" fill="none" stroke="black" stroke-width="0.2"/>
  <path d="M28.0,5.0 L29.0,4.0 L30.0,4.0 L31.0,5.0 L31.0,8.0" fill="none" stroke="black" stroke-width="0.2"/>
  <path d="M32.0,4.0 L32.0,8.0" fill="none" stroke="black" stroke-width="0.2"/>
  <path d="M32.0,2.0 L32.0,3.0" fill="none" stroke="black" stroke-width="0.2"/>
  <path d="M34.0,4.0 L34.0,9.0 L33.0,10.0" fill="none" stroke="black" stroke-width="0.2"/>
  <path d="M34.0,2.0 L34.0,3.0" fill="none" stroke="black" stroke-width="0.2"/>
  <path d="M35.0,2.0 L35.0,8.0" fill="none" stroke="black" stroke-width="0.2"/>
  <path d="M35.0,6.0 L37.0,4.0" fill="none" stroke="black" stroke-width="0.2"/>
  <path d="M36.0,5.0 L37.0,8.0" fill="none" stroke="black" stroke-width="0.2"/>
  <path d="M38.0,2.0 L38.0,8.0" fill="none" stroke="black" stroke-width="0.2"/>
  <path d="M39.0,4.0 L39.0,8.0" fill="none" stroke="black" stroke-width="0.2"/>
  <path d="M39.0,5.0 L40.0,4.0 L41.0,4.0 L42.0,5.0 L42.0,8.0" fill="none" stroke="black" stroke-width="0.2"/>
  <path d="M42.0,5.0 L43.0,4.0 L44.0,4.0 L45.0,5.0 L45.0,8.0" fill="none" stroke="black" stroke-width="0.2"/>
  <path d="M46.0,4.0 L46.0,8.0" fill="none" stroke="black" stroke-width="0.2"/>
  <path d="M46.0,5.0 L47.0,4.0 L48.0,4.0 L49.0,5.0 L49.0,8.0" fill="none" stroke="black" stroke-width="0.2"/>
  <path d="M53.0,5.0 L52.0,4.0 L51.0,4.0 L50.0,5.0 L50.0,7.0 L51.0,8.0 L52.0,8.0 L53.0,7.0 L53.0,5.0" fill="none" stroke="black" stroke-width="0.2"/>
  <path d="M54.0,4.0 L54.0,10.0" fill="none" stroke="black" stroke-width="0.2"/>
  <path d="M54.0,5.0 L55.0,4.0 L56.0,4.0 L57.0,5.0 L57.0,7.0 L56.0,8.0 L55.0,8.0 L54.0,7.0" fill="none" stroke="black" stroke-width="0.2"/>
  <path d="M61.0,4.0 L61.0,10.0" fill="none" stroke="black" stroke-width="0.2"/>
  <path d="M61.0,5.0 L60.0,4.0 L59.0,4.0 L58.0,5.0 L58.0,7.0 L59.0,8.0 L60.0,8.0 L61.0,7.0" fill="none" stroke="black" stroke-width="0.2"/>
  <path d="M62.0,4.0 L62.0,8.0" fill="none" stroke="black" stroke-width="0.2"/>
  <path d="M62.0,5.0 L63.0,4.0 L64.0,4.0" fill="none" stroke="black" stroke-width="0.2"/>
  <path d="M5.0,15.0 L4.0,14.0 L3.0,14.0 L2.0,15.0 L3.0,16.0 L4.0,16.0 L5.0,17.0 L4.0,18.0 L3.0,18.0 L2.0,17.0" fill="none" stroke="black" stroke-width="0.2"/>
  <path d="M6.0,12.0 L6.0,18.0" fill="none" stroke="black" stroke-width="0.2"/>
  <path d="M6.0,14.0 L7.0,14.0" fill="none" stroke="black" stroke-width="0.2"/>
  <path d="M8.0,14.0 L8.0,17.0 L9.0,18.0 L10.0,18.0 L11.0,17.0" fill="none" stroke="black" stroke-width="0.2"/>
  <path d="M11.0,14.0 L11.0,18.0" fill="none" stroke="black" stroke-width="0.2"/>
  <path d="M12.0,14.0 L13.5,18.0 L15.0,14.0" fill="none" stroke="black" stroke-width="0.2"/>
  <path d="M16.0,14.0 L17.0,18.0 L18.0,14.0 L19.0,18.0 L20.0,14.0" fill="none" stroke="black" stroke-width="0.2"/>
  <path d="M21.0,14.0 L24.0,18.0" fill="none" stroke="black" stroke-width="0.2"/>
  <path d="M24.0,14.0 L21.0,18.0" fill="none" stroke="black" stroke-width="0.2"/>
  <path d="M25.0,14.0 L26.5,18.0" fill="none" stroke="black" stroke-width="0.2"/>
  <path d="M28.0,14.0 L26.5,18.0 L26.0,19.0 L25.0,20.0" fill="none" stroke="black" stroke-width="0.2"/>
  <path d="M29.0,14.0 L32.0,14.0 L29.0,18.0 L32.0,18.0" fill="none" stroke="black" stroke-width="0.2"/>
  <path d="M33.0,15.0 L34.0,14.0 L34.0,18.0" fill="none" stroke="black" stroke-width="0.2"/>
  <path d="M35.0,15.0 L36.0,14.0 L37.0,14.0 L38.0,15.0 L35.0,18.0 L38.0,18.0" fill="none" stroke="black" stroke-width="0.2"/>
  <path d="M39.0,14.0 L42.0,14.0 L40.0,16.0 L42.0,17.0 L42.0,19.0 L41.0,20.0 L40.0,20.0 L39.0,19.0" fill="none" stroke="black" stroke-width="0.2"/>
  <path d="M43.0,14.0 L43.0,16.0 L44.0,17.0 L46.0,17.0" fill="none" stroke="black" stroke-width="0.2"/>
  <path d="M46.0,14.0 L46.0,20.0" fill="none" stroke="black" stroke-width="0.2"/>
  <path d="M50.0,14.0 L47.0,14.0 L47.0,16.0 L49.0,16.0 L50.0,17.0 L50.0,19.0 L49.0,20.0 L47.0,20.0" fill="none" stroke="black" stroke-width="0.2"/>
  <path d="M54.0,13.0 L53.0,12.0 L52.0,12.0 L51.0,13.0 L51.0,17.0 L52.0,18.0 L53.0,18.0 L54.0,17.0 L54.0,15.0 L53.0,14.0 L52.0,14.0 L51.0,15.0" fill="none" stroke="black" stroke-width="0.2"/>
  <path d="M55.0,14.0 L58.0,14.0 L55.0,20.0" fill="none" stroke="black" stroke-width="0.2"/>
  <path d="M60.0,15.0 L59.0,14.0 L59.0,13.0 L60.0,12.0 L61.0,12.0 L62.0,13.0 L62.0,14.0 L61.0,15.0 L60.0,15.0 L59.0,16.0 L59.0,17.0 L60.0,18.0 L61.0,18.0 L62.0,17.0 L62.0,16.0 L61.0,15.0" fill="none" stroke="black" stroke-width="0.2"/>
  <path d="M66.0,17.0 L65.0,18.0 L64.0,18.0 L63.0,17.0 L63.0,15.0 L64.0,14.0 L65.0,14.0 L66.0,15.0 L66.0,19.0 L65.0,20.0 L64.0,20.0 L63.0,19.0" fill="none" stroke="black" stroke-width="0.2"/>
  <path d="M70.0,15.0 L69.0,14.0 L68.0,14.0 L67.0,15.0 L67.0,17.0 L68.0,18.0 L69.0,18.0 L70.0,17.0 L70.0,15.0" fill="none" stroke="black" stroke-width="0.2"/>
  <path d="M69.5,14.5 L67.5,17.5" fill="none" stroke="black" stroke-width="0.2"/>
  <path d="M3.0,25.0 L3.0,26.0" fill="none" stroke="black" stroke-width="0.2"/>
  <path d="M2.0,25.75 L3.0,26.0 L4.0,25.75" fill="none" stroke="black" stroke-width="0.2"/>
  <path d="M2.25,27.0 L3.0,26.0 L3.75,27.0" fill="none" stroke="black" stroke-width="0.2"/>
  <path d="M5.0,26.0 L7.0,26.0" fill="none" stroke="black" stroke-width="0.2"/>
  <path d="M6.0,25.0 L6.0,27.0" fill="none" stroke="black" stroke-width="0.2"/>
  <path d="M9.0,23.0 L8.0,24.0 L8.0,28.0 L9.0,29.0" fill="none" stroke="black" stroke-width="0.2"/>
  <path d="M10.0,23.0 L11.0,24.0 L11.0,28.0 L10.0,29.0" fill="none" stroke="black" stroke-width="0.2"/>
  <path d="M14.0,23.0 L12.0,29.0" fill="none" stroke="black" stroke-width="0.2"/>
  <path d="M15.0,23.0 L17.0,29.0" fill="none" stroke="black" stroke-width="0.2"/>
  <path d="M19.0,23.0 L18.0,23.0 L18.0,29.0 L19.0,29.0" fill="none" stroke="black" stroke-width="0.2"/>
  <path d="M20.0,23.0 L21.0,23.0 L21.0,29.0 L20.0,29.0" fill="none" stroke="black" stroke-width="0.2"/>
  <path d="M22.0,26.0 L23.5,24.0 L25.0,26.0" fill="none" stroke="black" stroke-width="0.2"/>
  <path d="M26.0,25.5 L28.0,25.5" fill="none" stroke="black" stroke-width="0.2"/>
  <path d="M26.0,26.5 L28.0,26.5" fill="none" stroke="black" stroke-width="0.2"/>
  <path d="M29.0,26.0 L31.0,26.0" fill="none" stroke="black" stroke-width="0.2"/>
  <path d="M32.0,23.0 L34.0,29.0" fill="none" stroke="black" stroke-width="0.2"/>
  <path d="M35.0,22.0 L35.0,26.0" fill="none" stroke="black" stroke-width="0.2"/>
  <path d="M35.0,27.0 L35.0,28.0" fill="none" stroke="black" stroke-width="0.2"/>
  <path d="M37.0,28.0 L36.0,28.0" fill="none" stroke="black" stroke-width="0.2"/>
  <path d="M39.0,28.0 L38.0,29.0" fill="none" stroke="black" stroke-width="0.2"/>
  <path d="M42.0,25.0 L40.0,26.0 L42.0,27.0" fill="none" stroke="black" stroke-width="0.2"/>
  <path d="M43.0,25.0 L45.0,26.0 L43.0,27.0" fill="none" stroke="black" stroke-width="0.2"/>
  <path d="M46.0,23.0 L46.0,24.5" fill="none" stroke="black" stroke-width="0.2"/>
  <path d="M48.0,24.0 L47.0,28.0" fill="none" stroke="black" stroke-width="0.2"/>
  <path d="M49.0,24.0 L48.0,28.0" fill="none" stroke="black" stroke-width="0.2"/>
  <path d="M47.25,25.5 L49.0,25.5" fill="none" stroke="black" stroke-width="0.2"/>
  <path d="M47.0,26.5 L48.75,26.5" fill="none" stroke="black" stroke-width="0.2"/>
  <path d="M50.0,23.0 L50.0,29.0" fill="none" stroke="black" stroke-width="0.2"/>
  <path d="M51.0,28.0 L53.0,28.0" fill="none" stroke="black" stroke-width="0.2"/>
  <path d="M57.0,24.0 L54.0,28.0" fill="none" stroke="black" stroke-width="0.2"/>
  <path d="M54.5,24.5 L55.0,25.0 L54.5,25.5 L54.0,25.0 L54.5,24.5" fill="none" stroke="black" stroke-width="0.2"/>
  <path d="M56.5,26.5 L57.0,27.0 L56.5,27.5 L56.0,27.0 L56.5,26.5" fill="none" stroke="black" stroke-width="0.2"/>
  <path d="M58.0,23.0 L59.0,22.0 L60.0,22.0 L61.0,23.0 L61.0,24.0 L60.0,25.0 L59.0,25.0 L59.0,26.0" fill="none" stroke="black" stroke-width="0.2"/>
  <path d="M59.0,27.0 L59.0,28.0" fill="none" stroke="black" stroke-width="0.2"/>
  <path d="M62.0,26.5 L62.5,25.5 L63.0,25.5 L64.0,26.5 L64.5,26.5 L65.0,25.5" fill="none" stroke="black" stroke-width="0.2"/>
  <path d="M66.0,23.0 L66.0,24.5" fill="none" stroke="black" stroke-width="0.2"/>
  <path d="M67.0,23.0 L67.0,24.5" fill="none" stroke="black" stroke-width="0.2"/>
  <path d="M2.0,32.0 L2.0,38.0" fill="none" stroke="black" stroke-width="0.2"/>
  <path d="M2.0,34.0 L3.0,34.0" fill="none" stroke="black" stroke-width="0.2"/>
  <path d="M4.0,32.0 L4.0,38.0" fill="none" stroke="black" stroke-width="0.2"/>
  <path d="M4.0,35.0 L5.0,34.0 L6.0,34.0 L7.0,35.0 L7.0,38.0" fill="none" stroke="black" stroke-width="0.2"/>
  <path d="M9.0,36.0 L10.0,36.0 L11.0,35.0 L10.0,34.0 L9.0,34.0 L8.0,35.0 L8.0,37.0 L9.0,38.0 L10.0,38.0 L11.0,37.0" fill="none" stroke="black" stroke-width="0.2"/>
  <path d="M17.0,34.0 L17.0,40.0" fill="none" stroke="black" stroke-width="0.2"/>
  <path d="M17.0,35.0 L16.0,34.0 L15.0,34.0 L14.0,35.0 L14.0,37.0 L15.0,38.0 L16.0,38.0 L17.0,37.0" fill="none" stroke="black" stroke-width="0.2"/>
  <path d="M18.0,34.0 L18.0,37.0 L19.0,38.0 L20.0,38.0 L21.0,37.0" fill="none" stroke="black" stroke-width="0.2"/>
  <path d="M21.0,34.0 L21.0,38.0" fill="none" stroke="black" stroke-width="0.2"/>
  <path d="M22.0,34.0 L22.0,38.0" fill="none" stroke="black" stroke-width="0.2"/>
  <path d="M22.0,32.0 L22.0,33.0" fill="none" stroke="black" stroke-width="0.2"/>
  <path d="M26.0,35.0 L25.0,34.0 L24.0,34.0 L23.0,35.0 L23.0,37.0 L24.0,38.0 L25.0,38.0 L26.0,37.0" fill="none" stroke="black" stroke-width="0.2"/>
  <path d="M27.0,32.0 L27.0,38.0" fill="none" stroke="black" stroke-width="0.2"/>
  <path d="M27.0,36.0 L29.0,34.0" fill="none" stroke="black" stroke-width="0.2"/>
  <path d="M28.0,35.0 L29.0,38.0" fill="none" stroke="black" stroke-width="0.2"/>
  <path d="M33.0,33.0 L32.0,34.0 L32.0,38.0 L33.0,39.0" fill="none" stroke="black" stroke-width="0.2"/>
  <path d="M34.0,32.0 L34.0,38.0" fill="none" stroke="black" stroke-width="0.2"/>
  <path d="M34.0,35.0 L35.0,34.0 L36.0,34.0 L37.0,35.0 L37.0,37.0 L36.0,38.0 L35.0,38.0 L34.0,37.0" fill="none" stroke="black" stroke-width="0.2"/>
  <path d="M38.0,34.0 L38.0,38.0" fill="none" stroke="black" stroke-width="0.2"/>
  <path d="M38.0,35.0 L39.0,34.0 L40.0,34.0" fill="none" stroke="black" stroke-width="0.2"/>
  <path d="M44.0,35.0 L43.0,34.0 L42.0,34.0 L41.0,35.0 L41.0,37.0 L42.0,38.0 L43.0,38.0 L44.0,37.0 L44.0,35.0" fill="none" stroke="black" stroke-width="0.2"/>
  <path d="M45.0,34.0 L46.0,38.0 L47.0,34.0 L48.0,38.0 L49.0,34.0" fill="none" stroke="black" stroke-width="0.2"/>
  <path d="M50.0,34.0 L50.0,38.0" fill="none" stroke="black" stroke-width="0.2"/>
  <path d="M50.0,35.0 L51.0,34.0 L52.0,34.0 L53.0,35.0 L53.0,38.0" fill="none" stroke="black" stroke-width="0.2"/>
  <path d="M54.0,33.0 L55.0,34.0 L55.0,38.0 L54.0,39.0" fill="none" stroke="black" stroke-width="0.2"/>
  <path d="M58.0,38.0 L58.0,33.0 L59.0,32.0" fill="none" stroke="black" stroke-width="0.2"/>
  <path d="M58.0,34.0 L59.0,34.0" fill="none" stroke="black" stroke-width="0.2"/>
  <path d="M63.0,35.0 L62.0,34.0 L61.0,34.0 L60.0,35.0 L60.0,37.0 L61.0,38.0 L62.0,38.0 L63.0,37.0 L63.0,35.0" fill="none" stroke="black" stroke-width="0.2"/>
  <path d="M64.0,34.0 L67.0,38.0" fill="none" stroke="black" stroke-width="0.2"/>
  <path d="M67.0,34.0 L64.0,38.0" fill="none" stroke="black" stroke-width="0.2"/>
  <path d="M3.0,44.0 L3.0,49.0 L2.0,50.0" fill="none" stroke="black" stroke-width="0.2"/>
  <path d="M3.0,42.0 L3.0,43.0" fill="none" stroke="black" stroke-width="0.2"/>
  <path d="M4.0,44.0 L4.0,47.0 L5.0,48.0 L6.0,48.0 L7.0,47.0" fill="none" stroke="black" stroke-width="0.2"/>
  <path d="M7.0,44.0 L7.0,48.0" fill="none" stroke="black" stroke-width="0.2"/>
  <path d="M8.0,44.0 L8.0,48.0" fill="none" stroke="black" stroke-width="0.2"/>
  <path d="M8.0,45.0 L9.0,44.0 L10.0,44.0 L11.0,45.0 L11.0,48.0" fill="none" stroke="black" stroke-width="0.2"/>
  <path d="M11.0,45.0 L12.0,44.0 L13.0,44.0 L14.0,45.0 L14.0,48.0" fill="none" stroke="black" stroke-width="0.2"/>
  <path d="M15.0,44.0 L15.0,50.0" fill="none" stroke="black" stroke-width="0.2"/>
  <path d="M15.0,45.0 L16.0,44.0 L17.0,44.0 L18.0,45.0 L18.0,47.0 L17.0,48.0 L16.0,48.0 L15.0,47.0" fill="none" stroke="black" stroke-width="0.2"/>
  <path d="M22.0,45.0 L21.0,44.0 L20.0,44.0 L19.0,45.0 L20.0,46.0 L21.0,46.0 L22.0,47.0 L21.0,48.0 L20.0,48.0 L19.0,47.0" fill="none" stroke="black" stroke-width="0.2"/>
  <path d="M28.0,45.0 L27.0,44.0 L26.0,44.0 L25.0,45.0 L25.0,47.0 L26.0,48.0 L27.0,48.0 L28.0,47.0 L28.0,45.0" fill="none" stroke="black" stroke-width="0.2"/>
  <path d="M29.0,44.0 L30.5,48.0 L32.0,44.0" fill="none" stroke="black" stroke-width="0.2"/>
  <path d="M34.0,46.0 L35.0,46.0 L36.0,45.0 L35.0,44.0 L34.0,44.0 L33.0,45.0 L33.0,47.0 L34.0,48.0 L35.0,48.0 L36.0,47.0" fill="none" stroke="black" stroke-width="0.2"/>
  <path d="M37.0,44.0 L37.0,48.0" fill="none" stroke="black" stroke-width="0.2"/>
  <path d="M37.0,45.0 L38.0,44.0 L39.0,44.0" fill="none" stroke="black" stroke-width="0.2"/>
  <path d="M42.0,42.0 L42.0,48.0" fill="none" stroke="black" stroke-width="0.2"/>
  <path d="M42.0,44.0 L43.0,44.0" fill="none" stroke="black" stroke-width="0.2"/>
  <path d="M44.0,42.0 L44.0,48.0" fill="none" stroke="black" stroke-width="0.2"/>
  <path d="M44.0,45.0 L45.0,44.0 L46.0,44.0 L47.0,45.0 L47.0,48.0" fill="none" stroke="black" stroke-width="0.2"/>
  <path d="M49.0,46.0 L50.0,46.0 L51.0,45.0 L50.0,44.0 L49.0,44.0 L48.0,45.0 L48.0,47.0 L49.0,48.0 L50.0,48.0 L51.0,47.0" fill="none" stroke="black" stroke-width="0.2"/>
  <path d="M54.0,42.0 L54.0,48.0" fill="none" stroke="black" stroke-width="0.2"/>
  <path d="M58.0,44.0 L58.0,48.0" fill="none" stroke="black" stroke-width="0.2"/>
  <path d="M58.0,45.0 L57.0,44.0 L56.0,44.0 L55.0,45.0 L55.0,47.0 L56.0,48.0 L57.0,48.0 L58.0,47.0" fill="none" stroke="black" stroke-width="0.2"/>
  <path d="M59.0,44.0 L62.0,44.0 L59.0,48.0 L62.0,48.0" fill="none" stroke="black" stroke-width="0.2"/>
  <path d="M63.0,44.0 L64.5,48.0" fill="none" stroke="black" stroke-width="0.2"/>
  <path d="M66.0,44.0 L64.5,48.0 L64.0,49.0 L63.0,50.0" fill="none" stroke="black" stroke-width="0.2"/>
  <path d="M72.0,42.0 L72.0,48.0" fill="none" stroke="black" stroke-width="0.2"/>
  <path d="M72.0,45.0 L71.0,44.0 L70.0,44.0 L69.0,45.0 L69.0,47.0 L70.0,48.0 L71.0,48.0 L72.0,47.0" fill="none" stroke="black" stroke-width="0.2"/>
  <path d="M76.0,45.0 L75.0,44.0 L74.0,44.0 L73.0,45.0 L73.0,47.0 L74.0,48.0 L75.0,48.0 L76.0,47.0 L76.0,45.0" fill="none" stroke="black" stroke-width="0.2"/>
  <path d="M80.0,45.0 L79.0,44.0 L78.0,44.0 L77.0,45.0 L77.0,47.0 L78.0,48.0 L79.0,48.0 L80.0,47.0" fill="none" stroke="black" stroke-width="0.2"/>
  <path d="M80.0,44.0 L80.0,49.0 L79.0,50.0 L78.0,50.0" fill="none" stroke="black" stroke-width="0.2"/>
  <path d="M81.0,43.0 L83.0,49.0" fill="none" stroke="black" stroke-width="0.2"/>
  <path d="M84.0,42.0 L84.0,46.0" fill="none" stroke="black" stroke-width="0.2"/>
  <path d="M84.0,47.0 L84.0,48.0" fill="none" stroke="black" stroke-width="0.2"/>
</svg>
