<?xml version="1.0" encoding="utf-8" ?>
<svg baseProfile="tiny" height="100" version="1.2" width="100" xmlns="http://www.w3.org/2000/svg" xmlns:ev="http://www.w3.org/2001/xml-events" xmlns:xlink="http://www.w3.org/1999/xlink">
  <defs/>
  <path d="M5.0,4.0 L5.0,8.0" fill="none" stroke="black" stroke-width="0.2"/>
  <path d="M5.0,5.333333333333334 L4.833333333333334,4.666666666666666 L4.333333333333334,4.166666666666666 L3.833333333333333,4.0 L3.166666666666667,4.0 L2.6666666666666665,4.166666666666666 L2.1666666666666665,4.666666666666666 L2.0,5.333333333333334 L2.0,6.666666666666667 L2.1666666666666665,7.333333333333333 L2.6666666666666665,7.833333333333333 L3.166666666666667,8.0 L3.833333333333333,8.0 L4.333333333333334,7.833333333333333 L4.833333333333334,7.333333333333333 L5.0,6.666666666666667" fill="none" stroke="black" stroke-width="0.2"/>
  <path d="M6.0,2.0 L6.0,8.0" fill="none" stroke="black" stroke-width="0.2"/>
  <path d="M6.0,5.333333333333334 L6.166666666666667,4.666666666666666 L6.666666666666667,4.166666666666666 L7.166666666666667,4.0 L7.833333333333333,4.0 L8.333333333333334,4.166666666666666 L8.833333333333334,4.666666666666666 L9.0,5.333333333333334 L9.0,6.666666666666667 L8.833333333333334,7.333333333333333 L8.333333333333334,7.833333333333333 L7.833333333333333,8.0 L7.166666666666667,8.0 L6.666666666666667,7.833333333333333 L6.166666666666667,7.333333333333333 L6.0,6.666666666666667" fill="none" stroke="black" stroke-width="0.2"/>
  <path d="M13.0,5.333333333333334 L12.833333333333334,4.666666666666666 L12.333333333333334,4.166666666666666 L11.833333333333334,4.0 L11.166666666666666,4.0 L10.666666666666666,4.166666666666666 L10.166666666666666,4.666666666666666 L10.0,5.333333333333334 L10.0,6.666666666666667 L10.166666666666666,7.333333333333333 L10.666666666666666,7.833333333333333 L11.166666666666666,8.0 L11.833333333333334,8.0 L12.333333333333334,7.833333333333333 L12.833333333333334,7.333333333333333 L13.0,6.666666666666667" fill="none" stroke="black" stroke-width="0.2"/>
  <path d="M17.0,2.0 L17.0,8.0" fill="none" stroke="black" stroke-width="0.2"/>
  <path d="M17.0,5.333333333333334 L16.833333333333332,4.666666666666666 L16.333333333333332,4.166666666666666 L15.833333333333334,4.0 L15.166666666666666,4.0 L14.666666666666666,4.166666666666666 L14.166666666666666,4.666666666666666 L14.0,5.333333333333334 L14.0,6.666666666666667 L14.166666666666666,7.333333333333333 L14.666666666666666,7.833333333333333 L15.166666666666666,8.0 L15.833333333333334,8.0 L16.333333333333332,7.833333333333333 L16.833333333333332,7.333333333333333 L17.0,6.666666666666667" fill="none" stroke="black" stroke-width="0.2"/>
  <path d="M18.0,5.666666666666666 L21.0,5.666666666666666 L21.0,5.333333333333334 L20.833333333333332,4.666666666666666 L20.333333333333332,4.166666666666666 L19.833333333333332,4.0 L19.166666666666668,4.0 L18.666666666666668,4.166666666666666 L18.166666666666668,4.666666666666666 L18.0,5.333333333333334 L18.0,6.666666666666667 L18.166666666666668,7.333333333333333 L18.666666666666668,7.833333333333333 L19.166666666666668,8.0 L19.833333333333332,8.0 L20.333333333333332,7.833333333333333 L20.833333333333332,7.333333333333333 L21.0,6.666666666666667" fill="none" stroke="black" stroke-width="0.2"/>
  <path d="M22.0,8.0 L22.0,3.0 L22.333333333333332,2.3333333333333335 L23.0,2.0" fill="none" stroke="black" stroke-width="0.2"/>
  <path d="M22.0,4.0 L23.0,4.0" fill="none" stroke="black" stroke-width="0.2"/>
  <path d="M27.0,5.333333333333334 L26.833333333333332,4.666666666666666 L26.333333333333332,4.166666666666666 L25.833333333333332,4.0 L25.166666666666668,4.0 L24.666666666666668,4.166666666666666 L24.166666666666668,4.666666666666666 L24.0,5.333333333333334 L24.0,6.666666666666667 L24.166666666666668,7.333333333333333 L24.666666666666668,7.833333333333333 L25.166666666666668,8.0 L25.833333333333332,8.0 L26.333333333333332,7.833333333333333 L26.833333333333332,7.333333333333333 L27.0,6.666666666666667" fill="none" stroke="black" stroke-width="0.2"/>
  <path d="M27.0,4.0 L27.0,8.666666666666668 L26.833333333333332,9.333333333333332 L26.333333333333332,9.833333333333332 L25.833333333333332,10.0 L24.833333333333332,10.0" fill="none" stroke="black" stroke-width="0.2"/>
  <path d="M28.0,2.0 L28.0,8.0" fill="none" stroke="black" stroke-width="0.2"/>
  <path d="M28.0,5.333333333333334 L28.166666666666668,4.666666666666666 L28.666666666666668,4.166666666666666 L29.166666666666668,4.0 L29.833333333333332,4.0 L30.333333333333332,4.166666666666666 L30.833333333333332,4.666666666666666 L31.0,5.333333333333334 L31.0,8.0" fill="none" stroke="black" stroke-width="0.2"/>
  <path d="M32.0,4.0 L32.0,8.0" fill="none" stroke="black" stroke-width="0.2"/>
  <path d="M32.0,2.0 L32.0,3.0" fill="none" stroke="black" stroke-width="0.2"/>
  <path d="M34.0,4.0 L34.0,9.0 L33.666666666666664,9.666666666666668 L33.0,10.0" fill="none" stroke="black" stroke-width="0.2"/>
  <path d="M34.0,2.0 L34.0,3.0" fill="none" stroke="black" stroke-width="0.2"/>
  <path d="M35.0,2.0 L35.0,8.0" fill="none" stroke="black" stroke-width="0.2"/>
  <path d="M35.0,6.0 L37.0,4.0" fill="none" stroke="black" stroke-width="0.2"/>
  <path d="M36.0,5.0 L37.0,8.0" fill="none" stroke="black" stroke-width="0.2"/>
  <path d="M38.0,2.0 L38.0,8.0" fill="none" stroke="black" stroke-width="0.2"/>
  <path d="M39.0,4.0 L39.0,8.0" fill="none" stroke="black" stroke-width="0.2"/>
  <path d="M39.0,5.333333333333334 L39.166666666666664,4.666666666666666 L39.666666666666664,4.166666666666666 L40.166666666666664,4.0 L40.833333333333336,4.0 L41.333333333333336,4.166666666666666 L41.833333333333336,4.666666666666666 L42.0,5.333333333333334 L42.0,8.0" fill="none" stroke="black" stroke-width="0.2"/>
  <path d="M42.0,5.333333333333334 L42.166666666666664,4.666666666666666 L42.666666666666664,4.166666666666666 L43.166666666666664,4.0 L43.833333333333336,4.0 L44.333333333333336,4.166666666666666 L44.833333333333336,4.666666666666666 L45.0,5.333333333333334 L45.0,8.0" fill="none" stroke="black" stroke-width="0.2"/>
  <path d="M46.0,4.0 L46.0,8.0" fill="none" stroke="black" stroke-width="0.2"/>
  <path d="M46.0,5.333333333333334 L46.166666666666664,4.666666666666666 L46.666666666666664,4.166666666666666 L47.166666666666664,4.0 L47.833333333333336,4.0 L48.333333333333336,4.166666666666666 L48.833333333333336,4.666666666666666 L49.0,5.333333333333334 L49.0,8.0" fill="none" stroke="black" stroke-width="0.2"/>
  <path d="M53.0,5.333333333333334 L52.833333333333336,4.666666666666666 L52.333333333333336,4.166666666666666 L51.833333333333336,4.0 L51.166666666666664,4.0 L50.666666666666664,4.166666666666666 L50.166666666666664,4.666666666666666 L50.0,5.333333333333334 L50.0,6.666666666666667 L50.166666666666664,7.333333333333333 L50.666666666666664,7.833333333333333 L51.166666666666664,8.0 L51.833333333333336,8.0 L52.333333333333336,7.833333333333333 L52.833333333333336,7.333333333333333 L53.0,6.666666666666667 L53.0,5.333333333333334" fill="none" stroke="black" stroke-width="0.2"/>
  <path d="M54.0,4.0 L54.0,10.0" fill="none" stroke="black" stroke-width="0.2"/>
  <path d="M54.0,5.333333333333334 L54.166666666666664,4.666666666666666 L54.666666666666664,4.166666666666666 L55.166666666666664,4.0 L55.833333333333336,4.0 L56.333333333333336,4.166666666666666 L56.833333333333336,4.666666666666666 L57.0,5.333333333333334 L57.0,6.666666666666667 L56.833333333333336,7.333333333333333 L56.333333333333336,7.833333333333333 L55.833333333333336,8.0 L55.166666666666664,8.0 L54.666666666666664,7.833333333333333 L54.166666666666664,7.333333333333333 L54.0,6.666666666666667" fill="none" stroke="black" stroke-width="0.2"/>
  <path d="M61.0,4.0 L61.0,10.0" fill="none" stroke="black" stroke-width="0.2"/>
  <path d="M61.0,5.333333333333334 L60.833333333333336,4.666666666666666 L60.333333333333336,4.166666666666666 L59.833333333333336,4.0 L59.166666666666664,4.0 L58.666666666666664,4.166666666666666 L58.166666666666664,4.666666666666666 L58.0,5.333333333333334 L58.0,6.666666666666667 L58.166666666666664,7.333333333333333 L58.666666666666664,7.833333333333333 L59.166666666666664,8.0 L59.833333333333336,8.0 L60.333333333333336,7.833333333333333 L60.833333333333336,7.333333333333333 L61.0,6.666666666666667" fill="none" stroke="black" stroke-width="0.2"/>
  <path d="M62.0,4.0 L62.0,8.0" fill="none" stroke="black" stroke-width="0.2"/>
  <path d="M62.0,5.333333333333334 L62.166666666666664,4.666666666666666 L62.666666666666664,4.166666666666666 L63.166666666666664,4.0 L64.0,4.0" fill="none" stroke="black" stroke-width="0.2"/>
  <path d="M5.0,15.0 L4.666666666666666,14.333333333333334 L4.0,14.0 L3.0,14.0 L2.3333333333333335,14.333333333333334 L2.0,15.0 L2.3333333333333335,15.666666666666666 L3.0,16.0 L4.0,16.0 L4.666666666666666,16.333333333333332 L5.0,17.0 L4.666666666666666,17.666666666666668 L4.0,18.0 L3.0,18.0 L2.3333333333333335,17.666666666666668 L2.0,17.0" fill="none" stroke="black" stroke-width="0.2"/>
  <path d="M6.0,12.0 L6.0,18.0" fill="none" stroke="black" stroke-width="0.2"/>
  <path d="M6.0,14.0 L7.0,14.0" fill="none" stroke="black" stroke-width="0.2"/>
  <path d="M8.0,14.0 L8.0,16.666666666666668 L8.166666666666666,17.333333333333332 L8.666666666666666,17.833333333333332 L9.166666666666666,18.0 L9.833333333333334,18.0 L10.333333333333334,17.833333333333332 L10.833333333333334,17.333333333333332 L11.0,16.666666666666668" fill="none" stroke="black" stroke-width="0.2"/>
  <path d="M11.0,14.0 L11.0,18.0" fill="none" stroke="black" stroke-width="0.2"/>
  <path d="M12.0,14.0 L13.5,18.0 L15.0,14.0" fill="none" stroke="black" stroke-width="0.2"/>
  <path d="M16.0,14.0 L17.0,18.0 L18.0,14.0 L19.0,18.0 L20.0,14.0" fill="none" stroke="black" stroke-width="0.2"/>
  <path d="M21.0,14.0 L24.0,18.0" fill="none" stroke="black" stroke-width="0.2"/>
  <path d="M24.0,14.0 L21.0,18.0" fill="none" stroke="black" stroke-width="0.2"/>
  <path d="M25.0,14.0 L26.5,18.0" fill="none" stroke="black" stroke-width="0.2"/>
  <path d="M28.0,14.0 L26.5,18.0 L26.0,19.0 L25.0,20.0" fill="none" stroke="black" stroke-width="0.2"/>
  <path d="M29.0,14.0 L32.0,14.0 L29.0,18.0 L32.0,18.0" fill="none" stroke="black" stroke-width="0.2"/>
  <path d="M33.0,15.0 L34.0,14.0 L34.0,18.0" fill="none" stroke="black" stroke-width="0.2"/>
  <path d="M35.0,15.166666666666666 L35.166666666666664,14.5 L35.666666666666664,14.0 L36.166666666666664,13.833333333333334 L36.833333333333336,13.833333333333334 L37.333333333333336,14.0 L37.833333333333336,14.5 L38.0,15.166666666666666 L37.833333333333336,15.833333333333334 L35.666666666666664,16.666666666666668 L35.166666666666664,17.166666666666668 L35.0,17.666666666666668 L35.0,18.0 L38.0,18.0" fill="none" stroke="black" stroke-width="0.2"/>
  <path d="M39.0,14.0 L42.0,14.0 L41.833333333333336,14.666666666666666 L41.333333333333336,15.5 L40.0,16.0 L41.333333333333336,16.333333333333332 L42.0,17.0 L42.0,18.666666666666668 L41.833333333333336,19.333333333333332 L41.333333333333336,19.833333333333332 L40.833333333333336,20.0 L40.166666666666664,20.0 L39.666666666666664,19.833333333333332 L39.166666666666664,19.333333333333332 L39.0,18.666666666666668" fill="none" stroke="black" stroke-width="0.2"/>
  <path d="M43.0,14.0 L43.0,16.0 L43.333333333333336,16.666666666666668 L44.0,17.0 L46.0,17.0" fill="none" stroke="black" stroke-width="0.2"/>
  <path d="M46.0,14.0 L46.0,20.0" fill="none" stroke="black" stroke-width="0.2"/>
  <path d="M50.0,14.0 L47.0,14.0 L47.0,16.0 L48.833333333333336,16.0 L49.333333333333336,16.166666666666668 L49.833333333333336,16.666666666666668 L50.0,17.333333333333332 L50.0,18.666666666666668 L49.833333333333336,19.333333333333332 L49.333333333333336,19.833333333333332 L48.833333333333336,20.0 L47.0,20.0" fill="none" stroke="black" stroke-width="0.2"/>
  <path d="M54.0,13.333333333333334 L53.833333333333336,12.666666666666666 L53.333333333333336,12.166666666666666 L52.833333333333336,12.0 L52.166666666666664,12.0 L51.666666666666664,12.166666666666666 L51.166666666666664,12.666666666666666 L51.0,13.333333333333334 L51.0,16.666666666666668 L51.166666666666664,17.333333333333332 L51.666666666666664,17.833333333333332 L52.166666666666664,18.0 L52.833333333333336,18.0 L53.333333333333336,17.833333333333332 L53.833333333333336,17.333333333333332 L54.0,16.666666666666668 L54.0,15.333333333333334 L53.833333333333336,14.666666666666666 L53.333333333333336,14.166666666666666 L52.833333333333336,14.0 L52.166666666666664,14.0 L51.666666666666664,14.166666666666666 L51.166666666666664,14.666666666666666 L51.0,15.333333333333334" fill="none" stroke="black" stroke-width="0.2"/>
  <path d="M55.0,14.0 L58.0,14.0 L55.0,20.0" fill="none" stroke="black" stroke-width="0.2"/>
  <path d="M60.0,15.0 L59.333333333333336,14.666666666666666 L59.0,14.0 L59.0,13.0 L59.333333333333336,12.333333333333334 L60.0,12.0 L61.0,12.0 L61.666666666666664,12.333333333333334 L62.0,13.0 L62.0,14.0 L61.666666666666664,14.666666666666666 L61.0,15.0 L60.0,15.0 L59.333333333333336,15.333333333333334 L59.0,16.0 L59.0,17.0 L59.333333333333336,17.666666666666668 L60.0,18.0 L61.0,18.0 L61.666666666666664,17.666666666666668 L62.0,17.0 L62.0,16.0 L61.666666666666664,15.333333333333334 L61.0,15.0" fill="none" stroke="black" stroke-width="0.2"/>
  <path d="M66.0,16.666666666666668 L65.83333333333333,17.333333333333332 L65.33333333333333,17.833333333333332 L64.83333333333333,18.0 L64.16666666666667,18.0 L63.666666666666664,17.833333333333332 L63.166666666666664,17.333333333333332 L63.0,16.666666666666668 L63.0,15.333333333333334 L63.166666666666664,14.666666666666666 L63.666666666666664,14.166666666666666 L64.16666666666667,14.0 L64.83333333333333,14.0 L65.33333333333333,14.166666666666666 L65.83333333333333,14.666666666666666 L66.0,15.333333333333334 L66.0,18.666666666666668 L65.83333333333333,19.333333333333332 L65.33333333333333,19.833333333333332 L64.83333333333333,20.0 L64.16666666666667,20.0 L63.666666666666664,19.833333333333332 L63.166666666666664,19.333333333333332 L63.0,18.666666666666668" fill="none" stroke="black" stroke-width="0.2"/>
  <path d="M70.0,15.333333333333334 L69.83333333333333,14.666666666666666 L69.33333333333333,14.166666666666666 L68.83333333333333,14.0 L68.16666666666667,14.0 L67.66666666666667,14.166666666666666 L67.16666666666667,14.666666666666666 L67.0,15.333333333333334 L67.0,16.666666666666668 L67.16666666666667,17.333333333333332 L67.66666666666667,17.833333333333332 L68.16666666666667,18.0 L68.83333333333333,18.0 L69.33333333333333,17.833333333333332 L69.83333333333333,17.333333333333332 L70.0,16.666666666666668 L70.0,15.333333333333334" fill="none" stroke="black" stroke-width="0.2"/>
  <path d="M69.5,14.5 L67.5,17.5" fill="none" stroke="black" stroke-width="0.2"/>
  <path d="M3.0,25.0 L3.0,26.0" fill="none" stroke="black" stroke-width="0.2"/>
  <path d="M2.0,25.75 L3.0,26.0 L4.0,25.75" fill="none" stroke="black" stroke-width="0.2"/>
  <path d="M2.25,27.0 L3.0,26.0 L3.75,27.0" fill="none" stroke="black" stroke-width="0.2"/>
  <path d="M5.0,26.0 L7.0,26.0" fill="none" stroke="black" stroke-width="0.2"/>
  <path d="M6.0,25.0 L6.0,27.0" fill="none" stroke="black" stroke-width="0.2"/>
  <path d="M9.0,23.0 L8.333333333333334,23.333333333333332 L8.0,24.0 L8.0,28.0 L8.333333333333334,28.666666666666668 L9.0,29.0" fill="none" stroke="black" stroke-width="0.2"/>
  <path d="M10.0,23.0 L10.666666666666666,23.333333333333332 L11.0,24.0 L11.0,28.0 L10.666666666666666,28.666666666666668 L10.0,29.0" fill="none" stroke="black" stroke-width="0.2"/>
  <path d="M14.0,23.0 L12.0,29.0" fill="none" stroke="black" stroke-width="0.2"/>
  <path d="M15.0,23.0 L17.0,29.0" fill="none" stroke="black" stroke-width="0.2"/>
  <path d="M19.0,23.0 L18.0,23.0 L18.0,29.0 L19.0,29.0" fill="none" stroke="black" stroke-width="0.2"/>
  <path d="M20.0,23.0 L21.0,23.0 L21.0,29.0 L20.0,29.0" fill="none" stroke="black" stroke-width="0.2"/>
  <path d="M22.0,26.0 L23.5,24.0 L25.0,26.0" fill="none" stroke="black" stroke-width="0.2"/>
  <path d="M26.0,25.5 L28.0,25.5" fill="none" stroke="black" stroke-width="0.2"/>
  <path d="M26.0,26.5 L28.0,26.5" fill="none" stroke="black" stroke-width="0.2"/>
  <path d="M29.0,26.0 L31.0,26.0" fill="none" stroke="black" stroke-width="0.2"/>
  <path d="M32.0,23.0 L34.0,29.0" fill="none" stroke="black" stroke-width="0.2"/>
  <path d="M35.0,22.0 L35.0,26.0" fill="none" stroke="black" stroke-width="0.2"/>
  <path d="M35.0,27.0 L35.0,28.0" fill="none" stroke="black" stroke-width="0.2"/>
  <path d="M37.0,28.0 L36.0,28.0" fill="none" stroke="black" stroke-width="0.2"/>
  <path d="M39.0,28.0 L38.666666666666664,28.666666666666668 L38.0,29.0" fill="none" stroke="black" stroke-width="0.2"/>
  <path d="M42.0,25.0 L40.0,26.0 L42.0,27.0" fill="none" stroke="black" stroke-width="0.2"/>
  <path d="M43.0,25.0 L45.0,26.0 L43.0,27.0" fill="none" stroke="black" stroke-width="0.2"/>
  <path d="M46.0,23.0 L46.0,24.5" fill="none" stroke="black" stroke-width="0.2"/>
  <path d="M48.0,24.0 L47.0,28.0" fill="none" stroke="black" stroke-width="0.2"/>
  <path d="M49.0,24.0 L48.0,28.0" fill="none" stroke="black" stroke-width="0.2"/>
  <path d="M47.25,25.5 L49.0,25.5" fill="none" stroke="black" stroke-width="0.2"/>
  <path d="M47.0,26.5 L48.75,26.5" fill="none" stroke="black" stroke-width="0.2"/>
  <path d="M50.0,23.0 L50.0,29.0" fill="none" stroke="black" stroke-width="0.2"/>
  <path d="M51.0,28.0 L53.0,28.0" fill="none" stroke="black" stroke-width="0.2"/>
  <path d="M57.0,24.0 L54.0,28.0" fill="none" stroke="black" stroke-width="0.2"/>
  <path d="M54.5,24.5 L54.833333333333336,24.666666666666668 L55.0,25.0 L54.833333333333336,25.333333333333332 L54.5,25.5 L54.166666666666664,25.333333333333332 L54.0,25.0 L54.166666666666664,24.666666666666668 L54.5,24.5" fill="none" stroke="black" stroke-width="0.2"/>
  <path d="M56.5,26.5 L56.833333333333336,26.666666666666668 L57.0,27.0 L56.833333333333336,27.333333333333332 L56.5,27.5 L56.166666666666664,27.333333333333332 L56.0,27.0 L56.166666666666664,26.666666666666668 L56.5,26.5" fill="none" stroke="black" stroke-width="0.2"/>
  <path d="M58.0,23.333333333333332 L58.166666666666664,22.666666666666668 L58.666666666666664,22.166666666666668 L59.166666666666664,22.0 L59.833333333333336,22.0 L60.333333333333336,22.166666666666668 L60.833333333333336,22.666666666666668 L61.0,23.333333333333332 L61.0,23.666666666666668 L60.833333333333336,24.333333333333332 L60.333333333333336,24.833333333333332 L59.833333333333336,25.0 L59.0,25.0 L59.0,26.0" fill="none" stroke="black" stroke-width="0.2"/>
  <path d="M59.0,27.0 L59.0,28.0" fill="none" stroke="black" stroke-width="0.2"/>
  <path d="M62.0,26.5 L62.5,25.5 L63.0,25.5 L64.0,26.5 L64.5,26.5 L65.0,25.5" fill="none" stroke="black" stroke-width="0.2"/>
  <path d="M66.0,23.0 L66.0,24.5" fill="none" stroke="black" stroke-width="0.2"/>
  <path d="M67.0,23.0 L67.0,24.5" fill="none" stroke="black" stroke-width="0.2"/>
  <path d="M2.0,32.0 L2.0,38.0" fill="none" stroke="black" stroke-width="0.2"/>
  <path d="M2.0,34.0 L3.0,34.0" fill="none" stroke="black" stroke-width="0.2"/>
  <path d="M4.0,32.0 L4.0,38.0" fill="none" stroke="black" stroke-width="0.2"/>
  <path d="M4.0,35.333333333333336 L4.166666666666667,34.666666666666664 L4.666666666666667,34.166666666666664 L5.166666666666667,34.0 L5.833333333333333,34.0 L6.333333333333334,34.166666666666664 L6.833333333333334,34.666666666666664 L7.0,35.333333333333336 L7.0,38.0" fill="none" stroke="black" stroke-width="0.2"/>
  <path d="M8.0,35.666666666666664 L11.0,35.666666666666664 L11.0,35.333333333333336 L10.833333333333334,34.666666666666664 L10.333333333333334,34.166666666666664 L9.833333333333334,34.0 L9.166666666666666,34.0 L8.666666666666666,34.166666666666664 L8.166666666666666,34.666666666666664 L8.0,35.333333333333336 L8.0,36.666666666666664 L8.166666666666666,37.333333333333336 L8.666666666666666,37.833333333333336 L9.166666666666666,38.0 L9.833333333333334,38.0 L10.333333333333334,37.833333333333336 L10.833333333333334,37.333333333333336 L11.0,36.666666666666664" fill="none" stroke="black" stroke-width="0.2"/>
  <path d="M17.0,34.0 L17.0,40.0" fill="none" stroke="black" stroke-width="0.2"/>
  <path d="M17.0,35.333333333333336 L16.833333333333332,34.666666666666664 L16.333333333333332,34.166666666666664 L15.833333333333334,34.0 L15.166666666666666,34.0 L14.666666666666666,34.166666666666664 L14.166666666666666,34.666666666666664 L14.0,35.333333333333336 L14.0,36.666666666666664 L14.166666666666666,37.333333333333336 L14.666666666666666,37.833333333333336 L15.166666666666666,38.0 L15.833333333333334,38.0 L16.333333333333332,37.833333333333336 L16.833333333333332,37.333333333333336 L17.0,36.666666666666664" fill="none" stroke="black" stroke-width="0.2"/>
  <path d="M18.0,34.0 L18.0,36.666666666666664 L18.166666666666668,37.333333333333336 L18.666666666666668,37.833333333333336 L19.166666666666668,38.0 L19.833333333333332,38.0 L20.333333333333332,37.833333333333336 L20.833333333333332,37.333333333333336 L21.0,36.666666666666664" fill="none" stroke="black" stroke-width="0.2"/>
  <path d="M21.0,34.0 L21.0,38.0" fill="none" stroke="black" stroke-width="0.2"/>
  <path d="M22.0,34.0 L22.0,38.0" fill="none" stroke="black" stroke-width="0.2"/>
  <path d="M22.0,32.0 L22.0,33.0" fill="none" stroke="black" stroke-width="0.2"/>
  <path d="M26.0,35.333333333333336 L25.833333333333332,34.666666666666664 L25.333333333333332,34.166666666666664 L24.833333333333332,34.0 L24.166666666666668,34.0 L23.666666666666668,34.166666666666664 L23.166666666666668,34.666666666666664 L23.0,35.333333333333336 L23.0,36.666666666666664 L23.166666666666668,37.333333333333336 L23.666666666666668,37.833333333333336 L24.166666666666668,38.0 L24.833333333333332,38.0 L25.333333333333332,37.833333333333336 L25.833333333333332,37.333333333333336 L26.0,36.666666666666664" fill="none" stroke="black" stroke-width="0.2"/>
  <path d="M27.0,32.0 L27.0,38.0" fill="none" stroke="black" stroke-width="0.2"/>
  <path d="M27.0,36.0 L29.0,34.0" fill="none" stroke="black" stroke-width="0.2"/>
  <path d="M28.0,35.0 L29.0,38.0" fill="none" stroke="black" stroke-width="0.2"/>
  <path d="M33.0,33.0 L32.333333333333336,33.333333333333336 L32.0,34.0 L32.0,38.0 L32.333333333333336,38.666666666666664 L33.0,39.0" fill="none" stroke="black" stroke-width="0.2"/>
  <path d="M34.0,32.0 L34.0,38.0" fill="none" stroke="black" stroke-width="0.2"/>
  <path d="M34.0,35.333333333333336 L34.166666666666664,34.666666666666664 L34.666666666666664,34.166666666666664 L35.166666666666664,34.0 L35.833333333333336,34.0 L36.333333333333336,34.166666666666664 L36.833333333333336,34.666666666666664 L37.0,35.333333333333336 L37.0,36.666666666666664 L36.833333333333336,37.333333333333336 L36.333333333333336,37.833333333333336 L35.833333333333336,38.0 L35.166666666666664,38.0 L34.666666666666664,37.833333333333336 L34.166666666666664,37.333333333333336 L34.0,36.666666666666664" fill="none" stroke="black" stroke-width="0.2"/>
  <path d="M38.0,34.0 L38.0,38.0" fill="none" stroke="black" stroke-width="0.2"/>
  <path d="M38.0,35.333333333333336 L38.166666666666664,34.666666666666664 L38.666666666666664,34.166666666666664 L39.166666666666664,34.0 L40.0,34.0" fill="none" stroke="black" stroke-width="0.2"/>
  <path d="M44.0,35.333333333333336 L43.833333333333336,34.666666666666664 L43.333333333333336,34.166666666666664 L42.833333333333336,34.0 L42.166666666666664,34.0 L41.666666666666664,34.166666666666664 L41.166666666666664,34.666666666666664 L41.0,35.333333333333336 L41.0,36.666666666666664 L41.166666666666664,37.333333333333336 L41.666666666666664,37.833333333333336 L42.166666666666664,38.0 L42.833333333333336,38.0 L43.333333333333336,37.833333333333336 L43.833333333333336,37.333333333333336 L44.0,36.666666666666664 L44.0,35.333333333333336" fill="none" stroke="black" stroke-width="0.2"/>
  <path d="M45.0,34.0 L46.0,38.0 L47.0,34.0 L48.0,38.0 L49.0,34.0" fill="none" stroke="black" stroke-width="0.2"/>
  <path d="M50.0,34.0 L50.0,38.0" fill="none" stroke="black" stroke-width="0.2"/>
  <path d="M50.0,35.333333333333336 L50.166666666666664,34.666666666666664 L50.666666666666664,34.166666666666664 L51.166666666666664,34.0 L51.833333333333336,34.0 L52.333333333333336,34.166666666666664 L52.833333333333336,34.666666666666664 L53.0,35.333333333333336 L53.0,38.0" fill="none" stroke="black" stroke-width="0.2"/>
  <path d="M54.0,33.0 L54.666666666666664,33.333333333333336 L55.0,34.0 L55.0,38.0 L54.666666666666664,38.666666666666664 L54.0,39.0" fill="none" stroke="black" stroke-width="0.2"/>
  <path d="M58.0,38.0 L58.0,33.0 L58.333333333333336,32.333333333333336 L59.0,32.0" fill="none" stroke="black" stroke-width="0.2"/>
  <path d="M58.0,34.0 L59.0,34.0" fill="none" stroke="black" stroke-width="0.2"/>
  <path d="M63.0,35.333333333333336 L62.833333333333336,34.666666666666664 L62.333333333333336,34.166666666666664 L61.833333333333336,34.0 L61.166666666666664,34.0 L60.666666666666664,34.166666666666664 L60.166666666666664,34.666666666666664 L60.0,35.333333333333336 L60.0,36.666666666666664 L60.166666666666664,37.333333333333336 L60.666666666666664,37.833333333333336 L61.166666666666664,38.0 L61.833333333333336,38.0 L62.333333333333336,37.833333333333336 L62.833333333333336,37.333333333333336 L63.0,36.666666666666664 L63.0,35.333333333333336" fill="none" stroke="black" stroke-width="0.2"/>
  <path d="M64.0,34.0 L67.0,38.0" fill="none" stroke="black" stroke-width="0.2"/>
  <path d="M67.0,34.0 L64.0,38.0" fill="none" stroke="black" stroke-width="0.2"/>
  <path d="M3.0,44.0 L3.0,49.0 L2.6666666666666665,49.666666666666664 L2.0,50.0" fill="none" stroke="black" stroke-width="0.2"/>
  <path d="M3.0,42.0 L3.0,43.0" fill="none" stroke="black" stroke-width="0.2"/>
  <path d="M4.0,44.0 L4.0,46.666666666666664 L4.166666666666667,47.333333333333336 L4.666666666666667,47.833333333333336 L5.166666666666667,48.0 L5.833333333333333,48.0 L6.333333333333334,47.833333333333336 L6.833333333333334,47.333333333333336 L7.0,46.666666666666664" fill="none" stroke="black" stroke-width="0.2"/>
  <path d="M7.0,44.0 L7.0,48.0" fill="none" stroke="black" stroke-width="0.2"/>
  <path d="M8.0,44.0 L8.0,48.0" fill="none" stroke="black" stroke-width="0.2"/>
  <path d="M8.0,45.333333333333336 L8.166666666666666,44.666666666666664 L8.666666666666666,44.166666666666664 L9.166666666666666,44.0 L9.833333333333334,44.0 L10.333333333333334,44.166666666666664 L10.833333333333334,44.666666666666664 L11.0,45.333333333333336 L11.0,48.0" fill="none" stroke="black" stroke-width="0.2"/>
  <path d="M11.0,45.333333333333336 L11.166666666666666,44.666666666666664 L11.666666666666666,44.166666666666664 L12.166666666666668,44.0 L12.833333333333332,44.0 L13.333333333333332,44.166666666666664 L13.833333333333332,44.666666666666664 L14.0,45.333333333333336 L14.0,48.0" fill="none" stroke="black" stroke-width="0.2"/>
  <path d="M15.0,44.0 L15.0,50.0" fill="none" stroke="black" stroke-width="0.2"/>
  <path d="M15.0,45.333333333333336 L15.166666666666666,44.666666666666664 L15.666666666666666,44.166666666666664 L16.166666666666668,44.0 L16.833333333333332,44.0 L17.333333333333332,44.166666666666664 L17.833333333333332,44.666666666666664 L18.0,45.333333333333336 L18.0,46.666666666666664 L17.833333333333332,47.333333333333336 L17.333333333333332,47.833333333333336 L16.833333333333332,48.0 L16.166666666666668,48.0 L15.666666666666666,47.833333333333336 L15.166666666666666,47.333333333333336 L15.0,46.666666666666664" fill="none" stroke="black" stroke-width="0.2"/>
  <path d="M22.0,45.0 L21.666666666666668,44.333333333333336 L21.0,44.0 L20.0,44.0 L19.333333333333332,44.333333333333336 L19.0,45.0 L19.333333333333332,45.666666666666664 L20.0,46.0 L21.0,46.0 L21.666666666666668,46.333333333333336 L22.0,47.0 L21.666666666666668,47.666666666666664 L21.0,48.0 L20.0,48.0 L19.333333333333332,47.666666666666664 L19.0,47.0" fill="none" stroke="black" stroke-width="0.2"/>
  <path d="M28.0,45.333333333333336 L27.833333333333332,44.666666666666664 L27.333333333333332,44.166666666666664 L26.833333333333332,44.0 L26.166666666666668,44.0 L25.666666666666668,44.166666666666664 L25.166666666666668,44.666666666666664 L25.0,45.333333333333336 L25.0,46.666666666666664 L25.166666666666668,47.333333333333336 L25.666666666666668,47.833333333333336 L26.166666666666668,48.0 L26.833333333333332,48.0 L27.333333333333332,47.833333333333336 L27.833333333333332,47.333333333333336 L28.0,46.666666666666664 L28.0,45.333333333333336" fill="none" stroke="black" stroke-width="0.2"/>
  <path d="M29.0,44.0 L30.5,48.0 L32.0,44.0" fill="none" stroke="black" stroke-width="0.2"/>
  <path d="M33.0,45.666666666666664 L36.0,45.666666666666664 L36.0,45.333333333333336 L35.833333333333336,44.666666666666664 L35.333333333333336,44.166666666666664 L34.833333333333336,44.0 L34.166666666666664,44.0 L33.666666666666664,44.166666666666664 L33.166666666666664,44.666666666666664 L33.0,45.333333333333336 L33.0,46.666666666666664 L33.166666666666664,47.333333333333336 L33.666666666666664,47.833333333333336 L34.166666666666664,48.0 L34.833333333333336,48.0 L35.333333333333336,47.833333333333336 L35.833333333333336,47.333333333333336 L36.0,46.666666666666664" fill="none" stroke="black" stroke-width="0.2"/>
  <path d="M37.0,44.0 L37.0,48.0" fill="none" stroke="black" stroke-width="0.2"/>
  <path d="M37.0,45.333333333333336 L37.166666666666664,44.666666666666664 L37.666666666666664,44.166666666666664 L38.166666666666664,44.0 L39.0,44.0" fill="none" stroke="black" stroke-width="0.2"/>
  <path d="M42.0,42.0 L42.0,48.0" fill="none" stroke="black" stroke-width="0.2"/>
  <path d="M42.0,44.0 L43.0,44.0" fill="none" stroke="black" stroke-width="0.2"/>
  <path d="M44.0,42.0 L44.0,48.0" fill="none" stroke="black" stroke-width="0.2"/>
  <path d="M44.0,45.333333333333336 L44.166666666666664,44.666666666666664 L44.666666666666664,44.166666666666664 L45.166666666666664,44.0 L45.833333333333336,44.0 L46.333333333333336,44.166666666666664 L46.833333333333336,44.666666666666664 L47.0,45.333333333333336 L47.0,48.0" fill="none" stroke="black" stroke-width="0.2"/>
  <path d="M48.0,45.666666666666664 L51.0,45.666666666666664 L51.0,45.333333333333336 L50.833333333333336,44.666666666666664 L50.333333333333336,44.166666666666664 L49.833333333333336,44.0 L49.166666666666664,44.0 L48.666666666666664,44.166666666666664 L48.166666666666664,44.666666666666664 L48.0,45.333333333333336 L48.0,46.666666666666664 L48.166666666666664,47.333333333333336 L48.666666666666664,47.833333333333336 L49.166666666666664,48.0 L49.833333333333336,48.0 L50.333333333333336,47.833333333333336 L50.833333333333336,47.333333333333336 L51.0,46.666666666666664" fill="none" stroke="black" stroke-width="0.2"/>
  <path d="M54.0,42.0 L54.0,48.0" fill="none" stroke="black" stroke-width="0.2"/>
  <path d="M58.0,44.0 L58.0,48.0" fill="none" stroke="black" stroke-width="0.2"/>
  <path d="M58.0,45.333333333333336 L57.833333333333336,44.666666666666664 L57.333333333333336,44.166666666666664 L56.833333333333336,44.0 L56.166666666666664,44.0 L55.666666666666664,44.166666666666664 L55.166666666666664,44.666666666666664 L55.0,45.333333333333336 L55.0,46.666666666666664 L55.166666666666664,47.333333333333336 L55.666666666666664,47.833333333333336 L56.166666666666664,48.0 L56.833333333333336,48.0 L57.333333333333336,47.833333333333336 L57.833333333333336,47.333333333333336 L58.0,46.666666666666664" fill="none" stroke="black" stroke-width="0.2"/>
  <path d="M59.0,44.0 L62.0,44.0 L59.0,48.0 L62.0,48.0" fill="none" stroke="black" stroke-width="0.2"/>
  <path d="M63.0,44.0 L64.5,48.0" fill="none" stroke="black" stroke-width="0.2"/>
  <path d="M66.0,44.0 L64.5,48.0 L64.0,49.0 L63.0,50.0" fill="none" stroke="black" stroke-width="0.2"/>
  <path d="M72.0,42.0 L72.0,48.0" fill="none" stroke="black" stroke-width="0.2"/>
  <path d="M72.0,45.333333333333336 L71.83333333333333,44.666666666666664 L71.33333333333333,44.166666666666664 L70.83333333333333,44.0 L70.16666666666667,44.0 L69.66666666666667,44.166666666666664 L69.16666666666667,44.666666666666664 L69.0,45.333333333333336 L69.0,46.666666666666664 L69.16666666666667,47.333333333333336 L69.66666666666667,47.833333333333336 L70.16666666666667,48.0 L70.83333333333333,48.0 L71.33333333333333,47.833333333333336 L71.83333333333333,47.333333333333336 L72.0,46.666666666666664" fill="none" stroke="black" stroke-width="0.2"/>
  <path d="M76.0,45.333333333333336 L75.83333333333333,44.666666666666664 L75.33333333333333,44.166666666666664 L74.83333333333333,44.0 L74.16666666666667,44.0 L73.66666666666667,44.166666666666664 L73.16666666666667,44.666666666666664 L73.0,45.333333333333336 L73.0,46.666666666666664 L73.16666666666667,47.333333333333336 L73.66666666666667,47.833333333333336 L74.16666666666667,48.0 L74.83333333333333,48.0 L75.33333333333333,47.833333333333336 L75.83333333333333,47.333333333333336 L76.0,46.666666666666664 L76.0,45.333333333333336" fill="none" stroke="black" stroke-width="0.2"/>
  <path d="M80.0,45.333333333333336 L79.83333333333333,44.666666666666664 L79.33333333333333,44.166666666666664 L78.83333333333333,44.0 L78.16666666666667,44.0 L77.66666666666667,44.166666666666664 L77.16666666666667,44.666666666666664 L77.0,45.333333333333336 L77.0,46.666666666666664 L77.16666666666667,47.333333333333336 L77.66666666666667,47.833333333333336 L78.16666666666667,48.0 L78.83333333333333,48.0 L79.33333333333333,47.833333333333336 L79.83333333333333,47.333333333333336 L80.0,46.666666666666664" fill="none" stroke="black" stroke-width="0.2"/>
  <path d="M80.0,44.0 L80.0,48.666666666666664 L79.83333333333333,49.333333333333336 L79.33333333333333,49.833333333333336 L78.83333333333333,50.0 L77.83333333333333,50.0" fill="none" stroke="black" stroke-width="0.2"/>
  <path d="M81.0,43.0 L83.0,49.0" fill="none" stroke="black" stroke-width="0.2"/>
  <path d="M84.0,42.0 L84.0,46.0" fill="none" stroke="black" stroke-width="0.2"/>
  <path d="M84.0,47.0 L84.0,48.0" fill="none" stroke="black" stroke-width="0.2"/>
</svg>
