<?xml version="1.0" encoding="utf-8" ?>
<svg baseProfile="tiny" height="4000" version="1.2" width="4000" xmlns="http://www.w3.org/2000/svg" xmlns:ev="http://www.w3.org/2001/xml-events" xmlns:xlink="http://www.w3.org/1999/xlink">
  <defs/>
  <path d="M200.0,160.0 L200.0,320.0" fill="none" stroke="black" stroke-width="7"/>
  <path d="M200.0,213.33333333333334 L193.33333333333334,186.66666666666666 L173.33333333333334,166.66666666666666 L153.33333333333331,160.0 L126.66666666666667,160.0 L106.66666666666666,166.66666666666666 L86.66666666666667,186.66666666666666 L80.0,213.33333333333334 L80.0,266.6666666666667 L86.66666666666667,293.3333333333333 L106.66666666666666,313.3333333333333 L126.66666666666667,320.0 L153.33333333333331,320.0 L173.33333333333334,313.3333333333333 L193.33333333333334,293.3333333333333 L200.0,266.6666666666667" fill="none" stroke="black" stroke-width="7"/>
  <path d="M240.0,80.0 L240.0,320.0" fill="none" stroke="black" stroke-width="7"/>
  <path d="M240.0,213.33333333333334 L246.66666666666669,186.66666666666666 L266.6666666666667,166.66666666666666 L286.6666666666667,160.0 L313.3333333333333,160.0 L333.33333333333337,166.66666666666666 L353.33333333333337,186.66666666666666 L360.0,213.33333333333334 L360.0,266.6666666666667 L353.33333333333337,293.3333333333333 L333.33333333333337,313.3333333333333 L313.3333333333333,320.0 L286.6666666666667,320.0 L266.6666666666667,313.3333333333333 L246.66666666666669,293.3333333333333 L240.0,266.6666666666667" fill="none" stroke="black" stroke-width="7"/>
  <path d="M520.0,213.33333333333334 L513.3333333333334,186.66666666666666 L493.33333333333337,166.66666666666666 L473.3333333333333,160.0 L446.6666666666667,160.0 L426.6666666666667,166.66666666666666 L406.6666666666667,186.66666666666666 L400.0,213.33333333333334 L400.0,266.6666666666667 L406.6666666666667,293.3333333333333 L426.6666666666667,313.3333333333333 L446.6666666666667,320.0 L473.3333333333333,320.0 L493.33333333333337,313.3333333333333 L513.3333333333334,293.3333333333333 L520.0,266.6666666666667" fill="none" stroke="black" stroke-width="7"/>
  <path d="M680.0,80.0 L680.0,320.0" fill="none" stroke="black" stroke-width="7"/>
  <path d="M680.0,213.33333333333334 L673.3333333333334,186.66666666666666 L653.3333333333334,166.66666666666666 L633.3333333333334,160.0 L606.6666666666666,160.0 L586.6666666666666,166.66666666666666 L566.6666666666666,186.66666666666666 L560.0,213.33333333333334 L560.0,266.6666666666667 L566.6666666666666,293.3333333333333 L586.6666666666666,313.3333333333333 L606.6666666666666,320.0 L633.3333333333334,320.0 L653.3333333333334,313.3333333333333 L673.3333333333334,293.3333333333333 L680.0,266.6666666666667" fill="none" stroke="black" stroke-width="7"/>
  <path d="M720.0,226.66666666666666 L840.0,226.66666666666666 L840.0,213.33333333333334 L833.3333333333334,186.66666666666666 L813.3333333333334,166.66666666666666 L793.3333333333334,160.0 L766.6666666666666,160.0 L746.6666666666666,166.66666666666666 L726.6666666666666,186.66666666666666 L720.0,213.33333333333334 L720.0,266.6666666666667 L726.6666666666666,293.3333333333333 L746.6666666666666,313.3333333333333 L766.6666666666666,320.0 L793.3333333333334,320.0 L813.3333333333334,313.3333333333333 L833.3333333333334,293.3333333333333 L840.0,266.6666666666667" fill="none" stroke="black" stroke-width="7"/>
  <path d="M880.0,320.0 L880.0,120.0 L893.3333333333334,93.33333333333334 L920.0,80.0" fill="none" stroke="black" stroke-width="7"/>
  <path d="M880.0,160.0 L920.0,160.0" fill="none" stroke="black" stroke-width="7"/>
  <path d="M1080.0,213.33333333333334 L1073.3333333333333,186.66666666666666 L1053.3333333333333,166.66666666666666 L1033.3333333333333,160.0 L1006.6666666666666,160.0 L986.6666666666666,166.66666666666666 L966.6666666666666,186.66666666666666 L960.0,213.33333333333334 L960.0,266.6666666666667 L966.6666666666666,293.3333333333333 L986.6666666666666,313.3333333333333 L1006.6666666666666,320.0 L1033.3333333333333,320.0 L1053.3333333333333,313.3333333333333 L1073.3333333333333,293.3333333333333 L1080.0,266.6666666666667" fill="none" stroke="black" stroke-width="7"/>
  <path d="M1080.0,160.0 L1080.0,346.6666666666667 L1073.3333333333333,373.3333333333333 L1053.3333333333333,393.3333333333333 L1033.3333333333333,400.0 L993.3333333333334,400.0" fill="none" stroke="black" stroke-width="7"/>
  <path d="M1120.0,80.0 L1120.0,320.0" fill="none" stroke="black" stroke-width="7"/>
  <path d="M1120.0,213.33333333333334 L1126.6666666666667,186.66666666666666 L1146.6666666666667,166.66666666666666 L1166.6666666666667,160.0 L1193.3333333333333,160.0 L1213.3333333333333,166.66666666666666 L1233.3333333333333,186.66666666666666 L1240.0,213.33333333333334 L1240.0,320.0" fill="none" stroke="black" stroke-width="7"/>
  <path d="M1280.0,160.0 L1280.0,320.0" fill="none" stroke="black" stroke-width="7"/>
  <path d="M1280.0,80.0 L1280.0,120.0" fill="none" stroke="black" stroke-width="7"/>
  <path d="M1360.0,160.0 L1360.0,360.0 L1346.6666666666667,386.6666666666667 L1320.0,400.0" fill="none" stroke="black" stroke-width="7"/>
  <path d="M1360.0,80.0 L1360.0,120.0" fill="none" stroke="black" stroke-width="7"/>
  <path d="M1400.0,80.0 L1400.0,320.0" fill="none" stroke="black" stroke-width="7"/>
  <path d="M1400.0,240.0 L1480.0,160.0" fill="none" stroke="black" stroke-width="7"/>
  <path d="M1440.0,200.0 L1480.0,320.0" fill="none" stroke="black" stroke-width="7"/>
  <path d="M1520.0,80.0 L1520.0,320.0" fill="none" stroke="black" stroke-width="7"/>
  <path d="M1560.0,160.0 L1560.0,320.0" fill="none" stroke="black" stroke-width="7"/>
  <path d="M1560.0,213.33333333333334 L1566.6666666666667,186.66666666666666 L1586.6666666666667,166.66666666666666 L1606.6666666666667,160.0 L1633.3333333333333,160.0 L1653.3333333333333,166.66666666666666 L1673.3333333333333,186.66666666666666 L1680.0,213.33333333333334 L1680.0,320.0" fill="none" stroke="black" stroke-width="7"/>
  <path d="M1680.0,213.33333333333334 L1686.6666666666667,186.66666666666666 L1706.6666666666667,166.66666666666666 L1726.6666666666667,160.0 L1753.3333333333333,160.0 L1773.3333333333333,166.66666666666666 L1793.3333333333333,186.66666666666666 L1800.0,213.33333333333334 L1800.0,320.0" fill="none" stroke="black" stroke-width="7"/>
  <path d="M1840.0,160.0 L1840.0,320.0" fill="none" stroke="black" stroke-width="7"/>
  <path d="M1840.0,213.33333333333334 L1846.6666666666667,186.66666666666666 L1866.6666666666667,166.66666666666666 L1886.6666666666667,160.0 L1913.3333333333333,160.0 L1933.3333333333333,166.66666666666666 L1953.3333333333333,186.66666666666666 L1960.0,213.33333333333334 L1960.0,320.0" fill="none" stroke="black" stroke-width="7"/>
  <path d="M2120.0,213.33333333333334 L2113.3333333333335,186.66666666666666 L2093.3333333333335,166.66666666666666 L2073.3333333333335,160.0 L2046.6666666666667,160.0 L2026.6666666666667,166.66666666666666 L2006.6666666666667,186.66666666666666 L2000.0,213.33333333333334 L2000.0,266.6666666666667 L2006.6666666666667,293.3333333333333 L2026.6666666666667,313.3333333333333 L2046.6666666666667,320.0 L2073.3333333333335,320.0 L2093.3333333333335,313.3333333333333 L2113.3333333333335,293.3333333333333 L2120.0,266.6666666666667 L2120.0,213.33333333333334" fill="none" stroke="black" stroke-width="7"/>
  <path d="M2160.0,160.0 L2160.0,400.0" fill="none" stroke="black" stroke-width="7"/>
  <path d="M2160.0,213.33333333333334 L2166.6666666666665,186.66666666666666 L2186.6666666666665,166.66666666666666 L2206.6666666666665,160.0 L2233.3333333333335,160.0 L2253.3333333333335,166.66666666666666 L2273.3333333333335,186.66666666666666 L2280.0,213.33333333333334 L2280.0,266.6666666666667 L2273.3333333333335,293.3333333333333 L2253.3333333333335,313.3333333333333 L2233.3333333333335,320.0 L2206.6666666666665,320.0 L2186.6666666666665,313.3333333333333 L2166.6666666666665,293.3333333333333 L2160.0,266.6666666666667" fill="none" stroke="black" stroke-width="7"/>
  <path d="M2440.0,160.0 L2440.0,400.0" fill="none" stroke="black" stroke-width="7"/>
  <path d="M2440.0,213.33333333333334 L2433.3333333333335,186.66666666666666 L2413.3333333333335,166.66666666666666 L2393.3333333333335,160.0 L2366.6666666666665,160.0 L2346.6666666666665,166.66666666666666 L2326.6666666666665,186.66666666666666 L2320.0,213.33333333333334 L2320.0,266.6666666666667 L2326.6666666666665,293.3333333333333 L2346.6666666666665,313.3333333333333 L2366.6666666666665,320.0 L2393.3333333333335,320.0 L2413.3333333333335,313.3333333333333 L2433.3333333333335,293.3333333333333 L2440.0,266.6666666666667" fill="none" stroke="black" stroke-width="7"/>
  <path d="M2480.0,160.0 L2480.0,320.0" fill="none" stroke="black" stroke-width="7"/>
  <path d="M2480.0,213.33333333333334 L2486.6666666666665,186.66666666666666 L2506.6666666666665,166.66666666666666 L2526.6666666666665,160.0 L2560.0,160.0" fill="none" stroke="black" stroke-width="7"/>
  <path d="M200.0,600.0 L186.66666666666666,573.3333333333334 L160.0,560.0 L120.0,560.0 L93.33333333333333,573.3333333333334 L80.0,600.0 L93.33333333333333,626.6666666666666 L120.0,640.0 L160.0,640.0 L186.66666666666666,653.3333333333333 L200.0,680.0 L186.66666666666666,706.6666666666667 L160.0,720.0 L120.0,720.0 L93.33333333333333,706.6666666666667 L80.0,680.0" fill="none" stroke="black" stroke-width="7"/>
  <path d="M240.0,480.0 L240.0,720.0" fill="none" stroke="black" stroke-width="7"/>
  <path d="M240.0,560.0 L280.0,560.0" fill="none" stroke="black" stroke-width="7"/>
  <path d="M320.0,560.0 L320.0,666.6666666666667 L326.6666666666667,693.3333333333333 L346.6666666666667,713.3333333333333 L366.6666666666667,720.0 L393.3333333333333,720.0 L413.33333333333337,713.3333333333333 L433.33333333333337,693.3333333333333 L440.0,666.6666666666667" fill="none" stroke="black" stroke-width="7"/>
  <path d="M440.0,560.0 L440.0,720.0" fill="none" stroke="black" stroke-width="7"/>
  <path d="M480.0,560.0 L540.0,720.0 L600.0,560.0" fill="none" stroke="black" stroke-width="7"/>
  <path d="M640.0,560.0 L680.0,720.0 L720.0,560.0 L760.0,720.0 L800.0,560.0" fill="none" stroke="black" stroke-width="7"/>
  <path d="M840.0,560.0 L960.0,720.0" fill="none" stroke="black" stroke-width="7"/>
  <path d="M960.0,560.0 L840.0,720.0" fill="none" stroke="black" stroke-width="7"/>
  <path d="M1000.0,560.0 L1060.0,720.0" fill="none" stroke="black" stroke-width="7"/>
  <path d="M1120.0,560.0 L1060.0,720.0 L1040.0,760.0 L1000.0,800.0" fill="none" stroke="black" stroke-width="7"/>
  <path d="M1160.0,560.0 L1280.0,560.0 L1160.0,720.0 L1280.0,720.0" fill="none" stroke="black" stroke-width="7"/>
  <path d="M1320.0,600.0 L1360.0,560.0 L1360.0,720.0" fill="none" stroke="black" stroke-width="7"/>
  <path d="M1400.0,606.6666666666666 L1406.6666666666667,580.0 L1426.6666666666667,560.0 L1446.6666666666667,553.3333333333333 L1473.3333333333333,553.3333333333333 L1493.3333333333333,560.0 L1513.3333333333333,580.0 L1520.0,606.6666666666666 L1513.3333333333333,633.3333333333334 L1426.6666666666667,666.6666666666667 L1406.6666666666667,686.6666666666667 L1400.0,706.6666666666667 L1400.0,720.0 L1520.0,720.0" fill="none" stroke="black" stroke-width="7"/>
  <path d="M1560.0,560.0 L1680.0,560.0 L1673.3333333333333,586.6666666666666 L1653.3333333333333,620.0 L1600.0,640.0 L1653.3333333333333,653.3333333333333 L1680.0,680.0 L1680.0,746.6666666666667 L1673.3333333333333,773.3333333333333 L1653.3333333333333,793.3333333333333 L1633.3333333333333,800.0 L1606.6666666666667,800.0 L1586.6666666666667,793.3333333333333 L1566.6666666666667,773.3333333333333 L1560.0,746.6666666666667" fill="none" stroke="black" stroke-width="7"/>
  <path d="M1720.0,560.0 L1720.0,640.0 L1733.3333333333333,666.6666666666667 L1760.0,680.0 L1840.0,680.0" fill="none" stroke="black" stroke-width="7"/>
  <path d="M1840.0,560.0 L1840.0,800.0" fill="none" stroke="black" stroke-width="7"/>
  <path d="M2000.0,560.0 L1880.0,560.0 L1880.0,640.0 L1953.3333333333333,640.0 L1973.3333333333333,646.6666666666667 L1993.3333333333333,666.6666666666667 L2000.0,693.3333333333333 L2000.0,746.6666666666667 L1993.3333333333333,773.3333333333333 L1973.3333333333333,793.3333333333333 L1953.3333333333333,800.0 L1880.0,800.0" fill="none" stroke="black" stroke-width="7"/>
  <path d="M2160.0,533.3333333333333 L2153.3333333333335,506.66666666666663 L2133.3333333333335,486.66666666666663 L2113.3333333333335,480.0 L2086.6666666666665,480.0 L2066.6666666666665,486.66666666666663 L2046.6666666666667,506.66666666666663 L2040.0,533.3333333333333 L2040.0,666.6666666666667 L2046.6666666666667,693.3333333333333 L2066.6666666666665,713.3333333333333 L2086.6666666666665,720.0 L2113.3333333333335,720.0 L2133.3333333333335,713.3333333333333 L2153.3333333333335,693.3333333333333 L2160.0,666.6666666666667 L2160.0,613.3333333333334 L2153.3333333333335,586.6666666666666 L2133.3333333333335,566.6666666666666 L2113.3333333333335,560.0 L2086.6666666666665,560.0 L2066.6666666666665,566.6666666666666 L2046.6666666666667,586.6666666666666 L2040.0,613.3333333333334" fill="none" stroke="black" stroke-width="7"/>
  <path d="M2200.0,560.0 L2320.0,560.0 L2200.0,800.0" fill="none" stroke="black" stroke-width="7"/>
  <path d="M2400.0,600.0 L2373.3333333333335,586.6666666666666 L2360.0,560.0 L2360.0,520.0 L2373.3333333333335,493.33333333333337 L2400.0,480.0 L2440.0,480.0 L2466.6666666666665,493.33333333333337 L2480.0,520.0 L2480.0,560.0 L2466.6666666666665,586.6666666666666 L2440.0,600.0 L2400.0,600.0 L2373.3333333333335,613.3333333333334 L2360.0,640.0 L2360.0,680.0 L2373.3333333333335,706.6666666666667 L2400.0,720.0 L2440.0,720.0 L2466.6666666666665,706.6666666666667 L2480.0,680.0 L2480.0,640.0 L2466.6666666666665,613.3333333333334 L2440.0,600.0" fill="none" stroke="black" stroke-width="7"/>
  <path d="M2640.0,666.6666666666667 L2633.3333333333335,693.3333333333333 L2613.3333333333335,713.3333333333333 L2593.3333333333335,720.0 L2566.6666666666665,720.0 L2546.6666666666665,713.3333333333333 L2526.6666666666665,693.3333333333333 L2520.0,666.6666666666667 L2520.0,613.3333333333334 L2526.6666666666665,586.6666666666666 L2546.6666666666665,566.6666666666666 L2566.6666666666665,560.0 L2593.3333333333335,560.0 L2613.3333333333335,566.6666666666666 L2633.3333333333335,586.6666666666666 L2640.0,613.3333333333334 L2640.0,746.6666666666667 L2633.3333333333335,773.3333333333333 L2613.3333333333335,793.3333333333333 L2593.3333333333335,800.0 L2566.6666666666665,800.0 L2546.6666666666665,793.3333333333333 L2526.6666666666665,773.3333333333333 L2520.0,746.6666666666667" fill="none" stroke="black" stroke-width="7"/>
  <path d="M2800.0,613.3333333333334 L2793.3333333333335,586.6666666666666 L2773.3333333333335,566.6666666666666 L2753.3333333333335,560.0 L2726.6666666666665,560.0 L2706.6666666666665,566.6666666666666 L2686.6666666666665,586.6666666666666 L2680.0,613.3333333333334 L2680.0,666.6666666666667 L2686.6666666666665,693.3333333333333 L2706.6666666666665,713.3333333333333 L2726.6666666666665,720.0 L2753.3333333333335,720.0 L2773.3333333333335,713.3333333333333 L2793.3333333333335,693.3333333333333 L2800.0,666.6666666666667 L2800.0,613.3333333333334" fill="none" stroke="black" stroke-width="7"/>
  <path d="M2780.0,580.0 L2700.0,700.0" fill="none" stroke="black" stroke-width="7"/>
  <path d="M120.0,1000.0 L120.0,1040.0" fill="none" stroke="black" stroke-width="7"/>
  <path d="M80.0,1030.0 L120.0,1040.0 L160.0,1030.0" fill="none" stroke="black" stroke-width="7"/>
  <path d="M90.0,1080.0 L120.0,1040.0 L150.0,1080.0" fill="none" stroke="black" stroke-width="7"/>
  <path d="M360.0,1040.0 L333.33333333333337,1053.3333333333333 L320.0,1080.0 L306.66666666666663,1106.6666666666667 L280.0,1120.0 L240.0,1120.0 L213.33333333333331,1106.6666666666667 L200.0,1080.0 L200.0,1040.0 L213.33333333333331,1013.3333333333334 L240.0,1000.0" fill="none" stroke="black" stroke-width="7"/>
  <path d="M360.0,1120.0 L320.0,1080.0 L200.0,960.0 L213.33333333333331,933.3333333333333 L240.0,920.0 L266.6666666666667,933.3333333333333 L280.0,960.0" fill="none" stroke="black" stroke-width="7"/>
  <path d="M400.0,1040.0 L480.0,1040.0" fill="none" stroke="black" stroke-width="7"/>
  <path d="M440.0,1000.0 L440.0,1080.0" fill="none" stroke="black" stroke-width="7"/>
  <path d="M640.0,1000.0 L626.6666666666666,973.3333333333334 L600.0,960.0 L560.0,960.0 L533.3333333333334,973.3333333333334 L520.0,1000.0 L533.3333333333334,1026.6666666666667 L560.0,1040.0 L600.0,1040.0 L626.6666666666666,1053.3333333333333 L640.0,1080.0 L626.6666666666666,1106.6666666666667 L600.0,1120.0 L560.0,1120.0 L533.3333333333334,1106.6666666666667 L520.0,1080.0" fill="none" stroke="black" stroke-width="7"/>
  <path d="M580.0,920.0 L580.0,1160.0" fill="none" stroke="black" stroke-width="7"/>
  <path d="M720.0,920.0 L706.6666666666666,933.3333333333333 L693.3333333333334,960.0 L706.6666666666666,1000.0 L706.6666666666666,1033.3333333333333 L680.0,1040.0 L706.6666666666666,1046.6666666666667 L706.6666666666666,1080.0 L693.3333333333334,1120.0 L706.6666666666666,1146.6666666666667 L720.0,1160.0" fill="none" stroke="black" stroke-width="7"/>
  <path d="M760.0,920.0 L773.3333333333334,933.3333333333333 L786.6666666666666,960.0 L773.3333333333334,1000.0 L773.3333333333334,1033.3333333333333 L800.0,1040.0 L773.3333333333334,1046.6666666666667 L773.3333333333334,1080.0 L786.6666666666666,1120.0 L773.3333333333334,1146.6666666666667 L760.0,1160.0" fill="none" stroke="black" stroke-width="7"/>
  <path d="M880.0,920.0 L853.3333333333334,933.3333333333333 L840.0,960.0 L840.0,1120.0 L853.3333333333334,1146.6666666666667 L880.0,1160.0" fill="none" stroke="black" stroke-width="7"/>
  <path d="M920.0,920.0 L946.6666666666666,933.3333333333333 L960.0,960.0 L960.0,1120.0 L946.6666666666666,1146.6666666666667 L920.0,1160.0" fill="none" stroke="black" stroke-width="7"/>
  <path d="M1080.0,920.0 L1000.0,1160.0" fill="none" stroke="black" stroke-width="7"/>
  <path d="M1120.0,920.0 L1200.0,1160.0" fill="none" stroke="black" stroke-width="7"/>
  <path d="M1280.0,920.0 L1240.0,920.0 L1240.0,1160.0 L1280.0,1160.0" fill="none" stroke="black" stroke-width="7"/>
  <path d="M1320.0,920.0 L1360.0,920.0 L1360.0,1160.0 L1320.0,1160.0" fill="none" stroke="black" stroke-width="7"/>
  <path d="M1400.0,1040.0 L1460.0,960.0 L1520.0,1040.0" fill="none" stroke="black" stroke-width="7"/>
  <path d="M1560.0,1020.0 L1640.0,1020.0" fill="none" stroke="black" stroke-width="7"/>
  <path d="M1560.0,1060.0 L1640.0,1060.0" fill="none" stroke="black" stroke-width="7"/>
  <path d="M1680.0,1040.0 L1760.0,1040.0" fill="none" stroke="black" stroke-width="7"/>
  <path d="M1800.0,920.0 L1880.0,1160.0" fill="none" stroke="black" stroke-width="7"/>
  <path d="M1940.0,880.0 L1940.0,1040.0" fill="none" stroke="black" stroke-width="7"/>
  <path d="M1940.0,1080.0 L1953.3333333333333,1086.6666666666667 L1960.0,1100.0 L1953.3333333333333,1113.3333333333333 L1940.0,1120.0 L1926.6666666666667,1113.3333333333333 L1920.0,1100.0 L1926.6666666666667,1086.6666666666667 L1940.0,1080.0" fill="none" stroke="black" stroke-width="7"/>
  <path d="M2020.0,1080.0 L2033.3333333333333,1086.6666666666667 L2040.0,1100.0 L2033.3333333333333,1113.3333333333333 L2020.0,1120.0 L2006.6666666666667,1113.3333333333333 L2000.0,1100.0 L2006.6666666666667,1086.6666666666667 L2020.0,1080.0" fill="none" stroke="black" stroke-width="7"/>
  <path d="M2120.0,1120.0 L2106.6666666666665,1146.6666666666667 L2080.0,1160.0" fill="none" stroke="black" stroke-width="7"/>
  <path d="M2240.0,1000.0 L2160.0,1040.0 L2240.0,1080.0" fill="none" stroke="black" stroke-width="7"/>
  <path d="M2280.0,1000.0 L2360.0,1040.0 L2280.0,1080.0" fill="none" stroke="black" stroke-width="7"/>
  <path d="M2400.0,920.0 L2400.0,980.0" fill="none" stroke="black" stroke-width="7"/>
  <path d="M2480.0,960.0 L2440.0,1120.0" fill="none" stroke="black" stroke-width="7"/>
  <path d="M2520.0,960.0 L2480.0,1120.0" fill="none" stroke="black" stroke-width="7"/>
  <path d="M2450.0,1020.0 L2520.0,1020.0" fill="none" stroke="black" stroke-width="7"/>
  <path d="M2440.0,1060.0 L2510.0,1060.0" fill="none" stroke="black" stroke-width="7"/>
  <path d="M2560.0,920.0 L2560.0,1160.0" fill="none" stroke="black" stroke-width="7"/>
  <path d="M2600.0,1120.0 L2680.0,1120.0" fill="none" stroke="black" stroke-width="7"/>
  <path d="M2740.0,960.0 L2753.3333333333335,966.6666666666666 L2760.0,980.0 L2753.3333333333335,993.3333333333334 L2740.0,1000.0 L2726.6666666666665,993.3333333333334 L2720.0,980.0 L2726.6666666666665,966.6666666666666 L2740.0,960.0" fill="none" stroke="black" stroke-width="7"/>
  <path d="M2740.0,1080.0 L2753.3333333333335,1086.6666666666667 L2760.0,1100.0 L2753.3333333333335,1113.3333333333333 L2740.0,1120.0 L2726.6666666666665,1113.3333333333333 L2720.0,1100.0 L2726.6666666666665,1086.6666666666667 L2740.0,1080.0" fill="none" stroke="black" stroke-width="7"/>
  <path d="M2820.0,960.0 L2820.0,960.0 L2833.3333333333335,966.6666666666666 L2840.0,980.0 L2833.3333333333335,993.3333333333334 L2820.0,1000.0 L2806.6666666666665,993.3333333333334 L2800.0,980.0 L2806.6666666666665,966.6666666666666 L2820.0,960.0" fill="none" stroke="black" stroke-width="7"/>
  <path d="M2840.0,1120.0 L2826.6666666666665,1146.6666666666667 L2800.0,1160.0" fill="none" stroke="black" stroke-width="7"/>
  <path d="M3040.0,1013.3333333333334 L3033.3333333333335,986.6666666666666 L3013.3333333333335,966.6666666666666 L2993.3333333333335,960.0 L2966.6666666666665,960.0 L2946.6666666666665,966.6666666666666 L2926.6666666666665,986.6666666666666 L2920.0,1013.3333333333334 L2920.0,1066.6666666666667 L2926.6666666666665,1093.3333333333333 L2946.6666666666665,1113.3333333333333 L2966.6666666666665,1120.0 L2993.3333333333335,1120.0 L3013.3333333333335,1113.3333333333333 L3033.3333333333335,1093.3333333333333 L3040.0,1066.6666666666667" fill="none" stroke="black" stroke-width="7"/>
  <path d="M3040.0,1120.0 L3040.0,933.3333333333333 L3033.3333333333335,906.6666666666666 L3013.3333333333335,886.6666666666666 L2993.3333333333335,880.0 L2953.3333333333335,880.0 L2926.6666666666665,880.0 L2906.6666666666665,886.6666666666666 L2886.6666666666665,906.6666666666666 L2880.0,933.3333333333333 L2880.0,1146.6666666666667 L2886.6666666666665,1173.3333333333333 L2906.6666666666665,1193.3333333333333 L2926.6666666666665,1200.0 L3000.0,1200.0" fill="none" stroke="black" stroke-width="7"/>
  <path d="M3200.0,960.0 L3080.0,1120.0" fill="none" stroke="black" stroke-width="7"/>
  <path d="M3100.0,980.0 L3113.3333333333335,986.6666666666666 L3120.0,1000.0 L3113.3333333333335,1013.3333333333334 L3100.0,1020.0 L3086.6666666666665,1013.3333333333334 L3080.0,1000.0 L3086.6666666666665,986.6666666666666 L3100.0,980.0" fill="none" stroke="black" stroke-width="7"/>
  <path d="M3180.0,1060.0 L3193.3333333333335,1066.6666666666667 L3200.0,1080.0 L3193.3333333333335,1093.3333333333333 L3180.0,1100.0 L3166.6666666666665,1093.3333333333333 L3160.0,1080.0 L3166.6666666666665,1066.6666666666667 L3180.0,1060.0" fill="none" stroke="black" stroke-width="7"/>
  <path d="M3240.0,933.3333333333333 L3246.6666666666665,906.6666666666666 L3266.6666666666665,886.6666666666666 L3286.6666666666665,880.0 L3313.3333333333335,880.0 L3333.3333333333335,886.6666666666666 L3353.3333333333335,906.6666666666666 L3360.0,933.3333333333333 L3360.0,946.6666666666667 L3353.3333333333335,973.3333333333334 L3333.3333333333335,993.3333333333334 L3313.3333333333335,1000.0 L3280.0,1000.0 L3280.0,1040.0" fill="none" stroke="black" stroke-width="7"/>
  <path d="M3280.0,1080.0 L3293.3333333333335,1086.6666666666667 L3300.0,1100.0 L3293.3333333333335,1113.3333333333333 L3280.0,1120.0 L3266.6666666666665,1113.3333333333333 L3260.0,1100.0 L3266.6666666666665,1086.6666666666667 L3280.0,1080.0" fill="none" stroke="black" stroke-width="7"/>
  <path d="M3400.0,1060.0 L3420.0,1020.0 L3440.0,1020.0 L3480.0,1060.0 L3500.0,1060.0 L3520.0,1020.0" fill="none" stroke="black" stroke-width="7"/>
  <path d="M3560.0,920.0 L3560.0,980.0" fill="none" stroke="black" stroke-width="7"/>
  <path d="M3600.0,920.0 L3600.0,980.0" fill="none" stroke="black" stroke-width="7"/>
  <path d="M80.0,1280.0 L80.0,1520.0" fill="none" stroke="black" stroke-width="7"/>
  <path d="M80.0,1360.0 L120.0,1360.0" fill="none" stroke="black" stroke-width="7"/>
  <path d="M160.0,1280.0 L160.0,1520.0" fill="none" stroke="black" stroke-width="7"/>
  <path d="M160.0,1413.3333333333333 L166.66666666666669,1386.6666666666667 L186.66666666666666,1366.6666666666667 L206.66666666666669,1360.0 L233.33333333333331,1360.0 L253.33333333333334,1366.6666666666667 L273.33333333333337,1386.6666666666667 L280.0,1413.3333333333333 L280.0,1520.0" fill="none" stroke="black" stroke-width="7"/>
  <path d="M320.0,1426.6666666666667 L440.0,1426.6666666666667 L440.0,1413.3333333333333 L433.33333333333337,1386.6666666666667 L413.33333333333337,1366.6666666666667 L393.3333333333333,1360.0 L366.6666666666667,1360.0 L346.6666666666667,1366.6666666666667 L326.6666666666667,1386.6666666666667 L320.0,1413.3333333333333 L320.0,1466.6666666666667 L326.6666666666667,1493.3333333333333 L346.6666666666667,1513.3333333333333 L366.6666666666667,1520.0 L393.3333333333333,1520.0 L413.33333333333337,1513.3333333333333 L433.33333333333337,1493.3333333333333 L440.0,1466.6666666666667" fill="none" stroke="black" stroke-width="7"/>
  <path d="M680.0,1360.0 L680.0,1600.0" fill="none" stroke="black" stroke-width="7"/>
  <path d="M680.0,1413.3333333333333 L673.3333333333334,1386.6666666666667 L653.3333333333334,1366.6666666666667 L633.3333333333334,1360.0 L606.6666666666666,1360.0 L586.6666666666666,1366.6666666666667 L566.6666666666666,1386.6666666666667 L560.0,1413.3333333333333 L560.0,1466.6666666666667 L566.6666666666666,1493.3333333333333 L586.6666666666666,1513.3333333333333 L606.6666666666666,1520.0 L633.3333333333334,1520.0 L653.3333333333334,1513.3333333333333 L673.3333333333334,1493.3333333333333 L680.0,1466.6666666666667" fill="none" stroke="black" stroke-width="7"/>
  <path d="M720.0,1360.0 L720.0,1466.6666666666667 L726.6666666666666,1493.3333333333333 L746.6666666666666,1513.3333333333333 L766.6666666666666,1520.0 L793.3333333333334,1520.0 L813.3333333333334,1513.3333333333333 L833.3333333333334,1493.3333333333333 L840.0,1466.6666666666667" fill="none" stroke="black" stroke-width="7"/>
  <path d="M840.0,1360.0 L840.0,1520.0" fill="none" stroke="black" stroke-width="7"/>
  <path d="M880.0,1360.0 L880.0,1520.0" fill="none" stroke="black" stroke-width="7"/>
  <path d="M880.0,1280.0 L880.0,1320.0" fill="none" stroke="black" stroke-width="7"/>
  <path d="M1040.0,1413.3333333333333 L1033.3333333333333,1386.6666666666667 L1013.3333333333334,1366.6666666666667 L993.3333333333334,1360.0 L966.6666666666666,1360.0 L946.6666666666666,1366.6666666666667 L926.6666666666666,1386.6666666666667 L920.0,1413.3333333333333 L920.0,1466.6666666666667 L926.6666666666666,1493.3333333333333 L946.6666666666666,1513.3333333333333 L966.6666666666666,1520.0 L993.3333333333334,1520.0 L1013.3333333333334,1513.3333333333333 L1033.3333333333333,1493.3333333333333 L1040.0,1466.6666666666667" fill="none" stroke="black" stroke-width="7"/>
  <path d="M1080.0,1280.0 L1080.0,1520.0" fill="none" stroke="black" stroke-width="7"/>
  <path d="M1080.0,1440.0 L1160.0,1360.0" fill="none" stroke="black" stroke-width="7"/>
  <path d="M1120.0,1400.0 L1160.0,1520.0" fill="none" stroke="black" stroke-width="7"/>
  <path d="M1320.0,1320.0 L1293.3333333333333,1333.3333333333333 L1280.0,1360.0 L1280.0,1520.0 L1293.3333333333333,1546.6666666666667 L1320.0,1560.0" fill="none" stroke="black" stroke-width="7"/>
  <path d="M1360.0,1280.0 L1360.0,1520.0" fill="none" stroke="black" stroke-width="7"/>
  <path d="M1360.0,1413.3333333333333 L1366.6666666666667,1386.6666666666667 L1386.6666666666667,1366.6666666666667 L1406.6666666666667,1360.0 L1433.3333333333333,1360.0 L1453.3333333333333,1366.6666666666667 L1473.3333333333333,1386.6666666666667 L1480.0,1413.3333333333333 L1480.0,1466.6666666666667 L1473.3333333333333,1493.3333333333333 L1453.3333333333333,1513.3333333333333 L1433.3333333333333,1520.0 L1406.6666666666667,1520.0 L1386.6666666666667,1513.3333333333333 L1366.6666666666667,1493.3333333333333 L1360.0,1466.6666666666667" fill="none" stroke="black" stroke-width="7"/>
  <path d="M1520.0,1360.0 L1520.0,1520.0" fill="none" stroke="black" stroke-width="7"/>
  <path d="M1520.0,1413.3333333333333 L1526.6666666666667,1386.6666666666667 L1546.6666666666667,1366.6666666666667 L1566.6666666666667,1360.0 L1600.0,1360.0" fill="none" stroke="black" stroke-width="7"/>
  <path d="M1760.0,1413.3333333333333 L1753.3333333333333,1386.6666666666667 L1733.3333333333333,1366.6666666666667 L1713.3333333333333,1360.0 L1686.6666666666667,1360.0 L1666.6666666666667,1366.6666666666667 L1646.6666666666667,1386.6666666666667 L1640.0,1413.3333333333333 L1640.0,1466.6666666666667 L1646.6666666666667,1493.3333333333333 L1666.6666666666667,1513.3333333333333 L1686.6666666666667,1520.0 L1713.3333333333333,1520.0 L1733.3333333333333,1513.3333333333333 L1753.3333333333333,1493.3333333333333 L1760.0,1466.6666666666667 L1760.0,1413.3333333333333" fill="none" stroke="black" stroke-width="7"/>
  <path d="M1800.0,1360.0 L1840.0,1520.0 L1880.0,1360.0 L1920.0,1520.0 L1960.0,1360.0" fill="none" stroke="black" stroke-width="7"/>
  <path d="M2000.0,1360.0 L2000.0,1520.0" fill="none" stroke="black" stroke-width="7"/>
  <path d="M2000.0,1413.3333333333333 L2006.6666666666667,1386.6666666666667 L2026.6666666666667,1366.6666666666667 L2046.6666666666667,1360.0 L2073.3333333333335,1360.0 L2093.3333333333335,1366.6666666666667 L2113.3333333333335,1386.6666666666667 L2120.0,1413.3333333333333 L2120.0,1520.0" fill="none" stroke="black" stroke-width="7"/>
  <path d="M2160.0,1320.0 L2186.6666666666665,1333.3333333333333 L2200.0,1360.0 L2200.0,1520.0 L2186.6666666666665,1546.6666666666667 L2160.0,1560.0" fill="none" stroke="black" stroke-width="7"/>
  <path d="M2320.0,1520.0 L2320.0,1320.0 L2333.3333333333335,1293.3333333333333 L2360.0,1280.0" fill="none" stroke="black" stroke-width="7"/>
  <path d="M2320.0,1360.0 L2360.0,1360.0" fill="none" stroke="black" stroke-width="7"/>
  <path d="M2520.0,1413.3333333333333 L2513.3333333333335,1386.6666666666667 L2493.3333333333335,1366.6666666666667 L2473.3333333333335,1360.0 L2446.6666666666665,1360.0 L2426.6666666666665,1366.6666666666667 L2406.6666666666665,1386.6666666666667 L2400.0,1413.3333333333333 L2400.0,1466.6666666666667 L2406.6666666666665,1493.3333333333333 L2426.6666666666665,1513.3333333333333 L2446.6666666666665,1520.0 L2473.3333333333335,1520.0 L2493.3333333333335,1513.3333333333333 L2513.3333333333335,1493.3333333333333 L2520.0,1466.6666666666667 L2520.0,1413.3333333333333" fill="none" stroke="black" stroke-width="7"/>
  <path d="M2560.0,1360.0 L2680.0,1520.0" fill="none" stroke="black" stroke-width="7"/>
  <path d="M2680.0,1360.0 L2560.0,1520.0" fill="none" stroke="black" stroke-width="7"/>
  <path d="M2720.0,1333.3333333333333 L2726.6666666666665,1306.6666666666667 L2746.6666666666665,1286.6666666666667 L2766.6666666666665,1280.0 L2793.3333333333335,1280.0 L2813.3333333333335,1286.6666666666667 L2833.3333333333335,1306.6666666666667 L2840.0,1333.3333333333333 L2840.0,1346.6666666666667 L2833.3333333333335,1373.3333333333333 L2813.3333333333335,1393.3333333333333 L2793.3333333333335,1400.0 L2760.0,1400.0 L2760.0,1440.0" fill="none" stroke="black" stroke-width="7"/>
  <path d="M2760.0,1480.0 L2773.3333333333335,1486.6666666666667 L2780.0,1500.0 L2773.3333333333335,1513.3333333333333 L2760.0,1520.0 L2746.6666666666665,1513.3333333333333 L2740.0,1500.0 L2746.6666666666665,1486.6666666666667 L2760.0,1480.0" fill="none" stroke="black" stroke-width="7"/>
  <path d="M120.0,1760.0 L120.0,1960.0 L106.66666666666666,1986.6666666666667 L80.0,2000.0" fill="none" stroke="black" stroke-width="7"/>
  <path d="M120.0,1680.0 L120.0,1720.0" fill="none" stroke="black" stroke-width="7"/>
  <path d="M160.0,1760.0 L160.0,1866.6666666666667 L166.66666666666669,1893.3333333333333 L186.66666666666666,1913.3333333333333 L206.66666666666669,1920.0 L233.33333333333331,1920.0 L253.33333333333334,1913.3333333333333 L273.33333333333337,1893.3333333333333 L280.0,1866.6666666666667" fill="none" stroke="black" stroke-width="7"/>
  <path d="M280.0,1760.0 L280.0,1920.0" fill="none" stroke="black" stroke-width="7"/>
  <path d="M320.0,1760.0 L320.0,1920.0" fill="none" stroke="black" stroke-width="7"/>
  <path d="M320.0,1813.3333333333333 L326.66666666666663,1786.6666666666667 L346.66666666666663,1766.6666666666667 L366.6666666666667,1760.0 L393.3333333333333,1760.0 L413.33333333333337,1766.6666666666667 L433.33333333333337,1786.6666666666667 L440.0,1813.3333333333333 L440.0,1920.0" fill="none" stroke="black" stroke-width="7"/>
  <path d="M440.0,1813.3333333333333 L446.66666666666663,1786.6666666666667 L466.66666666666663,1766.6666666666667 L486.6666666666667,1760.0 L513.3333333333333,1760.0 L533.3333333333333,1766.6666666666667 L553.3333333333333,1786.6666666666667 L560.0,1813.3333333333333 L560.0,1920.0" fill="none" stroke="black" stroke-width="7"/>
  <path d="M600.0,1760.0 L600.0,2000.0" fill="none" stroke="black" stroke-width="7"/>
  <path d="M600.0,1813.3333333333333 L606.6666666666666,1786.6666666666667 L626.6666666666666,1766.6666666666667 L646.6666666666666,1760.0 L673.3333333333334,1760.0 L693.3333333333334,1766.6666666666667 L713.3333333333334,1786.6666666666667 L720.0,1813.3333333333333 L720.0,1866.6666666666667 L713.3333333333334,1893.3333333333333 L693.3333333333334,1913.3333333333333 L673.3333333333334,1920.0 L646.6666666666666,1920.0 L626.6666666666666,1913.3333333333333 L606.6666666666666,1893.3333333333333 L600.0,1866.6666666666667" fill="none" stroke="black" stroke-width="7"/>
  <path d="M880.0,1800.0 L866.6666666666666,1773.3333333333333 L840.0,1760.0 L800.0,1760.0 L773.3333333333334,1773.3333333333333 L760.0,1800.0 L773.3333333333334,1826.6666666666667 L800.0,1840.0 L840.0,1840.0 L866.6666666666666,1853.3333333333333 L880.0,1880.0 L866.6666666666666,1906.6666666666667 L840.0,1920.0 L800.0,1920.0 L773.3333333333334,1906.6666666666667 L760.0,1880.0" fill="none" stroke="black" stroke-width="7"/>
  <path d="M1120.0,1813.3333333333333 L1113.3333333333333,1786.6666666666667 L1093.3333333333333,1766.6666666666667 L1073.3333333333333,1760.0 L1046.6666666666667,1760.0 L1026.6666666666667,1766.6666666666667 L1006.6666666666666,1786.6666666666667 L1000.0,1813.3333333333333 L1000.0,1866.6666666666667 L1006.6666666666666,1893.3333333333333 L1026.6666666666667,1913.3333333333333 L1046.6666666666667,1920.0 L1073.3333333333333,1920.0 L1093.3333333333333,1913.3333333333333 L1113.3333333333333,1893.3333333333333 L1120.0,1866.6666666666667 L1120.0,1813.3333333333333" fill="none" stroke="black" stroke-width="7"/>
  <path d="M1160.0,1760.0 L1220.0,1920.0 L1280.0,1760.0" fill="none" stroke="black" stroke-width="7"/>
  <path d="M1320.0,1826.6666666666667 L1440.0,1826.6666666666667 L1440.0,1813.3333333333333 L1433.3333333333333,1786.6666666666667 L1413.3333333333333,1766.6666666666667 L1393.3333333333333,1760.0 L1366.6666666666667,1760.0 L1346.6666666666667,1766.6666666666667 L1326.6666666666667,1786.6666666666667 L1320.0,1813.3333333333333 L1320.0,1866.6666666666667 L1326.6666666666667,1893.3333333333333 L1346.6666666666667,1913.3333333333333 L1366.6666666666667,1920.0 L1393.3333333333333,1920.0 L1413.3333333333333,1913.3333333333333 L1433.3333333333333,1893.3333333333333 L1440.0,1866.6666666666667" fill="none" stroke="black" stroke-width="7"/>
  <path d="M1480.0,1760.0 L1480.0,1920.0" fill="none" stroke="black" stroke-width="7"/>
  <path d="M1480.0,1813.3333333333333 L1486.6666666666667,1786.6666666666667 L1506.6666666666667,1766.6666666666667 L1526.6666666666667,1760.0 L1560.0,1760.0" fill="none" stroke="black" stroke-width="7"/>
  <path d="M1680.0,1680.0 L1680.0,1920.0" fill="none" stroke="black" stroke-width="7"/>
  <path d="M1680.0,1760.0 L1720.0,1760.0" fill="none" stroke="black" stroke-width="7"/>
  <path d="M1760.0,1680.0 L1760.0,1920.0" fill="none" stroke="black" stroke-width="7"/>
  <path d="M1760.0,1813.3333333333333 L1766.6666666666667,1786.6666666666667 L1786.6666666666667,1766.6666666666667 L1806.6666666666667,1760.0 L1833.3333333333333,1760.0 L1853.3333333333333,1766.6666666666667 L1873.3333333333333,1786.6666666666667 L1880.0,1813.3333333333333 L1880.0,1920.0" fill="none" stroke="black" stroke-width="7"/>
  <path d="M1920.0,1826.6666666666667 L2040.0,1826.6666666666667 L2040.0,1813.3333333333333 L2033.3333333333333,1786.6666666666667 L2013.3333333333333,1766.6666666666667 L1993.3333333333333,1760.0 L1966.6666666666667,1760.0 L1946.6666666666667,1766.6666666666667 L1926.6666666666667,1786.6666666666667 L1920.0,1813.3333333333333 L1920.0,1866.6666666666667 L1926.6666666666667,1893.3333333333333 L1946.6666666666667,1913.3333333333333 L1966.6666666666667,1920.0 L1993.3333333333333,1920.0 L2013.3333333333333,1913.3333333333333 L2033.3333333333333,1893.3333333333333 L2040.0,1866.6666666666667" fill="none" stroke="black" stroke-width="7"/>
  <path d="M2160.0,1680.0 L2160.0,1920.0" fill="none" stroke="black" stroke-width="7"/>
  <path d="M2320.0,1760.0 L2320.0,1920.0" fill="none" stroke="black" stroke-width="7"/>
  <path d="M2320.0,1813.3333333333333 L2313.3333333333335,1786.6666666666667 L2293.3333333333335,1766.6666666666667 L2273.3333333333335,1760.0 L2246.6666666666665,1760.0 L2226.6666666666665,1766.6666666666667 L2206.6666666666665,1786.6666666666667 L2200.0,1813.3333333333333 L2200.0,1866.6666666666667 L2206.6666666666665,1893.3333333333333 L2226.6666666666665,1913.3333333333333 L2246.6666666666665,1920.0 L2273.3333333333335,1920.0 L2293.3333333333335,1913.3333333333333 L2313.3333333333335,1893.3333333333333 L2320.0,1866.6666666666667" fill="none" stroke="black" stroke-width="7"/>
  <path d="M2360.0,1760.0 L2480.0,1760.0 L2360.0,1920.0 L2480.0,1920.0" fill="none" stroke="black" stroke-width="7"/>
  <path d="M2520.0,1760.0 L2580.0,1920.0" fill="none" stroke="black" stroke-width="7"/>
  <path d="M2640.0,1760.0 L2580.0,1920.0 L2560.0,1960.0 L2520.0,2000.0" fill="none" stroke="black" stroke-width="7"/>
  <path d="M2880.0,1680.0 L2880.0,1920.0" fill="none" stroke="black" stroke-width="7"/>
  <path d="M2880.0,1813.3333333333333 L2873.3333333333335,1786.6666666666667 L2853.3333333333335,1766.6666666666667 L2833.3333333333335,1760.0 L2806.6666666666665,1760.0 L2786.6666666666665,1766.6666666666667 L2766.6666666666665,1786.6666666666667 L2760.0,1813.3333333333333 L2760.0,1866.6666666666667 L2766.6666666666665,1893.3333333333333 L2786.6666666666665,1913.3333333333333 L2806.6666666666665,1920.0 L2833.3333333333335,1920.0 L2853.3333333333335,1913.3333333333333 L2873.3333333333335,1893.3333333333333 L2880.0,1866.6666666666667" fill="none" stroke="black" stroke-width="7"/>
  <path d="M3040.0,1813.3333333333333 L3033.3333333333335,1786.6666666666667 L3013.3333333333335,1766.6666666666667 L2993.3333333333335,1760.0 L2966.6666666666665,1760.0 L2946.6666666666665,1766.6666666666667 L2926.6666666666665,1786.6666666666667 L2920.0,1813.3333333333333 L2920.0,1866.6666666666667 L2926.6666666666665,1893.3333333333333 L2946.6666666666665,1913.3333333333333 L2966.6666666666665,1920.0 L2993.3333333333335,1920.0 L3013.3333333333335,1913.3333333333333 L3033.3333333333335,1893.3333333333333 L3040.0,1866.6666666666667 L3040.0,1813.3333333333333" fill="none" stroke="black" stroke-width="7"/>
  <path d="M3200.0,1813.3333333333333 L3193.3333333333335,1786.6666666666667 L3173.3333333333335,1766.6666666666667 L3153.3333333333335,1760.0 L3126.6666666666665,1760.0 L3106.6666666666665,1766.6666666666667 L3086.6666666666665,1786.6666666666667 L3080.0,1813.3333333333333 L3080.0,1866.6666666666667 L3086.6666666666665,1893.3333333333333 L3106.6666666666665,1913.3333333333333 L3126.6666666666665,1920.0 L3153.3333333333335,1920.0 L3173.3333333333335,1913.3333333333333 L3193.3333333333335,1893.3333333333333 L3200.0,1866.6666666666667" fill="none" stroke="black" stroke-width="7"/>
  <path d="M3200.0,1760.0 L3200.0,1946.6666666666667 L3193.3333333333335,1973.3333333333333 L3173.3333333333335,1993.3333333333333 L3153.3333333333335,2000.0 L3113.3333333333335,2000.0" fill="none" stroke="black" stroke-width="7"/>
  <path d="M3260.0,1880.0 L3273.3333333333335,1886.6666666666667 L3280.0,1900.0 L3273.3333333333335,1913.3333333333333 L3260.0,1920.0 L3246.6666666666665,1913.3333333333333 L3240.0,1900.0 L3246.6666666666665,1886.6666666666667 L3260.0,1880.0" fill="none" stroke="black" stroke-width="7"/>
  <path d="M200.0,2080.0 L200.0,2320.0" fill="none" stroke="black" stroke-width="7"/>
  <path d="M200.0,2213.3333333333335 L193.33333333333334,2186.6666666666665 L173.33333333333334,2166.6666666666665 L153.33333333333331,2160.0 L126.66666666666667,2160.0 L106.66666666666666,2166.6666666666665 L86.66666666666667,2186.6666666666665 L80.0,2213.3333333333335 L80.0,2266.6666666666665 L86.66666666666667,2293.3333333333335 L106.66666666666666,2313.3333333333335 L126.66666666666667,2320.0 L153.33333333333331,2320.0 L173.33333333333334,2313.3333333333335 L193.33333333333334,2293.3333333333335 L200.0,2266.6666666666665" fill="none" stroke="black" stroke-width="7"/>
  <path d="M360.0,2133.3333333333335 L353.33333333333337,2106.6666666666665 L333.33333333333337,2086.6666666666665 L313.3333333333333,2080.0 L286.6666666666667,2080.0 L266.6666666666667,2086.6666666666665 L246.66666666666669,2106.6666666666665 L240.0,2133.3333333333335 L240.0,2266.6666666666665 L246.66666666666669,2293.3333333333335 L266.6666666666667,2313.3333333333335 L286.6666666666667,2320.0 L313.3333333333333,2320.0 L333.33333333333337,2313.3333333333335 L353.33333333333337,2293.3333333333335 L360.0,2266.6666666666665 L360.0,2213.3333333333335 L353.33333333333337,2186.6666666666665 L333.33333333333337,2166.6666666666665 L313.3333333333333,2160.0 L286.6666666666667,2160.0 L266.6666666666667,2166.6666666666665 L246.66666666666669,2186.6666666666665 L240.0,2213.3333333333335" fill="none" stroke="black" stroke-width="7"/>
  <path d="M400.0,2160.0 L520.0,2160.0 L513.3333333333334,2186.6666666666665 L493.33333333333337,2220.0 L440.0,2240.0 L493.33333333333337,2253.3333333333335 L520.0,2280.0 L520.0,2346.6666666666665 L513.3333333333334,2373.3333333333335 L493.33333333333337,2393.3333333333335 L473.3333333333333,2400.0 L446.6666666666667,2400.0 L426.6666666666667,2393.3333333333335 L406.6666666666667,2373.3333333333335 L400.0,2346.6666666666665" fill="none" stroke="black" stroke-width="7"/>
  <path d="M680.0,2213.3333333333335 L673.3333333333334,2186.6666666666665 L653.3333333333334,2166.6666666666665 L633.3333333333334,2160.0 L606.6666666666666,2160.0 L586.6666666666666,2166.6666666666665 L566.6666666666666,2186.6666666666665 L560.0,2213.3333333333335 L560.0,2266.6666666666665 L566.6666666666666,2293.3333333333335 L586.6666666666666,2313.3333333333335 L606.6666666666666,2320.0 L633.3333333333334,2320.0 L653.3333333333334,2313.3333333333335 L673.3333333333334,2293.3333333333335 L680.0,2266.6666666666665 L680.0,2213.3333333333335" fill="none" stroke="black" stroke-width="7"/>
  <path d="M660.0,2180.0 L580.0,2300.0" fill="none" stroke="black" stroke-width="7"/>
  <path d="M720.0,2160.0 L720.0,2240.0 L733.3333333333334,2266.6666666666665 L760.0,2280.0 L840.0,2280.0" fill="none" stroke="black" stroke-width="7"/>
  <path d="M840.0,2160.0 L840.0,2400.0" fill="none" stroke="black" stroke-width="7"/>
  <path d="M880.0,2320.0 L880.0,2120.0 L893.3333333333334,2093.3333333333335 L920.0,2080.0" fill="none" stroke="black" stroke-width="7"/>
  <path d="M880.0,2160.0 L920.0,2160.0" fill="none" stroke="black" stroke-width="7"/>
  <path d="M1080.0,2080.0 L1080.0,2320.0" fill="none" stroke="black" stroke-width="7"/>
  <path d="M1080.0,2213.3333333333335 L1073.3333333333333,2186.6666666666665 L1053.3333333333333,2166.6666666666665 L1033.3333333333333,2160.0 L1006.6666666666666,2160.0 L986.6666666666666,2166.6666666666665 L966.6666666666666,2186.6666666666665 L960.0,2213.3333333333335 L960.0,2266.6666666666665 L966.6666666666666,2293.3333333333335 L986.6666666666666,2313.3333333333335 L1006.6666666666666,2320.0 L1033.3333333333333,2320.0 L1053.3333333333333,2313.3333333333335 L1073.3333333333333,2293.3333333333335 L1080.0,2266.6666666666665" fill="none" stroke="black" stroke-width="7"/>
  <path d="M1120.0,2160.0 L1240.0,2160.0 L1120.0,2400.0" fill="none" stroke="black" stroke-width="7"/>
  <path d="M1400.0,2160.0 L1360.0,2320.0" fill="none" stroke="black" stroke-width="7"/>
  <path d="M1440.0,2160.0 L1400.0,2320.0" fill="none" stroke="black" stroke-width="7"/>
  <path d="M1370.0,2220.0 L1440.0,2220.0" fill="none" stroke="black" stroke-width="7"/>
  <path d="M1360.0,2260.0 L1430.0,2260.0" fill="none" stroke="black" stroke-width="7"/>
  <path d="M1480.0,2200.0 L1520.0,2160.0 L1520.0,2320.0" fill="none" stroke="black" stroke-width="7"/>
  <path d="M1640.0,2120.0 L1560.0,2360.0" fill="none" stroke="black" stroke-width="7"/>
  <path d="M1680.0,2206.6666666666665 L1686.6666666666667,2180.0 L1706.6666666666667,2160.0 L1726.6666666666667,2153.3333333333335 L1753.3333333333333,2153.3333333333335 L1773.3333333333333,2160.0 L1793.3333333333333,2180.0 L1800.0,2206.6666666666665 L1793.3333333333333,2233.3333333333335 L1706.6666666666667,2266.6666666666665 L1686.6666666666667,2286.6666666666665 L1680.0,2306.6666666666665 L1680.0,2320.0 L1800.0,2320.0" fill="none" stroke="black" stroke-width="7"/>
</svg>
