<?xml version="1.0" encoding="utf-8" ?>
<svg baseProfile="tiny" height="164" version="1.2" width="84" xmlns="http://www.w3.org/2000/svg" xmlns:ev="http://www.w3.org/2001/xml-events" xmlns:xlink="http://www.w3.org/1999/xlink">
  <defs/>
  <path d="M2,2 L82,2 L82,162 L2,162Z" fill="none" stroke="cyan" stroke-width="2"/>
  <path d="M82.0,68.66666666666667 L78.66666666666667,55.33333333333333 L68.66666666666667,45.33333333333333 L58.66666666666667,42.0 L45.33333333333333,42.0 L35.333333333333336,45.33333333333333 L25.333333333333336,55.33333333333333 L22.0,68.66666666666667 L22.0,95.33333333333334 L25.333333333333336,108.66666666666666 L35.333333333333336,118.66666666666666 L45.33333333333333,122.0 L58.66666666666667,122.0 L68.66666666666667,118.66666666666666 L78.66666666666667,108.66666666666666 L82.0,95.33333333333334" fill="none" stroke="black" stroke-width="2"/>
  <path d="M82.0,122.0 L82.0,28.666666666666657 L78.66666666666667,15.333333333333329 L68.66666666666667,5.333333333333329 L58.66666666666667,2.0 L38.666666666666664,2.0 L25.333333333333336,2.0 L15.333333333333329,5.333333333333329 L5.333333333333336,15.333333333333329 L2.0,28.666666666666657 L2.0,135.33333333333334 L5.333333333333336,148.66666666666666 L15.333333333333329,158.66666666666666 L25.333333333333336,162.0 L62.0,162.0" fill="none" stroke="black" stroke-width="2"/>
</svg>
