<?xml version="1.0" encoding="UTF-8" standalone="no"?>
<svg
   xmlns:dc="http://purl.org/dc/elements/1.1/"
   xmlns:cc="http://creativecommons.org/ns#"
   xmlns:rdf="http://www.w3.org/1999/02/22-rdf-syntax-ns#"
   xmlns:svg="http://www.w3.org/2000/svg"
   xmlns="http://www.w3.org/2000/svg"
   xmlns:sodipodi="http://sodipodi.sourceforge.net/DTD/sodipodi-0.dtd"
   xmlns:inkscape="http://www.inkscape.org/namespaces/inkscape"
   height="12.559332cm"
   version="1.2"
   width="20.511236cm"
   id="svg280"
   sodipodi:docname="tmp.svg"
   inkscape:version="0.92.3 (2405546, 2018-03-11)">
  <metadata
     id="metadata284">
    <rdf:RDF>
      <cc:Work
         rdf:about="">
        <dc:format>image/svg+xml</dc:format>
        <dc:type
           rdf:resource="http://purl.org/dc/dcmitype/StillImage" />
        <dc:title></dc:title>
      </cc:Work>
    </rdf:RDF>
  </metadata>
  <sodipodi:namedview
     pagecolor="#ffffff"
     bordercolor="#666666"
     borderopacity="1"
     objecttolerance="10"
     gridtolerance="10"
     guidetolerance="10"
     inkscape:pageopacity="0"
     inkscape:pageshadow="2"
     inkscape:window-width="2560"
     inkscape:window-height="1600"
     id="namedview282"
     showgrid="false"
     units="cm"
     fit-margin-left="0.3"
     fit-margin-top="0.3"
     fit-margin-right="0.3"
     fit-margin-bottom="0.3"
     inkscape:zoom="1.668772"
     inkscape:cx="467.25607"
     inkscape:cy="262.2099"
     inkscape:window-x="1440"
     inkscape:window-y="0"
     inkscape:window-maximized="0"
     inkscape:current-layer="svg280" />
  <defs
     id="defs2" />
  <path
     d="M 40.427195,30.768947 V 68.302645"
     id="path4"
     inkscape:connector-curvature="0"
     style="fill:none;stroke:#000000;stroke-width:2.677;stroke-miterlimit:4;stroke-dasharray:none" />
  <path
     d="M 40.427195,40.152374 31.043768,30.768947 H 21.66034 l -9.383415,9.383427 v 18.766843 l 9.383415,9.383428 h 9.383428 l 9.383427,-9.383428"
     id="path6"
     inkscape:connector-curvature="0"
     style="fill:none;stroke:#000000;stroke-width:2.677;stroke-miterlimit:4;stroke-dasharray:none" />
  <path
     d="M 49.810623,12.002091 V 68.302645"
     id="path8"
     inkscape:connector-curvature="0"
     style="fill:none;stroke:#000000;stroke-width:2.677;stroke-miterlimit:4;stroke-dasharray:none" />
  <path
     d="m 49.810623,40.152374 9.383428,-9.383427 h 9.383415 l 9.383428,9.383427 v 18.766843 l -9.383428,9.383428 h -9.383415 l -9.383428,-9.383428"
     id="path10"
     inkscape:connector-curvature="0"
     style="fill:none;stroke:#000000;stroke-width:2.677;stroke-miterlimit:4;stroke-dasharray:none" />
  <path
     d="m 115.4946,40.152374 -9.38343,-9.383427 h -9.383421 l -9.383428,9.383427 v 18.766843 l 9.383428,9.383428 h 9.383421 l 9.38343,-9.383428"
     id="path12"
     inkscape:connector-curvature="0"
     style="fill:none;stroke:#000000;stroke-width:2.677;stroke-miterlimit:4;stroke-dasharray:none" />
  <path
     d="M 153.02829,12.002091 V 68.302645"
     id="path14"
     inkscape:connector-curvature="0"
     style="fill:none;stroke:#000000;stroke-width:2.677;stroke-miterlimit:4;stroke-dasharray:none" />
  <path
     d="m 153.02829,40.152374 -9.38341,-9.383427 h -9.38343 l -9.38343,9.383427 v 18.766843 l 9.38343,9.383428 h 9.38343 l 9.38341,-9.383428"
     id="path16"
     inkscape:connector-curvature="0"
     style="fill:none;stroke:#000000;stroke-width:2.677;stroke-miterlimit:4;stroke-dasharray:none" />
  <path
     d="m 171.79515,49.535802 h 9.38343 l 9.38342,-9.383428 -9.38342,-9.383427 h -9.38343 l -9.38343,9.383427 v 18.766843 l 9.38343,9.383428 h 9.38343 l 9.38342,-9.383428"
     id="path18"
     inkscape:connector-curvature="0"
     style="fill:none;stroke:#000000;stroke-width:2.677;stroke-miterlimit:4;stroke-dasharray:none" />
  <path
     d="M 199.94542,68.302645 V 21.385519 l 9.38343,-9.383428"
     id="path20"
     inkscape:connector-curvature="0"
     style="fill:none;stroke:#000000;stroke-width:2.677;stroke-miterlimit:4;stroke-dasharray:none" />
  <path
     d="m 199.94542,30.768947 h 9.38343"
     id="path22"
     inkscape:connector-curvature="0"
     style="fill:none;stroke:#000000;stroke-width:2.677;stroke-miterlimit:4;stroke-dasharray:none" />
  <path
     d="m 246.86255,40.152374 -9.38343,-9.383427 h -9.38343 l -9.38342,9.383427 v 18.766843 l 9.38342,9.383428 h 9.38343 l 9.38343,-9.383428"
     id="path24"
     inkscape:connector-curvature="0"
     style="fill:none;stroke:#000000;stroke-width:2.677;stroke-miterlimit:4;stroke-dasharray:none" />
  <path
     d="m 246.86255,30.768947 v 46.917126 l -9.38343,9.383427 h -9.38343"
     id="path26"
     inkscape:connector-curvature="0"
     style="fill:none;stroke:#000000;stroke-width:2.677;stroke-miterlimit:4;stroke-dasharray:none" />
  <path
     d="M 256.24597,12.002091 V 68.302645"
     id="path28"
     inkscape:connector-curvature="0"
     style="fill:none;stroke:#000000;stroke-width:2.677;stroke-miterlimit:4;stroke-dasharray:none" />
  <path
     d="m 256.24597,40.152374 9.38343,-9.383427 h 9.38342 l 9.38342,9.383427 v 28.150271"
     id="path30"
     inkscape:connector-curvature="0"
     style="fill:none;stroke:#000000;stroke-width:2.677;stroke-miterlimit:4;stroke-dasharray:none" />
  <path
     d="M 293.77967,30.768947 V 68.302645"
     id="path32"
     inkscape:connector-curvature="0"
     style="fill:none;stroke:#000000;stroke-width:2.677;stroke-miterlimit:4;stroke-dasharray:none" />
  <path
     d="m 293.77967,12.002091 v 9.383428"
     id="path34"
     inkscape:connector-curvature="0"
     style="fill:none;stroke:#000000;stroke-width:2.677;stroke-miterlimit:4;stroke-dasharray:none" />
  <path
     d="M 312.54651,30.768947 V 77.686073 L 303.1631,87.0695"
     id="path36"
     inkscape:connector-curvature="0"
     style="fill:none;stroke:#000000;stroke-width:2.677;stroke-miterlimit:4;stroke-dasharray:none" />
  <path
     d="m 312.54651,12.002091 v 9.383428"
     id="path38"
     inkscape:connector-curvature="0"
     style="fill:none;stroke:#000000;stroke-width:2.677;stroke-miterlimit:4;stroke-dasharray:none" />
  <path
     d="M 321.92994,12.002091 V 68.302645"
     id="path40"
     inkscape:connector-curvature="0"
     style="fill:none;stroke:#000000;stroke-width:2.677;stroke-miterlimit:4;stroke-dasharray:none" />
  <path
     d="M 321.92994,49.535802 340.6968,30.768947"
     id="path42"
     inkscape:connector-curvature="0"
     style="fill:none;stroke:#000000;stroke-width:2.677;stroke-miterlimit:4;stroke-dasharray:none" />
  <path
     d="m 331.31337,40.152374 9.38343,28.150271"
     id="path44"
     inkscape:connector-curvature="0"
     style="fill:none;stroke:#000000;stroke-width:2.677;stroke-miterlimit:4;stroke-dasharray:none" />
  <path
     d="M 350.08023,12.002091 V 68.302645"
     id="path46"
     inkscape:connector-curvature="0"
     style="fill:none;stroke:#000000;stroke-width:2.677;stroke-miterlimit:4;stroke-dasharray:none" />
  <path
     d="M 359.46364,30.768947 V 68.302645"
     id="path48"
     inkscape:connector-curvature="0"
     style="fill:none;stroke:#000000;stroke-width:2.677;stroke-miterlimit:4;stroke-dasharray:none" />
  <path
     d="m 359.46364,40.152374 9.38343,-9.383427 h 9.38343 l 9.38342,9.383427 v 28.150271"
     id="path50"
     inkscape:connector-curvature="0"
     style="fill:none;stroke:#000000;stroke-width:2.677;stroke-miterlimit:4;stroke-dasharray:none" />
  <path
     d="m 387.61392,40.152374 9.38343,-9.383427 h 9.38342 l 9.38342,9.383427 v 28.150271"
     id="path52"
     inkscape:connector-curvature="0"
     style="fill:none;stroke:#000000;stroke-width:2.677;stroke-miterlimit:4;stroke-dasharray:none" />
  <path
     d="M 425.14762,30.768947 V 68.302645"
     id="path54"
     inkscape:connector-curvature="0"
     style="fill:none;stroke:#000000;stroke-width:2.677;stroke-miterlimit:4;stroke-dasharray:none" />
  <path
     d="m 425.14762,40.152374 9.38343,-9.383427 h 9.38341 l 9.38343,9.383427 v 28.150271"
     id="path56"
     inkscape:connector-curvature="0"
     style="fill:none;stroke:#000000;stroke-width:2.677;stroke-miterlimit:4;stroke-dasharray:none" />
  <path
     d="m 490.8316,40.152374 -9.38342,-9.383427 h -9.38343 l -9.38343,9.383427 v 18.766843 l 9.38343,9.383428 h 9.38343 l 9.38342,-9.383428 V 40.152374"
     id="path58"
     inkscape:connector-curvature="0"
     style="fill:none;stroke:#000000;stroke-width:2.677;stroke-miterlimit:4;stroke-dasharray:none" />
  <path
     d="M 500.21502,30.768947 V 87.0695"
     id="path60"
     inkscape:connector-curvature="0"
     style="fill:none;stroke:#000000;stroke-width:2.677;stroke-miterlimit:4;stroke-dasharray:none" />
  <path
     d="m 500.21502,40.152374 9.38343,-9.383427 h 9.38342 l 9.38343,9.383427 v 18.766843 l -9.38343,9.383428 h -9.38342 l -9.38343,-9.383428"
     id="path62"
     inkscape:connector-curvature="0"
     style="fill:none;stroke:#000000;stroke-width:2.677;stroke-miterlimit:4;stroke-dasharray:none" />
  <path
     d="M 565.899,30.768947 V 87.0695"
     id="path64"
     inkscape:connector-curvature="0"
     style="fill:none;stroke:#000000;stroke-width:2.677;stroke-miterlimit:4;stroke-dasharray:none" />
  <path
     d="m 565.899,40.152374 -9.38343,-9.383427 h -9.38343 l -9.38341,9.383427 v 18.766843 l 9.38341,9.383428 h 9.38343 l 9.38343,-9.383428"
     id="path66"
     inkscape:connector-curvature="0"
     style="fill:none;stroke:#000000;stroke-width:2.677;stroke-miterlimit:4;stroke-dasharray:none" />
  <path
     d="m 12.276925,124.6032 v 37.53369"
     id="path68"
     inkscape:connector-curvature="0"
     style="fill:none;stroke:#000000;stroke-width:2.677;stroke-miterlimit:4;stroke-dasharray:none" />
  <path
     d="m 12.276925,133.98662 9.383415,-9.38342 h 9.383428"
     id="path70"
     inkscape:connector-curvature="0"
     style="fill:none;stroke:#000000;stroke-width:2.677;stroke-miterlimit:4;stroke-dasharray:none" />
  <path
     d="m 68.577466,133.98662 -9.383415,-9.38342 h -9.383428 l -9.383428,9.38342 9.383428,9.38342 h 9.383428 l 9.383415,9.38343 -9.383415,9.38342 h -9.383428 l -9.383428,-9.38342"
     id="path72"
     inkscape:connector-curvature="0"
     style="fill:none;stroke:#000000;stroke-width:2.677;stroke-miterlimit:4;stroke-dasharray:none" />
  <path
     d="m 77.960894,105.83634 v 56.30055"
     id="path74"
     inkscape:connector-curvature="0"
     style="fill:none;stroke:#000000;stroke-width:2.677;stroke-miterlimit:4;stroke-dasharray:none" />
  <path
     d="m 77.960894,124.6032 h 9.383427"
     id="path76"
     inkscape:connector-curvature="0"
     style="fill:none;stroke:#000000;stroke-width:2.677;stroke-miterlimit:4;stroke-dasharray:none" />
  <path
     d="m 96.727749,124.6032 v 28.15027 l 9.383421,9.38342 h 9.38343 l 9.38342,-9.38342"
     id="path78"
     inkscape:connector-curvature="0"
     style="fill:none;stroke:#000000;stroke-width:2.677;stroke-miterlimit:4;stroke-dasharray:none" />
  <path
     d="m 124.87802,124.6032 v 37.53369"
     id="path80"
     inkscape:connector-curvature="0"
     style="fill:none;stroke:#000000;stroke-width:2.677;stroke-miterlimit:4;stroke-dasharray:none" />
  <path
     d="m 134.26145,124.6032 14.07514,37.53369 14.07513,-37.53369"
     id="path82"
     inkscape:connector-curvature="0"
     style="fill:none;stroke:#000000;stroke-width:2.677;stroke-miterlimit:4;stroke-dasharray:none" />
  <path
     d="m 171.79515,124.6032 9.38343,37.53369 9.38342,-37.53369 9.38342,37.53369 9.38343,-37.53369"
     id="path84"
     inkscape:connector-curvature="0"
     style="fill:none;stroke:#000000;stroke-width:2.677;stroke-miterlimit:4;stroke-dasharray:none" />
  <path
     d="m 218.71227,124.6032 28.15028,37.53369"
     id="path86"
     inkscape:connector-curvature="0"
     style="fill:none;stroke:#000000;stroke-width:2.677;stroke-miterlimit:4;stroke-dasharray:none" />
  <path
     d="m 246.86255,124.6032 -28.15028,37.53369"
     id="path88"
     inkscape:connector-curvature="0"
     style="fill:none;stroke:#000000;stroke-width:2.677;stroke-miterlimit:4;stroke-dasharray:none" />
  <path
     d="m 256.24597,124.6032 14.07514,37.53369"
     id="path90"
     inkscape:connector-curvature="0"
     style="fill:none;stroke:#000000;stroke-width:2.677;stroke-miterlimit:4;stroke-dasharray:none" />
  <path
     d="m 284.39624,124.6032 -14.07513,37.53369 -4.69171,9.38343 -9.38343,9.38347"
     id="path92"
     inkscape:connector-curvature="0"
     style="fill:none;stroke:#000000;stroke-width:2.677;stroke-miterlimit:4;stroke-dasharray:none" />
  <path
     d="m 293.77967,124.6032 h 28.15027 l -28.15027,37.53369 h 28.15027"
     id="path94"
     inkscape:connector-curvature="0"
     style="fill:none;stroke:#000000;stroke-width:2.677;stroke-miterlimit:4;stroke-dasharray:none" />
  <path
     d="m 331.31337,133.98662 9.38343,-9.38342 v 37.53369"
     id="path96"
     inkscape:connector-curvature="0"
     style="fill:none;stroke:#000000;stroke-width:2.677;stroke-miterlimit:4;stroke-dasharray:none" />
  <path
     d="m 350.08023,133.98662 9.38341,-9.38342 h 9.38343 l 9.38343,9.38342 -28.15027,28.15027 h 28.15027"
     id="path98"
     inkscape:connector-curvature="0"
     style="fill:none;stroke:#000000;stroke-width:2.677;stroke-miterlimit:4;stroke-dasharray:none" />
  <path
     d="m 387.61392,124.6032 h 28.15027 l -18.76684,18.76684 18.76684,9.38343 v 18.76685 l -9.38342,9.38347 h -9.38342 l -9.38343,-9.38347"
     id="path100"
     inkscape:connector-curvature="0"
     style="fill:none;stroke:#000000;stroke-width:2.677;stroke-miterlimit:4;stroke-dasharray:none" />
  <path
     d="m 425.14762,124.6032 v 18.76684 l 9.38343,9.38343 h 18.76684"
     id="path102"
     inkscape:connector-curvature="0"
     style="fill:none;stroke:#000000;stroke-width:2.677;stroke-miterlimit:4;stroke-dasharray:none" />
  <path
     d="m 453.29789,124.6032 v 56.30059"
     id="path104"
     inkscape:connector-curvature="0"
     style="fill:none;stroke:#000000;stroke-width:2.677;stroke-miterlimit:4;stroke-dasharray:none" />
  <path
     d="m 490.8316,124.6032 h -28.15028 v 18.76684 h 18.76686 l 9.38342,9.38343 v 18.76685 l -9.38342,9.38347 h -18.76686"
     id="path106"
     inkscape:connector-curvature="0"
     style="fill:none;stroke:#000000;stroke-width:2.677;stroke-miterlimit:4;stroke-dasharray:none" />
  <path
     d="m 528.3653,115.21977 -9.38343,-9.38343 h -9.38342 l -9.38343,9.38343 v 37.5337 l 9.38343,9.38342 h 9.38342 l 9.38343,-9.38342 v -18.76685 l -9.38343,-9.38342 h -9.38342 l -9.38343,9.38342"
     id="path108"
     inkscape:connector-curvature="0"
     style="fill:none;stroke:#000000;stroke-width:2.677;stroke-miterlimit:4;stroke-dasharray:none" />
  <path
     d="M 537.74873,124.6032 H 565.899 l -28.15027,56.30059"
     id="path110"
     inkscape:connector-curvature="0"
     style="fill:none;stroke:#000000;stroke-width:2.677;stroke-miterlimit:4;stroke-dasharray:none" />
  <path
     d="m 584.66584,133.98662 -9.38341,-9.38342 v -9.38343 l 9.38341,-9.38343 h 9.38343 l 9.38343,9.38343 v 9.38343 l -9.38343,9.38342 h -9.38343 l -9.38341,9.38342 v 9.38343 l 9.38341,9.38342 h 9.38343 l 9.38343,-9.38342 v -9.38343 l -9.38343,-9.38342"
     id="path112"
     inkscape:connector-curvature="0"
     style="fill:none;stroke:#000000;stroke-width:2.677;stroke-miterlimit:4;stroke-dasharray:none" />
  <path
     d="m 640.9664,152.75347 -9.38343,9.38342 h -9.38342 l -9.38342,-9.38342 v -18.76685 l 9.38342,-9.38342 h 9.38342 l 9.38343,9.38342 v 37.5337 l -9.38343,9.38347 h -9.38342 l -9.38342,-9.38347"
     id="path114"
     inkscape:connector-curvature="0"
     style="fill:none;stroke:#000000;stroke-width:2.677;stroke-miterlimit:4;stroke-dasharray:none" />
  <path
     d="m 678.50009,133.98662 -9.38341,-9.38342 h -9.38343 l -9.38343,9.38342 v 18.76685 l 9.38343,9.38342 h 9.38343 l 9.38341,-9.38342 v -18.76685"
     id="path116"
     inkscape:connector-curvature="0"
     style="fill:none;stroke:#000000;stroke-width:2.677;stroke-miterlimit:4;stroke-dasharray:none" />
  <path
     d="m 673.80839,129.2949 -18.76686,28.15029"
     id="path118"
     inkscape:connector-curvature="0"
     style="fill:none;stroke:#000000;stroke-width:2.677;stroke-miterlimit:4;stroke-dasharray:none" />
  <path
     d="m 21.66034,227.82086 v 9.38349"
     id="path120"
     inkscape:connector-curvature="0"
     style="fill:none;stroke:#000000;stroke-width:2.677;stroke-miterlimit:4;stroke-dasharray:none" />
  <path
     d="m 12.276925,234.85842 9.383415,2.34593 9.383428,-2.34593"
     id="path122"
     inkscape:connector-curvature="0"
     style="fill:none;stroke:#000000;stroke-width:2.677;stroke-miterlimit:4;stroke-dasharray:none" />
  <path
     d="m 14.622772,246.58772 7.037568,-9.38337 7.037568,9.38337"
     id="path124"
     inkscape:connector-curvature="0"
     style="fill:none;stroke:#000000;stroke-width:2.677;stroke-miterlimit:4;stroke-dasharray:none" />
  <path
     d="M 40.427195,237.20435 H 59.194051"
     id="path126"
     inkscape:connector-curvature="0"
     style="fill:none;stroke:#000000;stroke-width:2.677;stroke-miterlimit:4;stroke-dasharray:none" />
  <path
     d="m 49.810623,227.82086 v 18.76686"
     id="path128"
     inkscape:connector-curvature="0"
     style="fill:none;stroke:#000000;stroke-width:2.677;stroke-miterlimit:4;stroke-dasharray:none" />
  <path
     d="m 77.960894,209.05401 -9.383428,9.38349 v 37.53358 l 9.383428,9.38349"
     id="path130"
     inkscape:connector-curvature="0"
     style="fill:none;stroke:#000000;stroke-width:2.677;stroke-miterlimit:4;stroke-dasharray:none" />
  <path
     d="m 87.344321,209.05401 9.383428,9.38349 v 37.53358 l -9.383428,9.38349"
     id="path132"
     inkscape:connector-curvature="0"
     style="fill:none;stroke:#000000;stroke-width:2.677;stroke-miterlimit:4;stroke-dasharray:none" />
  <path
     d="m 124.87802,209.05401 -18.76685,56.30056"
     id="path134"
     inkscape:connector-curvature="0"
     style="fill:none;stroke:#000000;stroke-width:2.677;stroke-miterlimit:4;stroke-dasharray:none" />
  <path
     d="m 134.26145,209.05401 18.76684,56.30056"
     id="path136"
     inkscape:connector-curvature="0"
     style="fill:none;stroke:#000000;stroke-width:2.677;stroke-miterlimit:4;stroke-dasharray:none" />
  <path
     d="m 171.79515,209.05401 h -9.38343 v 56.30056 h 9.38343"
     id="path138"
     inkscape:connector-curvature="0"
     style="fill:none;stroke:#000000;stroke-width:2.677;stroke-miterlimit:4;stroke-dasharray:none" />
  <path
     d="m 181.17858,209.05401 h 9.38342 v 56.30056 h -9.38342"
     id="path140"
     inkscape:connector-curvature="0"
     style="fill:none;stroke:#000000;stroke-width:2.677;stroke-miterlimit:4;stroke-dasharray:none" />
  <path
     d="m 199.94542,232.51261 h 18.76685"
     id="path142"
     inkscape:connector-curvature="0"
     style="fill:none;stroke:#000000;stroke-width:2.677;stroke-miterlimit:4;stroke-dasharray:none" />
  <path
     d="m 199.94542,241.89597 h 18.76685"
     id="path144"
     inkscape:connector-curvature="0"
     style="fill:none;stroke:#000000;stroke-width:2.677;stroke-miterlimit:4;stroke-dasharray:none" />
  <path
     d="m 228.09569,237.20435 h 18.76686"
     id="path146"
     inkscape:connector-curvature="0"
     style="fill:none;stroke:#000000;stroke-width:2.677;stroke-miterlimit:4;stroke-dasharray:none" />
  <path
     d="m 256.24597,199.67064 v 37.53371"
     id="path148"
     inkscape:connector-curvature="0"
     style="fill:none;stroke:#000000;stroke-width:2.677;stroke-miterlimit:4;stroke-dasharray:none" />
  <path
     d="m 256.24597,246.58772 v 9.38336"
     id="path150"
     inkscape:connector-curvature="0"
     style="fill:none;stroke:#000000;stroke-width:2.677;stroke-miterlimit:4;stroke-dasharray:none" />
  <path
     d="m 12.276925,293.5048 v 56.30056"
     id="path152"
     inkscape:connector-curvature="0"
     style="fill:none;stroke:#000000;stroke-width:2.677;stroke-miterlimit:4;stroke-dasharray:none" />
  <path
     d="M 12.276925,312.27165 H 21.66034"
     id="path154"
     inkscape:connector-curvature="0"
     style="fill:none;stroke:#000000;stroke-width:2.677;stroke-miterlimit:4;stroke-dasharray:none" />
  <path
     d="m 31.043768,293.5048 v 56.30056"
     id="path156"
     inkscape:connector-curvature="0"
     style="fill:none;stroke:#000000;stroke-width:2.677;stroke-miterlimit:4;stroke-dasharray:none" />
  <path
     d="m 31.043768,321.65514 9.383427,-9.38349 h 9.383428 l 9.383428,9.38349 v 28.15022"
     id="path158"
     inkscape:connector-curvature="0"
     style="fill:none;stroke:#000000;stroke-width:2.677;stroke-miterlimit:4;stroke-dasharray:none" />
  <path
     d="m 77.960894,331.03851 h 9.383427 l 9.383428,-9.38337 -9.383428,-9.38349 h -9.383427 l -9.383428,9.38349 V 340.422 l 9.383428,9.38336 h 9.383427 l 9.383428,-9.38336"
     id="path160"
     inkscape:connector-curvature="0"
     style="fill:none;stroke:#000000;stroke-width:2.677;stroke-miterlimit:4;stroke-dasharray:none" />
  <path
     d="m 153.02829,312.27165 v 56.30057"
     id="path162"
     inkscape:connector-curvature="0"
     style="fill:none;stroke:#000000;stroke-width:2.677;stroke-miterlimit:4;stroke-dasharray:none" />
  <path
     d="m 153.02829,321.65514 -9.38341,-9.38349 h -9.38343 l -9.38343,9.38349 V 340.422 l 9.38343,9.38336 h 9.38343 l 9.38341,-9.38336"
     id="path164"
     inkscape:connector-curvature="0"
     style="fill:none;stroke:#000000;stroke-width:2.677;stroke-miterlimit:4;stroke-dasharray:none" />
  <path
     d="M 162.41172,312.27165 V 340.422 l 9.38343,9.38336 h 9.38343 L 190.562,340.422"
     id="path166"
     inkscape:connector-curvature="0"
     style="fill:none;stroke:#000000;stroke-width:2.677;stroke-miterlimit:4;stroke-dasharray:none" />
  <path
     d="m 190.562,312.27165 v 37.53371"
     id="path168"
     inkscape:connector-curvature="0"
     style="fill:none;stroke:#000000;stroke-width:2.677;stroke-miterlimit:4;stroke-dasharray:none" />
  <path
     d="m 199.94542,312.27165 v 37.53371"
     id="path170"
     inkscape:connector-curvature="0"
     style="fill:none;stroke:#000000;stroke-width:2.677;stroke-miterlimit:4;stroke-dasharray:none" />
  <path
     d="m 199.94542,293.5048 v 9.38349"
     id="path172"
     inkscape:connector-curvature="0"
     style="fill:none;stroke:#000000;stroke-width:2.677;stroke-miterlimit:4;stroke-dasharray:none" />
  <path
     d="m 237.47912,321.65514 -9.38343,-9.38349 h -9.38342 l -9.38342,9.38349 V 340.422 l 9.38342,9.38336 h 9.38342 l 9.38343,-9.38336"
     id="path174"
     inkscape:connector-curvature="0"
     style="fill:none;stroke:#000000;stroke-width:2.677;stroke-miterlimit:4;stroke-dasharray:none" />
  <path
     d="m 246.86255,293.5048 v 56.30056"
     id="path176"
     inkscape:connector-curvature="0"
     style="fill:none;stroke:#000000;stroke-width:2.677;stroke-miterlimit:4;stroke-dasharray:none" />
  <path
     d="M 246.86255,331.03851 265.6294,312.27165"
     id="path178"
     inkscape:connector-curvature="0"
     style="fill:none;stroke:#000000;stroke-width:2.677;stroke-miterlimit:4;stroke-dasharray:none" />
  <path
     d="m 256.24597,321.65514 9.38343,28.15022"
     id="path180"
     inkscape:connector-curvature="0"
     style="fill:none;stroke:#000000;stroke-width:2.677;stroke-miterlimit:4;stroke-dasharray:none" />
  <path
     d="m 303.1631,302.88829 -9.38343,9.38336 v 37.53371 l 9.38343,9.38349"
     id="path182"
     inkscape:connector-curvature="0"
     style="fill:none;stroke:#000000;stroke-width:2.677;stroke-miterlimit:4;stroke-dasharray:none" />
  <path
     d="m 312.54651,293.5048 v 56.30056"
     id="path184"
     inkscape:connector-curvature="0"
     style="fill:none;stroke:#000000;stroke-width:2.677;stroke-miterlimit:4;stroke-dasharray:none" />
  <path
     d="m 312.54651,321.65514 9.38343,-9.38349 h 9.38343 l 9.38343,9.38349 V 340.422 l -9.38343,9.38336 h -9.38343 l -9.38343,-9.38336"
     id="path186"
     inkscape:connector-curvature="0"
     style="fill:none;stroke:#000000;stroke-width:2.677;stroke-miterlimit:4;stroke-dasharray:none" />
  <path
     d="m 350.08023,312.27165 v 37.53371"
     id="path188"
     inkscape:connector-curvature="0"
     style="fill:none;stroke:#000000;stroke-width:2.677;stroke-miterlimit:4;stroke-dasharray:none" />
  <path
     d="m 350.08023,321.65514 9.38341,-9.38349 h 9.38343"
     id="path190"
     inkscape:connector-curvature="0"
     style="fill:none;stroke:#000000;stroke-width:2.677;stroke-miterlimit:4;stroke-dasharray:none" />
  <path
     d="m 406.38077,321.65514 -9.38342,-9.38349 h -9.38343 l -9.38342,9.38349 V 340.422 l 9.38342,9.38336 h 9.38343 l 9.38342,-9.38336 v -18.76686"
     id="path192"
     inkscape:connector-curvature="0"
     style="fill:none;stroke:#000000;stroke-width:2.677;stroke-miterlimit:4;stroke-dasharray:none" />
  <path
     d="m 415.76419,312.27165 9.38343,37.53371 9.38343,-37.53371 9.38341,37.53371 9.38343,-37.53371"
     id="path194"
     inkscape:connector-curvature="0"
     style="fill:none;stroke:#000000;stroke-width:2.677;stroke-miterlimit:4;stroke-dasharray:none" />
  <path
     d="m 462.68132,312.27165 v 37.53371"
     id="path196"
     inkscape:connector-curvature="0"
     style="fill:none;stroke:#000000;stroke-width:2.677;stroke-miterlimit:4;stroke-dasharray:none" />
  <path
     d="m 462.68132,321.65514 9.38343,-9.38349 h 9.38343 l 9.38342,9.38349 v 28.15022"
     id="path198"
     inkscape:connector-curvature="0"
     style="fill:none;stroke:#000000;stroke-width:2.677;stroke-miterlimit:4;stroke-dasharray:none" />
  <path
     d="m 500.21502,302.88829 9.38343,9.38336 v 37.53371 l -9.38343,9.38349"
     id="path200"
     inkscape:connector-curvature="0"
     style="fill:none;stroke:#000000;stroke-width:2.677;stroke-miterlimit:4;stroke-dasharray:none" />
  <path
     d="m 537.74873,349.80536 v -46.91707 l 9.38341,-9.38349"
     id="path202"
     inkscape:connector-curvature="0"
     style="fill:none;stroke:#000000;stroke-width:2.677;stroke-miterlimit:4;stroke-dasharray:none" />
  <path
     d="m 537.74873,312.27165 h 9.38341"
     id="path204"
     inkscape:connector-curvature="0"
     style="fill:none;stroke:#000000;stroke-width:2.677;stroke-miterlimit:4;stroke-dasharray:none" />
  <path
     d="m 584.66584,321.65514 -9.38341,-9.38349 H 565.899 l -9.38343,9.38349 V 340.422 l 9.38343,9.38336 h 9.38343 l 9.38341,-9.38336 v -18.76686"
     id="path206"
     inkscape:connector-curvature="0"
     style="fill:none;stroke:#000000;stroke-width:2.677;stroke-miterlimit:4;stroke-dasharray:none" />
  <path
     d="m 594.04927,312.27165 28.15028,37.53371"
     id="path208"
     inkscape:connector-curvature="0"
     style="fill:none;stroke:#000000;stroke-width:2.677;stroke-miterlimit:4;stroke-dasharray:none" />
  <path
     d="m 622.19955,312.27165 -28.15028,37.53371"
     id="path210"
     inkscape:connector-curvature="0"
     style="fill:none;stroke:#000000;stroke-width:2.677;stroke-miterlimit:4;stroke-dasharray:none" />
  <path
     d="m 21.66034,406.10593 v 46.9172 l -9.383415,9.38336"
     id="path212"
     inkscape:connector-curvature="0"
     style="fill:none;stroke:#000000;stroke-width:2.677;stroke-miterlimit:4;stroke-dasharray:none" />
  <path
     d="m 21.66034,387.33907 v 9.38349"
     id="path214"
     inkscape:connector-curvature="0"
     style="fill:none;stroke:#000000;stroke-width:2.677;stroke-miterlimit:4;stroke-dasharray:none" />
  <path
     d="m 31.043768,406.10593 v 28.15034 l 9.383427,9.38337 h 9.383428 l 9.383428,-9.38337"
     id="path216"
     inkscape:connector-curvature="0"
     style="fill:none;stroke:#000000;stroke-width:2.677;stroke-miterlimit:4;stroke-dasharray:none" />
  <path
     d="m 59.194051,406.10593 v 37.53371"
     id="path218"
     inkscape:connector-curvature="0"
     style="fill:none;stroke:#000000;stroke-width:2.677;stroke-miterlimit:4;stroke-dasharray:none" />
  <path
     d="m 68.577466,406.10593 v 37.53371"
     id="path220"
     inkscape:connector-curvature="0"
     style="fill:none;stroke:#000000;stroke-width:2.677;stroke-miterlimit:4;stroke-dasharray:none" />
  <path
     d="m 68.577466,415.48942 9.383428,-9.38349 h 9.383427 l 9.383428,9.38349 v 28.15022"
     id="path222"
     inkscape:connector-curvature="0"
     style="fill:none;stroke:#000000;stroke-width:2.677;stroke-miterlimit:4;stroke-dasharray:none" />
  <path
     d="m 96.727749,415.48942 9.383421,-9.38349 h 9.38343 l 9.38342,9.38349 v 28.15022"
     id="path224"
     inkscape:connector-curvature="0"
     style="fill:none;stroke:#000000;stroke-width:2.677;stroke-miterlimit:4;stroke-dasharray:none" />
  <path
     d="m 134.26145,406.10593 v 56.30056"
     id="path226"
     inkscape:connector-curvature="0"
     style="fill:none;stroke:#000000;stroke-width:2.677;stroke-miterlimit:4;stroke-dasharray:none" />
  <path
     d="m 134.26145,415.48942 9.38343,-9.38349 h 9.38341 l 9.38343,9.38349 v 18.76685 l -9.38343,9.38337 h -9.38341 l -9.38343,-9.38337"
     id="path228"
     inkscape:connector-curvature="0"
     style="fill:none;stroke:#000000;stroke-width:2.677;stroke-miterlimit:4;stroke-dasharray:none" />
  <path
     d="m 199.94542,415.48942 -9.38342,-9.38349 h -9.38342 l -9.38343,9.38349 9.38343,9.38336 h 9.38342 l 9.38342,9.38349 -9.38342,9.38337 h -9.38342 l -9.38343,-9.38337"
     id="path230"
     inkscape:connector-curvature="0"
     style="fill:none;stroke:#000000;stroke-width:2.677;stroke-miterlimit:4;stroke-dasharray:none" />
  <path
     d="m 256.24597,415.48942 -9.38342,-9.38349 h -9.38343 l -9.38343,9.38349 v 18.76685 l 9.38343,9.38337 h 9.38343 l 9.38342,-9.38337 v -18.76685"
     id="path232"
     inkscape:connector-curvature="0"
     style="fill:none;stroke:#000000;stroke-width:2.677;stroke-miterlimit:4;stroke-dasharray:none" />
  <path
     d="m 265.6294,406.10593 14.07514,37.53371 14.07513,-37.53371"
     id="path234"
     inkscape:connector-curvature="0"
     style="fill:none;stroke:#000000;stroke-width:2.677;stroke-miterlimit:4;stroke-dasharray:none" />
  <path
     d="m 312.54651,424.87278 h 9.38343 l 9.38343,-9.38336 -9.38343,-9.38349 h -9.38343 l -9.38341,9.38349 v 18.76685 l 9.38341,9.38337 h 9.38343 l 9.38343,-9.38337"
     id="path236"
     inkscape:connector-curvature="0"
     style="fill:none;stroke:#000000;stroke-width:2.677;stroke-miterlimit:4;stroke-dasharray:none" />
  <path
     d="m 340.6968,406.10593 v 37.53371"
     id="path238"
     inkscape:connector-curvature="0"
     style="fill:none;stroke:#000000;stroke-width:2.677;stroke-miterlimit:4;stroke-dasharray:none" />
  <path
     d="m 340.6968,415.48942 9.38343,-9.38349 h 9.38341"
     id="path240"
     inkscape:connector-curvature="0"
     style="fill:none;stroke:#000000;stroke-width:2.677;stroke-miterlimit:4;stroke-dasharray:none" />
  <path
     d="m 387.61392,396.72256 -18.76685,56.30057"
     id="path242"
     inkscape:connector-curvature="0"
     style="fill:none;stroke:#000000;stroke-width:2.677;stroke-miterlimit:4;stroke-dasharray:none" />
  <path
     d="m 396.99735,387.33907 v 56.30057"
     id="path244"
     inkscape:connector-curvature="0"
     style="fill:none;stroke:#000000;stroke-width:2.677;stroke-miterlimit:4;stroke-dasharray:none" />
  <path
     d="m 396.99735,406.10593 h 9.38342"
     id="path246"
     inkscape:connector-curvature="0"
     style="fill:none;stroke:#000000;stroke-width:2.677;stroke-miterlimit:4;stroke-dasharray:none" />
  <path
     d="m 415.76419,387.33907 v 56.30057"
     id="path248"
     inkscape:connector-curvature="0"
     style="fill:none;stroke:#000000;stroke-width:2.677;stroke-miterlimit:4;stroke-dasharray:none" />
  <path
     d="m 415.76419,415.48942 9.38343,-9.38349 h 9.38343 l 9.38341,9.38349 v 28.15022"
     id="path250"
     inkscape:connector-curvature="0"
     style="fill:none;stroke:#000000;stroke-width:2.677;stroke-miterlimit:4;stroke-dasharray:none" />
  <path
     d="m 462.68132,424.87278 h 9.38343 l 9.38343,-9.38336 -9.38343,-9.38349 h -9.38343 l -9.38343,9.38349 v 18.76685 l 9.38343,9.38337 h 9.38343 l 9.38343,-9.38337"
     id="path252"
     inkscape:connector-curvature="0"
     style="fill:none;stroke:#000000;stroke-width:2.677;stroke-miterlimit:4;stroke-dasharray:none" />
  <path
     d="m 509.59845,387.33907 v 56.30057"
     id="path254"
     inkscape:connector-curvature="0"
     style="fill:none;stroke:#000000;stroke-width:2.677;stroke-miterlimit:4;stroke-dasharray:none" />
  <path
     d="m 547.13214,406.10593 v 37.53371"
     id="path256"
     inkscape:connector-curvature="0"
     style="fill:none;stroke:#000000;stroke-width:2.677;stroke-miterlimit:4;stroke-dasharray:none" />
  <path
     d="m 547.13214,415.48942 -9.38341,-9.38349 h -9.38343 l -9.38343,9.38349 v 18.76685 l 9.38343,9.38337 h 9.38343 l 9.38341,-9.38337"
     id="path258"
     inkscape:connector-curvature="0"
     style="fill:none;stroke:#000000;stroke-width:2.677;stroke-miterlimit:4;stroke-dasharray:none" />
  <path
     d="m 556.51557,406.10593 h 28.15027 l -28.15027,37.53371 h 28.15027"
     id="path260"
     inkscape:connector-curvature="0"
     style="fill:none;stroke:#000000;stroke-width:2.677;stroke-miterlimit:4;stroke-dasharray:none" />
  <path
     d="m 594.04927,406.10593 14.07514,37.53371"
     id="path262"
     inkscape:connector-curvature="0"
     style="fill:none;stroke:#000000;stroke-width:2.677;stroke-miterlimit:4;stroke-dasharray:none" />
  <path
     d="m 622.19955,406.10593 -14.07514,37.53371 -4.69171,9.38349 -9.38343,9.38336"
     id="path264"
     inkscape:connector-curvature="0"
     style="fill:none;stroke:#000000;stroke-width:2.677;stroke-miterlimit:4;stroke-dasharray:none" />
  <path
     d="m 678.50009,387.33907 v 56.30057"
     id="path266"
     inkscape:connector-curvature="0"
     style="fill:none;stroke:#000000;stroke-width:2.677;stroke-miterlimit:4;stroke-dasharray:none" />
  <path
     d="m 678.50009,415.48942 -9.38341,-9.38349 h -9.38343 l -9.38343,9.38349 v 18.76685 l 9.38343,9.38337 h 9.38343 l 9.38341,-9.38337"
     id="path268"
     inkscape:connector-curvature="0"
     style="fill:none;stroke:#000000;stroke-width:2.677;stroke-miterlimit:4;stroke-dasharray:none" />
  <path
     d="m 716.03379,415.48942 -9.38341,-9.38349 h -9.38343 l -9.38343,9.38349 v 18.76685 l 9.38343,9.38337 h 9.38343 l 9.38341,-9.38337 v -18.76685"
     id="path270"
     inkscape:connector-curvature="0"
     style="fill:none;stroke:#000000;stroke-width:2.677;stroke-miterlimit:4;stroke-dasharray:none" />
  <path
     d="m 753.5675,415.48942 -9.38342,-9.38349 h -9.38343 l -9.38343,9.38349 v 18.76685 l 9.38343,9.38337 h 9.38343 l 9.38342,-9.38337"
     id="path272"
     inkscape:connector-curvature="0"
     style="fill:none;stroke:#000000;stroke-width:2.677;stroke-miterlimit:4;stroke-dasharray:none" />
  <path
     d="m 753.5675,406.10593 v 46.9172 l -9.38342,9.38336 h -9.38343"
     id="path274"
     inkscape:connector-curvature="0"
     style="fill:none;stroke:#000000;stroke-width:2.677;stroke-miterlimit:4;stroke-dasharray:none" />
  <path
     d="m 762.95092,387.33907 v 37.53371"
     id="path276"
     inkscape:connector-curvature="0"
     style="fill:none;stroke:#000000;stroke-width:2.677;stroke-miterlimit:4;stroke-dasharray:none" />
  <path
     d="m 762.95092,434.25627 v 9.38337"
     id="path278"
     inkscape:connector-curvature="0"
     style="fill:none;stroke:#000000;stroke-width:2.677;stroke-miterlimit:4;stroke-dasharray:none" />
</svg>
