<?xml version="1.0" encoding="UTF-8" standalone="no"?>
<svg
   xmlns:dc="http://purl.org/dc/elements/1.1/"
   xmlns:cc="http://creativecommons.org/ns#"
   xmlns:rdf="http://www.w3.org/1999/02/22-rdf-syntax-ns#"
   xmlns:svg="http://www.w3.org/2000/svg"
   xmlns="http://www.w3.org/2000/svg"
   xmlns:sodipodi="http://sodipodi.sourceforge.net/DTD/sodipodi-0.dtd"
   xmlns:inkscape="http://www.inkscape.org/namespaces/inkscape"
   height="12.282454cm"
   version="1.2"
   width="21.030396cm"
   id="svg318"
   sodipodi:docname="tmp.svg"
   inkscape:version="0.92.3 (2405546, 2018-03-11)">
  <metadata
     id="metadata322">
    <rdf:RDF>
      <cc:Work
         rdf:about="">
        <dc:format>image/svg+xml</dc:format>
        <dc:type
           rdf:resource="http://purl.org/dc/dcmitype/StillImage" />
        <dc:title></dc:title>
      </cc:Work>
    </rdf:RDF>
  </metadata>
  <sodipodi:namedview
     pagecolor="#ffffff"
     bordercolor="#666666"
     borderopacity="1"
     objecttolerance="10"
     gridtolerance="10"
     guidetolerance="10"
     inkscape:pageopacity="0"
     inkscape:pageshadow="2"
     inkscape:window-width="2560"
     inkscape:window-height="1600"
     id="namedview320"
     showgrid="false"
     units="cm"
     fit-margin-top="0.3"
     fit-margin-left="0.3"
     fit-margin-bottom="0.3"
     fit-margin-right="0.3"
     inkscape:zoom="1.668772"
     inkscape:cx="365.20042"
     inkscape:cy="236.60626"
     inkscape:window-x="1440"
     inkscape:window-y="0"
     inkscape:window-maximized="0"
     inkscape:current-layer="svg318" />
  <defs
     id="defs2" />
  <path
     d="M 40.133431,30.3191 V 66.983826"
     id="path4"
     inkscape:connector-curvature="0"
     style="fill:none;stroke:#000000;stroke-width:2.333;stroke-miterlimit:4;stroke-dasharray:none" />
  <path
     d="M 40.133431,39.48528 30.967246,30.3191 h -9.166184 l -9.166185,9.16618 v 18.332366 l 9.166185,9.16618 h 9.166184 l 9.166185,-9.16618"
     id="path6"
     inkscape:connector-curvature="0"
     style="fill:none;stroke:#000000;stroke-width:2.333;stroke-miterlimit:4;stroke-dasharray:none" />
  <path
     d="M 49.299616,11.98673 V 66.983826"
     id="path8"
     inkscape:connector-curvature="0"
     style="fill:none;stroke:#000000;stroke-width:2.333;stroke-miterlimit:4;stroke-dasharray:none" />
  <path
     d="M 49.299616,39.48528 58.4658,30.3191 h 9.166185 l 9.166185,9.16618 v 18.332366 l -9.166185,9.16618 H 58.4658 l -9.166184,-9.16618"
     id="path10"
     inkscape:connector-curvature="0"
     style="fill:none;stroke:#000000;stroke-width:2.333;stroke-miterlimit:4;stroke-dasharray:none" />
  <path
     d="m 113.4629,39.48528 -9.16618,-9.16618 h -9.166177 l -9.166189,9.16618 v 18.332366 l 9.166189,9.16618 h 9.166177 l 9.16618,-9.16618"
     id="path12"
     inkscape:connector-curvature="0"
     style="fill:none;stroke:#000000;stroke-width:2.333;stroke-miterlimit:4;stroke-dasharray:none" />
  <path
     d="M 150.12764,11.98673 V 66.983826"
     id="path14"
     inkscape:connector-curvature="0"
     style="fill:none;stroke:#000000;stroke-width:2.333;stroke-miterlimit:4;stroke-dasharray:none" />
  <path
     d="m 150.12764,39.48528 -9.16618,-9.16618 h -9.16619 l -9.16618,9.16618 v 18.332366 l 9.16618,9.16618 h 9.16619 l 9.16618,-9.16618"
     id="path16"
     inkscape:connector-curvature="0"
     style="fill:none;stroke:#000000;stroke-width:2.333;stroke-miterlimit:4;stroke-dasharray:none" />
  <path
     d="m 168.46001,48.651466 h 9.16619 l 9.16618,-9.166186 -9.16618,-9.16618 h -9.16619 l -9.16618,9.16618 v 18.332366 l 9.16618,9.16618 h 9.16619 l 9.16618,-9.16618"
     id="path18"
     inkscape:connector-curvature="0"
     style="fill:none;stroke:#000000;stroke-width:2.333;stroke-miterlimit:4;stroke-dasharray:none" />
  <path
     d="M 195.95857,66.983826 V 21.15291 l 9.16618,-9.16618"
     id="path20"
     inkscape:connector-curvature="0"
     style="fill:none;stroke:#000000;stroke-width:2.333;stroke-miterlimit:4;stroke-dasharray:none" />
  <path
     d="m 195.95857,30.3191 h 9.16618"
     id="path22"
     inkscape:connector-curvature="0"
     style="fill:none;stroke:#000000;stroke-width:2.333;stroke-miterlimit:4;stroke-dasharray:none" />
  <path
     d="M 241.78949,39.48528 232.6233,30.3191 h -9.16618 l -9.16618,9.16618 v 18.332366 l 9.16618,9.16618 h 9.16618 l 9.16619,-9.16618"
     id="path24"
     inkscape:connector-curvature="0"
     style="fill:none;stroke:#000000;stroke-width:2.333;stroke-miterlimit:4;stroke-dasharray:none" />
  <path
     d="m 241.78949,30.3191 v 45.830916 l -9.16619,9.16618 h -9.16618"
     id="path26"
     inkscape:connector-curvature="0"
     style="fill:none;stroke:#000000;stroke-width:2.333;stroke-miterlimit:4;stroke-dasharray:none" />
  <path
     d="M 250.95567,11.98673 V 66.983826"
     id="path28"
     inkscape:connector-curvature="0"
     style="fill:none;stroke:#000000;stroke-width:2.333;stroke-miterlimit:4;stroke-dasharray:none" />
  <path
     d="m 250.95567,39.48528 9.16619,-9.16618 h 9.16618 l 9.16619,9.16618 v 27.498546"
     id="path30"
     inkscape:connector-curvature="0"
     style="fill:none;stroke:#000000;stroke-width:2.333;stroke-miterlimit:4;stroke-dasharray:none" />
  <path
     d="M 287.62041,30.3191 V 66.983826"
     id="path32"
     inkscape:connector-curvature="0"
     style="fill:none;stroke:#000000;stroke-width:2.333;stroke-miterlimit:4;stroke-dasharray:none" />
  <path
     d="m 287.62041,11.98673 v 9.16618"
     id="path34"
     inkscape:connector-curvature="0"
     style="fill:none;stroke:#000000;stroke-width:2.333;stroke-miterlimit:4;stroke-dasharray:none" />
  <path
     d="m 305.95278,30.3191 v 45.830916 l -9.16618,9.16618"
     id="path36"
     inkscape:connector-curvature="0"
     style="fill:none;stroke:#000000;stroke-width:2.333;stroke-miterlimit:4;stroke-dasharray:none" />
  <path
     d="m 305.95278,11.98673 v 9.16618"
     id="path38"
     inkscape:connector-curvature="0"
     style="fill:none;stroke:#000000;stroke-width:2.333;stroke-miterlimit:4;stroke-dasharray:none" />
  <path
     d="M 315.11897,11.98673 V 66.983826"
     id="path40"
     inkscape:connector-curvature="0"
     style="fill:none;stroke:#000000;stroke-width:2.333;stroke-miterlimit:4;stroke-dasharray:none" />
  <path
     d="M 315.11897,48.651466 333.45134,30.3191"
     id="path42"
     inkscape:connector-curvature="0"
     style="fill:none;stroke:#000000;stroke-width:2.333;stroke-miterlimit:4;stroke-dasharray:none" />
  <path
     d="m 324.28515,39.48528 9.16619,27.498546"
     id="path44"
     inkscape:connector-curvature="0"
     style="fill:none;stroke:#000000;stroke-width:2.333;stroke-miterlimit:4;stroke-dasharray:none" />
  <path
     d="M 342.61752,11.98673 V 66.983826"
     id="path46"
     inkscape:connector-curvature="0"
     style="fill:none;stroke:#000000;stroke-width:2.333;stroke-miterlimit:4;stroke-dasharray:none" />
  <path
     d="M 351.78371,30.3191 V 66.983826"
     id="path48"
     inkscape:connector-curvature="0"
     style="fill:none;stroke:#000000;stroke-width:2.333;stroke-miterlimit:4;stroke-dasharray:none" />
  <path
     d="m 351.78371,39.48528 9.16618,-9.16618 h 9.16618 l 9.16619,9.16618 v 27.498546"
     id="path50"
     inkscape:connector-curvature="0"
     style="fill:none;stroke:#000000;stroke-width:2.333;stroke-miterlimit:4;stroke-dasharray:none" />
  <path
     d="m 379.28226,39.48528 9.16618,-9.16618 h 9.16619 l 9.16618,9.16618 v 27.498546"
     id="path52"
     inkscape:connector-curvature="0"
     style="fill:none;stroke:#000000;stroke-width:2.333;stroke-miterlimit:4;stroke-dasharray:none" />
  <path
     d="M 415.947,30.3191 V 66.983826"
     id="path54"
     inkscape:connector-curvature="0"
     style="fill:none;stroke:#000000;stroke-width:2.333;stroke-miterlimit:4;stroke-dasharray:none" />
  <path
     d="m 415.947,39.48528 9.16618,-9.16618 h 9.16619 l 9.16618,9.16618 v 27.498546"
     id="path56"
     inkscape:connector-curvature="0"
     style="fill:none;stroke:#000000;stroke-width:2.333;stroke-miterlimit:4;stroke-dasharray:none" />
  <path
     d="m 480.11029,39.48528 -9.16618,-9.16618 h -9.16619 l -9.16618,9.16618 v 18.332366 l 9.16618,9.16618 h 9.16619 l 9.16618,-9.16618 V 39.48528"
     id="path58"
     inkscape:connector-curvature="0"
     style="fill:none;stroke:#000000;stroke-width:2.333;stroke-miterlimit:4;stroke-dasharray:none" />
  <path
     d="M 489.27648,30.3191 V 85.316196"
     id="path60"
     inkscape:connector-curvature="0"
     style="fill:none;stroke:#000000;stroke-width:2.333;stroke-miterlimit:4;stroke-dasharray:none" />
  <path
     d="m 489.27648,39.48528 9.16618,-9.16618 h 9.16619 l 9.16618,9.16618 v 18.332366 l -9.16618,9.16618 h -9.16619 l -9.16618,-9.16618"
     id="path62"
     inkscape:connector-curvature="0"
     style="fill:none;stroke:#000000;stroke-width:2.333;stroke-miterlimit:4;stroke-dasharray:none" />
  <path
     d="M 553.43977,30.3191 V 85.316196"
     id="path64"
     inkscape:connector-curvature="0"
     style="fill:none;stroke:#000000;stroke-width:2.333;stroke-miterlimit:4;stroke-dasharray:none" />
  <path
     d="m 553.43977,39.48528 -9.16619,-9.16618 h -9.16618 l -9.16619,9.16618 v 18.332366 l 9.16619,9.16618 h 9.16618 l 9.16619,-9.16618"
     id="path66"
     inkscape:connector-curvature="0"
     style="fill:none;stroke:#000000;stroke-width:2.333;stroke-miterlimit:4;stroke-dasharray:none" />
  <path
     d="M 562.60595,30.3191 V 66.983826"
     id="path68"
     inkscape:connector-curvature="0"
     style="fill:none;stroke:#000000;stroke-width:2.333;stroke-miterlimit:4;stroke-dasharray:none" />
  <path
     d="m 562.60595,39.48528 9.16619,-9.16618 h 9.16618"
     id="path70"
     inkscape:connector-curvature="0"
     style="fill:none;stroke:#000000;stroke-width:2.333;stroke-miterlimit:4;stroke-dasharray:none" />
  <path
     d="m 40.133431,131.14712 -9.166185,-9.16619 h -9.166184 l -9.166185,9.16619 9.166185,9.16618 h 9.166184 l 9.166185,9.16619 -9.166185,9.16618 h -9.166184 l -9.166185,-9.16618"
     id="path72"
     inkscape:connector-curvature="0"
     style="fill:none;stroke:#000000;stroke-width:2.333;stroke-miterlimit:4;stroke-dasharray:none" />
  <path
     d="m 49.299616,103.64856 v 54.99711"
     id="path74"
     inkscape:connector-curvature="0"
     style="fill:none;stroke:#000000;stroke-width:2.333;stroke-miterlimit:4;stroke-dasharray:none" />
  <path
     d="M 49.299616,121.98093 H 58.4658"
     id="path76"
     inkscape:connector-curvature="0"
     style="fill:none;stroke:#000000;stroke-width:2.333;stroke-miterlimit:4;stroke-dasharray:none" />
  <path
     d="m 67.631985,121.98093 v 27.49856 l 9.166185,9.16618 h 9.166184 l 9.166189,-9.16618"
     id="path78"
     inkscape:connector-curvature="0"
     style="fill:none;stroke:#000000;stroke-width:2.333;stroke-miterlimit:4;stroke-dasharray:none" />
  <path
     d="m 95.130543,121.98093 v 36.66474"
     id="path80"
     inkscape:connector-curvature="0"
     style="fill:none;stroke:#000000;stroke-width:2.333;stroke-miterlimit:4;stroke-dasharray:none" />
  <path
     d="m 104.29672,121.98093 13.74928,36.66474 13.74927,-36.66474"
     id="path82"
     inkscape:connector-curvature="0"
     style="fill:none;stroke:#000000;stroke-width:2.333;stroke-miterlimit:4;stroke-dasharray:none" />
  <path
     d="m 140.96146,121.98093 9.16618,36.66474 9.16619,-36.66474 9.16618,36.66474 9.16619,-36.66474"
     id="path84"
     inkscape:connector-curvature="0"
     style="fill:none;stroke:#000000;stroke-width:2.333;stroke-miterlimit:4;stroke-dasharray:none" />
  <path
     d="m 186.79238,121.98093 27.49856,36.66474"
     id="path86"
     inkscape:connector-curvature="0"
     style="fill:none;stroke:#000000;stroke-width:2.333;stroke-miterlimit:4;stroke-dasharray:none" />
  <path
     d="m 214.29094,121.98093 -27.49856,36.66474"
     id="path88"
     inkscape:connector-curvature="0"
     style="fill:none;stroke:#000000;stroke-width:2.333;stroke-miterlimit:4;stroke-dasharray:none" />
  <path
     d="m 223.45712,121.98093 13.74928,36.66474"
     id="path90"
     inkscape:connector-curvature="0"
     style="fill:none;stroke:#000000;stroke-width:2.333;stroke-miterlimit:4;stroke-dasharray:none" />
  <path
     d="m 250.95567,121.98093 -13.74927,36.66474 -4.5831,9.16619 -9.16618,9.16618"
     id="path92"
     inkscape:connector-curvature="0"
     style="fill:none;stroke:#000000;stroke-width:2.333;stroke-miterlimit:4;stroke-dasharray:none" />
  <path
     d="m 260.12186,121.98093 h 27.49855 l -27.49855,36.66474 h 27.49855"
     id="path94"
     inkscape:connector-curvature="0"
     style="fill:none;stroke:#000000;stroke-width:2.333;stroke-miterlimit:4;stroke-dasharray:none" />
  <path
     d="m 296.7866,131.14712 9.16618,-9.16619 v 36.66474"
     id="path96"
     inkscape:connector-curvature="0"
     style="fill:none;stroke:#000000;stroke-width:2.333;stroke-miterlimit:4;stroke-dasharray:none" />
  <path
     d="m 315.11897,131.14712 9.16618,-9.16619 h 9.16619 l 9.16618,9.16619 -27.49855,27.49855 h 27.49855"
     id="path98"
     inkscape:connector-curvature="0"
     style="fill:none;stroke:#000000;stroke-width:2.333;stroke-miterlimit:4;stroke-dasharray:none" />
  <path
     d="m 351.78371,121.98093 h 27.49855 l -18.33237,18.33237 18.33237,9.16619 v 18.33237 l -9.16619,9.16618 h -9.16618 l -9.16618,-9.16618"
     id="path100"
     inkscape:connector-curvature="0"
     style="fill:none;stroke:#000000;stroke-width:2.333;stroke-miterlimit:4;stroke-dasharray:none" />
  <path
     d="m 388.44844,121.98093 v 18.33237 l 9.16619,9.16619 H 415.947"
     id="path102"
     inkscape:connector-curvature="0"
     style="fill:none;stroke:#000000;stroke-width:2.333;stroke-miterlimit:4;stroke-dasharray:none" />
  <path
     d="m 415.947,121.98093 v 54.99711"
     id="path104"
     inkscape:connector-curvature="0"
     style="fill:none;stroke:#000000;stroke-width:2.333;stroke-miterlimit:4;stroke-dasharray:none" />
  <path
     d="m 452.61174,121.98093 h -27.49856 v 18.33237 h 18.33237 l 9.16619,9.16619 v 18.33237 l -9.16619,9.16618 h -18.33237"
     id="path106"
     inkscape:connector-curvature="0"
     style="fill:none;stroke:#000000;stroke-width:2.333;stroke-miterlimit:4;stroke-dasharray:none" />
  <path
     d="m 489.27648,112.81475 -9.16619,-9.16619 h -9.16618 l -9.16619,9.16619 v 36.66474 l 9.16619,9.16618 h 9.16618 l 9.16619,-9.16618 v -18.33237 l -9.16619,-9.16619 h -9.16618 l -9.16619,9.16619"
     id="path108"
     inkscape:connector-curvature="0"
     style="fill:none;stroke:#000000;stroke-width:2.333;stroke-miterlimit:4;stroke-dasharray:none" />
  <path
     d="m 498.44266,121.98093 h 27.49855 l -27.49855,54.99711"
     id="path110"
     inkscape:connector-curvature="0"
     style="fill:none;stroke:#000000;stroke-width:2.333;stroke-miterlimit:4;stroke-dasharray:none" />
  <path
     d="m 544.27358,131.14712 -9.16618,-9.16619 v -9.16618 l 9.16618,-9.16619 h 9.16619 l 9.16618,9.16619 v 9.16618 l -9.16618,9.16619 h -9.16619 l -9.16618,9.16618 v 9.16619 l 9.16618,9.16618 h 9.16619 l 9.16618,-9.16618 v -9.16619 l -9.16618,-9.16618"
     id="path112"
     inkscape:connector-curvature="0"
     style="fill:none;stroke:#000000;stroke-width:2.333;stroke-miterlimit:4;stroke-dasharray:none" />
  <path
     d="m 599.27069,149.47949 -9.16618,9.16618 h -9.16619 l -9.16618,-9.16618 v -18.33237 l 9.16618,-9.16619 h 9.16619 l 9.16618,9.16619 v 36.66474 l -9.16618,9.16618 h -9.16619 l -9.16618,-9.16618"
     id="path114"
     inkscape:connector-curvature="0"
     style="fill:none;stroke:#000000;stroke-width:2.333;stroke-miterlimit:4;stroke-dasharray:none" />
  <path
     d="m 635.93543,131.14712 -9.16618,-9.16619 h -9.16619 l -9.16618,9.16619 v 18.33237 l 9.16618,9.16618 h 9.16619 l 9.16618,-9.16618 v -18.33237"
     id="path116"
     inkscape:connector-curvature="0"
     style="fill:none;stroke:#000000;stroke-width:2.333;stroke-miterlimit:4;stroke-dasharray:none" />
  <path
     d="m 631.35234,126.56402 -18.33237,27.49856"
     id="path118"
     inkscape:connector-curvature="0"
     style="fill:none;stroke:#000000;stroke-width:2.333;stroke-miterlimit:4;stroke-dasharray:none" />
  <path
     d="m 21.801062,222.80896 v 9.16619"
     id="path120"
     inkscape:connector-curvature="0"
     style="fill:none;stroke:#000000;stroke-width:2.333;stroke-miterlimit:4;stroke-dasharray:none" />
  <path
     d="m 12.634877,229.6836 9.166185,2.29155 9.166184,-2.29155"
     id="path122"
     inkscape:connector-curvature="0"
     style="fill:none;stroke:#000000;stroke-width:2.333;stroke-miterlimit:4;stroke-dasharray:none" />
  <path
     d="m 14.926423,241.14133 6.874639,-9.16618 6.874638,9.16618"
     id="path124"
     inkscape:connector-curvature="0"
     style="fill:none;stroke:#000000;stroke-width:2.333;stroke-miterlimit:4;stroke-dasharray:none" />
  <path
     d="M 40.133431,231.97515 H 58.4658"
     id="path126"
     inkscape:connector-curvature="0"
     style="fill:none;stroke:#000000;stroke-width:2.333;stroke-miterlimit:4;stroke-dasharray:none" />
  <path
     d="m 49.299616,222.80896 v 18.33237"
     id="path128"
     inkscape:connector-curvature="0"
     style="fill:none;stroke:#000000;stroke-width:2.333;stroke-miterlimit:4;stroke-dasharray:none" />
  <path
     d="m 76.79817,204.47659 -9.166185,9.16619 v 36.66474 l 9.166185,9.16618"
     id="path130"
     inkscape:connector-curvature="0"
     style="fill:none;stroke:#000000;stroke-width:2.333;stroke-miterlimit:4;stroke-dasharray:none" />
  <path
     d="m 85.964354,204.47659 9.166189,9.16619 v 36.66474 l -9.166189,9.16618"
     id="path132"
     inkscape:connector-curvature="0"
     style="fill:none;stroke:#000000;stroke-width:2.333;stroke-miterlimit:4;stroke-dasharray:none" />
  <path
     d="M 122.62909,204.47659 104.29672,259.4737"
     id="path134"
     inkscape:connector-curvature="0"
     style="fill:none;stroke:#000000;stroke-width:2.333;stroke-miterlimit:4;stroke-dasharray:none" />
  <path
     d="m 131.79527,204.47659 18.33237,54.99711"
     id="path136"
     inkscape:connector-curvature="0"
     style="fill:none;stroke:#000000;stroke-width:2.333;stroke-miterlimit:4;stroke-dasharray:none" />
  <path
     d="m 168.46001,204.47659 h -9.16618 v 54.99711 h 9.16618"
     id="path138"
     inkscape:connector-curvature="0"
     style="fill:none;stroke:#000000;stroke-width:2.333;stroke-miterlimit:4;stroke-dasharray:none" />
  <path
     d="m 177.6262,204.47659 h 9.16618 v 54.99711 h -9.16618"
     id="path140"
     inkscape:connector-curvature="0"
     style="fill:none;stroke:#000000;stroke-width:2.333;stroke-miterlimit:4;stroke-dasharray:none" />
  <path
     d="m 195.95857,231.97515 13.74927,-18.33237 13.74928,18.33237"
     id="path142"
     inkscape:connector-curvature="0"
     style="fill:none;stroke:#000000;stroke-width:2.333;stroke-miterlimit:4;stroke-dasharray:none" />
  <path
     d="m 232.6233,227.39206 h 18.33237"
     id="path144"
     inkscape:connector-curvature="0"
     style="fill:none;stroke:#000000;stroke-width:2.333;stroke-miterlimit:4;stroke-dasharray:none" />
  <path
     d="m 232.6233,236.55824 h 18.33237"
     id="path146"
     inkscape:connector-curvature="0"
     style="fill:none;stroke:#000000;stroke-width:2.333;stroke-miterlimit:4;stroke-dasharray:none" />
  <path
     d="m 260.12186,231.97515 h 18.33237"
     id="path148"
     inkscape:connector-curvature="0"
     style="fill:none;stroke:#000000;stroke-width:2.333;stroke-miterlimit:4;stroke-dasharray:none" />
  <path
     d="m 287.62041,195.31041 v 36.66474"
     id="path150"
     inkscape:connector-curvature="0"
     style="fill:none;stroke:#000000;stroke-width:2.333;stroke-miterlimit:4;stroke-dasharray:none" />
  <path
     d="m 287.62041,241.14133 v 9.16619"
     id="path152"
     inkscape:connector-curvature="0"
     style="fill:none;stroke:#000000;stroke-width:2.333;stroke-miterlimit:4;stroke-dasharray:none" />
  <path
     d="M 305.95278,250.30752 H 296.7866"
     id="path154"
     inkscape:connector-curvature="0"
     style="fill:none;stroke:#000000;stroke-width:2.333;stroke-miterlimit:4;stroke-dasharray:none" />
  <path
     d="m 324.28515,250.30752 -9.16618,9.16618"
     id="path156"
     inkscape:connector-curvature="0"
     style="fill:none;stroke:#000000;stroke-width:2.333;stroke-miterlimit:4;stroke-dasharray:none" />
  <path
     d="m 351.78371,222.80896 -18.33237,9.16619 18.33237,9.16618"
     id="path158"
     inkscape:connector-curvature="0"
     style="fill:none;stroke:#000000;stroke-width:2.333;stroke-miterlimit:4;stroke-dasharray:none" />
  <path
     d="m 360.94989,222.80896 18.33237,9.16619 -18.33237,9.16618"
     id="path160"
     inkscape:connector-curvature="0"
     style="fill:none;stroke:#000000;stroke-width:2.333;stroke-miterlimit:4;stroke-dasharray:none" />
  <path
     d="m 388.44844,204.47659 v 13.74928"
     id="path162"
     inkscape:connector-curvature="0"
     style="fill:none;stroke:#000000;stroke-width:2.333;stroke-miterlimit:4;stroke-dasharray:none" />
  <path
     d="m 406.78081,213.64278 -9.16618,36.66474"
     id="path164"
     inkscape:connector-curvature="0"
     style="fill:none;stroke:#000000;stroke-width:2.333;stroke-miterlimit:4;stroke-dasharray:none" />
  <path
     d="m 415.947,213.64278 -9.16619,36.66474"
     id="path166"
     inkscape:connector-curvature="0"
     style="fill:none;stroke:#000000;stroke-width:2.333;stroke-miterlimit:4;stroke-dasharray:none" />
  <path
     d="M 399.90618,227.39206 H 415.947"
     id="path168"
     inkscape:connector-curvature="0"
     style="fill:none;stroke:#000000;stroke-width:2.333;stroke-miterlimit:4;stroke-dasharray:none" />
  <path
     d="m 397.61463,236.55824 h 16.04082"
     id="path170"
     inkscape:connector-curvature="0"
     style="fill:none;stroke:#000000;stroke-width:2.333;stroke-miterlimit:4;stroke-dasharray:none" />
  <path
     d="M 425.11318,204.47659 V 259.4737"
     id="path172"
     inkscape:connector-curvature="0"
     style="fill:none;stroke:#000000;stroke-width:2.333;stroke-miterlimit:4;stroke-dasharray:none" />
  <path
     d="m 434.27937,250.30752 h 18.33237"
     id="path174"
     inkscape:connector-curvature="0"
     style="fill:none;stroke:#000000;stroke-width:2.333;stroke-miterlimit:4;stroke-dasharray:none" />
  <path
     d="m 489.27648,213.64278 -27.49856,36.66474"
     id="path176"
     inkscape:connector-curvature="0"
     style="fill:none;stroke:#000000;stroke-width:2.333;stroke-miterlimit:4;stroke-dasharray:none" />
  <path
     d="m 466.36101,218.22587 4.5831,4.58309 -4.5831,4.5831 -4.58309,-4.5831 4.58309,-4.58309"
     id="path178"
     inkscape:connector-curvature="0"
     style="fill:none;stroke:#000000;stroke-width:2.333;stroke-miterlimit:4;stroke-dasharray:none" />
  <path
     d="m 484.69338,236.55824 4.5831,4.58309 -4.5831,4.5831 -4.58309,-4.5831 4.58309,-4.58309"
     id="path180"
     inkscape:connector-curvature="0"
     style="fill:none;stroke:#000000;stroke-width:2.333;stroke-miterlimit:4;stroke-dasharray:none" />
  <path
     d="m 498.44266,236.55824 4.58309,-9.16618 h 4.5831 l 9.16618,9.16618 h 4.58309 l 4.58309,-9.16618"
     id="path182"
     inkscape:connector-curvature="0"
     style="fill:none;stroke:#000000;stroke-width:2.333;stroke-miterlimit:4;stroke-dasharray:none" />
  <path
     d="m 535.1074,204.47659 v 13.74928"
     id="path184"
     inkscape:connector-curvature="0"
     style="fill:none;stroke:#000000;stroke-width:2.333;stroke-miterlimit:4;stroke-dasharray:none" />
  <path
     d="m 544.27358,204.47659 v 13.74928"
     id="path186"
     inkscape:connector-curvature="0"
     style="fill:none;stroke:#000000;stroke-width:2.333;stroke-miterlimit:4;stroke-dasharray:none" />
  <path
     d="m 12.634877,286.97226 v 54.9971"
     id="path188"
     inkscape:connector-curvature="0"
     style="fill:none;stroke:#000000;stroke-width:2.333;stroke-miterlimit:4;stroke-dasharray:none" />
  <path
     d="m 12.634877,305.30463 h 9.166185"
     id="path190"
     inkscape:connector-curvature="0"
     style="fill:none;stroke:#000000;stroke-width:2.333;stroke-miterlimit:4;stroke-dasharray:none" />
  <path
     d="m 30.967246,286.97226 v 54.9971"
     id="path192"
     inkscape:connector-curvature="0"
     style="fill:none;stroke:#000000;stroke-width:2.333;stroke-miterlimit:4;stroke-dasharray:none" />
  <path
     d="m 30.967246,314.47081 9.166185,-9.16618 h 9.166185 l 9.166184,9.16618 v 27.49855"
     id="path194"
     inkscape:connector-curvature="0"
     style="fill:none;stroke:#000000;stroke-width:2.333;stroke-miterlimit:4;stroke-dasharray:none" />
  <path
     d="m 76.79817,323.637 h 9.166184 l 9.166189,-9.16619 -9.166189,-9.16618 H 76.79817 l -9.166185,9.16618 v 18.33237 l 9.166185,9.16618 h 9.166184 l 9.166189,-9.16618"
     id="path196"
     inkscape:connector-curvature="0"
     style="fill:none;stroke:#000000;stroke-width:2.333;stroke-miterlimit:4;stroke-dasharray:none" />
  <path
     d="m 150.12764,305.30463 v 54.9971"
     id="path198"
     inkscape:connector-curvature="0"
     style="fill:none;stroke:#000000;stroke-width:2.333;stroke-miterlimit:4;stroke-dasharray:none" />
  <path
     d="m 150.12764,314.47081 -9.16618,-9.16618 h -9.16619 l -9.16618,9.16618 v 18.33237 l 9.16618,9.16618 h 9.16619 l 9.16618,-9.16618"
     id="path200"
     inkscape:connector-curvature="0"
     style="fill:none;stroke:#000000;stroke-width:2.333;stroke-miterlimit:4;stroke-dasharray:none" />
  <path
     d="m 159.29383,305.30463 v 27.49855 l 9.16618,9.16618 h 9.16619 l 9.16618,-9.16618"
     id="path202"
     inkscape:connector-curvature="0"
     style="fill:none;stroke:#000000;stroke-width:2.333;stroke-miterlimit:4;stroke-dasharray:none" />
  <path
     d="m 186.79238,305.30463 v 36.66473"
     id="path204"
     inkscape:connector-curvature="0"
     style="fill:none;stroke:#000000;stroke-width:2.333;stroke-miterlimit:4;stroke-dasharray:none" />
  <path
     d="m 195.95857,305.30463 v 36.66473"
     id="path206"
     inkscape:connector-curvature="0"
     style="fill:none;stroke:#000000;stroke-width:2.333;stroke-miterlimit:4;stroke-dasharray:none" />
  <path
     d="m 195.95857,286.97226 v 9.16618"
     id="path208"
     inkscape:connector-curvature="0"
     style="fill:none;stroke:#000000;stroke-width:2.333;stroke-miterlimit:4;stroke-dasharray:none" />
  <path
     d="m 232.6233,314.47081 -9.16618,-9.16618 h -9.16618 l -9.16619,9.16618 v 18.33237 l 9.16619,9.16618 h 9.16618 l 9.16618,-9.16618"
     id="path210"
     inkscape:connector-curvature="0"
     style="fill:none;stroke:#000000;stroke-width:2.333;stroke-miterlimit:4;stroke-dasharray:none" />
  <path
     d="m 241.78949,286.97226 v 54.9971"
     id="path212"
     inkscape:connector-curvature="0"
     style="fill:none;stroke:#000000;stroke-width:2.333;stroke-miterlimit:4;stroke-dasharray:none" />
  <path
     d="m 241.78949,323.637 18.33237,-18.33237"
     id="path214"
     inkscape:connector-curvature="0"
     style="fill:none;stroke:#000000;stroke-width:2.333;stroke-miterlimit:4;stroke-dasharray:none" />
  <path
     d="m 250.95567,314.47081 9.16619,27.49855"
     id="path216"
     inkscape:connector-curvature="0"
     style="fill:none;stroke:#000000;stroke-width:2.333;stroke-miterlimit:4;stroke-dasharray:none" />
  <path
     d="m 296.7866,296.13844 -9.16619,9.16619 v 36.66473 l 9.16619,9.16619"
     id="path218"
     inkscape:connector-curvature="0"
     style="fill:none;stroke:#000000;stroke-width:2.333;stroke-miterlimit:4;stroke-dasharray:none" />
  <path
     d="m 305.95278,286.97226 v 54.9971"
     id="path220"
     inkscape:connector-curvature="0"
     style="fill:none;stroke:#000000;stroke-width:2.333;stroke-miterlimit:4;stroke-dasharray:none" />
  <path
     d="m 305.95278,314.47081 9.16619,-9.16618 h 9.16618 l 9.16619,9.16618 v 18.33237 l -9.16619,9.16618 h -9.16618 l -9.16619,-9.16618"
     id="path222"
     inkscape:connector-curvature="0"
     style="fill:none;stroke:#000000;stroke-width:2.333;stroke-miterlimit:4;stroke-dasharray:none" />
  <path
     d="m 342.61752,305.30463 v 36.66473"
     id="path224"
     inkscape:connector-curvature="0"
     style="fill:none;stroke:#000000;stroke-width:2.333;stroke-miterlimit:4;stroke-dasharray:none" />
  <path
     d="m 342.61752,314.47081 9.16619,-9.16618 h 9.16618"
     id="path226"
     inkscape:connector-curvature="0"
     style="fill:none;stroke:#000000;stroke-width:2.333;stroke-miterlimit:4;stroke-dasharray:none" />
  <path
     d="m 397.61463,314.47081 -9.16619,-9.16618 h -9.16618 l -9.16619,9.16618 v 18.33237 l 9.16619,9.16618 h 9.16618 l 9.16619,-9.16618 v -18.33237"
     id="path228"
     inkscape:connector-curvature="0"
     style="fill:none;stroke:#000000;stroke-width:2.333;stroke-miterlimit:4;stroke-dasharray:none" />
  <path
     d="m 406.78081,305.30463 9.16619,36.66473 9.16618,-36.66473 9.16619,36.66473 9.16618,-36.66473"
     id="path230"
     inkscape:connector-curvature="0"
     style="fill:none;stroke:#000000;stroke-width:2.333;stroke-miterlimit:4;stroke-dasharray:none" />
  <path
     d="m 452.61174,305.30463 v 36.66473"
     id="path232"
     inkscape:connector-curvature="0"
     style="fill:none;stroke:#000000;stroke-width:2.333;stroke-miterlimit:4;stroke-dasharray:none" />
  <path
     d="m 452.61174,314.47081 9.16618,-9.16618 h 9.16619 l 9.16618,9.16618 v 27.49855"
     id="path234"
     inkscape:connector-curvature="0"
     style="fill:none;stroke:#000000;stroke-width:2.333;stroke-miterlimit:4;stroke-dasharray:none" />
  <path
     d="m 489.27648,296.13844 9.16618,9.16619 v 36.66473 l -9.16618,9.16619"
     id="path236"
     inkscape:connector-curvature="0"
     style="fill:none;stroke:#000000;stroke-width:2.333;stroke-miterlimit:4;stroke-dasharray:none" />
  <path
     d="m 525.94121,341.96936 v -45.83092 l 9.16619,-9.16618"
     id="path238"
     inkscape:connector-curvature="0"
     style="fill:none;stroke:#000000;stroke-width:2.333;stroke-miterlimit:4;stroke-dasharray:none" />
  <path
     d="m 525.94121,305.30463 h 9.16619"
     id="path240"
     inkscape:connector-curvature="0"
     style="fill:none;stroke:#000000;stroke-width:2.333;stroke-miterlimit:4;stroke-dasharray:none" />
  <path
     d="m 571.77214,314.47081 -9.16619,-9.16618 h -9.16618 l -9.16619,9.16618 v 18.33237 l 9.16619,9.16618 h 9.16618 l 9.16619,-9.16618 v -18.33237"
     id="path242"
     inkscape:connector-curvature="0"
     style="fill:none;stroke:#000000;stroke-width:2.333;stroke-miterlimit:4;stroke-dasharray:none" />
  <path
     d="m 580.93832,305.30463 27.49856,36.66473"
     id="path244"
     inkscape:connector-curvature="0"
     style="fill:none;stroke:#000000;stroke-width:2.333;stroke-miterlimit:4;stroke-dasharray:none" />
  <path
     d="m 608.43688,305.30463 -27.49856,36.66473"
     id="path246"
     inkscape:connector-curvature="0"
     style="fill:none;stroke:#000000;stroke-width:2.333;stroke-miterlimit:4;stroke-dasharray:none" />
  <path
     d="m 21.801062,396.96644 v 45.831 l -9.166185,9.1661"
     id="path248"
     inkscape:connector-curvature="0"
     style="fill:none;stroke:#000000;stroke-width:2.333;stroke-miterlimit:4;stroke-dasharray:none" />
  <path
     d="m 21.801062,378.6341 v 9.16614"
     id="path250"
     inkscape:connector-curvature="0"
     style="fill:none;stroke:#000000;stroke-width:2.333;stroke-miterlimit:4;stroke-dasharray:none" />
  <path
     d="m 30.967246,396.96644 v 27.4986 l 9.166185,9.1662 h 9.166185 l 9.166184,-9.1662"
     id="path252"
     inkscape:connector-curvature="0"
     style="fill:none;stroke:#000000;stroke-width:2.333;stroke-miterlimit:4;stroke-dasharray:none" />
  <path
     d="m 58.4658,396.96644 v 36.6648"
     id="path254"
     inkscape:connector-curvature="0"
     style="fill:none;stroke:#000000;stroke-width:2.333;stroke-miterlimit:4;stroke-dasharray:none" />
  <path
     d="m 67.631985,396.96644 v 36.6648"
     id="path256"
     inkscape:connector-curvature="0"
     style="fill:none;stroke:#000000;stroke-width:2.333;stroke-miterlimit:4;stroke-dasharray:none" />
  <path
     d="m 67.631985,406.13264 9.166185,-9.1662 h 9.166184 l 9.166189,9.1662 v 27.4986"
     id="path258"
     inkscape:connector-curvature="0"
     style="fill:none;stroke:#000000;stroke-width:2.333;stroke-miterlimit:4;stroke-dasharray:none" />
  <path
     d="m 95.130543,406.13264 9.166177,-9.1662 h 9.16618 l 9.16619,9.1662 v 27.4986"
     id="path260"
     inkscape:connector-curvature="0"
     style="fill:none;stroke:#000000;stroke-width:2.333;stroke-miterlimit:4;stroke-dasharray:none" />
  <path
     d="m 131.79527,396.96644 v 54.9971"
     id="path262"
     inkscape:connector-curvature="0"
     style="fill:none;stroke:#000000;stroke-width:2.333;stroke-miterlimit:4;stroke-dasharray:none" />
  <path
     d="m 131.79527,406.13264 9.16619,-9.1662 h 9.16618 l 9.16619,9.1662 v 18.3324 l -9.16619,9.1662 h -9.16618 l -9.16619,-9.1662"
     id="path264"
     inkscape:connector-curvature="0"
     style="fill:none;stroke:#000000;stroke-width:2.333;stroke-miterlimit:4;stroke-dasharray:none" />
  <path
     d="m 195.95857,406.13264 -9.16619,-9.1662 h -9.16618 l -9.16619,9.1662 9.16619,9.1662 h 9.16618 l 9.16619,9.1662 -9.16619,9.1662 h -9.16618 l -9.16619,-9.1662"
     id="path266"
     inkscape:connector-curvature="0"
     style="fill:none;stroke:#000000;stroke-width:2.333;stroke-miterlimit:4;stroke-dasharray:none" />
  <path
     d="m 250.95567,406.13264 -9.16618,-9.1662 h -9.16619 l -9.16618,9.1662 v 18.3324 l 9.16618,9.1662 h 9.16619 l 9.16618,-9.1662 v -18.3324"
     id="path268"
     inkscape:connector-curvature="0"
     style="fill:none;stroke:#000000;stroke-width:2.333;stroke-miterlimit:4;stroke-dasharray:none" />
  <path
     d="m 260.12186,396.96644 13.74928,36.6648 13.74927,-36.6648"
     id="path270"
     inkscape:connector-curvature="0"
     style="fill:none;stroke:#000000;stroke-width:2.333;stroke-miterlimit:4;stroke-dasharray:none" />
  <path
     d="m 296.7866,415.29884 13.74927,-18.3324 13.74928,18.3324"
     id="path272"
     inkscape:connector-curvature="0"
     style="fill:none;stroke:#000000;stroke-width:2.333;stroke-miterlimit:4;stroke-dasharray:none" />
  <path
     d="m 342.61752,415.29884 h 9.16619 l 9.16618,-9.1662 -9.16618,-9.1662 h -9.16619 l -9.16618,9.1662 v 18.3324 l 9.16618,9.1662 h 9.16619 l 9.16618,-9.1662"
     id="path274"
     inkscape:connector-curvature="0"
     style="fill:none;stroke:#000000;stroke-width:2.333;stroke-miterlimit:4;stroke-dasharray:none" />
  <path
     d="m 370.11607,396.96644 v 36.6648"
     id="path276"
     inkscape:connector-curvature="0"
     style="fill:none;stroke:#000000;stroke-width:2.333;stroke-miterlimit:4;stroke-dasharray:none" />
  <path
     d="m 370.11607,406.13264 9.16619,-9.1662 h 9.16618"
     id="path278"
     inkscape:connector-curvature="0"
     style="fill:none;stroke:#000000;stroke-width:2.333;stroke-miterlimit:4;stroke-dasharray:none" />
  <path
     d="m 415.947,378.6341 v 54.99714"
     id="path280"
     inkscape:connector-curvature="0"
     style="fill:none;stroke:#000000;stroke-width:2.333;stroke-miterlimit:4;stroke-dasharray:none" />
  <path
     d="m 415.947,396.96644 h 9.16618"
     id="path282"
     inkscape:connector-curvature="0"
     style="fill:none;stroke:#000000;stroke-width:2.333;stroke-miterlimit:4;stroke-dasharray:none" />
  <path
     d="m 434.27937,378.6341 v 54.99714"
     id="path284"
     inkscape:connector-curvature="0"
     style="fill:none;stroke:#000000;stroke-width:2.333;stroke-miterlimit:4;stroke-dasharray:none" />
  <path
     d="m 434.27937,406.13264 9.16618,-9.1662 h 9.16619 l 9.16618,9.1662 v 27.4986"
     id="path286"
     inkscape:connector-curvature="0"
     style="fill:none;stroke:#000000;stroke-width:2.333;stroke-miterlimit:4;stroke-dasharray:none" />
  <path
     d="m 480.11029,415.29884 h 9.16619 l 9.16618,-9.1662 -9.16618,-9.1662 h -9.16619 l -9.16618,9.1662 v 18.3324 l 9.16618,9.1662 h 9.16619 l 9.16618,-9.1662"
     id="path288"
     inkscape:connector-curvature="0"
     style="fill:none;stroke:#000000;stroke-width:2.333;stroke-miterlimit:4;stroke-dasharray:none" />
  <path
     d="m 525.94121,387.80024 -18.33236,54.9972"
     id="path290"
     inkscape:connector-curvature="0"
     style="fill:none;stroke:#000000;stroke-width:2.333;stroke-miterlimit:4;stroke-dasharray:none" />
  <path
     d="m 535.1074,378.6341 v 54.99714"
     id="path292"
     inkscape:connector-curvature="0"
     style="fill:none;stroke:#000000;stroke-width:2.333;stroke-miterlimit:4;stroke-dasharray:none" />
  <path
     d="m 571.77214,396.96644 v 36.6648"
     id="path294"
     inkscape:connector-curvature="0"
     style="fill:none;stroke:#000000;stroke-width:2.333;stroke-miterlimit:4;stroke-dasharray:none" />
  <path
     d="m 571.77214,406.13264 -9.16619,-9.1662 h -9.16618 l -9.16619,9.1662 v 18.3324 l 9.16619,9.1662 h 9.16618 l 9.16619,-9.1662"
     id="path296"
     inkscape:connector-curvature="0"
     style="fill:none;stroke:#000000;stroke-width:2.333;stroke-miterlimit:4;stroke-dasharray:none" />
  <path
     d="m 580.93832,396.96644 h 27.49856 l -27.49856,36.6648 h 27.49856"
     id="path298"
     inkscape:connector-curvature="0"
     style="fill:none;stroke:#000000;stroke-width:2.333;stroke-miterlimit:4;stroke-dasharray:none" />
  <path
     d="m 617.60306,396.96644 13.74928,36.6648"
     id="path300"
     inkscape:connector-curvature="0"
     style="fill:none;stroke:#000000;stroke-width:2.333;stroke-miterlimit:4;stroke-dasharray:none" />
  <path
     d="m 645.10162,396.96644 -13.74928,36.6648 -4.58309,9.1662 -9.16619,9.1661"
     id="path302"
     inkscape:connector-curvature="0"
     style="fill:none;stroke:#000000;stroke-width:2.333;stroke-miterlimit:4;stroke-dasharray:none" />
  <path
     d="m 700.09872,378.6341 v 54.99714"
     id="path304"
     inkscape:connector-curvature="0"
     style="fill:none;stroke:#000000;stroke-width:2.333;stroke-miterlimit:4;stroke-dasharray:none" />
  <path
     d="m 700.09872,406.13264 -9.16618,-9.1662 h -9.16619 l -9.16618,9.1662 v 18.3324 l 9.16618,9.1662 h 9.16619 l 9.16618,-9.1662"
     id="path306"
     inkscape:connector-curvature="0"
     style="fill:none;stroke:#000000;stroke-width:2.333;stroke-miterlimit:4;stroke-dasharray:none" />
  <path
     d="m 736.76346,406.13264 -9.16618,-9.1662 h -9.16619 l -9.16618,9.1662 v 18.3324 l 9.16618,9.1662 h 9.16619 l 9.16618,-9.1662 v -18.3324"
     id="path308"
     inkscape:connector-curvature="0"
     style="fill:none;stroke:#000000;stroke-width:2.333;stroke-miterlimit:4;stroke-dasharray:none" />
  <path
     d="m 773.4282,406.13264 -9.16618,-9.1662 h -9.16619 l -9.16618,9.1662 v 18.3324 l 9.16618,9.1662 h 9.16619 l 9.16618,-9.1662"
     id="path310"
     inkscape:connector-curvature="0"
     style="fill:none;stroke:#000000;stroke-width:2.333;stroke-miterlimit:4;stroke-dasharray:none" />
  <path
     d="m 773.4282,396.96644 v 45.831 l -9.16618,9.1661 h -9.16619"
     id="path312"
     inkscape:connector-curvature="0"
     style="fill:none;stroke:#000000;stroke-width:2.333;stroke-miterlimit:4;stroke-dasharray:none" />
  <path
     d="m 782.59439,378.6341 v 36.66474"
     id="path314"
     inkscape:connector-curvature="0"
     style="fill:none;stroke:#000000;stroke-width:2.333;stroke-miterlimit:4;stroke-dasharray:none" />
  <path
     d="m 782.59439,424.46504 v 9.1662"
     id="path316"
     inkscape:connector-curvature="0"
     style="fill:none;stroke:#000000;stroke-width:2.333;stroke-miterlimit:4;stroke-dasharray:none" />
</svg>
