<?xml version="1.0" encoding="UTF-8" standalone="no"?>
<svg
   xmlns:dc="http://purl.org/dc/elements/1.1/"
   xmlns:cc="http://creativecommons.org/ns#"
   xmlns:rdf="http://www.w3.org/1999/02/22-rdf-syntax-ns#"
   xmlns:svg="http://www.w3.org/2000/svg"
   xmlns="http://www.w3.org/2000/svg"
   xmlns:sodipodi="http://sodipodi.sourceforge.net/DTD/sodipodi-0.dtd"
   xmlns:inkscape="http://www.inkscape.org/namespaces/inkscape"
   height="12.786307cm"
   version="1.2"
   width="20.889132cm"
   id="svg304"
   sodipodi:docname="tmp.svg"
   inkscape:version="0.92.3 (2405546, 2018-03-11)">
  <metadata
     id="metadata308">
    <rdf:RDF>
      <cc:Work
         rdf:about="">
        <dc:format>image/svg+xml</dc:format>
        <dc:type
           rdf:resource="http://purl.org/dc/dcmitype/StillImage" />
        <dc:title></dc:title>
      </cc:Work>
    </rdf:RDF>
  </metadata>
  <sodipodi:namedview
     pagecolor="#ffffff"
     bordercolor="#666666"
     borderopacity="1"
     objecttolerance="10"
     gridtolerance="10"
     guidetolerance="10"
     inkscape:pageopacity="0"
     inkscape:pageshadow="2"
     inkscape:window-width="2560"
     inkscape:window-height="1600"
     id="namedview306"
     showgrid="false"
     units="cm"
     fit-margin-top="0.3"
     fit-margin-left="0.3"
     fit-margin-bottom="0.3"
     fit-margin-right="0.3"
     inkscape:zoom="1.668772"
     inkscape:cx="323.74808"
     inkscape:cy="174.16025"
     inkscape:window-x="1440"
     inkscape:window-y="0"
     inkscape:window-maximized="0"
     inkscape:current-layer="svg304" />
  <defs
     id="defs2" />
  <path
     style="fill:none;stroke:#000000;stroke-width:3.4015748;stroke-miterlimit:4;stroke-dasharray:none"
     inkscape:connector-curvature="0"
     d="m 40.979271,31.137708 v 38.24605"
     id="path4" />
  <path
     style="fill:none;stroke:#000000;stroke-width:3.4015748;stroke-miterlimit:4;stroke-dasharray:none"
     inkscape:connector-curvature="0"
     d="m 40.979271,40.699221 -9.561512,-9.561513 h -9.561513 l -9.561512,9.561513 v 19.123025 l 9.561512,9.561512 h 9.561513 l 9.561512,-9.561512"
     id="path6" />
  <path
     style="fill:none;stroke:#000000;stroke-width:3.4015748;stroke-miterlimit:4;stroke-dasharray:none"
     inkscape:connector-curvature="0"
     d="M 50.540784,12.014684 V 69.383758"
     id="path8" />
  <path
     style="fill:none;stroke:#000000;stroke-width:3.4015748;stroke-miterlimit:4;stroke-dasharray:none"
     inkscape:connector-curvature="0"
     d="m 50.540784,40.699221 9.561512,-9.561513 h 9.561512 l 9.561513,9.561513 v 19.123025 l -9.561513,9.561512 h -9.561512 l -9.561512,-9.561512"
     id="path10" />
  <path
     style="fill:none;stroke:#000000;stroke-width:3.4015748;stroke-miterlimit:4;stroke-dasharray:none"
     inkscape:connector-curvature="0"
     d="m 117.47137,40.699221 -9.56151,-9.561513 h -9.561515 l -9.561512,9.561513 v 19.123025 l 9.561512,9.561512 h 9.561515 l 9.56151,-9.561512"
     id="path12" />
  <path
     style="fill:none;stroke:#000000;stroke-width:3.4015748;stroke-miterlimit:4;stroke-dasharray:none"
     inkscape:connector-curvature="0"
     d="M 155.71742,12.014684 V 69.383758"
     id="path14" />
  <path
     style="fill:none;stroke:#000000;stroke-width:3.4015748;stroke-miterlimit:4;stroke-dasharray:none"
     inkscape:connector-curvature="0"
     d="m 155.71742,40.699221 -9.56151,-9.561513 h -9.56151 l -9.56152,9.561513 v 19.123025 l 9.56152,9.561512 h 9.56151 l 9.56151,-9.561512"
     id="path16" />
  <path
     style="fill:none;stroke:#000000;stroke-width:3.4015748;stroke-miterlimit:4;stroke-dasharray:none"
     inkscape:connector-curvature="0"
     d="m 174.84044,50.260733 h 9.56152 l 9.56151,-9.561512 -9.56151,-9.561513 h -9.56152 l -9.56151,9.561513 v 19.123025 l 9.56151,9.561512 h 9.56152 l 9.56151,-9.561512"
     id="path18" />
  <path
     style="fill:none;stroke:#000000;stroke-width:3.4015748;stroke-miterlimit:4;stroke-dasharray:none"
     inkscape:connector-curvature="0"
     d="M 203.52498,69.383758 V 21.576196 l 9.56151,-9.561512"
     id="path20" />
  <path
     style="fill:none;stroke:#000000;stroke-width:3.4015748;stroke-miterlimit:4;stroke-dasharray:none"
     inkscape:connector-curvature="0"
     d="m 203.52498,31.137708 h 9.56151"
     id="path22" />
  <path
     style="fill:none;stroke:#000000;stroke-width:3.4015748;stroke-miterlimit:4;stroke-dasharray:none"
     inkscape:connector-curvature="0"
     d="m 251.33254,40.699221 -9.56151,-9.561513 h -9.56151 l -9.56151,9.561513 v 19.123025 l 9.56151,9.561512 h 9.56151 l 9.56151,-9.561512"
     id="path24" />
  <path
     style="fill:none;stroke:#000000;stroke-width:3.4015748;stroke-miterlimit:4;stroke-dasharray:none"
     inkscape:connector-curvature="0"
     d="M 251.33254,31.137708 V 78.94527 l -9.56151,9.561513 h -9.56151"
     id="path26" />
  <path
     style="fill:none;stroke:#000000;stroke-width:3.4015748;stroke-miterlimit:4;stroke-dasharray:none"
     inkscape:connector-curvature="0"
     d="M 260.89406,12.014684 V 69.383758"
     id="path28" />
  <path
     style="fill:none;stroke:#000000;stroke-width:3.4015748;stroke-miterlimit:4;stroke-dasharray:none"
     inkscape:connector-curvature="0"
     d="m 260.89406,40.699221 9.56151,-9.561513 h 9.56151 l 9.56151,9.561513 v 28.684537"
     id="path30" />
  <path
     style="fill:none;stroke:#000000;stroke-width:3.4015748;stroke-miterlimit:4;stroke-dasharray:none"
     inkscape:connector-curvature="0"
     d="m 299.14011,31.137708 v 38.24605"
     id="path32" />
  <path
     style="fill:none;stroke:#000000;stroke-width:3.4015748;stroke-miterlimit:4;stroke-dasharray:none"
     inkscape:connector-curvature="0"
     d="m 299.14011,12.014684 v 9.561512"
     id="path34" />
  <path
     style="fill:none;stroke:#000000;stroke-width:3.4015748;stroke-miterlimit:4;stroke-dasharray:none"
     inkscape:connector-curvature="0"
     d="M 318.26313,31.137708 V 78.94527 l -9.56151,9.561513"
     id="path36" />
  <path
     style="fill:none;stroke:#000000;stroke-width:3.4015748;stroke-miterlimit:4;stroke-dasharray:none"
     inkscape:connector-curvature="0"
     d="m 318.26313,12.014684 v 9.561512"
     id="path38" />
  <path
     style="fill:none;stroke:#000000;stroke-width:3.4015748;stroke-miterlimit:4;stroke-dasharray:none"
     inkscape:connector-curvature="0"
     d="M 327.82464,12.014684 V 69.383758"
     id="path40" />
  <path
     style="fill:none;stroke:#000000;stroke-width:3.4015748;stroke-miterlimit:4;stroke-dasharray:none"
     inkscape:connector-curvature="0"
     d="M 327.82464,50.260733 346.94767,31.137708"
     id="path42" />
  <path
     style="fill:none;stroke:#000000;stroke-width:3.4015748;stroke-miterlimit:4;stroke-dasharray:none"
     inkscape:connector-curvature="0"
     d="m 337.38616,40.699221 9.56151,28.684537"
     id="path44" />
  <path
     style="fill:none;stroke:#000000;stroke-width:3.4015748;stroke-miterlimit:4;stroke-dasharray:none"
     inkscape:connector-curvature="0"
     d="M 356.50918,12.014684 V 69.383758"
     id="path46" />
  <path
     style="fill:none;stroke:#000000;stroke-width:3.4015748;stroke-miterlimit:4;stroke-dasharray:none"
     inkscape:connector-curvature="0"
     d="m 366.07069,31.137708 v 38.24605"
     id="path48" />
  <path
     style="fill:none;stroke:#000000;stroke-width:3.4015748;stroke-miterlimit:4;stroke-dasharray:none"
     inkscape:connector-curvature="0"
     d="m 366.07069,40.699221 9.56152,-9.561513 h 9.56151 l 9.56151,9.561513 v 28.684537"
     id="path50" />
  <path
     style="fill:none;stroke:#000000;stroke-width:3.4015748;stroke-miterlimit:4;stroke-dasharray:none"
     inkscape:connector-curvature="0"
     d="m 394.75523,40.699221 9.56151,-9.561513 h 9.56151 l 9.56152,9.561513 v 28.684537"
     id="path52" />
  <path
     style="fill:none;stroke:#000000;stroke-width:3.4015748;stroke-miterlimit:4;stroke-dasharray:none"
     inkscape:connector-curvature="0"
     d="m 433.00128,31.137708 v 38.24605"
     id="path54" />
  <path
     style="fill:none;stroke:#000000;stroke-width:3.4015748;stroke-miterlimit:4;stroke-dasharray:none"
     inkscape:connector-curvature="0"
     d="m 433.00128,40.699221 9.56151,-9.561513 h 9.56151 l 9.56152,9.561513 v 28.684537"
     id="path56" />
  <path
     style="fill:none;stroke:#000000;stroke-width:3.4015748;stroke-miterlimit:4;stroke-dasharray:none"
     inkscape:connector-curvature="0"
     d="m 499.93187,40.699221 -9.56152,-9.561513 h -9.56151 l -9.56151,9.561513 v 19.123025 l 9.56151,9.561512 h 9.56151 l 9.56152,-9.561512 V 40.699221"
     id="path58" />
  <path
     style="fill:none;stroke:#000000;stroke-width:3.4015748;stroke-miterlimit:4;stroke-dasharray:none"
     inkscape:connector-curvature="0"
     d="M 509.49338,31.137708 V 88.506783"
     id="path60" />
  <path
     style="fill:none;stroke:#000000;stroke-width:3.4015748;stroke-miterlimit:4;stroke-dasharray:none"
     inkscape:connector-curvature="0"
     d="m 509.49338,40.699221 9.56151,-9.561513 h 9.56151 l 9.56152,9.561513 v 19.123025 l -9.56152,9.561512 h -9.56151 l -9.56151,-9.561512"
     id="path62" />
  <path
     style="fill:none;stroke:#000000;stroke-width:3.4015748;stroke-miterlimit:4;stroke-dasharray:none"
     inkscape:connector-curvature="0"
     d="M 576.42397,31.137708 V 88.506783"
     id="path64" />
  <path
     style="fill:none;stroke:#000000;stroke-width:3.4015748;stroke-miterlimit:4;stroke-dasharray:none"
     inkscape:connector-curvature="0"
     d="m 576.42397,40.699221 -9.56152,-9.561513 h -9.56151 l -9.56151,9.561513 v 19.123025 l 9.56151,9.561512 h 9.56151 l 9.56152,-9.561512"
     id="path66" />
  <path
     style="fill:none;stroke:#000000;stroke-width:3.4015748;stroke-miterlimit:4;stroke-dasharray:none"
     inkscape:connector-curvature="0"
     d="m 12.294734,126.75283 v 38.24605"
     id="path68" />
  <path
     style="fill:none;stroke:#000000;stroke-width:3.4015748;stroke-miterlimit:4;stroke-dasharray:none"
     inkscape:connector-curvature="0"
     d="m 12.294734,136.31434 9.561512,-9.56151 h 9.561513"
     id="path70" />
  <path
     style="fill:none;stroke:#000000;stroke-width:3.4015748;stroke-miterlimit:4;stroke-dasharray:none"
     inkscape:connector-curvature="0"
     d="m 69.663808,136.31434 -9.561512,-9.56151 h -9.561512 l -9.561513,9.56151 9.561513,9.56152 h 9.561512 l 9.561512,9.56151 -9.561512,9.56151 h -9.561512 l -9.561513,-9.56151"
     id="path72" />
  <path
     style="fill:none;stroke:#000000;stroke-width:3.4015748;stroke-miterlimit:4;stroke-dasharray:none"
     inkscape:connector-curvature="0"
     d="m 79.225321,107.62981 v 57.36907"
     id="path74" />
  <path
     style="fill:none;stroke:#000000;stroke-width:3.4015748;stroke-miterlimit:4;stroke-dasharray:none"
     inkscape:connector-curvature="0"
     d="m 79.225321,126.75283 h 9.561512"
     id="path76" />
  <path
     style="fill:none;stroke:#000000;stroke-width:3.4015748;stroke-miterlimit:4;stroke-dasharray:none"
     inkscape:connector-curvature="0"
     d="m 98.348345,126.75283 v 28.68454 l 9.561515,9.56151 h 9.56151 l 9.56151,-9.56151"
     id="path78" />
  <path
     style="fill:none;stroke:#000000;stroke-width:3.4015748;stroke-miterlimit:4;stroke-dasharray:none"
     inkscape:connector-curvature="0"
     d="m 127.03288,126.75283 v 38.24605"
     id="path80" />
  <path
     style="fill:none;stroke:#000000;stroke-width:3.4015748;stroke-miterlimit:4;stroke-dasharray:none"
     inkscape:connector-curvature="0"
     d="m 136.5944,126.75283 14.34226,38.24605 14.34227,-38.24605"
     id="path82" />
  <path
     style="fill:none;stroke:#000000;stroke-width:3.4015748;stroke-miterlimit:4;stroke-dasharray:none"
     inkscape:connector-curvature="0"
     d="m 174.84044,126.75283 9.56152,38.24605 9.56151,-38.24605 9.56151,38.24605 9.56151,-38.24605"
     id="path84" />
  <path
     style="fill:none;stroke:#000000;stroke-width:3.4015748;stroke-miterlimit:4;stroke-dasharray:none"
     inkscape:connector-curvature="0"
     d="m 222.64801,126.75283 28.68453,38.24605"
     id="path86" />
  <path
     style="fill:none;stroke:#000000;stroke-width:3.4015748;stroke-miterlimit:4;stroke-dasharray:none"
     inkscape:connector-curvature="0"
     d="m 251.33254,126.75283 -28.68453,38.24605"
     id="path88" />
  <path
     style="fill:none;stroke:#000000;stroke-width:3.4015748;stroke-miterlimit:4;stroke-dasharray:none"
     inkscape:connector-curvature="0"
     d="m 260.89406,126.75283 14.34226,38.24605"
     id="path90" />
  <path
     style="fill:none;stroke:#000000;stroke-width:3.4015748;stroke-miterlimit:4;stroke-dasharray:none"
     inkscape:connector-curvature="0"
     d="m 289.57859,126.75283 -14.34227,38.24605 -4.78075,9.56151 -9.56151,9.56152"
     id="path92" />
  <path
     style="fill:none;stroke:#000000;stroke-width:3.4015748;stroke-miterlimit:4;stroke-dasharray:none"
     inkscape:connector-curvature="0"
     d="m 299.14011,126.75283 h 28.68453 l -28.68453,38.24605 h 28.68453"
     id="path94" />
  <path
     style="fill:none;stroke:#000000;stroke-width:3.4015748;stroke-miterlimit:4;stroke-dasharray:none"
     inkscape:connector-curvature="0"
     d="m 337.38616,136.31434 9.56151,-9.56151 v 38.24605"
     id="path96" />
  <path
     style="fill:none;stroke:#000000;stroke-width:3.4015748;stroke-miterlimit:4;stroke-dasharray:none"
     inkscape:connector-curvature="0"
     d="m 356.50918,136.31434 9.56151,-9.56151 h 9.56152 l 9.56151,9.56151 -28.68454,28.68454 h 28.68454"
     id="path98" />
  <path
     style="fill:none;stroke:#000000;stroke-width:3.4015748;stroke-miterlimit:4;stroke-dasharray:none"
     inkscape:connector-curvature="0"
     d="m 394.75523,126.75283 h 28.68454 l -19.12303,19.12303 19.12303,9.56151 v 19.12302 l -9.56152,9.56152 h -9.56151 l -9.56151,-9.56152"
     id="path100" />
  <path
     style="fill:none;stroke:#000000;stroke-width:3.4015748;stroke-miterlimit:4;stroke-dasharray:none"
     inkscape:connector-curvature="0"
     d="m 433.00128,126.75283 v 19.12303 l 9.56151,9.56151 h 19.12303"
     id="path102" />
  <path
     style="fill:none;stroke:#000000;stroke-width:3.4015748;stroke-miterlimit:4;stroke-dasharray:none"
     inkscape:connector-curvature="0"
     d="m 461.68582,126.75283 v 57.36908"
     id="path104" />
  <path
     style="fill:none;stroke:#000000;stroke-width:3.4015748;stroke-miterlimit:4;stroke-dasharray:none"
     inkscape:connector-curvature="0"
     d="m 499.93187,126.75283 h -28.68454 v 19.12303 h 19.12302 l 9.56152,9.56151 v 19.12302 l -9.56152,9.56152 h -19.12302"
     id="path106" />
  <path
     style="fill:none;stroke:#000000;stroke-width:3.4015748;stroke-miterlimit:4;stroke-dasharray:none"
     inkscape:connector-curvature="0"
     d="m 538.17792,117.19132 -9.56152,-9.56151 h -9.56151 l -9.56151,9.56151 v 38.24605 l 9.56151,9.56151 h 9.56151 l 9.56152,-9.56151 v -19.12303 l -9.56152,-9.56151 h -9.56151 l -9.56151,9.56151"
     id="path108" />
  <path
     style="fill:none;stroke:#000000;stroke-width:3.4015748;stroke-miterlimit:4;stroke-dasharray:none"
     inkscape:connector-curvature="0"
     d="m 547.73943,126.75283 h 28.68454 l -28.68454,57.36908"
     id="path110" />
  <path
     style="fill:none;stroke:#000000;stroke-width:3.4015748;stroke-miterlimit:4;stroke-dasharray:none"
     inkscape:connector-curvature="0"
     d="m 595.54699,136.31434 -9.56151,-9.56151 v -9.56151 l 9.56151,-9.56151 h 9.56151 l 9.56152,9.56151 v 9.56151 l -9.56152,9.56151 h -9.56151 l -9.56151,9.56152 v 9.56151 l 9.56151,9.56151 h 9.56151 l 9.56152,-9.56151 v -9.56151 l -9.56152,-9.56152"
     id="path112" />
  <path
     style="fill:none;stroke:#000000;stroke-width:3.4015748;stroke-miterlimit:4;stroke-dasharray:none"
     inkscape:connector-curvature="0"
     d="m 652.91606,155.43737 -9.56151,9.56151 h -9.56151 l -9.56151,-9.56151 v -19.12303 l 9.56151,-9.56151 h 9.56151 l 9.56151,9.56151 v 38.24605 l -9.56151,9.56152 h -9.56151 l -9.56151,-9.56152"
     id="path114" />
  <path
     style="fill:none;stroke:#000000;stroke-width:3.4015748;stroke-miterlimit:4;stroke-dasharray:none"
     inkscape:connector-curvature="0"
     d="m 691.16211,136.31434 -9.56151,-9.56151 h -9.56151 l -9.56151,9.56151 v 19.12303 l 9.56151,9.56151 h 9.56151 l 9.56151,-9.56151 v -19.12303"
     id="path116" />
  <path
     style="fill:none;stroke:#000000;stroke-width:3.4015748;stroke-miterlimit:4;stroke-dasharray:none"
     inkscape:connector-curvature="0"
     d="m 686.38136,131.53359 -19.12303,28.68454"
     id="path118" />
  <path
     style="fill:none;stroke:#000000;stroke-width:3.4015748;stroke-miterlimit:4;stroke-dasharray:none"
     inkscape:connector-curvature="0"
     d="m 21.856246,231.92947 v 9.56151"
     id="path120" />
  <path
     style="fill:none;stroke:#000000;stroke-width:3.4015748;stroke-miterlimit:4;stroke-dasharray:none"
     inkscape:connector-curvature="0"
     d="m 12.294734,239.1006 9.561512,2.39038 9.561513,-2.39038"
     id="path122" />
  <path
     style="fill:none;stroke:#000000;stroke-width:3.4015748;stroke-miterlimit:4;stroke-dasharray:none"
     inkscape:connector-curvature="0"
     d="m 14.685112,251.05249 7.171134,-9.56151 7.171135,9.56151"
     id="path124" />
  <path
     style="fill:none;stroke:#000000;stroke-width:3.4015748;stroke-miterlimit:4;stroke-dasharray:none"
     inkscape:connector-curvature="0"
     d="M 40.979271,241.49098 H 60.102296"
     id="path126" />
  <path
     style="fill:none;stroke:#000000;stroke-width:3.4015748;stroke-miterlimit:4;stroke-dasharray:none"
     inkscape:connector-curvature="0"
     d="m 50.540784,231.92947 v 19.12302"
     id="path128" />
  <path
     style="fill:none;stroke:#000000;stroke-width:3.4015748;stroke-miterlimit:4;stroke-dasharray:none"
     inkscape:connector-curvature="0"
     d="m 79.225321,212.80644 -9.561513,9.56152 v 38.24605 l 9.561513,9.56151"
     id="path130" />
  <path
     style="fill:none;stroke:#000000;stroke-width:3.4015748;stroke-miterlimit:4;stroke-dasharray:none"
     inkscape:connector-curvature="0"
     d="m 88.786833,212.80644 9.561512,9.56152 v 38.24605 l -9.561512,9.56151"
     id="path132" />
  <path
     style="fill:none;stroke:#000000;stroke-width:3.4015748;stroke-miterlimit:4;stroke-dasharray:none"
     inkscape:connector-curvature="0"
     d="m 127.03288,212.80644 -19.12302,57.36908"
     id="path134" />
  <path
     style="fill:none;stroke:#000000;stroke-width:3.4015748;stroke-miterlimit:4;stroke-dasharray:none"
     inkscape:connector-curvature="0"
     d="m 136.5944,212.80644 19.12302,57.36908"
     id="path136" />
  <path
     style="fill:none;stroke:#000000;stroke-width:3.4015748;stroke-miterlimit:4;stroke-dasharray:none"
     inkscape:connector-curvature="0"
     d="m 174.84044,212.80644 h -9.56151 v 57.36908 h 9.56151"
     id="path138" />
  <path
     style="fill:none;stroke:#000000;stroke-width:3.4015748;stroke-miterlimit:4;stroke-dasharray:none"
     inkscape:connector-curvature="0"
     d="m 184.40196,212.80644 h 9.56151 v 57.36908 h -9.56151"
     id="path140" />
  <path
     style="fill:none;stroke:#000000;stroke-width:3.4015748;stroke-miterlimit:4;stroke-dasharray:none"
     inkscape:connector-curvature="0"
     d="m 203.52498,236.71023 h 19.12303"
     id="path142" />
  <path
     style="fill:none;stroke:#000000;stroke-width:3.4015748;stroke-miterlimit:4;stroke-dasharray:none"
     inkscape:connector-curvature="0"
     d="m 203.52498,246.27174 h 19.12303"
     id="path144" />
  <path
     style="fill:none;stroke:#000000;stroke-width:3.4015748;stroke-miterlimit:4;stroke-dasharray:none"
     inkscape:connector-curvature="0"
     d="m 232.20952,241.49098 h 19.12302"
     id="path146" />
  <path
     style="fill:none;stroke:#000000;stroke-width:3.4015748;stroke-miterlimit:4;stroke-dasharray:none"
     inkscape:connector-curvature="0"
     d="m 260.89406,203.24493 v 38.24605"
     id="path148" />
  <path
     style="fill:none;stroke:#000000;stroke-width:3.4015748;stroke-miterlimit:4;stroke-dasharray:none"
     inkscape:connector-curvature="0"
     d="m 260.89406,251.05249 v 9.56152"
     id="path150" />
  <path
     style="fill:none;stroke:#000000;stroke-width:3.4015748;stroke-miterlimit:4;stroke-dasharray:none"
     inkscape:connector-curvature="0"
     d="m 280.01708,260.61401 h -9.56151"
     id="path152" />
  <path
     style="fill:none;stroke:#000000;stroke-width:3.4015748;stroke-miterlimit:4;stroke-dasharray:none"
     inkscape:connector-curvature="0"
     d="m 299.14011,260.61401 -9.56152,9.56151"
     id="path154" />
  <path
     style="fill:none;stroke:#000000;stroke-width:3.4015748;stroke-miterlimit:4;stroke-dasharray:none"
     inkscape:connector-curvature="0"
     d="m 327.82464,231.92947 -19.12302,9.56151 19.12302,9.56151"
     id="path156" />
  <path
     style="fill:none;stroke:#000000;stroke-width:3.4015748;stroke-miterlimit:4;stroke-dasharray:none"
     inkscape:connector-curvature="0"
     d="m 337.38616,231.92947 19.12302,9.56151 -19.12302,9.56151"
     id="path158" />
  <path
     style="fill:none;stroke:#000000;stroke-width:3.4015748;stroke-miterlimit:4;stroke-dasharray:none"
     inkscape:connector-curvature="0"
     d="m 375.63221,222.36796 -9.56152,38.24605"
     id="path160" />
  <path
     style="fill:none;stroke:#000000;stroke-width:3.4015748;stroke-miterlimit:4;stroke-dasharray:none"
     inkscape:connector-curvature="0"
     d="m 385.19372,222.36796 -9.56151,38.24605"
     id="path162" />
  <path
     style="fill:none;stroke:#000000;stroke-width:3.4015748;stroke-miterlimit:4;stroke-dasharray:none"
     inkscape:connector-curvature="0"
     d="m 368.46107,236.71023 h 16.73265"
     id="path164" />
  <path
     style="fill:none;stroke:#000000;stroke-width:3.4015748;stroke-miterlimit:4;stroke-dasharray:none"
     inkscape:connector-curvature="0"
     d="m 366.07069,246.27174 h 16.73265"
     id="path166" />
  <path
     style="fill:none;stroke:#000000;stroke-width:3.4015748;stroke-miterlimit:4;stroke-dasharray:none"
     inkscape:connector-curvature="0"
     d="m 394.75523,212.80644 v 57.36908"
     id="path168" />
  <path
     style="fill:none;stroke:#000000;stroke-width:3.4015748;stroke-miterlimit:4;stroke-dasharray:none"
     inkscape:connector-curvature="0"
     d="m 433.00128,222.36796 -28.68454,38.24605"
     id="path170" />
  <path
     style="fill:none;stroke:#000000;stroke-width:3.4015748;stroke-miterlimit:4;stroke-dasharray:none"
     inkscape:connector-curvature="0"
     d="m 409.0975,227.14871 4.78075,4.78076 -4.78075,4.78076 -4.78076,-4.78076 4.78076,-4.78076"
     id="path172" />
  <path
     style="fill:none;stroke:#000000;stroke-width:3.4015748;stroke-miterlimit:4;stroke-dasharray:none"
     inkscape:connector-curvature="0"
     d="m 428.22052,246.27174 4.78076,4.78075 -4.78076,4.78076 -4.78075,-4.78076 4.78075,-4.78075"
     id="path174" />
  <path
     style="fill:none;stroke:#000000;stroke-width:3.4015748;stroke-miterlimit:4;stroke-dasharray:none"
     inkscape:connector-curvature="0"
     d="m 12.294734,298.86006 v 57.36907"
     id="path176" />
  <path
     style="fill:none;stroke:#000000;stroke-width:3.4015748;stroke-miterlimit:4;stroke-dasharray:none"
     inkscape:connector-curvature="0"
     d="m 12.294734,317.98308 h 9.561512"
     id="path178" />
  <path
     style="fill:none;stroke:#000000;stroke-width:3.4015748;stroke-miterlimit:4;stroke-dasharray:none"
     inkscape:connector-curvature="0"
     d="m 31.417759,298.86006 v 57.36907"
     id="path180" />
  <path
     style="fill:none;stroke:#000000;stroke-width:3.4015748;stroke-miterlimit:4;stroke-dasharray:none"
     inkscape:connector-curvature="0"
     d="m 31.417759,327.54459 9.561512,-9.56151 h 9.561513 l 9.561512,9.56151 v 28.68454"
     id="path182" />
  <path
     style="fill:none;stroke:#000000;stroke-width:3.4015748;stroke-miterlimit:4;stroke-dasharray:none"
     inkscape:connector-curvature="0"
     d="m 79.225321,337.10611 h 9.561512 l 9.561512,-9.56152 -9.561512,-9.56151 h -9.561512 l -9.561513,9.56151 v 19.12303 l 9.561513,9.56151 h 9.561512 l 9.561512,-9.56151"
     id="path184" />
  <path
     style="fill:none;stroke:#000000;stroke-width:3.4015748;stroke-miterlimit:4;stroke-dasharray:none"
     inkscape:connector-curvature="0"
     d="m 155.71742,317.98308 v 57.36907"
     id="path186" />
  <path
     style="fill:none;stroke:#000000;stroke-width:3.4015748;stroke-miterlimit:4;stroke-dasharray:none"
     inkscape:connector-curvature="0"
     d="m 155.71742,327.54459 -9.56151,-9.56151 h -9.56151 l -9.56152,9.56151 v 19.12303 l 9.56152,9.56151 h 9.56151 l 9.56151,-9.56151"
     id="path188" />
  <path
     style="fill:none;stroke:#000000;stroke-width:3.4015748;stroke-miterlimit:4;stroke-dasharray:none"
     inkscape:connector-curvature="0"
     d="m 165.27893,317.98308 v 28.68454 l 9.56151,9.56151 h 9.56152 l 9.56151,-9.56151"
     id="path190" />
  <path
     style="fill:none;stroke:#000000;stroke-width:3.4015748;stroke-miterlimit:4;stroke-dasharray:none"
     inkscape:connector-curvature="0"
     d="m 193.96347,317.98308 v 38.24605"
     id="path192" />
  <path
     style="fill:none;stroke:#000000;stroke-width:3.4015748;stroke-miterlimit:4;stroke-dasharray:none"
     inkscape:connector-curvature="0"
     d="m 203.52498,317.98308 v 38.24605"
     id="path194" />
  <path
     style="fill:none;stroke:#000000;stroke-width:3.4015748;stroke-miterlimit:4;stroke-dasharray:none"
     inkscape:connector-curvature="0"
     d="m 203.52498,298.86006 v 9.56151"
     id="path196" />
  <path
     style="fill:none;stroke:#000000;stroke-width:3.4015748;stroke-miterlimit:4;stroke-dasharray:none"
     inkscape:connector-curvature="0"
     d="m 241.77103,327.54459 -9.56151,-9.56151 h -9.56151 l -9.56152,9.56151 v 19.12303 l 9.56152,9.56151 h 9.56151 l 9.56151,-9.56151"
     id="path198" />
  <path
     style="fill:none;stroke:#000000;stroke-width:3.4015748;stroke-miterlimit:4;stroke-dasharray:none"
     inkscape:connector-curvature="0"
     d="m 251.33254,298.86006 v 57.36907"
     id="path200" />
  <path
     style="fill:none;stroke:#000000;stroke-width:3.4015748;stroke-miterlimit:4;stroke-dasharray:none"
     inkscape:connector-curvature="0"
     d="m 251.33254,337.10611 19.12303,-19.12303"
     id="path202" />
  <path
     style="fill:none;stroke:#000000;stroke-width:3.4015748;stroke-miterlimit:4;stroke-dasharray:none"
     inkscape:connector-curvature="0"
     d="m 260.89406,327.54459 9.56151,28.68454"
     id="path204" />
  <path
     style="fill:none;stroke:#000000;stroke-width:3.4015748;stroke-miterlimit:4;stroke-dasharray:none"
     inkscape:connector-curvature="0"
     d="m 308.70162,308.42157 -9.56151,9.56151 v 38.24605 l 9.56151,9.56151"
     id="path206" />
  <path
     style="fill:none;stroke:#000000;stroke-width:3.4015748;stroke-miterlimit:4;stroke-dasharray:none"
     inkscape:connector-curvature="0"
     d="m 318.26313,298.86006 v 57.36907"
     id="path208" />
  <path
     style="fill:none;stroke:#000000;stroke-width:3.4015748;stroke-miterlimit:4;stroke-dasharray:none"
     inkscape:connector-curvature="0"
     d="m 318.26313,327.54459 9.56151,-9.56151 h 9.56152 l 9.56151,9.56151 v 19.12303 l -9.56151,9.56151 h -9.56152 l -9.56151,-9.56151"
     id="path210" />
  <path
     style="fill:none;stroke:#000000;stroke-width:3.4015748;stroke-miterlimit:4;stroke-dasharray:none"
     inkscape:connector-curvature="0"
     d="m 356.50918,317.98308 v 38.24605"
     id="path212" />
  <path
     style="fill:none;stroke:#000000;stroke-width:3.4015748;stroke-miterlimit:4;stroke-dasharray:none"
     inkscape:connector-curvature="0"
     d="m 356.50918,327.54459 9.56151,-9.56151 h 9.56152"
     id="path214" />
  <path
     style="fill:none;stroke:#000000;stroke-width:3.4015748;stroke-miterlimit:4;stroke-dasharray:none"
     inkscape:connector-curvature="0"
     d="m 413.87825,327.54459 -9.56151,-9.56151 h -9.56151 l -9.56151,9.56151 v 19.12303 l 9.56151,9.56151 h 9.56151 l 9.56151,-9.56151 v -19.12303"
     id="path216" />
  <path
     style="fill:none;stroke:#000000;stroke-width:3.4015748;stroke-miterlimit:4;stroke-dasharray:none"
     inkscape:connector-curvature="0"
     d="m 423.43977,317.98308 9.56151,38.24605 9.56151,-38.24605 9.56151,38.24605 9.56152,-38.24605"
     id="path218" />
  <path
     style="fill:none;stroke:#000000;stroke-width:3.4015748;stroke-miterlimit:4;stroke-dasharray:none"
     inkscape:connector-curvature="0"
     d="m 471.24733,317.98308 v 38.24605"
     id="path220" />
  <path
     style="fill:none;stroke:#000000;stroke-width:3.4015748;stroke-miterlimit:4;stroke-dasharray:none"
     inkscape:connector-curvature="0"
     d="m 471.24733,327.54459 9.56151,-9.56151 h 9.56151 l 9.56152,9.56151 v 28.68454"
     id="path222" />
  <path
     style="fill:none;stroke:#000000;stroke-width:3.4015748;stroke-miterlimit:4;stroke-dasharray:none"
     inkscape:connector-curvature="0"
     d="m 509.49338,308.42157 9.56151,9.56151 v 38.24605 l -9.56151,9.56151"
     id="path224" />
  <path
     style="fill:none;stroke:#000000;stroke-width:3.4015748;stroke-miterlimit:4;stroke-dasharray:none"
     inkscape:connector-curvature="0"
     d="m 547.73943,356.22913 v -47.80756 l 9.56151,-9.56151"
     id="path226" />
  <path
     style="fill:none;stroke:#000000;stroke-width:3.4015748;stroke-miterlimit:4;stroke-dasharray:none"
     inkscape:connector-curvature="0"
     d="m 547.73943,317.98308 h 9.56151"
     id="path228" />
  <path
     style="fill:none;stroke:#000000;stroke-width:3.4015748;stroke-miterlimit:4;stroke-dasharray:none"
     inkscape:connector-curvature="0"
     d="m 595.54699,327.54459 -9.56151,-9.56151 h -9.56151 l -9.56152,9.56151 v 19.12303 l 9.56152,9.56151 h 9.56151 l 9.56151,-9.56151 v -19.12303"
     id="path230" />
  <path
     style="fill:none;stroke:#000000;stroke-width:3.4015748;stroke-miterlimit:4;stroke-dasharray:none"
     inkscape:connector-curvature="0"
     d="m 605.1085,317.98308 28.68454,38.24605"
     id="path232" />
  <path
     style="fill:none;stroke:#000000;stroke-width:3.4015748;stroke-miterlimit:4;stroke-dasharray:none"
     inkscape:connector-curvature="0"
     d="M 633.79304,317.98308 605.1085,356.22913"
     id="path234" />
  <path
     style="fill:none;stroke:#000000;stroke-width:3.4015748;stroke-miterlimit:4;stroke-dasharray:none"
     inkscape:connector-curvature="0"
     d="m 21.856246,413.5982 v 47.80757 l -9.561512,9.56151"
     id="path236" />
  <path
     style="fill:none;stroke:#000000;stroke-width:3.4015748;stroke-miterlimit:4;stroke-dasharray:none"
     inkscape:connector-curvature="0"
     d="m 21.856246,394.47518 v 9.56151"
     id="path238" />
  <path
     style="fill:none;stroke:#000000;stroke-width:3.4015748;stroke-miterlimit:4;stroke-dasharray:none"
     inkscape:connector-curvature="0"
     d="m 31.417759,413.5982 v 28.68454 l 9.561512,9.56151 h 9.561513 l 9.561512,-9.56151"
     id="path240" />
  <path
     style="fill:none;stroke:#000000;stroke-width:3.4015748;stroke-miterlimit:4;stroke-dasharray:none"
     inkscape:connector-curvature="0"
     d="m 60.102296,413.5982 v 38.24605"
     id="path242" />
  <path
     style="fill:none;stroke:#000000;stroke-width:3.4015748;stroke-miterlimit:4;stroke-dasharray:none"
     inkscape:connector-curvature="0"
     d="m 69.663808,413.5982 v 38.24605"
     id="path244" />
  <path
     style="fill:none;stroke:#000000;stroke-width:3.4015748;stroke-miterlimit:4;stroke-dasharray:none"
     inkscape:connector-curvature="0"
     d="m 69.663808,423.15972 9.561513,-9.56152 h 9.561512 l 9.561512,9.56152 v 28.68453"
     id="path246" />
  <path
     style="fill:none;stroke:#000000;stroke-width:3.4015748;stroke-miterlimit:4;stroke-dasharray:none"
     inkscape:connector-curvature="0"
     d="m 98.348345,423.15972 9.561515,-9.56152 h 9.56151 l 9.56151,9.56152 v 28.68453"
     id="path248" />
  <path
     style="fill:none;stroke:#000000;stroke-width:3.4015748;stroke-miterlimit:4;stroke-dasharray:none"
     inkscape:connector-curvature="0"
     d="m 136.5944,413.5982 v 57.36908"
     id="path250" />
  <path
     style="fill:none;stroke:#000000;stroke-width:3.4015748;stroke-miterlimit:4;stroke-dasharray:none"
     inkscape:connector-curvature="0"
     d="m 136.5944,423.15972 9.56151,-9.56152 h 9.56151 l 9.56151,9.56152 v 19.12302 l -9.56151,9.56151 h -9.56151 l -9.56151,-9.56151"
     id="path252" />
  <path
     style="fill:none;stroke:#000000;stroke-width:3.4015748;stroke-miterlimit:4;stroke-dasharray:none"
     inkscape:connector-curvature="0"
     d="m 203.52498,423.15972 -9.56151,-9.56152 h -9.56151 l -9.56152,9.56152 9.56152,9.56151 h 9.56151 l 9.56151,9.56151 -9.56151,9.56151 h -9.56151 l -9.56152,-9.56151"
     id="path254" />
  <path
     style="fill:none;stroke:#000000;stroke-width:3.4015748;stroke-miterlimit:4;stroke-dasharray:none"
     inkscape:connector-curvature="0"
     d="m 260.89406,423.15972 -9.56152,-9.56152 h -9.56151 l -9.56151,9.56152 v 19.12302 l 9.56151,9.56151 h 9.56151 l 9.56152,-9.56151 v -19.12302"
     id="path256" />
  <path
     style="fill:none;stroke:#000000;stroke-width:3.4015748;stroke-miterlimit:4;stroke-dasharray:none"
     inkscape:connector-curvature="0"
     d="m 270.45557,413.5982 14.34227,38.24605 14.34227,-38.24605"
     id="path258" />
  <path
     style="fill:none;stroke:#000000;stroke-width:3.4015748;stroke-miterlimit:4;stroke-dasharray:none"
     inkscape:connector-curvature="0"
     d="m 318.26313,432.72123 h 9.56151 l 9.56152,-9.56151 -9.56152,-9.56152 h -9.56151 l -9.56151,9.56152 v 19.12302 l 9.56151,9.56151 h 9.56151 l 9.56152,-9.56151"
     id="path260" />
  <path
     style="fill:none;stroke:#000000;stroke-width:3.4015748;stroke-miterlimit:4;stroke-dasharray:none"
     inkscape:connector-curvature="0"
     d="m 346.94767,413.5982 v 38.24605"
     id="path262" />
  <path
     style="fill:none;stroke:#000000;stroke-width:3.4015748;stroke-miterlimit:4;stroke-dasharray:none"
     inkscape:connector-curvature="0"
     d="m 346.94767,423.15972 9.56151,-9.56152 h 9.56151"
     id="path264" />
  <path
     style="fill:none;stroke:#000000;stroke-width:3.4015748;stroke-miterlimit:4;stroke-dasharray:none"
     inkscape:connector-curvature="0"
     d="m 394.75523,394.47518 v 57.36907"
     id="path266" />
  <path
     style="fill:none;stroke:#000000;stroke-width:3.4015748;stroke-miterlimit:4;stroke-dasharray:none"
     inkscape:connector-curvature="0"
     d="m 394.75523,413.5982 h 9.56151"
     id="path268" />
  <path
     style="fill:none;stroke:#000000;stroke-width:3.4015748;stroke-miterlimit:4;stroke-dasharray:none"
     inkscape:connector-curvature="0"
     d="m 413.87825,394.47518 v 57.36907"
     id="path270" />
  <path
     style="fill:none;stroke:#000000;stroke-width:3.4015748;stroke-miterlimit:4;stroke-dasharray:none"
     inkscape:connector-curvature="0"
     d="m 413.87825,423.15972 9.56152,-9.56152 h 9.56151 l 9.56151,9.56152 v 28.68453"
     id="path272" />
  <path
     style="fill:none;stroke:#000000;stroke-width:3.4015748;stroke-miterlimit:4;stroke-dasharray:none"
     inkscape:connector-curvature="0"
     d="m 461.68582,432.72123 h 9.56151 l 9.56151,-9.56151 -9.56151,-9.56152 h -9.56151 l -9.56152,9.56152 v 19.12302 l 9.56152,9.56151 h 9.56151 l 9.56151,-9.56151"
     id="path274" />
  <path
     style="fill:none;stroke:#000000;stroke-width:3.4015748;stroke-miterlimit:4;stroke-dasharray:none"
     inkscape:connector-curvature="0"
     d="m 509.49338,404.03669 -19.12303,57.36908"
     id="path276" />
  <path
     style="fill:none;stroke:#000000;stroke-width:3.4015748;stroke-miterlimit:4;stroke-dasharray:none"
     inkscape:connector-curvature="0"
     d="m 519.05489,394.47518 v 57.36907"
     id="path278" />
  <path
     style="fill:none;stroke:#000000;stroke-width:3.4015748;stroke-miterlimit:4;stroke-dasharray:none"
     inkscape:connector-curvature="0"
     d="m 557.30094,413.5982 v 38.24605"
     id="path280" />
  <path
     style="fill:none;stroke:#000000;stroke-width:3.4015748;stroke-miterlimit:4;stroke-dasharray:none"
     inkscape:connector-curvature="0"
     d="m 557.30094,423.15972 -9.56151,-9.56152 h -9.56151 l -9.56152,9.56152 v 19.12302 l 9.56152,9.56151 h 9.56151 l 9.56151,-9.56151"
     id="path282" />
  <path
     style="fill:none;stroke:#000000;stroke-width:3.4015748;stroke-miterlimit:4;stroke-dasharray:none"
     inkscape:connector-curvature="0"
     d="m 566.86245,413.5982 h 28.68454 l -28.68454,38.24605 h 28.68454"
     id="path284" />
  <path
     style="fill:none;stroke:#000000;stroke-width:3.4015748;stroke-miterlimit:4;stroke-dasharray:none"
     inkscape:connector-curvature="0"
     d="m 605.1085,413.5982 14.34227,38.24605"
     id="path286" />
  <path
     style="fill:none;stroke:#000000;stroke-width:3.4015748;stroke-miterlimit:4;stroke-dasharray:none"
     inkscape:connector-curvature="0"
     d="m 633.79304,413.5982 -14.34227,38.24605 -4.78075,9.56152 -9.56152,9.56151"
     id="path288" />
  <path
     style="fill:none;stroke:#000000;stroke-width:3.4015748;stroke-miterlimit:4;stroke-dasharray:none"
     inkscape:connector-curvature="0"
     d="m 691.16211,394.47518 v 57.36907"
     id="path290" />
  <path
     style="fill:none;stroke:#000000;stroke-width:3.4015748;stroke-miterlimit:4;stroke-dasharray:none"
     inkscape:connector-curvature="0"
     d="m 691.16211,423.15972 -9.56151,-9.56152 h -9.56151 l -9.56151,9.56152 v 19.12302 l 9.56151,9.56151 h 9.56151 l 9.56151,-9.56151"
     id="path292" />
  <path
     style="fill:none;stroke:#000000;stroke-width:3.4015748;stroke-miterlimit:4;stroke-dasharray:none"
     inkscape:connector-curvature="0"
     d="m 729.40816,423.15972 -9.56151,-9.56152 h -9.56151 l -9.56151,9.56152 v 19.12302 l 9.56151,9.56151 h 9.56151 l 9.56151,-9.56151 v -19.12302"
     id="path294" />
  <path
     style="fill:none;stroke:#000000;stroke-width:3.4015748;stroke-miterlimit:4;stroke-dasharray:none"
     inkscape:connector-curvature="0"
     d="m 767.65421,423.15972 -9.56151,-9.56152 h -9.56151 l -9.56151,9.56152 v 19.12302 l 9.56151,9.56151 h 9.56151 l 9.56151,-9.56151"
     id="path296" />
  <path
     style="fill:none;stroke:#000000;stroke-width:3.4015748;stroke-miterlimit:4;stroke-dasharray:none"
     inkscape:connector-curvature="0"
     d="m 767.65421,413.5982 v 47.80757 l -9.56151,9.56151 h -9.56151"
     id="path298" />
  <path
     style="fill:none;stroke:#000000;stroke-width:3.4015748;stroke-miterlimit:4;stroke-dasharray:none"
     inkscape:connector-curvature="0"
     d="m 777.21573,394.47518 v 38.24605"
     id="path300" />
  <path
     style="fill:none;stroke:#000000;stroke-width:3.4015748;stroke-miterlimit:4;stroke-dasharray:none"
     inkscape:connector-curvature="0"
     d="m 777.21573,442.28274 v 9.56151"
     id="path302" />
</svg>
