<?xml version="1.0" encoding="UTF-8" standalone="no"?>
<svg
   xmlns:dc="http://purl.org/dc/elements/1.1/"
   xmlns:cc="http://creativecommons.org/ns#"
   xmlns:rdf="http://www.w3.org/1999/02/22-rdf-syntax-ns#"
   xmlns:svg="http://www.w3.org/2000/svg"
   xmlns="http://www.w3.org/2000/svg"
   xmlns:sodipodi="http://sodipodi.sourceforge.net/DTD/sodipodi-0.dtd"
   xmlns:inkscape="http://www.inkscape.org/namespaces/inkscape"
   height="11.515079cm"
   version="1.2"
   width="18.491642cm"
   id="svg274"
   sodipodi:docname="tmp.svg"
   viewBox="0 0 559.11736 348.1725"
   inkscape:version="0.92.3 (2405546, 2018-03-11)">
  <metadata
     id="metadata278">
    <rdf:RDF>
      <cc:Work
         rdf:about="">
        <dc:format>image/svg+xml</dc:format>
        <dc:type
           rdf:resource="http://purl.org/dc/dcmitype/StillImage" />
        <dc:title></dc:title>
      </cc:Work>
    </rdf:RDF>
  </metadata>
  <sodipodi:namedview
     pagecolor="#ffffff"
     bordercolor="#666666"
     borderopacity="1"
     objecttolerance="10"
     gridtolerance="10"
     guidetolerance="10"
     inkscape:pageopacity="0"
     inkscape:pageshadow="2"
     inkscape:window-width="2560"
     inkscape:window-height="1600"
     id="namedview276"
     showgrid="false"
     scale-x="0.8"
     units="cm"
     fit-margin-top="0.5"
     fit-margin-bottom="0.5"
     fit-margin-right="0.5"
     fit-margin-left="0.5"
     inkscape:zoom="1.668772"
     inkscape:cx="371.44756"
     inkscape:cy="206.69147"
     inkscape:window-x="1440"
     inkscape:window-y="0"
     inkscape:window-maximized="0"
     inkscape:current-layer="svg274" />
  <defs
     id="defs2" />
  <path
     style="fill:none;stroke:#000000;stroke-width:1.87920007;stroke-miterlimit:4;stroke-dasharray:none"
     inkscape:connector-curvature="0"
     d="M 35.561148,28.773471 V 55.151584"
     id="path4" />
  <path
     style="fill:none;stroke:#000000;stroke-width:1.87920007;stroke-miterlimit:4;stroke-dasharray:none"
     inkscape:connector-curvature="0"
     d="M 35.561148,35.367999 28.96662,28.773471 h -6.594528 l -6.594528,6.594528 v 13.189057 l 6.594528,6.594528 h 6.594528 l 6.594528,-6.594528"
     id="path6" />
  <path
     style="fill:none;stroke:#000000;stroke-width:1.87920007;stroke-miterlimit:4;stroke-dasharray:none"
     inkscape:connector-curvature="0"
     d="M 42.155676,15.584415 V 55.151584"
     id="path8" />
  <path
     style="fill:none;stroke:#000000;stroke-width:1.87920007;stroke-miterlimit:4;stroke-dasharray:none"
     inkscape:connector-curvature="0"
     d="m 42.155676,35.367999 6.594529,-6.594528 h 6.594528 l 6.594528,6.594528 v 13.189057 l -6.594528,6.594528 h -6.594528 l -6.594529,-6.594528"
     id="path10" />
  <path
     style="fill:none;stroke:#000000;stroke-width:1.87920007;stroke-miterlimit:4;stroke-dasharray:none"
     inkscape:connector-curvature="0"
     d="m 88.317374,35.367999 -6.594528,-6.594528 h -6.594528 l -6.594529,6.594528 v 13.189057 l 6.594529,6.594528 h 6.594528 l 6.594528,-6.594528"
     id="path12" />
  <path
     style="fill:none;stroke:#000000;stroke-width:1.87920007;stroke-miterlimit:4;stroke-dasharray:none"
     inkscape:connector-curvature="0"
     d="M 114.69549,15.584415 V 55.151584"
     id="path14" />
  <path
     style="fill:none;stroke:#000000;stroke-width:1.87920007;stroke-miterlimit:4;stroke-dasharray:none"
     inkscape:connector-curvature="0"
     d="m 114.69549,35.367999 -6.59453,-6.594528 h -6.59453 l -6.594528,6.594528 v 13.189057 l 6.594528,6.594528 h 6.59453 l 6.59453,-6.594528"
     id="path16" />
  <path
     style="fill:none;stroke:#000000;stroke-width:1.87920007;stroke-miterlimit:4;stroke-dasharray:none"
     inkscape:connector-curvature="0"
     d="m 127.88454,41.962527 h 6.59453 l 6.59453,-6.594528 -6.59453,-6.594528 h -6.59453 l -6.59453,6.594528 v 13.189057 l 6.59453,6.594528 h 6.59453 l 6.59453,-6.594528"
     id="path18" />
  <path
     style="fill:none;stroke:#000000;stroke-width:1.87920007;stroke-miterlimit:4;stroke-dasharray:none"
     inkscape:connector-curvature="0"
     d="M 147.66813,55.151584 V 22.178943 l 6.59453,-6.594528"
     id="path20" />
  <path
     style="fill:none;stroke:#000000;stroke-width:1.87920007;stroke-miterlimit:4;stroke-dasharray:none"
     inkscape:connector-curvature="0"
     d="m 147.66813,28.773471 h 6.59453"
     id="path22" />
  <path
     style="fill:none;stroke:#000000;stroke-width:1.87920007;stroke-miterlimit:4;stroke-dasharray:none"
     inkscape:connector-curvature="0"
     d="m 180.64077,48.557056 -6.59453,6.594528 h -6.59453 l -6.59453,-6.594528 V 35.367999 l 6.59453,-6.594528 h 6.59453 l 6.59453,6.594528 v 26.378113 l -6.59453,6.594528 h -6.59453 l -6.59453,-6.594528"
     id="path24" />
  <path
     style="fill:none;stroke:#000000;stroke-width:1.87920007;stroke-miterlimit:4;stroke-dasharray:none"
     inkscape:connector-curvature="0"
     d="M 187.2353,15.584415 V 55.151584"
     id="path26" />
  <path
     style="fill:none;stroke:#000000;stroke-width:1.87920007;stroke-miterlimit:4;stroke-dasharray:none"
     inkscape:connector-curvature="0"
     d="m 187.2353,35.367999 6.59453,-6.594528 h 6.59452 l 6.59453,6.594528 v 19.783585"
     id="path28" />
  <path
     style="fill:none;stroke:#000000;stroke-width:1.87920007;stroke-miterlimit:4;stroke-dasharray:none"
     inkscape:connector-curvature="0"
     d="M 213.61341,28.773471 V 55.151584"
     id="path30" />
  <path
     style="fill:none;stroke:#000000;stroke-width:1.87920007;stroke-miterlimit:4;stroke-dasharray:none"
     inkscape:connector-curvature="0"
     d="m 213.61341,15.584415 v 6.594528"
     id="path32" />
  <path
     style="fill:none;stroke:#000000;stroke-width:1.87920007;stroke-miterlimit:4;stroke-dasharray:none"
     inkscape:connector-curvature="0"
     d="m 233.39699,28.773471 v 32.972641 l -6.59452,6.594528 -6.59453,-6.594528"
     id="path34" />
  <path
     style="fill:none;stroke:#000000;stroke-width:1.87920007;stroke-miterlimit:4;stroke-dasharray:none"
     inkscape:connector-curvature="0"
     d="m 233.39699,15.584415 v 6.594528"
     id="path36" />
  <path
     style="fill:none;stroke:#000000;stroke-width:1.87920007;stroke-miterlimit:4;stroke-dasharray:none"
     inkscape:connector-curvature="0"
     d="M 239.99152,15.584415 V 55.151584"
     id="path38" />
  <path
     style="fill:none;stroke:#000000;stroke-width:1.87920007;stroke-miterlimit:4;stroke-dasharray:none"
     inkscape:connector-curvature="0"
     d="M 239.99152,41.962527 253.18058,28.773471"
     id="path40" />
  <path
     style="fill:none;stroke:#000000;stroke-width:1.87920007;stroke-miterlimit:4;stroke-dasharray:none"
     inkscape:connector-curvature="0"
     d="m 246.58605,35.367999 6.59453,19.783585"
     id="path42" />
  <path
     style="fill:none;stroke:#000000;stroke-width:1.87920007;stroke-miterlimit:4;stroke-dasharray:none"
     inkscape:connector-curvature="0"
     d="M 259.77511,15.584415 V 55.151584"
     id="path44" />
  <path
     style="fill:none;stroke:#000000;stroke-width:1.87920007;stroke-miterlimit:4;stroke-dasharray:none"
     inkscape:connector-curvature="0"
     d="M 266.36964,28.773471 V 55.151584"
     id="path46" />
  <path
     style="fill:none;stroke:#000000;stroke-width:1.87920007;stroke-miterlimit:4;stroke-dasharray:none"
     inkscape:connector-curvature="0"
     d="m 266.36964,35.367999 6.59452,-6.594528 h 6.59453 l 6.59453,6.594528 v 19.783585"
     id="path48" />
  <path
     style="fill:none;stroke:#000000;stroke-width:1.87920007;stroke-miterlimit:4;stroke-dasharray:none"
     inkscape:connector-curvature="0"
     d="m 286.15322,35.367999 6.59453,-6.594528 h 6.59453 l 6.59452,6.594528 v 19.783585"
     id="path50" />
  <path
     style="fill:none;stroke:#000000;stroke-width:1.87920007;stroke-miterlimit:4;stroke-dasharray:none"
     inkscape:connector-curvature="0"
     d="M 312.53133,28.773471 V 55.151584"
     id="path52" />
  <path
     style="fill:none;stroke:#000000;stroke-width:1.87920007;stroke-miterlimit:4;stroke-dasharray:none"
     inkscape:connector-curvature="0"
     d="m 312.53133,35.367999 6.59453,-6.594528 h 6.59453 l 6.59453,6.594528 v 19.783585"
     id="path54" />
  <path
     style="fill:none;stroke:#000000;stroke-width:1.87920007;stroke-miterlimit:4;stroke-dasharray:none"
     inkscape:connector-curvature="0"
     d="m 358.69303,35.367999 -6.59453,-6.594528 h -6.59453 l -6.59452,6.594528 v 13.189057 l 6.59452,6.594528 h 6.59453 l 6.59453,-6.594528 V 35.367999"
     id="path56" />
  <path
     style="fill:none;stroke:#000000;stroke-width:1.87920007;stroke-miterlimit:4;stroke-dasharray:none"
     inkscape:connector-curvature="0"
     d="M 365.28756,28.773471 V 68.34064"
     id="path58" />
  <path
     style="fill:none;stroke:#000000;stroke-width:1.87920007;stroke-miterlimit:4;stroke-dasharray:none"
     inkscape:connector-curvature="0"
     d="m 365.28756,35.367999 6.59453,-6.594528 h 6.59452 l 6.59453,6.594528 v 13.189057 l -6.59453,6.594528 h -6.59452 l -6.59453,-6.594528"
     id="path60" />
  <path
     style="fill:none;stroke:#000000;stroke-width:1.87920007;stroke-miterlimit:4;stroke-dasharray:none"
     inkscape:connector-curvature="0"
     d="M 411.44926,28.773471 V 68.34064"
     id="path62" />
  <path
     style="fill:none;stroke:#000000;stroke-width:1.87920007;stroke-miterlimit:4;stroke-dasharray:none"
     inkscape:connector-curvature="0"
     d="m 411.44926,35.367999 -6.59453,-6.594528 h -6.59453 l -6.59453,6.594528 v 13.189057 l 6.59453,6.594528 h 6.59453 l 6.59453,-6.594528"
     id="path64" />
  <path
     style="fill:none;stroke:#000000;stroke-width:1.87920007;stroke-miterlimit:4;stroke-dasharray:none"
     inkscape:connector-curvature="0"
     d="M 15.777564,94.718753 V 121.09687"
     id="path66" />
  <path
     style="fill:none;stroke:#000000;stroke-width:1.87920007;stroke-miterlimit:4;stroke-dasharray:none"
     inkscape:connector-curvature="0"
     d="m 15.777564,101.31328 6.594528,-6.594527 h 6.594528"
     id="path68" />
  <path
     style="fill:none;stroke:#000000;stroke-width:1.87920007;stroke-miterlimit:4;stroke-dasharray:none"
     inkscape:connector-curvature="0"
     d="m 55.344733,101.31328 -6.594528,-6.594527 h -6.594529 l -6.594528,6.594527 6.594528,6.59453 h 6.594529 l 6.594528,6.59453 -6.594528,6.59453 h -6.594529 l -6.594528,-6.59453"
     id="path70" />
  <path
     style="fill:none;stroke:#000000;stroke-width:1.87920007;stroke-miterlimit:4;stroke-dasharray:none"
     inkscape:connector-curvature="0"
     d="M 61.939261,81.529696 V 121.09687"
     id="path72" />
  <path
     style="fill:none;stroke:#000000;stroke-width:1.87920007;stroke-miterlimit:4;stroke-dasharray:none"
     inkscape:connector-curvature="0"
     d="m 61.939261,94.718753 h 6.594528"
     id="path74" />
  <path
     style="fill:none;stroke:#000000;stroke-width:1.87920007;stroke-miterlimit:4;stroke-dasharray:none"
     inkscape:connector-curvature="0"
     d="m 75.128318,94.718753 v 19.783587 l 6.594528,6.59453 h 6.594528 l 6.594528,-6.59453"
     id="path76" />
  <path
     style="fill:none;stroke:#000000;stroke-width:1.87920007;stroke-miterlimit:4;stroke-dasharray:none"
     inkscape:connector-curvature="0"
     d="M 94.911902,94.718753 V 121.09687"
     id="path78" />
  <path
     style="fill:none;stroke:#000000;stroke-width:1.87920007;stroke-miterlimit:4;stroke-dasharray:none"
     inkscape:connector-curvature="0"
     d="m 101.50643,94.718753 9.89179,26.378117 9.89179,-26.378117"
     id="path80" />
  <path
     style="fill:none;stroke:#000000;stroke-width:1.87920007;stroke-miterlimit:4;stroke-dasharray:none"
     inkscape:connector-curvature="0"
     d="m 127.88454,94.718753 6.59453,26.378117 6.59453,-26.378117 6.59453,26.378117 6.59453,-26.378117"
     id="path82" />
  <path
     style="fill:none;stroke:#000000;stroke-width:1.87920007;stroke-miterlimit:4;stroke-dasharray:none"
     inkscape:connector-curvature="0"
     d="m 160.85718,94.718753 19.78359,26.378117"
     id="path84" />
  <path
     style="fill:none;stroke:#000000;stroke-width:1.87920007;stroke-miterlimit:4;stroke-dasharray:none"
     inkscape:connector-curvature="0"
     d="M 180.64077,94.718753 160.85718,121.09687"
     id="path86" />
  <path
     style="fill:none;stroke:#000000;stroke-width:1.87920007;stroke-miterlimit:4;stroke-dasharray:none"
     inkscape:connector-curvature="0"
     d="m 187.2353,94.718753 v 19.783587 l 6.59453,6.59453 h 6.59452 l 6.59453,-6.59453"
     id="path88" />
  <path
     style="fill:none;stroke:#000000;stroke-width:1.87920007;stroke-miterlimit:4;stroke-dasharray:none"
     inkscape:connector-curvature="0"
     d="m 207.01888,94.718753 v 32.972637 l -6.59453,6.59453 h -6.59452 l -6.59453,-6.59453"
     id="path90" />
  <path
     style="fill:none;stroke:#000000;stroke-width:1.87920007;stroke-miterlimit:4;stroke-dasharray:none"
     inkscape:connector-curvature="0"
     d="m 213.61341,94.718753 h 19.78358 l -19.78358,26.378117 h 19.78358"
     id="path92" />
  <path
     style="fill:none;stroke:#000000;stroke-width:1.87920007;stroke-miterlimit:4;stroke-dasharray:none"
     inkscape:connector-curvature="0"
     d="m 239.99152,101.31328 6.59453,-6.594527 v 26.378117"
     id="path94" />
  <path
     style="fill:none;stroke:#000000;stroke-width:1.87920007;stroke-miterlimit:4;stroke-dasharray:none"
     inkscape:connector-curvature="0"
     d="m 253.18058,101.31328 6.59453,-6.594527 h 6.59453 l 6.59452,6.594527 -19.78358,19.78359 h 19.78358"
     id="path96" />
  <path
     style="fill:none;stroke:#000000;stroke-width:1.87920007;stroke-miterlimit:4;stroke-dasharray:none"
     inkscape:connector-curvature="0"
     d="m 279.55869,94.718753 h 19.78359 l -13.18906,13.189057 13.18906,6.59453 v 13.18905 l -6.59453,6.59453 h -6.59453 l -6.59453,-6.59453"
     id="path98" />
  <path
     style="fill:none;stroke:#000000;stroke-width:1.87920007;stroke-miterlimit:4;stroke-dasharray:none"
     inkscape:connector-curvature="0"
     d="m 305.9368,94.718753 v 13.189057 l 6.59453,6.59453 h 13.18906"
     id="path100" />
  <path
     style="fill:none;stroke:#000000;stroke-width:1.87920007;stroke-miterlimit:4;stroke-dasharray:none"
     inkscape:connector-curvature="0"
     d="M 325.72039,94.718753 V 134.28592"
     id="path102" />
  <path
     style="fill:none;stroke:#000000;stroke-width:1.87920007;stroke-miterlimit:4;stroke-dasharray:none"
     inkscape:connector-curvature="0"
     d="m 352.0985,94.718753 h -19.78358 v 13.189057 h 13.18905 l 6.59453,6.59453 v 13.18905 l -6.59453,6.59453 h -13.18905"
     id="path104" />
  <path
     style="fill:none;stroke:#000000;stroke-width:1.87920007;stroke-miterlimit:4;stroke-dasharray:none"
     inkscape:connector-curvature="0"
     d="m 378.47661,88.124225 -6.59452,-6.594529 h -6.59453 l -6.59453,6.594529 v 26.378115 l 6.59453,6.59453 h 6.59453 l 6.59452,-6.59453 v -13.18906 l -6.59452,-6.594527 h -6.59453 l -6.59453,6.594527"
     id="path106" />
  <path
     style="fill:none;stroke:#000000;stroke-width:1.87920007;stroke-miterlimit:4;stroke-dasharray:none"
     inkscape:connector-curvature="0"
     d="m 365.28756,107.90781 h 6.59453"
     id="path108" />
  <path
     style="fill:none;stroke:#000000;stroke-width:1.87920007;stroke-miterlimit:4;stroke-dasharray:none"
     inkscape:connector-curvature="0"
     d="m 385.07114,94.718753 h 19.78359 l -19.78359,39.567167"
     id="path110" />
  <path
     style="fill:none;stroke:#000000;stroke-width:1.87920007;stroke-miterlimit:4;stroke-dasharray:none"
     inkscape:connector-curvature="0"
     d="m 418.04378,101.31328 -6.59452,-6.594527 v -6.594528 l 6.59452,-6.594529 h 6.59453 l 6.59453,6.594529 v 6.594528 l -6.59453,6.594527 h -6.59453 l -6.59452,6.59453 v 6.59453 l 6.59452,6.59453 h 6.59453 l 6.59453,-6.59453 v -6.59453 l -13.18906,-6.59453"
     id="path112" />
  <path
     style="fill:none;stroke:#000000;stroke-width:1.87920007;stroke-miterlimit:4;stroke-dasharray:none"
     inkscape:connector-curvature="0"
     d="m 457.61095,114.50234 -6.59453,6.59453 h -6.59452 l -6.59453,-6.59453 v -13.18906 l 6.59453,-6.594527 h 6.59452 l 6.59453,6.594527 v 26.37811 l -6.59453,6.59453 h -6.59452 l -6.59453,-6.59453"
     id="path114" />
  <path
     style="fill:none;stroke:#000000;stroke-width:1.87920007;stroke-miterlimit:4;stroke-dasharray:none"
     inkscape:connector-curvature="0"
     d="m 444.4219,107.90781 h 6.59452"
     id="path116" />
  <path
     style="fill:none;stroke:#000000;stroke-width:1.87920007;stroke-miterlimit:4;stroke-dasharray:none"
     inkscape:connector-curvature="0"
     d="m 483.98907,101.31328 -6.59453,-6.594527 h -6.59453 l -6.59453,6.594527 v 13.18906 l 6.59453,6.59453 h 6.59453 l 6.59453,-6.59453 v -13.18906"
     id="path118" />
  <path
     style="fill:none;stroke:#000000;stroke-width:1.87920007;stroke-miterlimit:4;stroke-dasharray:none"
     inkscape:connector-curvature="0"
     d="m 470.80001,107.90781 h 6.59453"
     id="path120" />
  <path
     style="fill:none;stroke:#000000;stroke-width:1.87920007;stroke-miterlimit:4;stroke-dasharray:none"
     inkscape:connector-curvature="0"
     d="m 22.372092,167.25856 v 6.59453"
     id="path122" />
  <path
     style="fill:none;stroke:#000000;stroke-width:1.87920007;stroke-miterlimit:4;stroke-dasharray:none"
     inkscape:connector-curvature="0"
     d="m 15.777564,172.20446 6.594528,1.64863 6.594528,-1.64863"
     id="path124" />
  <path
     style="fill:none;stroke:#000000;stroke-width:1.87920007;stroke-miterlimit:4;stroke-dasharray:none"
     inkscape:connector-curvature="0"
     d="m 17.426196,180.44762 4.945896,-6.59453 4.945896,6.59453"
     id="path126" />
  <path
     style="fill:none;stroke:#000000;stroke-width:1.87920007;stroke-miterlimit:4;stroke-dasharray:none"
     inkscape:connector-curvature="0"
     d="M 35.561148,173.85309 H 48.750205"
     id="path128" />
  <path
     style="fill:none;stroke:#000000;stroke-width:1.87920007;stroke-miterlimit:4;stroke-dasharray:none"
     inkscape:connector-curvature="0"
     d="m 42.155676,167.25856 v 13.18906"
     id="path130" />
  <path
     style="fill:none;stroke:#000000;stroke-width:1.87920007;stroke-miterlimit:4;stroke-dasharray:none"
     inkscape:connector-curvature="0"
     d="m 61.939261,154.06951 -6.594528,6.59452 v 19.78359 l 6.594528,6.59453"
     id="path132" />
  <path
     style="fill:none;stroke:#000000;stroke-width:1.87920007;stroke-miterlimit:4;stroke-dasharray:none"
     inkscape:connector-curvature="0"
     d="m 68.533789,154.06951 6.594529,6.59452 v 19.78359 l -6.594529,6.59453"
     id="path134" />
  <path
     style="fill:none;stroke:#000000;stroke-width:1.87920007;stroke-miterlimit:4;stroke-dasharray:none"
     inkscape:connector-curvature="0"
     d="M 94.911902,160.66403 81.722846,187.04215"
     id="path136" />
  <path
     style="fill:none;stroke:#000000;stroke-width:1.87920007;stroke-miterlimit:4;stroke-dasharray:none"
     inkscape:connector-curvature="0"
     d="m 101.50643,160.66403 13.18906,26.37812"
     id="path138" />
  <path
     style="fill:none;stroke:#000000;stroke-width:1.87920007;stroke-miterlimit:4;stroke-dasharray:none"
     inkscape:connector-curvature="0"
     d="m 127.88454,154.06951 h -6.59453 v 32.97264 h 6.59453"
     id="path140" />
  <path
     style="fill:none;stroke:#000000;stroke-width:1.87920007;stroke-miterlimit:4;stroke-dasharray:none"
     inkscape:connector-curvature="0"
     d="m 134.47907,154.06951 h 6.59453 v 32.97264 h -6.59453"
     id="path142" />
  <path
     style="fill:none;stroke:#000000;stroke-width:1.87920007;stroke-miterlimit:4;stroke-dasharray:none"
     inkscape:connector-curvature="0"
     d="m 147.66813,170.55583 h 13.18905"
     id="path144" />
  <path
     style="fill:none;stroke:#000000;stroke-width:1.87920007;stroke-miterlimit:4;stroke-dasharray:none"
     inkscape:connector-curvature="0"
     d="m 147.66813,180.44762 h 13.18905"
     id="path146" />
  <path
     style="fill:none;stroke:#000000;stroke-width:1.87920007;stroke-miterlimit:4;stroke-dasharray:none"
     inkscape:connector-curvature="0"
     d="m 167.45171,173.85309 h 13.18906"
     id="path148" />
  <path
     style="fill:none;stroke:#000000;stroke-width:1.87920007;stroke-miterlimit:4;stroke-dasharray:none"
     inkscape:connector-curvature="0"
     d="m 187.2353,147.47498 v 26.37811"
     id="path150" />
  <path
     style="fill:none;stroke:#000000;stroke-width:1.87920007;stroke-miterlimit:4;stroke-dasharray:none"
     inkscape:connector-curvature="0"
     d="m 187.2353,180.44762 v 6.59453"
     id="path152" />
  <path
     style="fill:none;stroke:#000000;stroke-width:1.87920007;stroke-miterlimit:4;stroke-dasharray:none"
     inkscape:connector-curvature="0"
     d="m 15.777564,213.42026 v 39.56717"
     id="path154" />
  <path
     style="fill:none;stroke:#000000;stroke-width:1.87920007;stroke-miterlimit:4;stroke-dasharray:none"
     inkscape:connector-curvature="0"
     d="m 15.777564,226.60932 h 6.594528"
     id="path156" />
  <path
     style="fill:none;stroke:#000000;stroke-width:1.87920007;stroke-miterlimit:4;stroke-dasharray:none"
     inkscape:connector-curvature="0"
     d="m 28.96662,213.42026 v 39.56717"
     id="path158" />
  <path
     style="fill:none;stroke:#000000;stroke-width:1.87920007;stroke-miterlimit:4;stroke-dasharray:none"
     inkscape:connector-curvature="0"
     d="m 28.96662,233.20385 6.594528,-6.59453 h 6.594528 l 6.594529,6.59453 v 19.78358"
     id="path160" />
  <path
     style="fill:none;stroke:#000000;stroke-width:1.87920007;stroke-miterlimit:4;stroke-dasharray:none"
     inkscape:connector-curvature="0"
     d="m 61.939261,239.79837 h 6.594528 l 6.594529,-6.59452 -6.594529,-6.59453 h -6.594528 l -6.594528,6.59453 v 13.18905 l 6.594528,6.59453 h 6.594528 l 6.594529,-6.59453"
     id="path162" />
  <path
     style="fill:none;stroke:#000000;stroke-width:1.87920007;stroke-miterlimit:4;stroke-dasharray:none"
     inkscape:connector-curvature="0"
     d="m 114.69549,226.60932 v 39.56717"
     id="path164" />
  <path
     style="fill:none;stroke:#000000;stroke-width:1.87920007;stroke-miterlimit:4;stroke-dasharray:none"
     inkscape:connector-curvature="0"
     d="m 114.69549,233.20385 -6.59453,-6.59453 h -6.59453 l -6.594528,6.59453 v 13.18905 l 6.594528,6.59453 h 6.59453 l 6.59453,-6.59453"
     id="path166" />
  <path
     style="fill:none;stroke:#000000;stroke-width:1.87920007;stroke-miterlimit:4;stroke-dasharray:none"
     inkscape:connector-curvature="0"
     d="m 121.29001,226.60932 v 19.78358 l 6.59453,6.59453 h 6.59453 l 6.59453,-6.59453"
     id="path168" />
  <path
     style="fill:none;stroke:#000000;stroke-width:1.87920007;stroke-miterlimit:4;stroke-dasharray:none"
     inkscape:connector-curvature="0"
     d="m 141.0736,226.60932 v 26.37811"
     id="path170" />
  <path
     style="fill:none;stroke:#000000;stroke-width:1.87920007;stroke-miterlimit:4;stroke-dasharray:none"
     inkscape:connector-curvature="0"
     d="m 147.66813,226.60932 v 26.37811"
     id="path172" />
  <path
     style="fill:none;stroke:#000000;stroke-width:1.87920007;stroke-miterlimit:4;stroke-dasharray:none"
     inkscape:connector-curvature="0"
     d="m 147.66813,213.42026 v 6.59453"
     id="path174" />
  <path
     style="fill:none;stroke:#000000;stroke-width:1.87920007;stroke-miterlimit:4;stroke-dasharray:none"
     inkscape:connector-curvature="0"
     d="m 174.04624,233.20385 -6.59453,-6.59453 h -6.59453 l -6.59452,6.59453 v 13.18905 l 6.59452,6.59453 h 6.59453 l 6.59453,-6.59453"
     id="path176" />
  <path
     style="fill:none;stroke:#000000;stroke-width:1.87920007;stroke-miterlimit:4;stroke-dasharray:none"
     inkscape:connector-curvature="0"
     d="m 180.64077,213.42026 v 39.56717"
     id="path178" />
  <path
     style="fill:none;stroke:#000000;stroke-width:1.87920007;stroke-miterlimit:4;stroke-dasharray:none"
     inkscape:connector-curvature="0"
     d="m 180.64077,239.79837 13.18906,-13.18905"
     id="path180" />
  <path
     style="fill:none;stroke:#000000;stroke-width:1.87920007;stroke-miterlimit:4;stroke-dasharray:none"
     inkscape:connector-curvature="0"
     d="m 187.2353,233.20385 6.59453,19.78358"
     id="path182" />
  <path
     style="fill:none;stroke:#000000;stroke-width:1.87920007;stroke-miterlimit:4;stroke-dasharray:none"
     inkscape:connector-curvature="0"
     d="m 213.61341,213.42026 v 39.56717"
     id="path184" />
  <path
     style="fill:none;stroke:#000000;stroke-width:1.87920007;stroke-miterlimit:4;stroke-dasharray:none"
     inkscape:connector-curvature="0"
     d="m 213.61341,233.20385 6.59453,-6.59453 h 6.59453 l 6.59452,6.59453 v 13.18905 l -6.59452,6.59453 h -6.59453 l -6.59453,-6.59453"
     id="path186" />
  <path
     style="fill:none;stroke:#000000;stroke-width:1.87920007;stroke-miterlimit:4;stroke-dasharray:none"
     inkscape:connector-curvature="0"
     d="m 239.99152,226.60932 v 26.37811"
     id="path188" />
  <path
     style="fill:none;stroke:#000000;stroke-width:1.87920007;stroke-miterlimit:4;stroke-dasharray:none"
     inkscape:connector-curvature="0"
     d="m 239.99152,233.20385 6.59453,-6.59453 h 6.59453"
     id="path190" />
  <path
     style="fill:none;stroke:#000000;stroke-width:1.87920007;stroke-miterlimit:4;stroke-dasharray:none"
     inkscape:connector-curvature="0"
     d="m 279.55869,233.20385 -6.59453,-6.59453 h -6.59452 l -6.59453,6.59453 v 13.18905 l 6.59453,6.59453 h 6.59452 l 6.59453,-6.59453 v -13.18905"
     id="path192" />
  <path
     style="fill:none;stroke:#000000;stroke-width:1.87920007;stroke-miterlimit:4;stroke-dasharray:none"
     inkscape:connector-curvature="0"
     d="m 286.15322,226.60932 6.59453,26.37811 6.59453,-26.37811 6.59452,26.37811 6.59453,-26.37811"
     id="path194" />
  <path
     style="fill:none;stroke:#000000;stroke-width:1.87920007;stroke-miterlimit:4;stroke-dasharray:none"
     inkscape:connector-curvature="0"
     d="m 319.12586,226.60932 v 26.37811"
     id="path196" />
  <path
     style="fill:none;stroke:#000000;stroke-width:1.87920007;stroke-miterlimit:4;stroke-dasharray:none"
     inkscape:connector-curvature="0"
     d="m 319.12586,233.20385 6.59453,-6.59453 h 6.59453 l 6.59453,6.59453 v 19.78358"
     id="path198" />
  <path
     style="fill:none;stroke:#000000;stroke-width:1.87920007;stroke-miterlimit:4;stroke-dasharray:none"
     inkscape:connector-curvature="0"
     d="m 358.69303,252.98743 v -32.97264 l 6.59453,-6.59453"
     id="path200" />
  <path
     style="fill:none;stroke:#000000;stroke-width:1.87920007;stroke-miterlimit:4;stroke-dasharray:none"
     inkscape:connector-curvature="0"
     d="m 358.69303,226.60932 h 6.59453"
     id="path202" />
  <path
     style="fill:none;stroke:#000000;stroke-width:1.87920007;stroke-miterlimit:4;stroke-dasharray:none"
     inkscape:connector-curvature="0"
     d="m 391.66567,233.20385 -6.59453,-6.59453 h -6.59453 l -6.59452,6.59453 v 13.18905 l 6.59452,6.59453 h 6.59453 l 6.59453,-6.59453 v -13.18905"
     id="path204" />
  <path
     style="fill:none;stroke:#000000;stroke-width:1.87920007;stroke-miterlimit:4;stroke-dasharray:none"
     inkscape:connector-curvature="0"
     d="m 398.2602,226.60932 19.78358,26.37811"
     id="path206" />
  <path
     style="fill:none;stroke:#000000;stroke-width:1.87920007;stroke-miterlimit:4;stroke-dasharray:none"
     inkscape:connector-curvature="0"
     d="M 418.04378,226.60932 398.2602,252.98743"
     id="path208" />
  <path
     style="fill:none;stroke:#000000;stroke-width:1.87920007;stroke-miterlimit:4;stroke-dasharray:none"
     inkscape:connector-curvature="0"
     d="m 28.96662,292.5546 v 32.97264 l -6.594528,6.59453 -6.594528,-6.59453"
     id="path210" />
  <path
     style="fill:none;stroke:#000000;stroke-width:1.87920007;stroke-miterlimit:4;stroke-dasharray:none"
     inkscape:connector-curvature="0"
     d="m 28.96662,279.36554 v 6.59453"
     id="path212" />
  <path
     style="fill:none;stroke:#000000;stroke-width:1.87920007;stroke-miterlimit:4;stroke-dasharray:none"
     inkscape:connector-curvature="0"
     d="m 35.561148,292.5546 v 19.78358 l 6.594528,6.59453 h 6.594529 l 6.594528,-6.59453"
     id="path214" />
  <path
     style="fill:none;stroke:#000000;stroke-width:1.87920007;stroke-miterlimit:4;stroke-dasharray:none"
     inkscape:connector-curvature="0"
     d="m 55.344733,292.5546 v 26.37811"
     id="path216" />
  <path
     style="fill:none;stroke:#000000;stroke-width:1.87920007;stroke-miterlimit:4;stroke-dasharray:none"
     inkscape:connector-curvature="0"
     d="m 61.939261,292.5546 v 26.37811"
     id="path218" />
  <path
     style="fill:none;stroke:#000000;stroke-width:1.87920007;stroke-miterlimit:4;stroke-dasharray:none"
     inkscape:connector-curvature="0"
     d="m 61.939261,299.14913 6.594528,-6.59453 h 6.594529 l 6.594528,6.59453 v 19.78358"
     id="path220" />
  <path
     style="fill:none;stroke:#000000;stroke-width:1.87920007;stroke-miterlimit:4;stroke-dasharray:none"
     inkscape:connector-curvature="0"
     d="m 81.722846,299.14913 6.594528,-6.59453 h 6.594528 l 6.594528,6.59453 v 19.78358"
     id="path222" />
  <path
     style="fill:none;stroke:#000000;stroke-width:1.87920007;stroke-miterlimit:4;stroke-dasharray:none"
     inkscape:connector-curvature="0"
     d="m 108.10096,292.5546 v 39.56717"
     id="path224" />
  <path
     style="fill:none;stroke:#000000;stroke-width:1.87920007;stroke-miterlimit:4;stroke-dasharray:none"
     inkscape:connector-curvature="0"
     d="m 108.10096,299.14913 6.59453,-6.59453 h 6.59452 l 6.59453,6.59453 v 13.18905 l -6.59453,6.59453 h -6.59452 l -6.59453,-6.59453"
     id="path226" />
  <path
     style="fill:none;stroke:#000000;stroke-width:1.87920007;stroke-miterlimit:4;stroke-dasharray:none"
     inkscape:connector-curvature="0"
     d="m 154.26266,299.14913 -6.59453,-6.59453 h -6.59453 l -6.59453,6.59453 6.59453,6.59453 h 6.59453 l 6.59453,6.59452 -6.59453,6.59453 h -6.59453 l -6.59453,-6.59453"
     id="path228" />
  <path
     style="fill:none;stroke:#000000;stroke-width:1.87920007;stroke-miterlimit:4;stroke-dasharray:none"
     inkscape:connector-curvature="0"
     d="m 193.82983,299.14913 -6.59453,-6.59453 h -6.59453 l -6.59453,6.59453 v 13.18905 l 6.59453,6.59453 h 6.59453 l 6.59453,-6.59453 v -13.18905"
     id="path230" />
  <path
     style="fill:none;stroke:#000000;stroke-width:1.87920007;stroke-miterlimit:4;stroke-dasharray:none"
     inkscape:connector-curvature="0"
     d="m 200.42435,292.5546 9.8918,26.37811 9.89179,-26.37811"
     id="path232" />
  <path
     style="fill:none;stroke:#000000;stroke-width:1.87920007;stroke-miterlimit:4;stroke-dasharray:none"
     inkscape:connector-curvature="0"
     d="m 233.39699,305.74366 h 6.59453 l 6.59453,-6.59453 -6.59453,-6.59453 h -6.59453 l -6.59452,6.59453 v 13.18905 l 6.59452,6.59453 h 6.59453 l 6.59453,-6.59453"
     id="path234" />
  <path
     style="fill:none;stroke:#000000;stroke-width:1.87920007;stroke-miterlimit:4;stroke-dasharray:none"
     inkscape:connector-curvature="0"
     d="m 253.18058,292.5546 v 26.37811"
     id="path236" />
  <path
     style="fill:none;stroke:#000000;stroke-width:1.87920007;stroke-miterlimit:4;stroke-dasharray:none"
     inkscape:connector-curvature="0"
     d="m 253.18058,299.14913 6.59453,-6.59453 h 6.59453"
     id="path238" />
  <path
     style="fill:none;stroke:#000000;stroke-width:1.87920007;stroke-miterlimit:4;stroke-dasharray:none"
     inkscape:connector-curvature="0"
     d="m 286.15322,279.36554 v 39.56717"
     id="path240" />
  <path
     style="fill:none;stroke:#000000;stroke-width:1.87920007;stroke-miterlimit:4;stroke-dasharray:none"
     inkscape:connector-curvature="0"
     d="m 286.15322,292.5546 h 6.59453"
     id="path242" />
  <path
     style="fill:none;stroke:#000000;stroke-width:1.87920007;stroke-miterlimit:4;stroke-dasharray:none"
     inkscape:connector-curvature="0"
     d="m 299.34228,279.36554 v 39.56717"
     id="path244" />
  <path
     style="fill:none;stroke:#000000;stroke-width:1.87920007;stroke-miterlimit:4;stroke-dasharray:none"
     inkscape:connector-curvature="0"
     d="m 299.34228,299.14913 6.59452,-6.59453 h 6.59453 l 6.59453,6.59453 v 19.78358"
     id="path246" />
  <path
     style="fill:none;stroke:#000000;stroke-width:1.87920007;stroke-miterlimit:4;stroke-dasharray:none"
     inkscape:connector-curvature="0"
     d="m 332.31492,305.74366 h 6.59453 l 6.59452,-6.59453 -6.59452,-6.59453 h -6.59453 l -6.59453,6.59453 v 13.18905 l 6.59453,6.59453 h 6.59453 l 6.59452,-6.59453"
     id="path248" />
  <path
     style="fill:none;stroke:#000000;stroke-width:1.87920007;stroke-miterlimit:4;stroke-dasharray:none"
     inkscape:connector-curvature="0"
     d="m 365.28756,279.36554 v 39.56717"
     id="path250" />
  <path
     style="fill:none;stroke:#000000;stroke-width:1.87920007;stroke-miterlimit:4;stroke-dasharray:none"
     inkscape:connector-curvature="0"
     d="m 391.66567,292.5546 v 26.37811"
     id="path252" />
  <path
     style="fill:none;stroke:#000000;stroke-width:1.87920007;stroke-miterlimit:4;stroke-dasharray:none"
     inkscape:connector-curvature="0"
     d="m 391.66567,299.14913 -6.59453,-6.59453 h -6.59453 l -6.59452,6.59453 v 13.18905 l 6.59452,6.59453 h 6.59453 l 6.59453,-6.59453"
     id="path254" />
  <path
     style="fill:none;stroke:#000000;stroke-width:1.87920007;stroke-miterlimit:4;stroke-dasharray:none"
     inkscape:connector-curvature="0"
     d="m 398.2602,292.5546 h 19.78358 l -19.78358,26.37811 h 19.78358"
     id="path256" />
  <path
     style="fill:none;stroke:#000000;stroke-width:1.87920007;stroke-miterlimit:4;stroke-dasharray:none"
     inkscape:connector-curvature="0"
     d="m 424.63831,292.5546 v 19.78358 l 6.59453,6.59453 h 6.59453 l 6.59453,-6.59453"
     id="path258" />
  <path
     style="fill:none;stroke:#000000;stroke-width:1.87920007;stroke-miterlimit:4;stroke-dasharray:none"
     inkscape:connector-curvature="0"
     d="m 444.4219,292.5546 v 32.97264 l -6.59453,6.59453 h -6.59453 l -6.59453,-6.59453"
     id="path260" />
  <path
     style="fill:none;stroke:#000000;stroke-width:1.87920007;stroke-miterlimit:4;stroke-dasharray:none"
     inkscape:connector-curvature="0"
     d="m 483.98907,279.36554 v 39.56717"
     id="path262" />
  <path
     style="fill:none;stroke:#000000;stroke-width:1.87920007;stroke-miterlimit:4;stroke-dasharray:none"
     inkscape:connector-curvature="0"
     d="m 483.98907,299.14913 -6.59453,-6.59453 h -6.59453 l -6.59453,6.59453 v 13.18905 l 6.59453,6.59453 h 6.59453 l 6.59453,-6.59453"
     id="path264" />
  <path
     style="fill:none;stroke:#000000;stroke-width:1.87920007;stroke-miterlimit:4;stroke-dasharray:none"
     inkscape:connector-curvature="0"
     d="m 510.36718,299.14913 -6.59453,-6.59453 h -6.59453 l -6.59453,6.59453 v 13.18905 l 6.59453,6.59453 h 6.59453 l 6.59453,-6.59453 v -13.18905"
     id="path266" />
  <path
     style="fill:none;stroke:#000000;stroke-width:1.87920007;stroke-miterlimit:4;stroke-dasharray:none"
     inkscape:connector-curvature="0"
     d="m 536.74529,312.33818 -6.59453,6.59453 h -6.59452 l -6.59453,-6.59453 v -13.18905 l 6.59453,-6.59453 h 6.59452 l 6.59453,6.59453 v 26.37811 l -6.59453,6.59453 h -6.59452 l -6.59453,-6.59453"
     id="path268" />
  <path
     style="fill:none;stroke:#000000;stroke-width:1.87920007;stroke-miterlimit:4;stroke-dasharray:none"
     inkscape:connector-curvature="0"
     d="m 543.33982,279.36554 v 26.37812"
     id="path270" />
  <path
     style="fill:none;stroke:#000000;stroke-width:1.87920007;stroke-miterlimit:4;stroke-dasharray:none"
     inkscape:connector-curvature="0"
     d="m 543.33982,312.33818 v 6.59453"
     id="path272" />
</svg>
