<?xml version="1.0" encoding="UTF-8" standalone="no"?>
<svg
   xmlns:dc="http://purl.org/dc/elements/1.1/"
   xmlns:cc="http://creativecommons.org/ns#"
   xmlns:rdf="http://www.w3.org/1999/02/22-rdf-syntax-ns#"
   xmlns:svg="http://www.w3.org/2000/svg"
   xmlns="http://www.w3.org/2000/svg"
   xmlns:sodipodi="http://sodipodi.sourceforge.net/DTD/sodipodi-0.dtd"
   xmlns:inkscape="http://www.inkscape.org/namespaces/inkscape"
   height="2125.9749"
   version="1.2"
   width="3488.4497"
   id="svg326"
   sodipodi:docname="img.svg"
   inkscape:version="0.92.3 (2405546, 2018-03-11)">
  <metadata
     id="metadata330">
    <rdf:RDF>
      <cc:Work
         rdf:about="">
        <dc:format>image/svg+xml</dc:format>
        <dc:type
           rdf:resource="http://purl.org/dc/dcmitype/StillImage" />
        <dc:title></dc:title>
      </cc:Work>
    </rdf:RDF>
  </metadata>
  <sodipodi:namedview
     pagecolor="#ffffff"
     bordercolor="#666666"
     borderopacity="1"
     objecttolerance="10"
     gridtolerance="10"
     guidetolerance="10"
     inkscape:pageopacity="0"
     inkscape:pageshadow="2"
     inkscape:window-width="2560"
     inkscape:window-height="1600"
     id="namedview328"
     showgrid="false"
     fit-margin-top="100"
     fit-margin-right="100"
     fit-margin-bottom="100"
     fit-margin-left="100"
     inkscape:zoom="0.059"
     inkscape:cx="-1186.9147"
     inkscape:cy="-65.991525"
     inkscape:window-x="1440"
     inkscape:window-y="0"
     inkscape:window-maximized="0"
     inkscape:current-layer="svg326" />
  <defs
     id="defs2" />
  <path
     d="m 224.94975,182.47487 v 160"
     id="path4"
     inkscape:connector-curvature="0"
     style="fill:none;stroke:#000000;stroke-width:7" />
  <path
     d="m 224.94975,222.47487 -40,-40 h -40 l -40,40 v 80 l 40,40 h 40 l 40,-40"
     id="path6"
     inkscape:connector-curvature="0"
     style="fill:none;stroke:#000000;stroke-width:7" />
  <path
     d="m 264.94975,102.47487 v 240"
     id="path8"
     inkscape:connector-curvature="0"
     style="fill:none;stroke:#000000;stroke-width:7" />
  <path
     d="m 264.94975,222.47487 40,-40 h 40 l 40,40 v 80 l -40,40 h -40 l -40,-40"
     id="path10"
     inkscape:connector-curvature="0"
     style="fill:none;stroke:#000000;stroke-width:7" />
  <path
     d="m 544.94975,222.47487 -40,-40 h -40 l -40,40 v 80 l 40,40 h 40 l 40,-40"
     id="path12"
     inkscape:connector-curvature="0"
     style="fill:none;stroke:#000000;stroke-width:7" />
  <path
     d="m 704.94975,102.47487 v 240"
     id="path14"
     inkscape:connector-curvature="0"
     style="fill:none;stroke:#000000;stroke-width:7" />
  <path
     d="m 704.94975,222.47487 -40,-40 h -40 l -40,40 v 80 l 40,40 h 40 l 40,-40"
     id="path16"
     inkscape:connector-curvature="0"
     style="fill:none;stroke:#000000;stroke-width:7" />
  <path
     d="m 784.94975,262.47487 h 40 l 40,-40 -40,-40 h -40 l -40,40 v 80 l 40,40 h 40 l 40,-40"
     id="path18"
     inkscape:connector-curvature="0"
     style="fill:none;stroke:#000000;stroke-width:7" />
  <path
     d="m 904.94975,342.47487 v -200 l 40,-40"
     id="path20"
     inkscape:connector-curvature="0"
     style="fill:none;stroke:#000000;stroke-width:7" />
  <path
     d="m 904.94975,182.47487 h 40"
     id="path22"
     inkscape:connector-curvature="0"
     style="fill:none;stroke:#000000;stroke-width:7" />
  <path
     d="m 1104.9497,222.47487 -40,-40 h -40 l -39.99995,40 v 80 l 39.99995,40 h 40 l 40,-40"
     id="path24"
     inkscape:connector-curvature="0"
     style="fill:none;stroke:#000000;stroke-width:7" />
  <path
     d="m 1104.9497,182.47487 v 200 l -40,40 h -40"
     id="path26"
     inkscape:connector-curvature="0"
     style="fill:none;stroke:#000000;stroke-width:7" />
  <path
     d="m 1144.9497,102.47487 v 240"
     id="path28"
     inkscape:connector-curvature="0"
     style="fill:none;stroke:#000000;stroke-width:7" />
  <path
     d="m 1144.9497,222.47487 40,-40 h 40 l 40,40 v 120"
     id="path30"
     inkscape:connector-curvature="0"
     style="fill:none;stroke:#000000;stroke-width:7" />
  <path
     d="m 1304.9497,182.47487 v 160"
     id="path32"
     inkscape:connector-curvature="0"
     style="fill:none;stroke:#000000;stroke-width:7" />
  <path
     d="m 1304.9497,102.47487 v 40"
     id="path34"
     inkscape:connector-curvature="0"
     style="fill:none;stroke:#000000;stroke-width:7" />
  <path
     d="m 1384.9497,182.47487 v 200 l -40,40"
     id="path36"
     inkscape:connector-curvature="0"
     style="fill:none;stroke:#000000;stroke-width:7" />
  <path
     d="m 1384.9497,102.47487 v 40"
     id="path38"
     inkscape:connector-curvature="0"
     style="fill:none;stroke:#000000;stroke-width:7" />
  <path
     d="m 1424.9497,102.47487 v 240"
     id="path40"
     inkscape:connector-curvature="0"
     style="fill:none;stroke:#000000;stroke-width:7" />
  <path
     d="m 1424.9497,262.47487 80,-80"
     id="path42"
     inkscape:connector-curvature="0"
     style="fill:none;stroke:#000000;stroke-width:7" />
  <path
     d="m 1464.9497,222.47487 40,120"
     id="path44"
     inkscape:connector-curvature="0"
     style="fill:none;stroke:#000000;stroke-width:7" />
  <path
     d="m 1544.9497,102.47487 v 240"
     id="path46"
     inkscape:connector-curvature="0"
     style="fill:none;stroke:#000000;stroke-width:7" />
  <path
     d="m 1584.9497,182.47487 v 160"
     id="path48"
     inkscape:connector-curvature="0"
     style="fill:none;stroke:#000000;stroke-width:7" />
  <path
     d="m 1584.9497,222.47487 40,-40 h 40 l 40,40 v 120"
     id="path50"
     inkscape:connector-curvature="0"
     style="fill:none;stroke:#000000;stroke-width:7" />
  <path
     d="m 1704.9497,222.47487 40,-40 h 40 l 40,40 v 120"
     id="path52"
     inkscape:connector-curvature="0"
     style="fill:none;stroke:#000000;stroke-width:7" />
  <path
     d="m 1864.9497,182.47487 v 160"
     id="path54"
     inkscape:connector-curvature="0"
     style="fill:none;stroke:#000000;stroke-width:7" />
  <path
     d="m 1864.9497,222.47487 40,-40 h 40 l 40,40 v 120"
     id="path56"
     inkscape:connector-curvature="0"
     style="fill:none;stroke:#000000;stroke-width:7" />
  <path
     d="m 2144.9497,222.47487 -40,-40 h -40 l -40,40 v 80 l 40,40 h 40 l 40,-40 v -80"
     id="path58"
     inkscape:connector-curvature="0"
     style="fill:none;stroke:#000000;stroke-width:7" />
  <path
     d="m 2184.9497,182.47487 v 240"
     id="path60"
     inkscape:connector-curvature="0"
     style="fill:none;stroke:#000000;stroke-width:7" />
  <path
     d="m 2184.9497,222.47487 40,-40 h 40 l 40,40 v 80 l -40,40 h -40 l -40,-40"
     id="path62"
     inkscape:connector-curvature="0"
     style="fill:none;stroke:#000000;stroke-width:7" />
  <path
     d="m 2464.9497,182.47487 v 240"
     id="path64"
     inkscape:connector-curvature="0"
     style="fill:none;stroke:#000000;stroke-width:7" />
  <path
     d="m 2464.9497,222.47487 -40,-40 h -40 l -40,40 v 80 l 40,40 h 40 l 40,-40"
     id="path66"
     inkscape:connector-curvature="0"
     style="fill:none;stroke:#000000;stroke-width:7" />
  <path
     d="m 2504.9497,182.47487 v 160"
     id="path68"
     inkscape:connector-curvature="0"
     style="fill:none;stroke:#000000;stroke-width:7" />
  <path
     d="m 2504.9497,222.47487 40,-40 h 40"
     id="path70"
     inkscape:connector-curvature="0"
     style="fill:none;stroke:#000000;stroke-width:7" />
  <path
     d="m 224.94975,622.47487 -40,-40 h -40 l -40,40 40,40 h 40 l 40,40 -40,40 h -40 l -40,-40"
     id="path72"
     inkscape:connector-curvature="0"
     style="fill:none;stroke:#000000;stroke-width:7" />
  <path
     d="m 264.94975,502.47487 v 240"
     id="path74"
     inkscape:connector-curvature="0"
     style="fill:none;stroke:#000000;stroke-width:7" />
  <path
     d="m 264.94975,582.47487 h 40"
     id="path76"
     inkscape:connector-curvature="0"
     style="fill:none;stroke:#000000;stroke-width:7" />
  <path
     d="m 344.94975,582.47487 v 120 l 40,40 h 40 l 40,-40"
     id="path78"
     inkscape:connector-curvature="0"
     style="fill:none;stroke:#000000;stroke-width:7" />
  <path
     d="m 464.94975,582.47487 v 160"
     id="path80"
     inkscape:connector-curvature="0"
     style="fill:none;stroke:#000000;stroke-width:7" />
  <path
     d="m 504.94975,582.47487 60,160 60,-160"
     id="path82"
     inkscape:connector-curvature="0"
     style="fill:none;stroke:#000000;stroke-width:7" />
  <path
     d="m 664.94975,582.47487 40,160 40,-160 40,160 40,-160"
     id="path84"
     inkscape:connector-curvature="0"
     style="fill:none;stroke:#000000;stroke-width:7" />
  <path
     d="m 864.94975,582.47487 120,160"
     id="path86"
     inkscape:connector-curvature="0"
     style="fill:none;stroke:#000000;stroke-width:7" />
  <path
     d="m 984.94975,582.47487 -120,160"
     id="path88"
     inkscape:connector-curvature="0"
     style="fill:none;stroke:#000000;stroke-width:7" />
  <path
     d="m 1024.9497,582.47487 60,160"
     id="path90"
     inkscape:connector-curvature="0"
     style="fill:none;stroke:#000000;stroke-width:7" />
  <path
     d="m 1144.9497,582.47487 -60,160 -20,40 -40,40"
     id="path92"
     inkscape:connector-curvature="0"
     style="fill:none;stroke:#000000;stroke-width:7" />
  <path
     d="m 1184.9497,582.47487 h 120 l -120,160 h 120"
     id="path94"
     inkscape:connector-curvature="0"
     style="fill:none;stroke:#000000;stroke-width:7" />
  <path
     d="m 1344.9497,622.47487 40,-40 v 160"
     id="path96"
     inkscape:connector-curvature="0"
     style="fill:none;stroke:#000000;stroke-width:7" />
  <path
     d="m 1424.9497,622.47487 40,-40 h 40 l 40,40 -120,120 h 120"
     id="path98"
     inkscape:connector-curvature="0"
     style="fill:none;stroke:#000000;stroke-width:7" />
  <path
     d="m 1584.9497,582.47487 h 120 l -80,80 80,40 v 80 l -40,40 h -40 l -40,-40"
     id="path100"
     inkscape:connector-curvature="0"
     style="fill:none;stroke:#000000;stroke-width:7" />
  <path
     d="m 1744.9497,582.47487 v 80 l 40,40 h 80"
     id="path102"
     inkscape:connector-curvature="0"
     style="fill:none;stroke:#000000;stroke-width:7" />
  <path
     d="m 1864.9497,582.47487 v 240"
     id="path104"
     inkscape:connector-curvature="0"
     style="fill:none;stroke:#000000;stroke-width:7" />
  <path
     d="m 2024.9497,582.47487 h -120 v 80 h 80 l 40,40 v 80 l -40,40 h -80"
     id="path106"
     inkscape:connector-curvature="0"
     style="fill:none;stroke:#000000;stroke-width:7" />
  <path
     d="m 2184.9497,542.47487 -40,-40 h -40 l -40,40 v 160 l 40,40 h 40 l 40,-40 v -80 l -40,-40 h -40 l -40,40"
     id="path108"
     inkscape:connector-curvature="0"
     style="fill:none;stroke:#000000;stroke-width:7" />
  <path
     d="m 2224.9497,582.47487 h 120 l -120,240"
     id="path110"
     inkscape:connector-curvature="0"
     style="fill:none;stroke:#000000;stroke-width:7" />
  <path
     d="m 2424.9497,622.47487 -40,-40 v -40 l 40,-40 h 40 l 40,40 v 40 l -40,40 h -40 l -40,40 v 40 l 40,40 h 40 l 40,-40 v -40 l -40,-40"
     id="path112"
     inkscape:connector-curvature="0"
     style="fill:none;stroke:#000000;stroke-width:7" />
  <path
     d="m 2664.9497,702.47487 -40,40 h -40 l -40,-40 v -80 l 40,-40 h 40 l 40,40 v 160 l -40,40 h -40 l -40,-40"
     id="path114"
     inkscape:connector-curvature="0"
     style="fill:none;stroke:#000000;stroke-width:7" />
  <path
     d="m 2824.9497,622.47487 -40,-40 h -40 l -40,40 v 80 l 40,40 h 40 l 40,-40 v -80"
     id="path116"
     inkscape:connector-curvature="0"
     style="fill:none;stroke:#000000;stroke-width:7" />
  <path
     d="m 2804.9497,602.47487 -80,120"
     id="path118"
     inkscape:connector-curvature="0"
     style="fill:none;stroke:#000000;stroke-width:7" />
  <path
     d="m 144.94975,1022.4749 v 40"
     id="path120"
     inkscape:connector-curvature="0"
     style="fill:none;stroke:#000000;stroke-width:7" />
  <path
     d="m 104.94975,1052.4749 40,10 40,-10"
     id="path122"
     inkscape:connector-curvature="0"
     style="fill:none;stroke:#000000;stroke-width:7" />
  <path
     d="m 114.94975,1102.4749 30,-40 30,40"
     id="path124"
     inkscape:connector-curvature="0"
     style="fill:none;stroke:#000000;stroke-width:7" />
  <path
     d="m 224.94975,1062.4749 h 80"
     id="path126"
     inkscape:connector-curvature="0"
     style="fill:none;stroke:#000000;stroke-width:7" />
  <path
     d="m 264.94975,1022.4749 v 80"
     id="path128"
     inkscape:connector-curvature="0"
     style="fill:none;stroke:#000000;stroke-width:7" />
  <path
     d="m 384.94975,942.47487 -40,40 v 160.00003 l 40,40"
     id="path130"
     inkscape:connector-curvature="0"
     style="fill:none;stroke:#000000;stroke-width:7" />
  <path
     d="m 424.94975,942.47487 40,40 v 160.00003 l -40,40"
     id="path132"
     inkscape:connector-curvature="0"
     style="fill:none;stroke:#000000;stroke-width:7" />
  <path
     d="m 584.94975,942.47487 -80,240.00003"
     id="path134"
     inkscape:connector-curvature="0"
     style="fill:none;stroke:#000000;stroke-width:7" />
  <path
     d="m 624.94975,942.47487 80,240.00003"
     id="path136"
     inkscape:connector-curvature="0"
     style="fill:none;stroke:#000000;stroke-width:7" />
  <path
     d="m 784.94975,942.47487 h -40 v 240.00003 h 40"
     id="path138"
     inkscape:connector-curvature="0"
     style="fill:none;stroke:#000000;stroke-width:7" />
  <path
     d="m 824.94975,942.47487 h 40 v 240.00003 h -40"
     id="path140"
     inkscape:connector-curvature="0"
     style="fill:none;stroke:#000000;stroke-width:7" />
  <path
     d="m 904.94975,1062.4749 60,-80.00003 59.99995,80.00003"
     id="path142"
     inkscape:connector-curvature="0"
     style="fill:none;stroke:#000000;stroke-width:7" />
  <path
     d="m 1064.9497,1042.4749 h 80"
     id="path144"
     inkscape:connector-curvature="0"
     style="fill:none;stroke:#000000;stroke-width:7" />
  <path
     d="m 1064.9497,1082.4749 h 80"
     id="path146"
     inkscape:connector-curvature="0"
     style="fill:none;stroke:#000000;stroke-width:7" />
  <path
     d="m 1184.9497,1062.4749 h 80"
     id="path148"
     inkscape:connector-curvature="0"
     style="fill:none;stroke:#000000;stroke-width:7" />
  <path
     d="m 1304.9497,942.47487 80,240.00003"
     id="path150"
     inkscape:connector-curvature="0"
     style="fill:none;stroke:#000000;stroke-width:7" />
  <path
     d="M 1424.9497,902.47487 V 1062.4749"
     id="path152"
     inkscape:connector-curvature="0"
     style="fill:none;stroke:#000000;stroke-width:7" />
  <path
     d="m 1424.9497,1102.4749 v 40"
     id="path154"
     inkscape:connector-curvature="0"
     style="fill:none;stroke:#000000;stroke-width:7" />
  <path
     d="m 1504.9497,1142.4749 h -40"
     id="path156"
     inkscape:connector-curvature="0"
     style="fill:none;stroke:#000000;stroke-width:7" />
  <path
     d="m 1584.9497,1142.4749 -40,40"
     id="path158"
     inkscape:connector-curvature="0"
     style="fill:none;stroke:#000000;stroke-width:7" />
  <path
     d="m 1704.9497,1022.4749 -80,40 80,40"
     id="path160"
     inkscape:connector-curvature="0"
     style="fill:none;stroke:#000000;stroke-width:7" />
  <path
     d="m 1744.9497,1022.4749 80,40 -80,40"
     id="path162"
     inkscape:connector-curvature="0"
     style="fill:none;stroke:#000000;stroke-width:7" />
  <path
     d="m 1864.9497,942.47487 v 60.00003"
     id="path164"
     inkscape:connector-curvature="0"
     style="fill:none;stroke:#000000;stroke-width:7" />
  <path
     d="m 1944.9497,982.47487 -40,160.00003"
     id="path166"
     inkscape:connector-curvature="0"
     style="fill:none;stroke:#000000;stroke-width:7" />
  <path
     d="m 1984.9497,982.47487 -40,160.00003"
     id="path168"
     inkscape:connector-curvature="0"
     style="fill:none;stroke:#000000;stroke-width:7" />
  <path
     d="m 1914.9497,1042.4749 h 70"
     id="path170"
     inkscape:connector-curvature="0"
     style="fill:none;stroke:#000000;stroke-width:7" />
  <path
     d="m 1904.9497,1082.4749 h 70"
     id="path172"
     inkscape:connector-curvature="0"
     style="fill:none;stroke:#000000;stroke-width:7" />
  <path
     d="M 2024.9497,942.47487 V 1182.4749"
     id="path174"
     inkscape:connector-curvature="0"
     style="fill:none;stroke:#000000;stroke-width:7" />
  <path
     d="m 2064.9497,1142.4749 h 80"
     id="path176"
     inkscape:connector-curvature="0"
     style="fill:none;stroke:#000000;stroke-width:7" />
  <path
     d="m 2344.9497,1022.4749 -40,-40.00003 h -40 l -40,40.00003 v 80 l 40,40 h 40 l 40,-40"
     id="path178"
     inkscape:connector-curvature="0"
     style="fill:none;stroke:#000000;stroke-width:7" />
  <path
     d="M 2344.9497,1142.4749 V 942.47487 l -40,-40 h -80 l -40,40 v 240.00003 l 40,40 h 80"
     id="path180"
     inkscape:connector-curvature="0"
     style="fill:none;stroke:#000000;stroke-width:7" />
  <path
     d="m 2504.9497,982.47487 -120,160.00003"
     id="path182"
     inkscape:connector-curvature="0"
     style="fill:none;stroke:#000000;stroke-width:7" />
  <path
     d="m 2404.9497,1002.4749 20,20 -20,20 -20,-20 20,-20"
     id="path184"
     inkscape:connector-curvature="0"
     style="fill:none;stroke:#000000;stroke-width:7" />
  <path
     d="m 2484.9497,1082.4749 20,20 -20,20 -20,-20 20,-20"
     id="path186"
     inkscape:connector-curvature="0"
     style="fill:none;stroke:#000000;stroke-width:7" />
  <path
     d="m 2544.9497,942.47487 40,-40 h 40 l 40,40 v 40 l -40,40.00003 h -40 v 40"
     id="path188"
     inkscape:connector-curvature="0"
     style="fill:none;stroke:#000000;stroke-width:7" />
  <path
     d="m 2584.9497,1102.4749 v 40"
     id="path190"
     inkscape:connector-curvature="0"
     style="fill:none;stroke:#000000;stroke-width:7" />
  <path
     d="m 2704.9497,1082.4749 20,-40 h 20 l 40,40 h 20 l 20,-40"
     id="path192"
     inkscape:connector-curvature="0"
     style="fill:none;stroke:#000000;stroke-width:7" />
  <path
     d="m 2864.9497,942.47487 v 60.00003"
     id="path194"
     inkscape:connector-curvature="0"
     style="fill:none;stroke:#000000;stroke-width:7" />
  <path
     d="m 2904.9497,942.47487 v 60.00003"
     id="path196"
     inkscape:connector-curvature="0"
     style="fill:none;stroke:#000000;stroke-width:7" />
  <path
     d="m 104.94975,1302.4749 v 240"
     id="path198"
     inkscape:connector-curvature="0"
     style="fill:none;stroke:#000000;stroke-width:7" />
  <path
     d="m 104.94975,1382.4749 h 40"
     id="path200"
     inkscape:connector-curvature="0"
     style="fill:none;stroke:#000000;stroke-width:7" />
  <path
     d="m 184.94975,1302.4749 v 240"
     id="path202"
     inkscape:connector-curvature="0"
     style="fill:none;stroke:#000000;stroke-width:7" />
  <path
     d="m 184.94975,1422.4749 40,-40 h 40 l 40,40 v 120"
     id="path204"
     inkscape:connector-curvature="0"
     style="fill:none;stroke:#000000;stroke-width:7" />
  <path
     d="m 384.94975,1462.4749 h 40 l 40,-40 -40,-40 h -40 l -40,40 v 80 l 40,40 h 40 l 40,-40"
     id="path206"
     inkscape:connector-curvature="0"
     style="fill:none;stroke:#000000;stroke-width:7" />
  <path
     d="m 704.94975,1382.4749 v 240"
     id="path208"
     inkscape:connector-curvature="0"
     style="fill:none;stroke:#000000;stroke-width:7" />
  <path
     d="m 704.94975,1422.4749 -40,-40 h -40 l -40,40 v 80 l 40,40 h 40 l 40,-40"
     id="path210"
     inkscape:connector-curvature="0"
     style="fill:none;stroke:#000000;stroke-width:7" />
  <path
     d="m 744.94975,1382.4749 v 120 l 40,40 h 40 l 40,-40"
     id="path212"
     inkscape:connector-curvature="0"
     style="fill:none;stroke:#000000;stroke-width:7" />
  <path
     d="m 864.94975,1382.4749 v 160"
     id="path214"
     inkscape:connector-curvature="0"
     style="fill:none;stroke:#000000;stroke-width:7" />
  <path
     d="m 904.94975,1382.4749 v 160"
     id="path216"
     inkscape:connector-curvature="0"
     style="fill:none;stroke:#000000;stroke-width:7" />
  <path
     d="m 904.94975,1302.4749 v 40"
     id="path218"
     inkscape:connector-curvature="0"
     style="fill:none;stroke:#000000;stroke-width:7" />
  <path
     d="m 1064.9497,1422.4749 -40,-40 h -39.99995 l -40,40 v 80 l 40,40 h 39.99995 l 40,-40"
     id="path220"
     inkscape:connector-curvature="0"
     style="fill:none;stroke:#000000;stroke-width:7" />
  <path
     d="m 1104.9497,1302.4749 v 240"
     id="path222"
     inkscape:connector-curvature="0"
     style="fill:none;stroke:#000000;stroke-width:7" />
  <path
     d="m 1104.9497,1462.4749 80,-80"
     id="path224"
     inkscape:connector-curvature="0"
     style="fill:none;stroke:#000000;stroke-width:7" />
  <path
     d="m 1144.9497,1422.4749 40,120"
     id="path226"
     inkscape:connector-curvature="0"
     style="fill:none;stroke:#000000;stroke-width:7" />
  <path
     d="m 1344.9497,1342.4749 -40,40 v 160 l 40,40"
     id="path228"
     inkscape:connector-curvature="0"
     style="fill:none;stroke:#000000;stroke-width:7" />
  <path
     d="m 1384.9497,1302.4749 v 240"
     id="path230"
     inkscape:connector-curvature="0"
     style="fill:none;stroke:#000000;stroke-width:7" />
  <path
     d="m 1384.9497,1422.4749 40,-40 h 40 l 40,40 v 80 l -40,40 h -40 l -40,-40"
     id="path232"
     inkscape:connector-curvature="0"
     style="fill:none;stroke:#000000;stroke-width:7" />
  <path
     d="m 1544.9497,1382.4749 v 160"
     id="path234"
     inkscape:connector-curvature="0"
     style="fill:none;stroke:#000000;stroke-width:7" />
  <path
     d="m 1544.9497,1422.4749 40,-40 h 40"
     id="path236"
     inkscape:connector-curvature="0"
     style="fill:none;stroke:#000000;stroke-width:7" />
  <path
     d="m 1784.9497,1422.4749 -40,-40 h -40 l -40,40 v 80 l 40,40 h 40 l 40,-40 v -80"
     id="path238"
     inkscape:connector-curvature="0"
     style="fill:none;stroke:#000000;stroke-width:7" />
  <path
     d="m 1824.9497,1382.4749 40,160 40,-160 40,160 40,-160"
     id="path240"
     inkscape:connector-curvature="0"
     style="fill:none;stroke:#000000;stroke-width:7" />
  <path
     d="m 2024.9497,1382.4749 v 160"
     id="path242"
     inkscape:connector-curvature="0"
     style="fill:none;stroke:#000000;stroke-width:7" />
  <path
     d="m 2024.9497,1422.4749 40,-40 h 40 l 40,40 v 120"
     id="path244"
     inkscape:connector-curvature="0"
     style="fill:none;stroke:#000000;stroke-width:7" />
  <path
     d="m 2184.9497,1342.4749 40,40 v 160 l -40,40"
     id="path246"
     inkscape:connector-curvature="0"
     style="fill:none;stroke:#000000;stroke-width:7" />
  <path
     d="m 2344.9497,1542.4749 v -200 l 40,-40"
     id="path248"
     inkscape:connector-curvature="0"
     style="fill:none;stroke:#000000;stroke-width:7" />
  <path
     d="m 2344.9497,1382.4749 h 40"
     id="path250"
     inkscape:connector-curvature="0"
     style="fill:none;stroke:#000000;stroke-width:7" />
  <path
     d="m 2544.9497,1422.4749 -40,-40 h -40 l -40,40 v 80 l 40,40 h 40 l 40,-40 v -80"
     id="path252"
     inkscape:connector-curvature="0"
     style="fill:none;stroke:#000000;stroke-width:7" />
  <path
     d="m 2584.9497,1382.4749 120,160"
     id="path254"
     inkscape:connector-curvature="0"
     style="fill:none;stroke:#000000;stroke-width:7" />
  <path
     d="m 2704.9497,1382.4749 -120,160"
     id="path256"
     inkscape:connector-curvature="0"
     style="fill:none;stroke:#000000;stroke-width:7" />
  <path
     d="m 144.94975,1782.4749 v 200 l -40,40"
     id="path258"
     inkscape:connector-curvature="0"
     style="fill:none;stroke:#000000;stroke-width:7" />
  <path
     d="m 144.94975,1702.4749 v 40"
     id="path260"
     inkscape:connector-curvature="0"
     style="fill:none;stroke:#000000;stroke-width:7" />
  <path
     d="m 184.94975,1782.4749 v 120 l 40,40 h 40 l 40,-40"
     id="path262"
     inkscape:connector-curvature="0"
     style="fill:none;stroke:#000000;stroke-width:7" />
  <path
     d="m 304.94975,1782.4749 v 160"
     id="path264"
     inkscape:connector-curvature="0"
     style="fill:none;stroke:#000000;stroke-width:7" />
  <path
     d="m 344.94975,1782.4749 v 160"
     id="path266"
     inkscape:connector-curvature="0"
     style="fill:none;stroke:#000000;stroke-width:7" />
  <path
     d="m 344.94975,1822.4749 40,-40 h 40 l 40,40 v 120"
     id="path268"
     inkscape:connector-curvature="0"
     style="fill:none;stroke:#000000;stroke-width:7" />
  <path
     d="m 464.94975,1822.4749 40,-40 h 40 l 40,40 v 120"
     id="path270"
     inkscape:connector-curvature="0"
     style="fill:none;stroke:#000000;stroke-width:7" />
  <path
     d="m 624.94975,1782.4749 v 240"
     id="path272"
     inkscape:connector-curvature="0"
     style="fill:none;stroke:#000000;stroke-width:7" />
  <path
     d="m 624.94975,1822.4749 40,-40 h 40 l 40,40 v 80 l -40,40 h -40 l -40,-40"
     id="path274"
     inkscape:connector-curvature="0"
     style="fill:none;stroke:#000000;stroke-width:7" />
  <path
     d="m 904.94975,1822.4749 -40,-40 h -40 l -40,40 40,40 h 40 l 40,40 -40,40 h -40 l -40,-40"
     id="path276"
     inkscape:connector-curvature="0"
     style="fill:none;stroke:#000000;stroke-width:7" />
  <path
     d="m 1144.9497,1822.4749 -40,-40 h -40 l -40,40 v 80 l 40,40 h 40 l 40,-40 v -80"
     id="path278"
     inkscape:connector-curvature="0"
     style="fill:none;stroke:#000000;stroke-width:7" />
  <path
     d="m 1184.9497,1782.4749 60,160 60,-160"
     id="path280"
     inkscape:connector-curvature="0"
     style="fill:none;stroke:#000000;stroke-width:7" />
  <path
     d="m 1384.9497,1862.4749 h 40 l 40,-40 -40,-40 h -40 l -40,40 v 80 l 40,40 h 40 l 40,-40"
     id="path282"
     inkscape:connector-curvature="0"
     style="fill:none;stroke:#000000;stroke-width:7" />
  <path
     d="m 1504.9497,1782.4749 v 160"
     id="path284"
     inkscape:connector-curvature="0"
     style="fill:none;stroke:#000000;stroke-width:7" />
  <path
     d="m 1504.9497,1822.4749 40,-40 h 40"
     id="path286"
     inkscape:connector-curvature="0"
     style="fill:none;stroke:#000000;stroke-width:7" />
  <path
     d="m 1704.9497,1702.4749 v 240"
     id="path288"
     inkscape:connector-curvature="0"
     style="fill:none;stroke:#000000;stroke-width:7" />
  <path
     d="m 1704.9497,1782.4749 h 40"
     id="path290"
     inkscape:connector-curvature="0"
     style="fill:none;stroke:#000000;stroke-width:7" />
  <path
     d="m 1784.9497,1702.4749 v 240"
     id="path292"
     inkscape:connector-curvature="0"
     style="fill:none;stroke:#000000;stroke-width:7" />
  <path
     d="m 1784.9497,1822.4749 40,-40 h 40 l 40,40 v 120"
     id="path294"
     inkscape:connector-curvature="0"
     style="fill:none;stroke:#000000;stroke-width:7" />
  <path
     d="m 1984.9497,1862.4749 h 40 l 40,-40 -40,-40 h -40 l -40,40 v 80 l 40,40 h 40 l 40,-40"
     id="path296"
     inkscape:connector-curvature="0"
     style="fill:none;stroke:#000000;stroke-width:7" />
  <path
     d="m 2184.9497,1702.4749 v 240"
     id="path298"
     inkscape:connector-curvature="0"
     style="fill:none;stroke:#000000;stroke-width:7" />
  <path
     d="m 2344.9497,1782.4749 v 160"
     id="path300"
     inkscape:connector-curvature="0"
     style="fill:none;stroke:#000000;stroke-width:7" />
  <path
     d="m 2344.9497,1822.4749 -40,-40 h -40 l -40,40 v 80 l 40,40 h 40 l 40,-40"
     id="path302"
     inkscape:connector-curvature="0"
     style="fill:none;stroke:#000000;stroke-width:7" />
  <path
     d="m 2384.9497,1782.4749 h 120 l -120,160 h 120"
     id="path304"
     inkscape:connector-curvature="0"
     style="fill:none;stroke:#000000;stroke-width:7" />
  <path
     d="m 2544.9497,1782.4749 60,160"
     id="path306"
     inkscape:connector-curvature="0"
     style="fill:none;stroke:#000000;stroke-width:7" />
  <path
     d="m 2664.9497,1782.4749 -60,160 -20,40 -40,40"
     id="path308"
     inkscape:connector-curvature="0"
     style="fill:none;stroke:#000000;stroke-width:7" />
  <path
     d="m 2904.9497,1702.4749 v 240"
     id="path310"
     inkscape:connector-curvature="0"
     style="fill:none;stroke:#000000;stroke-width:7" />
  <path
     d="m 2904.9497,1822.4749 -40,-40 h -40 l -40,40 v 80 l 40,40 h 40 l 40,-40"
     id="path312"
     inkscape:connector-curvature="0"
     style="fill:none;stroke:#000000;stroke-width:7" />
  <path
     d="m 3064.9497,1822.4749 -40,-40 h -40 l -40,40 v 80 l 40,40 h 40 l 40,-40 v -80"
     id="path314"
     inkscape:connector-curvature="0"
     style="fill:none;stroke:#000000;stroke-width:7" />
  <path
     d="m 3224.9497,1822.4749 -40,-40 h -40 l -40,40 v 80 l 40,40 h 40 l 40,-40"
     id="path316"
     inkscape:connector-curvature="0"
     style="fill:none;stroke:#000000;stroke-width:7" />
  <path
     d="m 3224.9497,1782.4749 v 200 l -40,40 h -40"
     id="path318"
     inkscape:connector-curvature="0"
     style="fill:none;stroke:#000000;stroke-width:7" />
  <path
     d="m 3264.9497,1742.4749 80,240"
     id="path320"
     inkscape:connector-curvature="0"
     style="fill:none;stroke:#000000;stroke-width:7" />
  <path
     d="m 3384.9497,1702.4749 v 160"
     id="path322"
     inkscape:connector-curvature="0"
     style="fill:none;stroke:#000000;stroke-width:7" />
  <path
     d="m 3384.9497,1902.4749 v 40"
     id="path324"
     inkscape:connector-curvature="0"
     style="fill:none;stroke:#000000;stroke-width:7" />
</svg>
