<?xml version="1.0" encoding="UTF-8" standalone="no"?>
<svg
   xmlns:dc="http://purl.org/dc/elements/1.1/"
   xmlns:cc="http://creativecommons.org/ns#"
   xmlns:rdf="http://www.w3.org/1999/02/22-rdf-syntax-ns#"
   xmlns:svg="http://www.w3.org/2000/svg"
   xmlns="http://www.w3.org/2000/svg"
   xmlns:sodipodi="http://sodipodi.sourceforge.net/DTD/sodipodi-0.dtd"
   xmlns:inkscape="http://www.inkscape.org/namespaces/inkscape"
   height="2526.6306"
   version="1.2"
   width="3727.4131"
   id="svg386"
   sodipodi:docname="img.svg"
   inkscape:version="0.92.3 (2405546, 2018-03-11)">
  <metadata
     id="metadata390">
    <rdf:RDF>
      <cc:Work
         rdf:about="">
        <dc:format>image/svg+xml</dc:format>
        <dc:type
           rdf:resource="http://purl.org/dc/dcmitype/StillImage" />
        <dc:title></dc:title>
      </cc:Work>
    </rdf:RDF>
  </metadata>
  <sodipodi:namedview
     pagecolor="#ffffff"
     bordercolor="#666666"
     borderopacity="1"
     objecttolerance="10"
     gridtolerance="10"
     guidetolerance="10"
     inkscape:pageopacity="0"
     inkscape:pageshadow="2"
     inkscape:window-width="2560"
     inkscape:window-height="1600"
     id="namedview388"
     showgrid="false"
     fit-margin-top="100"
     fit-margin-left="100"
     fit-margin-bottom="100"
     fit-margin-right="100"
     inkscape:zoom="0.236"
     inkscape:cx="1823.3332"
     inkscape:cy="1646.8763"
     inkscape:window-x="1440"
     inkscape:window-y="0"
     inkscape:window-maximized="0"
     inkscape:current-layer="svg386" />
  <defs
     id="defs2" />
  <path
     d="m 223.91312,183.1305 v 160"
     id="path4"
     inkscape:connector-curvature="0"
     style="fill:none;stroke:#000000;stroke-width:7" />
  <path
     d="m 223.91312,236.46383 -6.66667,-26.66666 -20,-20 -20,-6.66667 h -26.66666 l -20,6.66667 -20,20 -6.66667,26.66666 v 53.33334 l 6.66667,26.66666 20,20 20,6.66667 h 26.66666 l 20,-6.66667 20,-20 6.66667,-26.66666"
     id="path6"
     inkscape:connector-curvature="0"
     style="fill:none;stroke:#000000;stroke-width:7" />
  <path
     d="m 263.91312,103.1305 v 240"
     id="path8"
     inkscape:connector-curvature="0"
     style="fill:none;stroke:#000000;stroke-width:7" />
  <path
     d="m 263.91312,236.46383 6.66667,-26.66666 20,-20 20,-6.66667 h 26.66666 l 20,6.66667 20,20 6.66667,26.66666 v 53.33334 l -6.66667,26.66666 -20,20 -20,6.66667 h -26.66666 l -20,-6.66667 -20,-20 -6.66667,-26.66666"
     id="path10"
     inkscape:connector-curvature="0"
     style="fill:none;stroke:#000000;stroke-width:7" />
  <path
     d="m 543.91312,236.46383 -6.66667,-26.66666 -20,-20 -20,-6.66667 h -26.66666 l -20,6.66667 -20,20 -6.66667,26.66666 v 53.33334 l 6.66667,26.66666 20,20 20,6.66667 h 26.66666 l 20,-6.66667 20,-20 6.66667,-26.66666"
     id="path12"
     inkscape:connector-curvature="0"
     style="fill:none;stroke:#000000;stroke-width:7" />
  <path
     d="m 703.91312,103.1305 v 240"
     id="path14"
     inkscape:connector-curvature="0"
     style="fill:none;stroke:#000000;stroke-width:7" />
  <path
     d="m 703.91312,236.46383 -6.66667,-26.66666 -20,-20 -20,-6.66667 h -26.66666 l -20,6.66667 -20,20 -6.66667,26.66666 v 53.33334 l 6.66667,26.66666 20,20 20,6.66667 h 26.66666 l 20,-6.66667 20,-20 6.66667,-26.66666"
     id="path16"
     inkscape:connector-curvature="0"
     style="fill:none;stroke:#000000;stroke-width:7" />
  <path
     d="m 743.91312,249.79717 h 120 v -13.33334 l -6.66667,-26.66666 -20,-20 -20,-6.66667 h -26.66666 l -20,6.66667 -20,20 -6.66667,26.66666 v 53.33334 l 6.66667,26.66666 20,20 20,6.66667 h 26.66666 l 20,-6.66667 20,-20 6.66667,-26.66666"
     id="path18"
     inkscape:connector-curvature="0"
     style="fill:none;stroke:#000000;stroke-width:7" />
  <path
     d="m 903.91312,343.1305 v -200 l 13.33333,-26.66667 26.66667,-13.33333"
     id="path20"
     inkscape:connector-curvature="0"
     style="fill:none;stroke:#000000;stroke-width:7" />
  <path
     d="m 903.91312,183.1305 h 40"
     id="path22"
     inkscape:connector-curvature="0"
     style="fill:none;stroke:#000000;stroke-width:7" />
  <path
     d="m 1103.9131,236.46383 -6.6667,-26.66666 -20,-20 -20,-6.66667 h -26.6666 l -20,6.66667 -20.00001,20 -6.66667,26.66666 v 53.33334 l 6.66667,26.66666 20.00001,20 20,6.66667 h 26.6666 l 20,-6.66667 20,-20 6.6667,-26.66666"
     id="path24"
     inkscape:connector-curvature="0"
     style="fill:none;stroke:#000000;stroke-width:7" />
  <path
     d="m 1103.9131,183.1305 v 186.66667 l -6.6667,26.66666 -20,20 -20,6.66667 h -40"
     id="path26"
     inkscape:connector-curvature="0"
     style="fill:none;stroke:#000000;stroke-width:7" />
  <path
     d="m 1143.9131,103.1305 v 240"
     id="path28"
     inkscape:connector-curvature="0"
     style="fill:none;stroke:#000000;stroke-width:7" />
  <path
     d="m 1143.9131,236.46383 6.6667,-26.66666 20,-20 20,-6.66667 h 26.6666 l 20,6.66667 20,20 6.6667,26.66666 V 343.1305"
     id="path30"
     inkscape:connector-curvature="0"
     style="fill:none;stroke:#000000;stroke-width:7" />
  <path
     d="m 1303.9131,183.1305 v 160"
     id="path32"
     inkscape:connector-curvature="0"
     style="fill:none;stroke:#000000;stroke-width:7" />
  <path
     d="m 1303.9131,103.1305 v 40"
     id="path34"
     inkscape:connector-curvature="0"
     style="fill:none;stroke:#000000;stroke-width:7" />
  <path
     d="m 1383.9131,183.1305 v 200 l -13.3333,26.66667 -26.6667,13.33333"
     id="path36"
     inkscape:connector-curvature="0"
     style="fill:none;stroke:#000000;stroke-width:7" />
  <path
     d="m 1383.9131,103.1305 v 40"
     id="path38"
     inkscape:connector-curvature="0"
     style="fill:none;stroke:#000000;stroke-width:7" />
  <path
     d="m 1423.9131,103.1305 v 240"
     id="path40"
     inkscape:connector-curvature="0"
     style="fill:none;stroke:#000000;stroke-width:7" />
  <path
     d="m 1423.9131,263.1305 80,-80"
     id="path42"
     inkscape:connector-curvature="0"
     style="fill:none;stroke:#000000;stroke-width:7" />
  <path
     d="m 1463.9131,223.1305 40,120"
     id="path44"
     inkscape:connector-curvature="0"
     style="fill:none;stroke:#000000;stroke-width:7" />
  <path
     d="m 1543.9131,103.1305 v 240"
     id="path46"
     inkscape:connector-curvature="0"
     style="fill:none;stroke:#000000;stroke-width:7" />
  <path
     d="m 1583.9131,183.1305 v 160"
     id="path48"
     inkscape:connector-curvature="0"
     style="fill:none;stroke:#000000;stroke-width:7" />
  <path
     d="m 1583.9131,236.46383 6.6667,-26.66666 20,-20 20,-6.66667 h 26.6666 l 20,6.66667 20,20 6.6667,26.66666 V 343.1305"
     id="path50"
     inkscape:connector-curvature="0"
     style="fill:none;stroke:#000000;stroke-width:7" />
  <path
     d="m 1703.9131,236.46383 6.6667,-26.66666 20,-20 20,-6.66667 h 26.6666 l 20,6.66667 20,20 6.6667,26.66666 V 343.1305"
     id="path52"
     inkscape:connector-curvature="0"
     style="fill:none;stroke:#000000;stroke-width:7" />
  <path
     d="m 1863.9131,183.1305 v 160"
     id="path54"
     inkscape:connector-curvature="0"
     style="fill:none;stroke:#000000;stroke-width:7" />
  <path
     d="m 1863.9131,236.46383 6.6667,-26.66666 20,-20 20,-6.66667 h 26.6666 l 20,6.66667 20,20 6.6667,26.66666 V 343.1305"
     id="path56"
     inkscape:connector-curvature="0"
     style="fill:none;stroke:#000000;stroke-width:7" />
  <path
     d="m 2143.9131,236.46383 -6.6667,-26.66666 -20,-20 -20,-6.66667 h -26.6666 l -20,6.66667 -20,20 -6.6667,26.66666 v 53.33334 l 6.6667,26.66666 20,20 20,6.66667 h 26.6666 l 20,-6.66667 20,-20 6.6667,-26.66666 v -53.33334"
     id="path58"
     inkscape:connector-curvature="0"
     style="fill:none;stroke:#000000;stroke-width:7" />
  <path
     d="m 2183.9131,183.1305 v 240"
     id="path60"
     inkscape:connector-curvature="0"
     style="fill:none;stroke:#000000;stroke-width:7" />
  <path
     d="m 2183.9131,236.46383 6.6667,-26.66666 20,-20 20,-6.66667 h 26.6666 l 20,6.66667 20,20 6.6667,26.66666 v 53.33334 l -6.6667,26.66666 -20,20 -20,6.66667 h -26.6666 l -20,-6.66667 -20,-20 -6.6667,-26.66666"
     id="path62"
     inkscape:connector-curvature="0"
     style="fill:none;stroke:#000000;stroke-width:7" />
  <path
     d="m 2463.9131,183.1305 v 240"
     id="path64"
     inkscape:connector-curvature="0"
     style="fill:none;stroke:#000000;stroke-width:7" />
  <path
     d="m 2463.9131,236.46383 -6.6667,-26.66666 -20,-20 -20,-6.66667 h -26.6666 l -20,6.66667 -20,20 -6.6667,26.66666 v 53.33334 l 6.6667,26.66666 20,20 20,6.66667 h 26.6666 l 20,-6.66667 20,-20 6.6667,-26.66666"
     id="path66"
     inkscape:connector-curvature="0"
     style="fill:none;stroke:#000000;stroke-width:7" />
  <path
     d="m 2503.9131,183.1305 v 160"
     id="path68"
     inkscape:connector-curvature="0"
     style="fill:none;stroke:#000000;stroke-width:7" />
  <path
     d="m 2503.9131,236.46383 6.6667,-26.66666 20,-20 20,-6.66667 h 33.3333"
     id="path70"
     inkscape:connector-curvature="0"
     style="fill:none;stroke:#000000;stroke-width:7" />
  <path
     d="M 223.91312,623.1305 210.57979,596.46383 183.91312,583.1305 h -40 l -26.66667,13.33333 -13.33333,26.66667 13.33333,26.66667 26.66667,13.33333 h 40 l 26.66667,13.33333 13.33333,26.66667 -13.33333,26.66667 -26.66667,13.33333 h -40 L 117.24645,729.79717 103.91312,703.1305"
     id="path72"
     inkscape:connector-curvature="0"
     style="fill:none;stroke:#000000;stroke-width:7" />
  <path
     d="m 263.91312,503.1305 v 240"
     id="path74"
     inkscape:connector-curvature="0"
     style="fill:none;stroke:#000000;stroke-width:7" />
  <path
     d="m 263.91312,583.1305 h 40"
     id="path76"
     inkscape:connector-curvature="0"
     style="fill:none;stroke:#000000;stroke-width:7" />
  <path
     d="m 343.91312,583.1305 v 106.66667 l 6.66667,26.66666 20,20 20,6.66667 h 26.66666 l 20,-6.66667 20,-20 6.66667,-26.66666"
     id="path78"
     inkscape:connector-curvature="0"
     style="fill:none;stroke:#000000;stroke-width:7" />
  <path
     d="m 463.91312,583.1305 v 160"
     id="path80"
     inkscape:connector-curvature="0"
     style="fill:none;stroke:#000000;stroke-width:7" />
  <path
     d="m 503.91312,583.1305 60,160 60,-160"
     id="path82"
     inkscape:connector-curvature="0"
     style="fill:none;stroke:#000000;stroke-width:7" />
  <path
     d="m 663.91312,583.1305 40,160 40,-160 40,160 40,-160"
     id="path84"
     inkscape:connector-curvature="0"
     style="fill:none;stroke:#000000;stroke-width:7" />
  <path
     d="m 863.91312,583.1305 120,160"
     id="path86"
     inkscape:connector-curvature="0"
     style="fill:none;stroke:#000000;stroke-width:7" />
  <path
     d="m 983.91312,583.1305 -120,160"
     id="path88"
     inkscape:connector-curvature="0"
     style="fill:none;stroke:#000000;stroke-width:7" />
  <path
     d="m 1023.9131,583.1305 60,160"
     id="path90"
     inkscape:connector-curvature="0"
     style="fill:none;stroke:#000000;stroke-width:7" />
  <path
     d="m 1143.9131,583.1305 -60,160 -20,40 -40,40"
     id="path92"
     inkscape:connector-curvature="0"
     style="fill:none;stroke:#000000;stroke-width:7" />
  <path
     d="m 1183.9131,583.1305 h 120 l -120,160 h 120"
     id="path94"
     inkscape:connector-curvature="0"
     style="fill:none;stroke:#000000;stroke-width:7" />
  <path
     d="m 1343.9131,623.1305 40,-40 v 160"
     id="path96"
     inkscape:connector-curvature="0"
     style="fill:none;stroke:#000000;stroke-width:7" />
  <path
     d="m 1423.9131,629.79717 6.6667,-26.66667 20,-20 20,-6.66667 h 26.6666 l 20,6.66667 20,20 6.6667,26.66667 -6.6667,26.66666 -86.6666,33.33334 -20,20 -6.6667,20 v 13.33333 h 120"
     id="path98"
     inkscape:connector-curvature="0"
     style="fill:none;stroke:#000000;stroke-width:7" />
  <path
     d="m 1583.9131,583.1305 h 120 l -6.6667,26.66667 -20,33.33333 -53.3333,20 53.3333,13.33333 26.6667,26.66667 v 66.66667 l -6.6667,26.66666 -20,20 -20,6.66667 h -26.6666 l -20,-6.66667 -20,-20 -6.6667,-26.66666"
     id="path100"
     inkscape:connector-curvature="0"
     style="fill:none;stroke:#000000;stroke-width:7" />
  <path
     d="m 1743.9131,583.1305 v 80 l 13.3333,26.66667 26.6667,13.33333 h 80"
     id="path102"
     inkscape:connector-curvature="0"
     style="fill:none;stroke:#000000;stroke-width:7" />
  <path
     d="m 1863.9131,583.1305 v 240"
     id="path104"
     inkscape:connector-curvature="0"
     style="fill:none;stroke:#000000;stroke-width:7" />
  <path
     d="m 2023.9131,583.1305 h -120 v 80 h 73.3333 l 20,6.66667 20,20 6.6667,26.66666 v 53.33334 l -6.6667,26.66666 -20,20 -20,6.66667 h -73.3333"
     id="path106"
     inkscape:connector-curvature="0"
     style="fill:none;stroke:#000000;stroke-width:7" />
  <path
     d="m 2183.9131,556.46383 -6.6667,-26.66666 -20,-20 -20,-6.66667 h -26.6666 l -20,6.66667 -20,20 -6.6667,26.66666 v 133.33334 l 6.6667,26.66666 20,20 20,6.66667 h 26.6666 l 20,-6.66667 20,-20 6.6667,-26.66666 v -53.33334 l -6.6667,-26.66666 -20,-20 -20,-6.66667 h -26.6666 l -20,6.66667 -20,20 -6.6667,26.66666"
     id="path108"
     inkscape:connector-curvature="0"
     style="fill:none;stroke:#000000;stroke-width:7" />
  <path
     d="m 2223.9131,583.1305 h 120 l -120,240"
     id="path110"
     inkscape:connector-curvature="0"
     style="fill:none;stroke:#000000;stroke-width:7" />
  <path
     d="m 2423.9131,623.1305 -26.6667,-13.33333 -13.3333,-26.66667 v -40 l 13.3333,-26.66667 26.6667,-13.33333 h 40 l 26.6667,13.33333 13.3333,26.66667 v 40 l -13.3333,26.66667 -26.6667,13.33333 h -40 l -26.6667,13.33333 -13.3333,26.66667 v 40 l 13.3333,26.66667 26.6667,13.33333 h 40 l 26.6667,-13.33333 13.3333,-26.66667 v -40 l -13.3333,-26.66667 -26.6667,-13.33333"
     id="path112"
     inkscape:connector-curvature="0"
     style="fill:none;stroke:#000000;stroke-width:7" />
  <path
     d="m 2663.9131,689.79717 -6.6667,26.66666 -20,20 -20,6.66667 h -26.6666 l -20,-6.66667 -20,-20 -6.6667,-26.66666 v -53.33334 l 6.6667,-26.66666 20,-20 20,-6.66667 h 26.6666 l 20,6.66667 20,20 6.6667,26.66666 v 133.33334 l -6.6667,26.66666 -20,20 -20,6.66667 h -26.6666 l -20,-6.66667 -20,-20 -6.6667,-26.66666"
     id="path114"
     inkscape:connector-curvature="0"
     style="fill:none;stroke:#000000;stroke-width:7" />
  <path
     d="m 2823.9131,636.46383 -6.6667,-26.66666 -20,-20 -20,-6.66667 h -26.6666 l -20,6.66667 -20,20 -6.6667,26.66666 v 53.33334 l 6.6667,26.66666 20,20 20,6.66667 h 26.6666 l 20,-6.66667 20,-20 6.6667,-26.66666 v -53.33334"
     id="path116"
     inkscape:connector-curvature="0"
     style="fill:none;stroke:#000000;stroke-width:7" />
  <path
     d="m 2803.9131,603.1305 -80,120"
     id="path118"
     inkscape:connector-curvature="0"
     style="fill:none;stroke:#000000;stroke-width:7" />
  <path
     d="m 143.91312,1023.1305 v 40"
     id="path120"
     inkscape:connector-curvature="0"
     style="fill:none;stroke:#000000;stroke-width:7" />
  <path
     d="m 103.91312,1053.1305 40,10 40,-10"
     id="path122"
     inkscape:connector-curvature="0"
     style="fill:none;stroke:#000000;stroke-width:7" />
  <path
     d="m 113.91312,1103.1305 30,-40 30,40"
     id="path124"
     inkscape:connector-curvature="0"
     style="fill:none;stroke:#000000;stroke-width:7" />
  <path
     d="m 383.91312,1063.1305 -26.66667,13.3333 -13.33333,26.6667 -13.33333,26.6667 -26.66667,13.3333 h -40 l -26.66667,-13.3333 -13.33333,-26.6667 v -40 l 13.33333,-26.6667 26.66667,-13.3333"
     id="path126"
     inkscape:connector-curvature="0"
     style="fill:none;stroke:#000000;stroke-width:7" />
  <path
     d="m 383.91312,1143.1305 -40,-40 -120,-120 13.33333,-26.66667 26.66667,-13.33333 26.66667,13.33333 13.33333,26.66667"
     id="path128"
     inkscape:connector-curvature="0"
     style="fill:none;stroke:#000000;stroke-width:7" />
  <path
     d="m 423.91312,1063.1305 h 80"
     id="path130"
     inkscape:connector-curvature="0"
     style="fill:none;stroke:#000000;stroke-width:7" />
  <path
     d="m 463.91312,1023.1305 v 80"
     id="path132"
     inkscape:connector-curvature="0"
     style="fill:none;stroke:#000000;stroke-width:7" />
  <path
     d="M 663.91312,1023.1305 650.57979,996.46383 623.91312,983.1305 h -40 l -26.66667,13.33333 -13.33333,26.66667 13.33333,26.6667 26.66667,13.3333 h 40 l 26.66667,13.3333 13.33333,26.6667 -13.33333,26.6667 -26.66667,13.3333 h -40 l -26.66667,-13.3333 -13.33333,-26.6667"
     id="path134"
     inkscape:connector-curvature="0"
     style="fill:none;stroke:#000000;stroke-width:7" />
  <path
     d="m 603.91312,943.1305 v 240"
     id="path136"
     inkscape:connector-curvature="0"
     style="fill:none;stroke:#000000;stroke-width:7" />
  <path
     d="m 743.91312,943.1305 -13.33333,13.33333 -13.33334,26.66667 13.33334,40 v 33.3333 l -26.66667,6.6667 26.66667,6.6667 v 33.3333 l -13.33334,40 13.33334,26.6667 13.33333,13.3333"
     id="path138"
     inkscape:connector-curvature="0"
     style="fill:none;stroke:#000000;stroke-width:7" />
  <path
     d="m 783.91312,943.1305 13.33333,13.33333 13.33334,26.66667 -13.33334,40 v 33.3333 l 26.66667,6.6667 -26.66667,6.6667 v 33.3333 l 13.33334,40 -13.33334,26.6667 -13.33333,13.3333"
     id="path140"
     inkscape:connector-curvature="0"
     style="fill:none;stroke:#000000;stroke-width:7" />
  <path
     d="m 903.91312,943.1305 -26.66667,13.33333 -13.33333,26.66667 v 160 l 13.33333,26.6667 26.66667,13.3333"
     id="path142"
     inkscape:connector-curvature="0"
     style="fill:none;stroke:#000000;stroke-width:7" />
  <path
     d="m 943.91312,943.1305 26.66667,13.33333 13.33333,26.66667 v 160 l -13.33333,26.6667 -26.66667,13.3333"
     id="path144"
     inkscape:connector-curvature="0"
     style="fill:none;stroke:#000000;stroke-width:7" />
  <path
     d="m 1103.9131,943.1305 -80,240"
     id="path146"
     inkscape:connector-curvature="0"
     style="fill:none;stroke:#000000;stroke-width:7" />
  <path
     d="m 1143.9131,943.1305 80,240"
     id="path148"
     inkscape:connector-curvature="0"
     style="fill:none;stroke:#000000;stroke-width:7" />
  <path
     d="m 1303.9131,943.1305 h -40 v 240 h 40"
     id="path150"
     inkscape:connector-curvature="0"
     style="fill:none;stroke:#000000;stroke-width:7" />
  <path
     d="m 1343.9131,943.1305 h 40 v 240 h -40"
     id="path152"
     inkscape:connector-curvature="0"
     style="fill:none;stroke:#000000;stroke-width:7" />
  <path
     d="m 1423.9131,1063.1305 60,-80 60,80"
     id="path154"
     inkscape:connector-curvature="0"
     style="fill:none;stroke:#000000;stroke-width:7" />
  <path
     d="m 1583.9131,1043.1305 h 80"
     id="path156"
     inkscape:connector-curvature="0"
     style="fill:none;stroke:#000000;stroke-width:7" />
  <path
     d="m 1583.9131,1083.1305 h 80"
     id="path158"
     inkscape:connector-curvature="0"
     style="fill:none;stroke:#000000;stroke-width:7" />
  <path
     d="m 1703.9131,1063.1305 h 80"
     id="path160"
     inkscape:connector-curvature="0"
     style="fill:none;stroke:#000000;stroke-width:7" />
  <path
     d="m 1823.9131,943.1305 80,240"
     id="path162"
     inkscape:connector-curvature="0"
     style="fill:none;stroke:#000000;stroke-width:7" />
  <path
     d="m 1963.9131,903.1305 v 160"
     id="path164"
     inkscape:connector-curvature="0"
     style="fill:none;stroke:#000000;stroke-width:7" />
  <path
     d="m 1963.9131,1103.1305 13.3333,6.6667 6.6667,13.3333 -6.6667,13.3333 -13.3333,6.6667 -13.3333,-6.6667 -6.6667,-13.3333 6.6667,-13.3333 13.3333,-6.6667"
     id="path166"
     inkscape:connector-curvature="0"
     style="fill:none;stroke:#000000;stroke-width:7" />
  <path
     d="m 2043.9131,1103.1305 13.3333,6.6667 6.6667,13.3333 -6.6667,13.3333 -13.3333,6.6667 -13.3333,-6.6667 -6.6667,-13.3333 6.6667,-13.3333 13.3333,-6.6667"
     id="path168"
     inkscape:connector-curvature="0"
     style="fill:none;stroke:#000000;stroke-width:7" />
  <path
     d="m 2143.9131,1143.1305 -13.3333,26.6667 -26.6667,13.3333"
     id="path170"
     inkscape:connector-curvature="0"
     style="fill:none;stroke:#000000;stroke-width:7" />
  <path
     d="m 2263.9131,1023.1305 -80,40 80,40"
     id="path172"
     inkscape:connector-curvature="0"
     style="fill:none;stroke:#000000;stroke-width:7" />
  <path
     d="m 2303.9131,1023.1305 80,40 -80,40"
     id="path174"
     inkscape:connector-curvature="0"
     style="fill:none;stroke:#000000;stroke-width:7" />
  <path
     d="m 2423.9131,943.1305 v 60"
     id="path176"
     inkscape:connector-curvature="0"
     style="fill:none;stroke:#000000;stroke-width:7" />
  <path
     d="m 2503.9131,983.1305 -40,160"
     id="path178"
     inkscape:connector-curvature="0"
     style="fill:none;stroke:#000000;stroke-width:7" />
  <path
     d="m 2543.9131,983.1305 -40,160"
     id="path180"
     inkscape:connector-curvature="0"
     style="fill:none;stroke:#000000;stroke-width:7" />
  <path
     d="m 2473.9131,1043.1305 h 70"
     id="path182"
     inkscape:connector-curvature="0"
     style="fill:none;stroke:#000000;stroke-width:7" />
  <path
     d="m 2463.9131,1083.1305 h 70"
     id="path184"
     inkscape:connector-curvature="0"
     style="fill:none;stroke:#000000;stroke-width:7" />
  <path
     d="m 2583.9131,943.1305 v 240"
     id="path186"
     inkscape:connector-curvature="0"
     style="fill:none;stroke:#000000;stroke-width:7" />
  <path
     d="m 2623.9131,1143.1305 h 80"
     id="path188"
     inkscape:connector-curvature="0"
     style="fill:none;stroke:#000000;stroke-width:7" />
  <path
     d="m 2763.9131,983.1305 13.3333,6.66667 6.6667,13.33333 -6.6667,13.3333 -13.3333,6.6667 -13.3333,-6.6667 -6.6667,-13.3333 6.6667,-13.33333 13.3333,-6.66667"
     id="path190"
     inkscape:connector-curvature="0"
     style="fill:none;stroke:#000000;stroke-width:7" />
  <path
     d="m 2763.9131,1103.1305 13.3333,6.6667 6.6667,13.3333 -6.6667,13.3333 -13.3333,6.6667 -13.3333,-6.6667 -6.6667,-13.3333 6.6667,-13.3333 13.3333,-6.6667"
     id="path192"
     inkscape:connector-curvature="0"
     style="fill:none;stroke:#000000;stroke-width:7" />
  <path
     d="m 2843.9131,983.1305 v 0 l 13.3333,6.66667 6.6667,13.33333 -6.6667,13.3333 -13.3333,6.6667 -13.3333,-6.6667 -6.6667,-13.3333 6.6667,-13.33333 13.3333,-6.66667"
     id="path194"
     inkscape:connector-curvature="0"
     style="fill:none;stroke:#000000;stroke-width:7" />
  <path
     d="m 2863.9131,1143.1305 -13.3333,26.6667 -26.6667,13.3333"
     id="path196"
     inkscape:connector-curvature="0"
     style="fill:none;stroke:#000000;stroke-width:7" />
  <path
     d="m 3063.9131,1036.4638 -6.6667,-26.6666 -20,-20.00003 -20,-6.66667 h -26.6666 l -20,6.66667 -20,20.00003 -6.6667,26.6666 v 53.3334 l 6.6667,26.6666 20,20 20,6.6667 h 26.6666 l 20,-6.6667 20,-20 6.6667,-26.6666"
     id="path198"
     inkscape:connector-curvature="0"
     style="fill:none;stroke:#000000;stroke-width:7" />
  <path
     d="M 3063.9131,1143.1305 V 956.46383 l -6.6667,-26.66666 -20,-20 -20,-6.66667 h -40 -26.6666 l -20,6.66667 -20,20 -6.6667,26.66666 v 213.33337 l 6.6667,26.6666 20,20 20,6.6667 h 73.3333"
     id="path200"
     inkscape:connector-curvature="0"
     style="fill:none;stroke:#000000;stroke-width:7" />
  <path
     d="m 3223.9131,983.1305 -120,160"
     id="path202"
     inkscape:connector-curvature="0"
     style="fill:none;stroke:#000000;stroke-width:7" />
  <path
     d="m 3123.9131,1003.1305 13.3333,6.6667 6.6667,13.3333 -6.6667,13.3333 -13.3333,6.6667 -13.3333,-6.6667 -6.6667,-13.3333 6.6667,-13.3333 13.3333,-6.6667"
     id="path204"
     inkscape:connector-curvature="0"
     style="fill:none;stroke:#000000;stroke-width:7" />
  <path
     d="m 3203.9131,1083.1305 13.3333,6.6667 6.6667,13.3333 -6.6667,13.3333 -13.3333,6.6667 -13.3333,-6.6667 -6.6667,-13.3333 6.6667,-13.3333 13.3333,-6.6667"
     id="path206"
     inkscape:connector-curvature="0"
     style="fill:none;stroke:#000000;stroke-width:7" />
  <path
     d="m 3263.9131,956.46383 6.6667,-26.66666 20,-20 20,-6.66667 h 26.6666 l 20,6.66667 20,20 6.6667,26.66666 v 13.33334 l -6.6667,26.66666 -20,19.99997 -20,6.6667 h -33.3333 v 40"
     id="path208"
     inkscape:connector-curvature="0"
     style="fill:none;stroke:#000000;stroke-width:7" />
  <path
     d="m 3303.9131,1103.1305 13.3333,6.6667 6.6667,13.3333 -6.6667,13.3333 -13.3333,6.6667 -13.3333,-6.6667 -6.6667,-13.3333 6.6667,-13.3333 13.3333,-6.6667"
     id="path210"
     inkscape:connector-curvature="0"
     style="fill:none;stroke:#000000;stroke-width:7" />
  <path
     d="m 3423.9131,1083.1305 20,-40 h 20 l 40,40 h 20 l 20,-40"
     id="path212"
     inkscape:connector-curvature="0"
     style="fill:none;stroke:#000000;stroke-width:7" />
  <path
     d="m 3583.9131,943.1305 v 60"
     id="path214"
     inkscape:connector-curvature="0"
     style="fill:none;stroke:#000000;stroke-width:7" />
  <path
     d="m 3623.9131,943.1305 v 60"
     id="path216"
     inkscape:connector-curvature="0"
     style="fill:none;stroke:#000000;stroke-width:7" />
  <path
     d="m 103.91312,1303.1305 v 240"
     id="path218"
     inkscape:connector-curvature="0"
     style="fill:none;stroke:#000000;stroke-width:7" />
  <path
     d="m 103.91312,1383.1305 h 40"
     id="path220"
     inkscape:connector-curvature="0"
     style="fill:none;stroke:#000000;stroke-width:7" />
  <path
     d="m 183.91312,1303.1305 v 240"
     id="path222"
     inkscape:connector-curvature="0"
     style="fill:none;stroke:#000000;stroke-width:7" />
  <path
     d="m 183.91312,1436.4638 6.66667,-26.6666 20,-20 20,-6.6667 h 26.66666 l 20,6.6667 20,20 6.66667,26.6666 v 106.6667"
     id="path224"
     inkscape:connector-curvature="0"
     style="fill:none;stroke:#000000;stroke-width:7" />
  <path
     d="m 343.91312,1449.7972 h 120 v -13.3334 l -6.66667,-26.6666 -20,-20 -20,-6.6667 h -26.66666 l -20,6.6667 -20,20 -6.66667,26.6666 v 53.3334 l 6.66667,26.6666 20,20 20,6.6667 h 26.66666 l 20,-6.6667 20,-20 6.66667,-26.6666"
     id="path226"
     inkscape:connector-curvature="0"
     style="fill:none;stroke:#000000;stroke-width:7" />
  <path
     d="m 703.91312,1383.1305 v 240"
     id="path228"
     inkscape:connector-curvature="0"
     style="fill:none;stroke:#000000;stroke-width:7" />
  <path
     d="m 703.91312,1436.4638 -6.66667,-26.6666 -20,-20 -20,-6.6667 h -26.66666 l -20,6.6667 -20,20 -6.66667,26.6666 v 53.3334 l 6.66667,26.6666 20,20 20,6.6667 h 26.66666 l 20,-6.6667 20,-20 6.66667,-26.6666"
     id="path230"
     inkscape:connector-curvature="0"
     style="fill:none;stroke:#000000;stroke-width:7" />
  <path
     d="m 743.91312,1383.1305 v 106.6667 l 6.66667,26.6666 20,20 20,6.6667 h 26.66666 l 20,-6.6667 20,-20 6.66667,-26.6666"
     id="path232"
     inkscape:connector-curvature="0"
     style="fill:none;stroke:#000000;stroke-width:7" />
  <path
     d="m 863.91312,1383.1305 v 160"
     id="path234"
     inkscape:connector-curvature="0"
     style="fill:none;stroke:#000000;stroke-width:7" />
  <path
     d="m 903.91312,1383.1305 v 160"
     id="path236"
     inkscape:connector-curvature="0"
     style="fill:none;stroke:#000000;stroke-width:7" />
  <path
     d="m 903.91312,1303.1305 v 40"
     id="path238"
     inkscape:connector-curvature="0"
     style="fill:none;stroke:#000000;stroke-width:7" />
  <path
     d="m 1063.9131,1436.4638 -6.6667,-26.6666 -20,-20 -20,-6.6667 h -26.66661 l -20,6.6667 -20,20 -6.66667,26.6666 v 53.3334 l 6.66667,26.6666 20,20 20,6.6667 h 26.66661 l 20,-6.6667 20,-20 6.6667,-26.6666"
     id="path240"
     inkscape:connector-curvature="0"
     style="fill:none;stroke:#000000;stroke-width:7" />
  <path
     d="m 1103.9131,1303.1305 v 240"
     id="path242"
     inkscape:connector-curvature="0"
     style="fill:none;stroke:#000000;stroke-width:7" />
  <path
     d="m 1103.9131,1463.1305 80,-80"
     id="path244"
     inkscape:connector-curvature="0"
     style="fill:none;stroke:#000000;stroke-width:7" />
  <path
     d="m 1143.9131,1423.1305 40,120"
     id="path246"
     inkscape:connector-curvature="0"
     style="fill:none;stroke:#000000;stroke-width:7" />
  <path
     d="m 1343.9131,1343.1305 -26.6667,13.3333 -13.3333,26.6667 v 160 l 13.3333,26.6667 26.6667,13.3333"
     id="path248"
     inkscape:connector-curvature="0"
     style="fill:none;stroke:#000000;stroke-width:7" />
  <path
     d="m 1383.9131,1303.1305 v 240"
     id="path250"
     inkscape:connector-curvature="0"
     style="fill:none;stroke:#000000;stroke-width:7" />
  <path
     d="m 1383.9131,1436.4638 6.6667,-26.6666 20,-20 20,-6.6667 h 26.6666 l 20,6.6667 20,20 6.6667,26.6666 v 53.3334 l -6.6667,26.6666 -20,20 -20,6.6667 h -26.6666 l -20,-6.6667 -20,-20 -6.6667,-26.6666"
     id="path252"
     inkscape:connector-curvature="0"
     style="fill:none;stroke:#000000;stroke-width:7" />
  <path
     d="m 1543.9131,1383.1305 v 160"
     id="path254"
     inkscape:connector-curvature="0"
     style="fill:none;stroke:#000000;stroke-width:7" />
  <path
     d="m 1543.9131,1436.4638 6.6667,-26.6666 20,-20 20,-6.6667 h 33.3333"
     id="path256"
     inkscape:connector-curvature="0"
     style="fill:none;stroke:#000000;stroke-width:7" />
  <path
     d="m 1783.9131,1436.4638 -6.6667,-26.6666 -20,-20 -20,-6.6667 h -26.6666 l -20,6.6667 -20,20 -6.6667,26.6666 v 53.3334 l 6.6667,26.6666 20,20 20,6.6667 h 26.6666 l 20,-6.6667 20,-20 6.6667,-26.6666 v -53.3334"
     id="path258"
     inkscape:connector-curvature="0"
     style="fill:none;stroke:#000000;stroke-width:7" />
  <path
     d="m 1823.9131,1383.1305 40,160 40,-160 40,160 40,-160"
     id="path260"
     inkscape:connector-curvature="0"
     style="fill:none;stroke:#000000;stroke-width:7" />
  <path
     d="m 2023.9131,1383.1305 v 160"
     id="path262"
     inkscape:connector-curvature="0"
     style="fill:none;stroke:#000000;stroke-width:7" />
  <path
     d="m 2023.9131,1436.4638 6.6667,-26.6666 20,-20 20,-6.6667 h 26.6666 l 20,6.6667 20,20 6.6667,26.6666 v 106.6667"
     id="path264"
     inkscape:connector-curvature="0"
     style="fill:none;stroke:#000000;stroke-width:7" />
  <path
     d="m 2183.9131,1343.1305 26.6667,13.3333 13.3333,26.6667 v 160 l -13.3333,26.6667 -26.6667,13.3333"
     id="path266"
     inkscape:connector-curvature="0"
     style="fill:none;stroke:#000000;stroke-width:7" />
  <path
     d="m 2343.9131,1543.1305 v -200 l 13.3333,-26.6667 26.6667,-13.3333"
     id="path268"
     inkscape:connector-curvature="0"
     style="fill:none;stroke:#000000;stroke-width:7" />
  <path
     d="m 2343.9131,1383.1305 h 40"
     id="path270"
     inkscape:connector-curvature="0"
     style="fill:none;stroke:#000000;stroke-width:7" />
  <path
     d="m 2543.9131,1436.4638 -6.6667,-26.6666 -20,-20 -20,-6.6667 h -26.6666 l -20,6.6667 -20,20 -6.6667,26.6666 v 53.3334 l 6.6667,26.6666 20,20 20,6.6667 h 26.6666 l 20,-6.6667 20,-20 6.6667,-26.6666 v -53.3334"
     id="path272"
     inkscape:connector-curvature="0"
     style="fill:none;stroke:#000000;stroke-width:7" />
  <path
     d="m 2583.9131,1383.1305 120,160"
     id="path274"
     inkscape:connector-curvature="0"
     style="fill:none;stroke:#000000;stroke-width:7" />
  <path
     d="m 2703.9131,1383.1305 -120,160"
     id="path276"
     inkscape:connector-curvature="0"
     style="fill:none;stroke:#000000;stroke-width:7" />
  <path
     d="m 2743.9131,1356.4638 6.6667,-26.6666 20,-20 20,-6.6667 h 26.6666 l 20,6.6667 20,20 6.6667,26.6666 v 13.3334 l -6.6667,26.6666 -20,20 -20,6.6667 h -33.3333 v 40"
     id="path278"
     inkscape:connector-curvature="0"
     style="fill:none;stroke:#000000;stroke-width:7" />
  <path
     d="m 2783.9131,1503.1305 13.3333,6.6667 6.6667,13.3333 -6.6667,13.3333 -13.3333,6.6667 -13.3333,-6.6667 -6.6667,-13.3333 6.6667,-13.3333 13.3333,-6.6667"
     id="path280"
     inkscape:connector-curvature="0"
     style="fill:none;stroke:#000000;stroke-width:7" />
  <path
     d="m 143.91312,1783.1305 v 200 l -13.33333,26.6667 -26.66667,13.3333"
     id="path282"
     inkscape:connector-curvature="0"
     style="fill:none;stroke:#000000;stroke-width:7" />
  <path
     d="m 143.91312,1703.1305 v 40"
     id="path284"
     inkscape:connector-curvature="0"
     style="fill:none;stroke:#000000;stroke-width:7" />
  <path
     d="m 183.91312,1783.1305 v 106.6667 l 6.66667,26.6666 20,20 20,6.6667 h 26.66666 l 20,-6.6667 20,-20 6.66667,-26.6666"
     id="path286"
     inkscape:connector-curvature="0"
     style="fill:none;stroke:#000000;stroke-width:7" />
  <path
     d="m 303.91312,1783.1305 v 160"
     id="path288"
     inkscape:connector-curvature="0"
     style="fill:none;stroke:#000000;stroke-width:7" />
  <path
     d="m 343.91312,1783.1305 v 160"
     id="path290"
     inkscape:connector-curvature="0"
     style="fill:none;stroke:#000000;stroke-width:7" />
  <path
     d="m 343.91312,1836.4638 6.66667,-26.6666 20,-20 20,-6.6667 h 26.66666 l 20,6.6667 20,20 6.66667,26.6666 v 106.6667"
     id="path292"
     inkscape:connector-curvature="0"
     style="fill:none;stroke:#000000;stroke-width:7" />
  <path
     d="m 463.91312,1836.4638 6.66667,-26.6666 20,-20 20,-6.6667 h 26.66666 l 20,6.6667 20,20 6.66667,26.6666 v 106.6667"
     id="path294"
     inkscape:connector-curvature="0"
     style="fill:none;stroke:#000000;stroke-width:7" />
  <path
     d="m 623.91312,1783.1305 v 240"
     id="path296"
     inkscape:connector-curvature="0"
     style="fill:none;stroke:#000000;stroke-width:7" />
  <path
     d="m 623.91312,1836.4638 6.66667,-26.6666 20,-20 20,-6.6667 h 26.66666 l 20,6.6667 20,20 6.66667,26.6666 v 53.3334 l -6.66667,26.6666 -20,20 -20,6.6667 h -26.66666 l -20,-6.6667 -20,-20 -6.66667,-26.6666"
     id="path298"
     inkscape:connector-curvature="0"
     style="fill:none;stroke:#000000;stroke-width:7" />
  <path
     d="m 903.91312,1823.1305 -13.33333,-26.6667 -26.66667,-13.3333 h -40 l -26.66667,13.3333 -13.33333,26.6667 13.33333,26.6667 26.66667,13.3333 h 40 l 26.66667,13.3333 13.33333,26.6667 -13.33333,26.6667 -26.66667,13.3333 h -40 l -26.66667,-13.3333 -13.33333,-26.6667"
     id="path300"
     inkscape:connector-curvature="0"
     style="fill:none;stroke:#000000;stroke-width:7" />
  <path
     d="m 1143.9131,1836.4638 -6.6667,-26.6666 -20,-20 -20,-6.6667 h -26.6666 l -20,6.6667 -20,20 -6.6667,26.6666 v 53.3334 l 6.6667,26.6666 20,20 20,6.6667 h 26.6666 l 20,-6.6667 20,-20 6.6667,-26.6666 v -53.3334"
     id="path302"
     inkscape:connector-curvature="0"
     style="fill:none;stroke:#000000;stroke-width:7" />
  <path
     d="m 1183.9131,1783.1305 60,160 60,-160"
     id="path304"
     inkscape:connector-curvature="0"
     style="fill:none;stroke:#000000;stroke-width:7" />
  <path
     d="m 1343.9131,1849.7972 h 120 v -13.3334 l -6.6667,-26.6666 -20,-20 -20,-6.6667 h -26.6666 l -20,6.6667 -20,20 -6.6667,26.6666 v 53.3334 l 6.6667,26.6666 20,20 20,6.6667 h 26.6666 l 20,-6.6667 20,-20 6.6667,-26.6666"
     id="path306"
     inkscape:connector-curvature="0"
     style="fill:none;stroke:#000000;stroke-width:7" />
  <path
     d="m 1503.9131,1783.1305 v 160"
     id="path308"
     inkscape:connector-curvature="0"
     style="fill:none;stroke:#000000;stroke-width:7" />
  <path
     d="m 1503.9131,1836.4638 6.6667,-26.6666 20,-20 20,-6.6667 h 33.3333"
     id="path310"
     inkscape:connector-curvature="0"
     style="fill:none;stroke:#000000;stroke-width:7" />
  <path
     d="m 1703.9131,1703.1305 v 240"
     id="path312"
     inkscape:connector-curvature="0"
     style="fill:none;stroke:#000000;stroke-width:7" />
  <path
     d="m 1703.9131,1783.1305 h 40"
     id="path314"
     inkscape:connector-curvature="0"
     style="fill:none;stroke:#000000;stroke-width:7" />
  <path
     d="m 1783.9131,1703.1305 v 240"
     id="path316"
     inkscape:connector-curvature="0"
     style="fill:none;stroke:#000000;stroke-width:7" />
  <path
     d="m 1783.9131,1836.4638 6.6667,-26.6666 20,-20 20,-6.6667 h 26.6666 l 20,6.6667 20,20 6.6667,26.6666 v 106.6667"
     id="path318"
     inkscape:connector-curvature="0"
     style="fill:none;stroke:#000000;stroke-width:7" />
  <path
     d="m 1943.9131,1849.7972 h 120 v -13.3334 l -6.6667,-26.6666 -20,-20 -20,-6.6667 h -26.6666 l -20,6.6667 -20,20 -6.6667,26.6666 v 53.3334 l 6.6667,26.6666 20,20 20,6.6667 h 26.6666 l 20,-6.6667 20,-20 6.6667,-26.6666"
     id="path320"
     inkscape:connector-curvature="0"
     style="fill:none;stroke:#000000;stroke-width:7" />
  <path
     d="m 2183.9131,1703.1305 v 240"
     id="path322"
     inkscape:connector-curvature="0"
     style="fill:none;stroke:#000000;stroke-width:7" />
  <path
     d="m 2343.9131,1783.1305 v 160"
     id="path324"
     inkscape:connector-curvature="0"
     style="fill:none;stroke:#000000;stroke-width:7" />
  <path
     d="m 2343.9131,1836.4638 -6.6667,-26.6666 -20,-20 -20,-6.6667 h -26.6666 l -20,6.6667 -20,20 -6.6667,26.6666 v 53.3334 l 6.6667,26.6666 20,20 20,6.6667 h 26.6666 l 20,-6.6667 20,-20 6.6667,-26.6666"
     id="path326"
     inkscape:connector-curvature="0"
     style="fill:none;stroke:#000000;stroke-width:7" />
  <path
     d="m 2383.9131,1783.1305 h 120 l -120,160 h 120"
     id="path328"
     inkscape:connector-curvature="0"
     style="fill:none;stroke:#000000;stroke-width:7" />
  <path
     d="m 2543.9131,1783.1305 60,160"
     id="path330"
     inkscape:connector-curvature="0"
     style="fill:none;stroke:#000000;stroke-width:7" />
  <path
     d="m 2663.9131,1783.1305 -60,160 -20,40 -40,40"
     id="path332"
     inkscape:connector-curvature="0"
     style="fill:none;stroke:#000000;stroke-width:7" />
  <path
     d="m 2903.9131,1703.1305 v 240"
     id="path334"
     inkscape:connector-curvature="0"
     style="fill:none;stroke:#000000;stroke-width:7" />
  <path
     d="m 2903.9131,1836.4638 -6.6667,-26.6666 -20,-20 -20,-6.6667 h -26.6666 l -20,6.6667 -20,20 -6.6667,26.6666 v 53.3334 l 6.6667,26.6666 20,20 20,6.6667 h 26.6666 l 20,-6.6667 20,-20 6.6667,-26.6666"
     id="path336"
     inkscape:connector-curvature="0"
     style="fill:none;stroke:#000000;stroke-width:7" />
  <path
     d="m 3063.9131,1836.4638 -6.6667,-26.6666 -20,-20 -20,-6.6667 h -26.6666 l -20,6.6667 -20,20 -6.6667,26.6666 v 53.3334 l 6.6667,26.6666 20,20 20,6.6667 h 26.6666 l 20,-6.6667 20,-20 6.6667,-26.6666 v -53.3334"
     id="path338"
     inkscape:connector-curvature="0"
     style="fill:none;stroke:#000000;stroke-width:7" />
  <path
     d="m 3223.9131,1836.4638 -6.6667,-26.6666 -20,-20 -20,-6.6667 h -26.6666 l -20,6.6667 -20,20 -6.6667,26.6666 v 53.3334 l 6.6667,26.6666 20,20 20,6.6667 h 26.6666 l 20,-6.6667 20,-20 6.6667,-26.6666"
     id="path340"
     inkscape:connector-curvature="0"
     style="fill:none;stroke:#000000;stroke-width:7" />
  <path
     d="m 3223.9131,1783.1305 v 186.6667 l -6.6667,26.6666 -20,20 -20,6.6667 h -40"
     id="path342"
     inkscape:connector-curvature="0"
     style="fill:none;stroke:#000000;stroke-width:7" />
  <path
     d="m 3283.9131,1903.1305 13.3333,6.6667 6.6667,13.3333 -6.6667,13.3333 -13.3333,6.6667 -13.3333,-6.6667 -6.6667,-13.3333 6.6667,-13.3333 13.3333,-6.6667"
     id="path344"
     inkscape:connector-curvature="0"
     style="fill:none;stroke:#000000;stroke-width:7" />
  <path
     d="m 223.91312,2103.1305 v 240"
     id="path346"
     inkscape:connector-curvature="0"
     style="fill:none;stroke:#000000;stroke-width:7" />
  <path
     d="m 223.91312,2236.4638 -6.66667,-26.6666 -20,-20 -20,-6.6667 h -26.66666 l -20,6.6667 -20,20 -6.66667,26.6666 v 53.3334 l 6.66667,26.6666 20,20 20,6.6667 h 26.66666 l 20,-6.6667 20,-20 6.66667,-26.6666"
     id="path348"
     inkscape:connector-curvature="0"
     style="fill:none;stroke:#000000;stroke-width:7" />
  <path
     d="m 383.91312,2156.4638 -6.66667,-26.6666 -20,-20 -20,-6.6667 h -26.66666 l -20,6.6667 -20,20 -6.66667,26.6666 v 133.3334 l 6.66667,26.6666 20,20 20,6.6667 h 26.66666 l 20,-6.6667 20,-20 6.66667,-26.6666 v -53.3334 l -6.66667,-26.6666 -20,-20 -20,-6.6667 h -26.66666 l -20,6.6667 -20,20 -6.66667,26.6666"
     id="path350"
     inkscape:connector-curvature="0"
     style="fill:none;stroke:#000000;stroke-width:7" />
  <path
     d="m 423.91312,2183.1305 h 120 l -6.66667,26.6667 -20,33.3333 -53.33333,20 53.33333,13.3333 26.66667,26.6667 v 66.6667 l -6.66667,26.6666 -20,20 -20,6.6667 h -26.66666 l -20,-6.6667 -20,-20 -6.66667,-26.6666"
     id="path352"
     inkscape:connector-curvature="0"
     style="fill:none;stroke:#000000;stroke-width:7" />
  <path
     d="m 703.91312,2236.4638 -6.66667,-26.6666 -20,-20 -20,-6.6667 h -26.66666 l -20,6.6667 -20,20 -6.66667,26.6666 v 53.3334 l 6.66667,26.6666 20,20 20,6.6667 h 26.66666 l 20,-6.6667 20,-20 6.66667,-26.6666 v -53.3334"
     id="path354"
     inkscape:connector-curvature="0"
     style="fill:none;stroke:#000000;stroke-width:7" />
  <path
     d="m 683.91312,2203.1305 -80,120"
     id="path356"
     inkscape:connector-curvature="0"
     style="fill:none;stroke:#000000;stroke-width:7" />
  <path
     d="m 743.91312,2183.1305 v 80 l 13.33333,26.6667 26.66667,13.3333 h 80"
     id="path358"
     inkscape:connector-curvature="0"
     style="fill:none;stroke:#000000;stroke-width:7" />
  <path
     d="m 863.91312,2183.1305 v 240"
     id="path360"
     inkscape:connector-curvature="0"
     style="fill:none;stroke:#000000;stroke-width:7" />
  <path
     d="m 903.91312,2343.1305 v -200 l 13.33333,-26.6667 26.66667,-13.3333"
     id="path362"
     inkscape:connector-curvature="0"
     style="fill:none;stroke:#000000;stroke-width:7" />
  <path
     d="m 903.91312,2183.1305 h 40"
     id="path364"
     inkscape:connector-curvature="0"
     style="fill:none;stroke:#000000;stroke-width:7" />
  <path
     d="m 1103.9131,2103.1305 v 240"
     id="path366"
     inkscape:connector-curvature="0"
     style="fill:none;stroke:#000000;stroke-width:7" />
  <path
     d="m 1103.9131,2236.4638 -6.6667,-26.6666 -20,-20 -20,-6.6667 h -26.6666 l -20,6.6667 -20.00001,20 -6.66667,26.6666 v 53.3334 l 6.66667,26.6666 20.00001,20 20,6.6667 h 26.6666 l 20,-6.6667 20,-20 6.6667,-26.6666"
     id="path368"
     inkscape:connector-curvature="0"
     style="fill:none;stroke:#000000;stroke-width:7" />
  <path
     d="m 1143.9131,2183.1305 h 120 l -120,240"
     id="path370"
     inkscape:connector-curvature="0"
     style="fill:none;stroke:#000000;stroke-width:7" />
  <path
     d="m 1423.9131,2183.1305 -40,160"
     id="path372"
     inkscape:connector-curvature="0"
     style="fill:none;stroke:#000000;stroke-width:7" />
  <path
     d="m 1463.9131,2183.1305 -40,160"
     id="path374"
     inkscape:connector-curvature="0"
     style="fill:none;stroke:#000000;stroke-width:7" />
  <path
     d="m 1393.9131,2243.1305 h 70"
     id="path376"
     inkscape:connector-curvature="0"
     style="fill:none;stroke:#000000;stroke-width:7" />
  <path
     d="m 1383.9131,2283.1305 h 70"
     id="path378"
     inkscape:connector-curvature="0"
     style="fill:none;stroke:#000000;stroke-width:7" />
  <path
     d="m 1503.9131,2223.1305 40,-40 v 160"
     id="path380"
     inkscape:connector-curvature="0"
     style="fill:none;stroke:#000000;stroke-width:7" />
  <path
     d="m 1663.9131,2143.1305 -80,240"
     id="path382"
     inkscape:connector-curvature="0"
     style="fill:none;stroke:#000000;stroke-width:7" />
  <path
     d="m 1703.9131,2229.7972 6.6667,-26.6667 20,-20 20,-6.6667 h 26.6666 l 20,6.6667 20,20 6.6667,26.6667 -6.6667,26.6666 -86.6666,33.3334 -20,20 -6.6667,20 v 13.3333 h 120"
     id="path384"
     inkscape:connector-curvature="0"
     style="fill:none;stroke:#000000;stroke-width:7" />
</svg>
