<?xml version="1.0" encoding="utf-8" ?>
<svg baseProfile="tiny" height="100" version="1.2" width="100" xmlns="http://www.w3.org/2000/svg" xmlns:ev="http://www.w3.org/2001/xml-events" xmlns:xlink="http://www.w3.org/1999/xlink">
  <defs/>
  <path d="M5.0,4.0 L5.0,8.0" fill="none" stroke="black" stroke-width="0.2"/>
  <path d="M5.0,5.0 L4.0,4.0 L3.0,4.0 L2.0,5.0 L2.0,7.0 L3.0,8.0 L4.0,8.0 L5.0,7.0" fill="none" stroke="black" stroke-width="0.2"/>
  <path d="M7,2 L7.0,8.0" fill="none" stroke="black" stroke-width="0.2"/>
  <path d="M7.0,5.0 L8.0,4.0 L9.0,4.0 L10.0,5.0 L10.0,7.0 L9.0,8.0 L8.0,8.0 L7.0,7.0" fill="none" stroke="black" stroke-width="0.2"/>
  <path d="M15.0,5.0 L14.0,4.0 L13.0,4.0 L12.0,5.0 L12.0,7.0 L13.0,8.0 L14.0,8.0 L15.0,7.0" fill="none" stroke="black" stroke-width="0.2"/>
  <path d="M20.0,2.0 L20.0,8.0" fill="none" stroke="black" stroke-width="0.2"/>
  <path d="M20.0,5.0 L19.0,4.0 L18.0,4.0 L17.0,5.0 L17.0,7.0 L18.0,8.0 L19.0,8.0 L20.0,7.0" fill="none" stroke="black" stroke-width="0.2"/>
  <path d="M23.0,6.0 L24.0,6.0 L25.0,5.0 L24.0,4.0 L23.0,4.0 L22.0,5.0 L22.0,7.0 L23.0,8.0 L24.0,8.0 L25.0,7.0" fill="none" stroke="black" stroke-width="0.2"/>
  <path d="M27.0,8.0 L27.0,3.0 L28.0,2.0" fill="none" stroke="black" stroke-width="0.2"/>
  <path d="M27.0,4.0 L28.0,4.0" fill="none" stroke="black" stroke-width="0.2"/>
  <path d="M33.0,7.0 L32.0,8.0 L31.0,8.0 L30.0,7.0 L30.0,5.0 L31.0,4.0 L32.0,4.0 L33.0,5.0 L33.0,9.0 L32.0,10.0 L31.0,10.0 L30.0,9.0" fill="none" stroke="black" stroke-width="0.2"/>
  <path d="M35,2 L35.0,8.0" fill="none" stroke="black" stroke-width="0.2"/>
  <path d="M35.0,5.0 L36.0,4.0 L37.0,4.0 L38.0,5.0 L38.0,8.0" fill="none" stroke="black" stroke-width="0.2"/>
  <path d="M40.0,4.0 L40.0,8.0" fill="none" stroke="black" stroke-width="0.2"/>
  <path d="M40,2 L40.0,3.0" fill="none" stroke="black" stroke-width="0.2"/>
  <path d="M44.0,4.0 L44.0,9.0 L43.0,10.0 L42.0,9.0" fill="none" stroke="black" stroke-width="0.2"/>
  <path d="M44.0,2.0 L44.0,3.0" fill="none" stroke="black" stroke-width="0.2"/>
  <path d="M2,14 L2.0,20.0" fill="none" stroke="black" stroke-width="0.2"/>
  <path d="M2.0,18.0 L4.0,16.0" fill="none" stroke="black" stroke-width="0.2"/>
  <path d="M3.0,17.0 L4.0,20.0" fill="none" stroke="black" stroke-width="0.2"/>
  <path d="M6,14 L6.0,20.0" fill="none" stroke="black" stroke-width="0.2"/>
  <path d="M8.0,16.0 L8.0,20.0" fill="none" stroke="black" stroke-width="0.2"/>
  <path d="M8.0,17.0 L9.0,16.0 L10.0,16.0 L11.0,17.0 L11.0,20.0" fill="none" stroke="black" stroke-width="0.2"/>
  <path d="M11.0,17.0 L12.0,16.0 L13.0,16.0 L14.0,17.0 L14.0,20.0" fill="none" stroke="black" stroke-width="0.2"/>
  <path d="M16.0,16.0 L16.0,20.0" fill="none" stroke="black" stroke-width="0.2"/>
  <path d="M16.0,17.0 L17.0,16.0 L18.0,16.0 L19.0,17.0 L19.0,20.0" fill="none" stroke="black" stroke-width="0.2"/>
  <path d="M24.0,17.0 L23.0,16.0 L22.0,16.0 L21.0,17.0 L21.0,19.0 L22.0,20.0 L23.0,20.0 L24.0,19.0 L24.0,17.0" fill="none" stroke="black" stroke-width="0.2"/>
  <path d="M26.0,16.0 L26.0,22" fill="none" stroke="black" stroke-width="0.2"/>
  <path d="M26.0,17.0 L27.0,16.0 L28.0,16.0 L29.0,17.0 L29.0,19.0 L28.0,20.0 L27.0,20.0 L26.0,19.0" fill="none" stroke="black" stroke-width="0.2"/>
  <path d="M34.0,16.0 L34.0,22" fill="none" stroke="black" stroke-width="0.2"/>
  <path d="M34.0,17.0 L33.0,16.0 L32.0,16.0 L31.0,17.0 L31.0,19.0 L32.0,20.0 L33.0,20.0 L34.0,19.0" fill="none" stroke="black" stroke-width="0.2"/>
  <path d="M36.0,16.0 L36.0,20.0" fill="none" stroke="black" stroke-width="0.2"/>
  <path d="M36.0,17.0 L37.0,16.0 L38.0,16.0" fill="none" stroke="black" stroke-width="0.2"/>
  <path d="M43.0,17.0 L42.0,16.0 L41.0,16.0 L40.0,17.0 L41.0,18.0 L42.0,18.0 L43.0,19.0 L42.0,20.0 L41.0,20.0 L40.0,19.0" fill="none" stroke="black" stroke-width="0.2"/>
  <path d="M45,14 L45.0,20.0" fill="none" stroke="black" stroke-width="0.2"/>
  <path d="M45.0,16.0 L46.0,16.0" fill="none" stroke="black" stroke-width="0.2"/>
  <path d="M2.0,28.0 L2.0,31.0 L3.0,32.0 L4.0,32.0 L5.0,31.0" fill="none" stroke="black" stroke-width="0.2"/>
  <path d="M5.0,28.0 L5.0,32.0" fill="none" stroke="black" stroke-width="0.2"/>
  <path d="M7.0,28.0 L8.5,32.0 L10.0,28.0" fill="none" stroke="black" stroke-width="0.2"/>
  <path d="M12.0,28.0 L13.0,32.0 L14.0,28.0 L15.0,32.0 L16.0,28.0" fill="none" stroke="black" stroke-width="0.2"/>
  <path d="M18.0,28.0 L21.0,32.0" fill="none" stroke="black" stroke-width="0.2"/>
  <path d="M21.0,28.0 L18.0,32.0" fill="none" stroke="black" stroke-width="0.2"/>
  <path d="M23.0,28.0 L23.0,31.0 L24.0,32.0 L25.0,32.0 L26.0,31.0" fill="none" stroke="black" stroke-width="0.2"/>
  <path d="M26.0,28.0 L26.0,33.0 L25.0,34.0 L24.0,34.0 L23.0,33.0" fill="none" stroke="black" stroke-width="0.2"/>
  <path d="M28.0,28.0 L31,28.0 L28.0,32.0 L31,32.0" fill="none" stroke="black" stroke-width="0.2"/>
  <path d="M5.0,41.0 L4.0,40.0 L3.0,40.0 L2.0,41.0 L2.0,43.0 L3.0,44.0 L4.0,44.0 L5.0,43.0 L5.0,41.0" fill="none" stroke="black" stroke-width="0.2"/>
  <path d="M3.0,42.0 L4.0,42.0" fill="none" stroke="black" stroke-width="0.2"/>
  <path d="M7.0,41.0 L8.0,40.0 L8.0,44.0" fill="none" stroke="black" stroke-width="0.2"/>
  <path d="M10.0,41.0 L11.0,40.0 L12.0,40.0 L13.0,41.0 L10.0,44.0 L13.0,44.0" fill="none" stroke="black" stroke-width="0.2"/>
  <path d="M15.0,40.0 L18.0,40.0 L16.0,42.0 L18.0,43.0 L18.0,45.0 L17.0,46.0 L16.0,46.0 L15.0,45.0" fill="none" stroke="black" stroke-width="0.2"/>
  <path d="M20.0,40.0 L20.0,42.0 L21.0,43.0 L23.0,43.0" fill="none" stroke="black" stroke-width="0.2"/>
  <path d="M23.0,40.0 L23.0,46.0" fill="none" stroke="black" stroke-width="0.2"/>
  <path d="M28.0,40.0 L25.0,40.0 L25.0,42.0 L27.0,42.0 L28.0,43.0 L28.0,45.0 L27.0,46.0 L25.0,46.0" fill="none" stroke="black" stroke-width="0.2"/>
  <path d="M33.0,39.0 L32.0,38.0 L31.0,38.0 L30.0,39.0 L30.0,43.0 L31.0,44.0 L32.0,44.0 L33.0,43.0 L33.0,41.0 L32.0,40.0 L31.0,40.0 L30.0,41.0" fill="none" stroke="black" stroke-width="0.2"/>
  <path d="M31.0,42.0 L32.0,42.0" fill="none" stroke="black" stroke-width="0.2"/>
  <path d="M35.0,40.0 L38,40.0 L35.0,46.0" fill="none" stroke="black" stroke-width="0.2"/>
  <path d="M41.0,41.0 L40.0,40.0 L40.0,39.0 L41.0,38.0 L42.0,38.0 L43.0,39.0 L43.0,40.0 L42.0,41.0 L41.0,41.0 L40.0,42.0 L40.0,43.0 L41.0,44.0 L42.0,44.0 L43.0,43.0 L43.0,42.0 L42.0,41.0" fill="none" stroke="black" stroke-width="0.2"/>
  <path d="M48.0,43.0 L47.0,44.0 L46.0,44.0 L45.0,43.0 L45.0,41.0 L46.0,40.0 L47.0,40.0 L48.0,41.0 L48.0,45.0 L47.0,46.0 L46.0,46.0 L45.0,45.0" fill="none" stroke="black" stroke-width="0.2"/>
  <path d="M46.0,42.0 L47.0,42.0" fill="none" stroke="black" stroke-width="0.2"/>
  <path d="M2,50 L2.0,54.0" fill="none" stroke="black" stroke-width="0.2"/>
  <path d="M2.0,55.0 L2.0,56.0" fill="none" stroke="black" stroke-width="0.2"/>
  <path d="M5.0,51.0 L4.0,52.0 L4.0,55.0 L5.0,56.0" fill="none" stroke="black" stroke-width="0.2"/>
  <path d="M7.0,51.0 L8.0,52.0 L8.0,55.0 L7.0,56.0" fill="none" stroke="black" stroke-width="0.2"/>
  <path d="M11.0,51.0 L10.0,51.0 L10.0,56.0 L11.0,56.0" fill="none" stroke="black" stroke-width="0.2"/>
  <path d="M13.0,51.0 L14.0,51.0 L14.0,56.0 L13.0,56.0" fill="none" stroke="black" stroke-width="0.2"/>
  <path d="M16.0,54.0 L18.0,54.0" fill="none" stroke="black" stroke-width="0.2"/>
  <path d="M17.0,53.0 L17.0,55.0" fill="none" stroke="black" stroke-width="0.2"/>
  <path d="M21.0,53.0 L21.0,54.0" fill="none" stroke="black" stroke-width="0.2"/>
  <path d="M20.0,53.75 L21.0,54.0 L22.0,53.75" fill="none" stroke="black" stroke-width="0.2"/>
  <path d="M20.25,55.0 L21.0,54.0 L21.75,55.0" fill="none" stroke="black" stroke-width="0.2"/>
  <path d="M24.0,54.0 L26.0,54.0" fill="none" stroke="black" stroke-width="0.2"/>
  <path d="M28.0,51.0 L29.0,50.0 L30.0,50.0 L31.0,51.0 L31.0,52.0 L30.0,53.0 L29.0,53.0 L29.0,54.0" fill="none" stroke="black" stroke-width="0.2"/>
  <path d="M29.0,55.0 L29.0,56.0" fill="none" stroke="black" stroke-width="0.2"/>
  <path d="M34.0,56.0 L33.0,57.0" fill="none" stroke="black" stroke-width="0.2"/>
  <path d="M3.0,68.0 L2.0,68.0" fill="none" stroke="black" stroke-width="0.2"/>
  <path d="M5.0,64.0 L7.0,68.0" fill="none" stroke="black" stroke-width="0.2"/>
  <path d="M9.0,64.0 L9.0,65.0" fill="none" stroke="black" stroke-width="0.2"/>
  <path d="M9.0,67.0 L9.0,68.0" fill="none" stroke="black" stroke-width="0.2"/>
  <path d="M12.0,64.0 L12.0,65.0" fill="none" stroke="black" stroke-width="0.2"/>
  <path d="M12.0,68.0 L11.0,69.0" fill="none" stroke="black" stroke-width="0.2"/>
  <path d="M16.0,64.0 L14.0,68.0" fill="none" stroke="black" stroke-width="0.2"/>
  <path d="M18.0,65.5 L20.0,65.5" fill="none" stroke="black" stroke-width="0.2"/>
  <path d="M18.0,67.0 L20.0,67.0" fill="none" stroke="black" stroke-width="0.2"/>
</svg>
